<?xml version="1.0" encoding="utf-8" ?>
<svg baseProfile="full" height="300mm" version="1.1" viewBox="0,0,200,300" width="200mm" xmlns="http://www.w3.org/2000/svg" xmlns:ev="http://www.w3.org/2001/xml-events" xmlns:xlink="http://www.w3.org/1999/xlink"><defs /><rect fill="#222222" height="300" width="200" x="0" y="0" /><text fill="#FFFFFF" style="font-size:12px; font-family:Arial; font-weight:bold;" x="10" y="20">Over 10km Runs</text><text fill="#FFFFFF" style="font-size:4px; font-family:Arial" x="10" y="280">ATHLETE</text><text fill="#FFFFFF" style="font-size:9px; font-family:Arial" x="10" y="290">OrdinarySk</text><text fill="#FFFFFF" style="font-size:4px; font-family:Arial" x="120" y="280">STATISTICS</text><text fill="#FFFFFF" style="font-size:3px; font-family:Arial" x="120" y="285">Number: 7</text><text fill="#FFFFFF" style="font-size:3px; font-family:Arial" x="120" y="290">Weekly: 1.2</text><text fill="#FFFFFF" style="font-size:3px; font-family:Arial" x="141" y="285">Total: 168.4 km</text><text fill="#FFFFFF" style="font-size:3px; font-family:Arial" x="141" y="290">Avg: 24.1 km</text><text fill="#FFFFFF" style="font-size:3px; font-family:Arial" x="167" y="285">Min: 10.2 km</text><text fill="#FFFFFF" style="font-size:3px; font-family:Arial" x="167" y="290">Max: 38.6 km</text><polyline fill="none" points="47.595035397447646,58.13119720333634 47.56116139437654,58.168972990511975 47.56116139437654,58.14378913605469 47.5563222511264,58.13749317014663 46.55461958955857,58.74190172640374 46.46267586702015,58.82374807042288 45.89165695849806,59.41555549742043 45.8287480957224,59.46592171382872 45.277085760375485,59.818483589977404 45.00125459273113,59.95069355418673 44.749619141512085,60.01994623164501 43.87857334886212,60.04512899601468 43.79146876960294,60.05772037271163 43.66081190071418,60.11438152259143 43.55435074827983,60.108085842941364 43.37046330317389,60.177338268913445 43.11882785195485,60.29695583499779 43.08979299222119,60.2906601818504 42.973653553199256,60.31584278895025 42.75105296174297,60.3976861609226 42.54780894346186,60.492120628874545 42.09776861727005,60.62432853837163 41.100905099039664,61.014654299371614 41.06703109596856,61.014654299371614 40.99928308988456,61.09020081487688 40.78152164173662,61.37349907534008 40.675060489273164,61.461635934309015 40.07500672104652,62.14783820703451 40.036293574696174,62.217087374236144 39.620127251546364,62.77737202218486 39.5572183887416,62.834029617086344 39.073304059536895,63.15508792287801 39.0297517698782,63.0921355013088 38.87973832784337,63.25581160719594 38.91361233085627,63.2998781455135 38.28452370286686,63.92939523033783 38.1877408370201,63.986051319567196 38.01837082175189,64.04900244297824 37.703826507757185,64.20637985159192 37.611882785189664,64.26303557882056 36.64889327000128,64.34487149853157 36.55211040418362,64.34487149853157 34.87292768168845,64.21897001958496 33.53732413300895,64.23156018394366 33.387310690945014,64.22526510222451 31.901693700172473,64.09306817498873 31.780715117871296,64.03011711555882 31.02096962093492,62.9725256484744 30.996773904480506,62.859210746632016 30.488663858763175,61.28536203716794 30.45962899902952,61.10908742319225 30.299937270377995,60.68728454403026 30.203154404531233,60.56137244129786 29.60310063624638,59.925510734970885 29.191773456404917,59.52258363733199 29.090151447278913,59.409259716230736 27.812617618066724,58.32637174938645 26.77220181017765,57.69677328418038 26.53508378888364,57.57085249361626 26.385070346819703,57.47011559777093 26.35603548702784,57.42604313221091 25.81405143829761,57.25604891662442 25.770499148668023,57.23716062929452 25.71726857245085,57.19308792681841 25.678555426100502,57.18679182283449 25.141410520649515,56.777543100248295 25.06882337128627,56.76495077059735 25.063984227977926,56.79013542626126 25.049466798081994,56.802727748632606 24.299399587791413,56.50680720607488 24.289721301174723,56.51939961073731 23.350927502469858,56.23606962059057 21.908862801326904,55.751256229887076 21.79272336230497,55.69458937565287 20.641007258731406,55.228659098382195 20.486154673359124,55.15310236518417 20.37001523433719,55.11532394918686 20.316784658120014,55.10273113652147 18.70534994173795,54.63049802054957 17.108432655251818,54.03862524861688 16.982614929642295,54.00084586105004 16.203512859588955,53.686016350511636 15.985751411441015,53.5474906413001 15.806703109585214,53.38377786857018 15.656689667521277,53.2389545156002 15.58410251812893,53.15709762372717 14.417868984688539,51.37509773158308 13.890402365796035,50.663536665371794 13.861367506033275,50.63834844887242 13.803297786565963,50.41795093011024 13.072587149392348,50.865041870089044 13.014517429895932,50.902823991644254 13.004839143308345,50.92801205438809 13.0,50.98468514201886 13.120978582301177,51.186188853302156 13.150013442063937,51.20507977818124 13.86620664934162,52.300739330796205 14.650147862703307,53.39637118073006 14.727574155404,53.471930976880685 15.511515368765686,54.46678933915973 15.622815664479276,54.54864375716352 16.634196612605592,54.82568833238474 16.730979478452355,54.81309543556927 16.89067120710388,54.850874115039915 17.15682408818975,55.071249088898185 17.7907518594875,55.05235984934188 17.964961018034955,54.93902423905456 17.839143292425433,55.008284925017506 17.93108701496385,55.37347580216738 17.950443588139024,55.40495763025319 17.97463930459344,55.41755035508686 18.02303073753137,55.40495763025319 18.110135316790547,55.32940120442436 18.18756160949124,55.36088306452439 18.235953042370966,55.36717943379335 18.894076530152233,55.26643741559383 18.96666367954458,55.45532850763993 18.976341966103064,55.66940408333903 19.111837978329277,55.52458836842561 19.10699883502093,55.59384811855125 19.479612868541153,55.80792301000838 19.557039161212742,55.751256229887076 20.84909042029176,55.8771823073148 20.970069002592936,55.92755263582512 22.155659109237604,56.343105612348154 24.105833856068784,56.972723742295784 24.260686441411963,57.03568505220028 25.630163993191672,57.74714149797728 26.496370642533293,58.30118798638796 26.578636078484124,58.33896362539599 26.617349224863574,58.33896362539599 27.773904471716378,59.037807008742675 28.601397974736756,59.83107503250358 29.428891477757134,60.64321534968258 29.511156913707964,60.7313536935726 30.072497535613365,61.7512272091044 30.101532395376125,61.82047700991825 30.449950712441932,63.35023984871441 30.49350300207152,63.513914980070695 31.08387848373968,64.35746162633222 31.214535352628445,64.46447756485941 32.81145263911458,64.84847375784739 33.45505869702902,64.87365371724809 33.88574245007476,64.94919350769487 33.890581593324896,65.0184381999461 35.42459001703537,65.18840197567624 36.034322071878705,65.23246654951436 37.12312931267661,65.70458417261398 36.82794157182798,66.25852896163633 35.46814230666496,68.88967005665108 35.48749887984013,69.53798891664337 35.560086029203376,69.58204906988976 36.02464378532022,69.0722074151854 36.77955013891915,67.6433599688753 37.64575678826077,65.95637813598296 37.74253965410753,65.80530193344748 38.94264719061903,64.5337230313744 39.436239806440426,63.967165964731976 39.86208441617782,63.551686076451006 40.95573080025497,62.626284740352276 41.34286226364202,62.330403954671056 41.80742001972976,62.16042897293664 41.880007169093005,62.10377049757517 41.91388117216411,62.10377049757517 41.909042028855765,62.097475106846105 42.84783582758973,61.83936330002325 43.805986199498875,61.68197729766325 44.996415449422784,61.47422689951782 45.7948740926513,61.10279188799905 45.751321803050814,61.008358750474144 45.88197867193958,60.48582500408156 45.998118110961514,60.422868705834844 46.588493592629675,59.868849338174186 46.73366789138527,59.71775191799679 46.980464199295966,59.535175165819965 47.1304776413599,59.38407658242795 47.265973653586116,59.26445649701054 47.35307823281619,59.20149842469618 47.512769961496815,59.11965279398646 47.65794426025241,59.081877835389605 49.52101442782441,58.918185967642785 49.68070615650504,58.899298404667206 51.72282462584553,58.74190172640374 53.48427278432064,58.65375933689211 53.54234250381705,58.62857576411989 53.60041222334257,58.61598397222406 55.4102518146683,58.49006585226016 56.929742808511946,58.03675759131875 57.26848283896106,57.87935778067185 59.47029303704039,56.95383533147469 61.14463661619811,56.50051100235578 62.33506586612202,56.19199590008793 62.46572273503989,56.147922134765395 62.659288466733415,56.1038483246266 62.81414105207659,56.0534782010036 64.44493234160473,56.00940429481852 65.78537503362168,56.26125458360548 65.95958419214003,56.317920696888905 67.0,56.07866327011652 67.0,55.977922905807645 66.66609911283012,55.14680596481048 65.11757325925282,54.731241517070885 65.03530782330199,54.718648592828686 64.8901335245173,54.69346273332849 64.31427547271596,54.661980388373195 64.20781432028161,54.63049802054957 63.36580338742351,54.58642266717288 63.3754816740111,54.56123673081311 63.3754816740111,54.58642266717288 63.39483824715717,54.60531210981935" stroke="#ff9d00" stroke-linecap="round" stroke-linejoin="round" stroke-width="0.5"><title>2024-04-21 21.1km</title><desc>11229738329</desc></polyline><polyline fill="none" points="187.0,76.60009286555942 186.97709646145813,76.57028412769432 186.92474551624036,76.45530728317681 186.87239457100804,76.39994790077253 186.76114881239482,76.21683535201919 186.3587009209732,75.68026640786229 185.81228793019545,74.88817047666089 185.22333979640098,74.10031187534514 185.1611730489676,74.02791299463934 184.41190014540916,73.31669094567042 184.37590887057013,73.24854900435275 183.92111003393074,72.58841573964492 183.4630392632098,71.97937636896131 183.15220552592655,71.7238316019284 181.03526417838293,70.15218225170793 179.5203587009164,69.00640096930874 179.22915656809346,68.80194457648395 179.06228793019545,68.6698990640034 178.8070770722261,68.49099774228125 178.67947164323414,68.39302750765273 178.53550654386345,68.28653775036219 178.4209888511832,68.18430721895311 178.00872515753144,67.77964119587159 177.91711100340763,67.65185076341731 177.8549442559306,67.57091653435964 177.66844401355775,67.27699561040572 177.25290838585352,66.51449134057475 176.96170625303057,66.32705708256253 176.8799079011078,66.35687624933234 176.69013572466793,66.44633356742997 175.9572224915173,66.54857016765345 175.4664323800389,65.7477072433976 175.4304411051853,65.7093675113465 175.38136209403456,65.68380766207702 175.2504847309756,65.63694788044813 175.214493456122,65.5900880238205 175.21122152205498,65.55174808532865 175.20140571981028,65.51766809785477 175.1555986427411,65.44098798095729 175.0868880271446,65.33874751267831 174.82840523509367,64.92978206872067 174.46849248665967,64.40578674379503 173.9089917595702,64.34614440493533 173.38875424138678,64.39300625283249 173.2644207464764,64.41430706800202 172.45952496363316,64.71251685275638 172.11269995152543,64.7977190904221 171.07876878332172,64.85310041192497 170.37857489094313,64.80623930055299 170.29023267087177,64.81049940469347 169.75690741636208,64.93830224042358 168.93565196314012,65.09166490680218 168.83095007271913,65.07888471528167 168.00642268540105,65.0831447797409 167.90499272903253,65.10018503136234 167.8101066408126,65.10444509272929 167.3749394086335,65.14704567221088 166.6420261754538,65.31744737017834 165.9778235579288,65.4921080812037 165.50339311681455,65.061844451262 165.45758603974537,65.00220344904847 165.32343674260483,64.88292108010683 164.69849733398587,64.20129821891533 163.97212796898384,63.28960283044762 163.9132331555884,63.225697883146495 163.14432864759874,62.331013971001084 162.6469946679572,61.73454283627143 162.2020116335334,61.18918716139342 161.75702859913872,60.669385575347405 161.24006301502232,60.038794209180196 160.65765874939098,59.31871042507919 160.36645661656803,58.8500073184332 160.34028114395915,58.8287024534111 160.2715705283481,58.79035365727941 159.7971400872484,58.2662484069715 159.24745516237454,57.60577720377296 158.25278720310598,56.370016850323736 157.9059621909837,55.82456119654853 157.83725157537265,55.739332832135915 157.1730489578331,54.89982017692273 156.67571497817698,54.31598245478381 156.61354823072907,54.269104468183286 156.544837615118,54.17108661713246 156.37796897722,53.894077871449554 156.27653902083694,53.834414106013355 155.91008240425435,53.37414668310885 155.83809985457628,53.293172961586606 155.45528356761497,52.79454036880088 155.0037566650426,52.15951732776921 154.94158991759468,52.05723044834667 154.2904750363523,51.26875708238185 154.01563257390808,50.906478410586715 153.10276296654774,49.781254869087206 153.08967523023603,49.75994339952558 153.0471400872484,49.67043505780566 152.69704314104456,49.44879417570701 152.61524478913634,49.436007150492514 152.31749878817936,49.367809588322416 151.86269995152543,49.244201101621 151.7972612699814,49.23567635914878 151.11997091614467,48.93304639171765 150.63572467281483,48.77107413691556 150.5539263209066,48.758286815434985 149.98788172563945,48.340564573258234 149.52326708676992,47.790696608644794 149.2287930198654,47.50936481539975 148.26030053320574,46.78470985572312 147.99527387300623,46.53320776099281 147.88075618031144,46.39679894062465 147.7269752787106,46.341382675611385 147.51102762966184,46.20071014670066 146.9875181774114,46.04724843438453 146.95807077072095,46.03019708331885 146.336403296169,45.927888768103 146.25133301017922,45.902311633377394 146.0157537566556,45.80852861469975 145.9143238002871,45.753111235022516 145.88487639359664,45.719008179947195 145.6067619970854,45.599647174049096 145.21412990789395,45.518651928312465 145.19122636936663,45.52717775421843 144.78550654386345,45.41207889481302 144.0427775084827,45.07530555631092 143.96097915655992,45.092357464129236 143.93807561801805,45.092357464129236 143.53562772661098,44.947415930777424 143.13972370333795,44.78968462236844 142.79289869121567,44.452904116502395 142.8256180319877,44.43158876411508 142.6914687348326,44.47421945336828 142.27593310712837,44.640478547647945 142.18104701889388,44.65326766958242 141.7000727096456,44.65753070899518 141.50375666505715,44.31648559273708 141.464493456122,44.32501176911319 141.22891420261294,44.4401149069472 140.81337857489416,44.41879954522483 140.69558894813235,44.435851835842186 140.2931410567253,44.4230626188164 139.10870092098776,44.333537943011834 138.50012118274753,44.29517014091289 137.69849733398587,44.235486793159 137.59379544352123,44.21843438570431 136.65802229760448,44.18006643259105 136.53696073677565,44.184329540983526 136.34391662626876,44.18006643259105 135.0645904023113,44.282380862365244 134.8519146873441,44.3036963235063 133.90959767327877,44.02233098538272 133.74927290352935,43.91575249885318 133.4678865729511,43.46385540097617 133.47443044109968,43.44253932767424 133.11124575861322,43.421223238823586 133.0,43.39990713443876 133.08179835192277,43.421223238823586 133.0785264178412,43.4126967989323" stroke="#4dd2ff" stroke-linecap="round" stroke-linejoin="round" stroke-width="0.5"><title>2024-04-14 18.0km</title><desc>11176726526</desc></polyline><polyline fill="none" points="48.47290523155243,103.47126617783942 48.779809015395585,103.51427659328328 48.58622355174157,104.01810962977106 48.534285988338524,104.09798504755236 48.52484279498458,104.12870632189151 48.619274728465825,104.39290835972133 49.582480449957075,105.7261818261868 49.7146851568541,105.89821404957547 49.818560283689294,106.02109378057503 49.828003477014136,106.05795763024071 49.818560283689294,106.07024557298064 49.81383868699777,106.07024557298064 49.78078751027351,106.05181365753378 49.76662272028625,106.05181365753378 49.662747593421955,106.13168523314016 49.63913961005164,106.16240502972869 49.6296964167268,106.20541270745889 49.658025996759534,106.27914005322236 49.73829314019531,106.40201867709766 49.747736333549256,106.38973083077872 49.747736333549256,106.37129905461188 49.73829314019531,106.37129905461188 49.743014736886835,106.38973083077872 50.01214574731421,106.73993305140175 50.7298284417775,107.79052230960951 50.87619793866179,107.98712090864137 51.272812059294665,108.68135239815092 51.10283457901096,109.00081792668425 51.01312424222124,109.03153563876913 49.73829314019531,109.34485502735697 49.35112221297459,109.48615516848076 49.19058792601572,109.5168725279982 48.836468175490154,109.62131138338736 48.675933888560394,109.62745483743129 48.3595869113924,109.71346310040826 48.312370944651775,109.71346310040826 47.778830520488555,109.84861858874137 47.08003421273315,110.07592457221108 46.291527568158926,110.39537956469212 44.56342318546376,111.15100388360952 44.47371284867404,111.18786326110421 43.6191038506513,111.37830286626559 43.14222258658265,111.40901885131098 42.934472332912264,111.43359162326306 41.607703667512396,111.48888030795206 41.296078287035925,111.80218148917265 41.25830551364925,111.81446776270604 41.27247030363651,112.96936153680144 41.338572657085024,114.15493776293442 41.362180640455335,114.26550794452123 40.94195853645215,114.60335948599459 40.30926458214526,114.72007120944909 39.397996424057055,114.90435222229644 38.68503532628529,115.01492044459155 36.44699850276811,115.40190694616831 35.696264631609665,115.45104783586066 35.611275891482364,115.44490522778142 34.54891663978924,115.65989598003216 34.0106546189636,115.72132170850455 33.23159116774332,115.85031544794401 31.60264031519182,116.12672927906897 31.069099891057704,116.26800676180574 30.545002660219325,116.60584230695895 30.493065096787177,116.69183637850438 29.794268789031776,117.67461335023472 29.39293307173648,118.006295424173 29.317387524963124,118.0800021985051 28.769682310783537,118.52838230836278 28.609148023853777,118.73107312680077 28.42972735024523,118.86619979946772 27.98117566620931,119.52954265881272 28.34473861011793,119.85506821984382 28.34473861011793,120.5368211830937 28.642199200578034,120.94832441074323 28.769682310783537,120.96060802766442 28.9727109677915,121.7406103965368 28.95854617774603,122.30564249965755 28.953824581054505,122.82153478530017 28.887722227635095,123.40497681312263 28.87355743761873,123.97612805672179 28.840506260894472,124.59026057559822 28.845227857556893,125.32720783064724 28.812176680832636,125.83692217209682 28.73190953739686,127.96168929700434 28.750795924075646,128.2073202341562 28.746074327413226,128.2257424969539 28.769682310783537,128.82753200456136 28.741352730750805,129.7363407523153 28.73190953739686,129.87757279178186 28.670528780610766,131.38197178437986 28.67525037730229,131.51705805656457 28.665807183948345,131.90389363221038 28.604426427191356,133.08279929067794 28.585540040483465,133.1933200123749 28.552488863788312,134.74671961710555 28.481664913648274,135.54488696160843 28.462778526940383,135.63084254703426 28.481664913648274,136.08517631276845 28.382511383504607,137.91474130135612 28.330573820101563,139.38201983346516 28.255028273299104,140.76330251571198 28.236141886591213,141.37105261673787 28.193647516542114,142.14454012578062 28.179482726496644,142.73999310377985 28.160596339817857,142.83821134698883 28.141709953109967,143.47048583222931 28.085050793044502,144.5999623812204 28.06144280967419,145.2567636915701 28.06616440633661,145.3611143635644 27.985897262900835,146.67468317877137 27.36264650191879,146.76675423084453 26.85271406112588,146.56419765198007 26.772446917661,146.55805955870892 26.772446917661,146.56419765198007 26.739395740936743,146.53964527354765 26.276679266884457,146.33094948191138 26.276679266884457,146.3125350979717 26.111423383292276,146.18977233365513 25.99338346644072,146.22046305810363 26.045321029843763,146.22660120033106 26.186968930094736,146.2143249149958 26.23890649349778,146.22660120033106 26.290844056900823,146.3493638578584 26.309730443608714,146.373916346638 27.414584065321833,146.82813482100028 27.85841415269533,147.0 28.113380373077234,146.0485947146335 28.155874743155437,144.83935843150175 28.20309070989606,144.02908941359783 28.273914660036098,142.2918694774562 28.335295416763984,141.39560799295577 28.34946020678035,141.30966411380723 28.354181803471874,140.54843928111222 28.37306819015066,139.71353178805657 28.316409030085197,138.9154430542403 27.678993479086785,138.90930385181855 27.102958684845362,138.92772145644267 27.107680281507783,138.9399998550507 26.6874581775337,138.89702544428656 26.172804140049266,138.9154430542403 25.747860439383658,138.89702544428656 25.313473545364104,138.89702544428656 25.252092788607115,138.90316464850184 24.79409791121725,139.01980935930987 24.779933121200884,139.2899327186169 24.798819507908775,139.45568938108408 24.79409791121725,139.4434111320479 24.798819507908775,139.4434111320479 24.75160354116815,139.64600178566252 24.765768331184518,140.03890210769168 24.78465471789241,139.7626444493908 24.770489927876042,139.69511452535153 24.779933121200884,139.49252410680128 24.79409791121725,139.42499375182524 24.78937631455483,139.43727200619105 24.817705894616665,139.18556707959942 25.190712031850126,138.93386065619052 25.554274975758744,138.95227825012262 25.95561069305404,138.93386065619052 27.235163391713286,138.95227825012262 27.69315826910315,138.9461390530414 27.688436672411626,138.9399998550507 27.400419275276363,138.92158225578532 27.291822551807854,139.00139179476537 27.296544148470275,139.03208773122242 28.08032919638208,139.57233256925974 28.06616440633661,139.682836345768 28.056721212982666,140.0573192207812 28.070886003028136,140.20465583719488 28.085050793044502,140.16782173116735 28.10393717972329,140.07573632588537 28.051999616320245,139.03822691583264 27.943402892822633,139.03822691583264 27.707323059119517,138.95841744630889 28.340017013426404,138.95227825012262 28.462778526940383,138.92772145644267 28.831063067540526,138.93386065619052 30.120058959553717,138.79265883646076 30.70081535045756,138.76810195018334 32.17867510943324,138.78651961623473 33.74624520522775,138.76196272636662 34.06731377905817,138.72512736487988 34.43087672296679,138.41202549782247 34.42143352961284,138.3322148475454 34.39310394958011,136.79736537383724 34.39782554624253,135.76591525712865 34.35533117616433,134.3169309656223 34.36477436951827,134.18799351905182 34.3694959662098,133.9730969017728 34.345887982839486,132.75737548954203 34.35533117616433,132.65913385025488 34.331723192794016,132.1679222327075 34.345887982839486,131.9345947169095 34.327001596131595,131.91617406876685 34.31755840277765,131.7503878746138 34.341166386177065,130.65127038245555 34.341166386177065,130.34424922205653 34.30339361276128,128.9687670774765 34.308115209423704,126.02115476049585 34.29867201609886,125.52372493065195 34.199518485955196,123.23301578860264 34.16646730923094,123.10404456147808 34.11452974579879,122.43461616089917 34.105086552444845,121.83887739139391 33.93038747549872,120.94832441074323 33.95399545886903,120.91761535287878 34.05787058570422,120.89304809052555 35.01635471053305,120.56138865233515 35.03051950054942,120.5491049194934 34.93136597040575,120.56753051742271 35.715151018317556,120.26043617097821 35.819026145123644,120.26043617097821 35.93234446531278,120.28500380073092 35.98428202874493,120.30957141623003 36.24869144248078,120.36484849891349 37.08913565045805,120.46926056913435 37.09385724712047,120.48154432515003 36.6358623697306,120.38327417708933 36.56031682295725,120.37713228524444 35.96067404534551,120.1498816604726 35.394082444458036,120.19901703414871 34.90775798703544,120.37099039253008 34.23729125931277,120.67194208734873 34.14285932583152,120.70265132355053 33.66125646507135,120.34642281271226 33.51960856487858,120.06389461920844 33.198539991048165,119.36984995823514 32.85386343381833,118.77406802400219 32.57528923006612,118.26426857238766 31.956760065775597,117.5517674775947 31.796225778845837,117.41663660557606 31.753731408767635,117.36135566986559 31.67346426533186,117.30607466189758 31.569589138467563,117.15251592734057 30.974667957576457,116.41542624062276 31.08326468107407,116.34785904329692 32.01814082250348,116.15744181547052 33.70375083514955,115.8810281850565 34.53003025313956,115.79503246493914 35.25715614089859,115.55547203686365 35.606554294819944,115.54932944395478 35.540451941342326,115.43262000892719 35.436576814507134,115.29133973561329 35.43185521787382,115.25448393453553 35.44602000789018,115.22991338263091 35.436576814507134,115.21762810133805 35.450741604552604,115.22991338263091 35.46018479790655,115.10706040899822 35.49795757129323,115.10091775095498 35.52628715135506,115.05177645444928 35.57822471475811,114.99649242760643 35.64432706820662,114.84292530723542 35.762366985029075,114.9596363695673 35.70570782493451,115.15620164127904 35.615997488144785,115.19305752800938 35.535730344679905,115.2053428164545 35.309093704330735,115.15620164127904 35.44129841119866,115.18077223600994 35.42713362118229,115.22377074243195 35.46018479790655,115.27905447216472 36.10704354225891,115.12548837779104 36.229805055772886,114.7937837109348 36.23452665243531,114.74464205755794 36.536708839586936,114.56650308534881 36.54615203294088,114.53578939361614 36.62641917640576,114.4805046922811 36.71612951319548,114.4989329340824 36.71140791653306,114.48664744043344 36.62169757971424,114.44979093809889 36.088157155551016,113.97065348452816 35.922901271958835,114.0259388523773 36.44699850276811,113.43622453598437 36.57920320966514,113.41779583110474 38.009847001871094,113.31336635168918 38.65198414956103,113.23350834048688 40.18178147196886,113.13522135046878 40.69171391276177,113.10450661924187 41.71630039101001,113.11679251441456 41.80128913113731,113.0922207204967 42.037368964840425,113.06764891231433 43.491620740445796,112.90793181110348 43.779638137551956,112.88950287599437 45.29999226660584,112.50249338350841 45.436918570136186,112.44720602402595 45.95157260762062,112.20762663102869 47.52858589676907,111.51345303351991 48.97811607568292,111.06499854454523 49.11032078257995,111.04656880625771 49.29918464954244,110.99742279826751 50.965908275480615,110.54896283664493 51.872454836877296,110.33394609973038 52.420160051085986,110.40766624698517 53.64777518634219,110.65339914295328 53.916906196740456,110.67797235399848 55.1964588953997,110.67797235399848 55.22478847546154,110.59196605282341 55.24839645883185,109.81790147024003 55.19173729873728,109.7318934197101 54.2426963672624,109.71960654106078 53.813031069905264,109.70731965884988 52.849825348414015,109.5168725279982 52.37294408434536,109.43700734686718 51.71664214663906,109.43700734686718 51.730806936655426,109.40628992933125 51.68831256660633,109.27113302714861 51.50889189296868,108.44175166776768 51.480562312935945,108.39260263216784 51.253925672586774,108.09156354256993 50.54568617147743,107.10242001411461 49.77134431691957,105.9473659848336 49.747736333549256,105.94122199604317 49.662747593421955,105.83677405015624 47.90631363069406,103.35452340109259 47.68439858700731,103.06573725244016 47.50025631670724,102.75851577971116 46.76368723556516,101.75081367720122 45.95157260762062,100.62019247925127 45.74382235397934,100.3006636164755 44.738122262380784,98.85046380511994 44.11014990476542,97.99629741309764 44.19513864489272,97.3326166453553 44.45954805862857,96.98848177412583 44.46426965529099,96.96390060467456 44.50676402536919,96.90859292114692 44.66729831229895,96.69965213020987 44.8042246158293,96.55216389119232 44.94587251608027,95.34151181131892 44.90337814600207,93.92801626330402 44.86560537261539,93.66374880663352 44.879770162602654,93.59614523834534 46.14515807124553,93.45479197333407 47.29722765972838,93.4609377773013 47.391659593209624,93.44864616848645 47.48136993002845,93.295000756636 47.75994413380977,93.20281324138341 47.717449763731565,93.20281324138341 47.66551220032852,93.1352089357315 47.65134741028305,93.0 47.64662581362063,93.04916693576524 47.65134741028305,93.07989624157926 47.67967699034489,93.16593817899047 47.67023379699094,93.26427160723324 47.68912018366973,93.25197994121481 47.68912018366973,93.23968827162025 47.660790603637,93.17822987002364 47.75050094045582,93.282709099567 47.54275068678544,93.26427160723324 46.58426656195661,93.33802152824137 46.565380175277824,93.38718807078476 46.50872101515415,93.7252065021712 46.52288580519962,94.97892398314434 46.53232899855357,95.08339876114042 46.62203933534329,95.43369466150762 46.99976706926827,96.20187726079894 46.961994295881595,96.15271399264384 47.33972202980658,96.52758246797748 47.51442110675271,96.73037878188916 48.373751701408764,97.57842555219031 48.79869540207437,97.96557168169238 49.98381616725237,99.10855385160903 50.0310321340221,99.14542372959113 50.210452807630645,99.34206253579032 50.8573115519539,99.95655290921422 51.76385811337968,101.03188956850863 51.67886937325238,101.1056259372308 51.51833508632262,101.2776769640659 50.47014062467497,102.31611293657625 49.62497482003528,103.05959284487471 49.374730196315795,103.2439246836293 48.77036582204164,103.56957563453398 48.72787145196344,103.50813225089587 48.675933888560394,103.20091399314697 48.69009867857676,103.20705838017602 48.68537708191434,103.21934715156749 48.661769098514924,103.23778030195899 48.62871792181977,103.21934715156749 48.65232590519008,103.2869353303613 48.623996325128246,103.33609030161097 48.58622355174157,103.3852452157007 48.30292775129783,103.01043755211867 48.529564391647,103.42825571864887 48.50595640827669,103.42825571864887 48.49651321495185,103.49584356345076 48.529564391647,103.45897747969138" stroke="#ff2100" stroke-linecap="round" stroke-linejoin="round" stroke-width="0.5"><title>2024-04-06 34.9km</title><desc>11117345079</desc></polyline><polyline fill="none" points="176.259461331254,146.74165637752594 176.29060226750153,146.78724656769555 176.6136894809315,146.95441008812486 176.62147471499338,147.0 175.86241439428704,146.81257442536298 175.64053522363247,146.4833108401108 175.5782533511374,146.4073264940671 175.48093792541476,146.21989773222595 175.42254866997246,146.1388471446371 175.28630707395496,145.9260884554751 174.99436079675797,145.53096172969163 174.87368966886424,145.38912027389233 174.81530041340739,145.28780459487461 174.441609178597,144.7356289673553 173.93556896479276,144.03146570412355 173.75650858145673,143.7629680510654 173.68644147492887,143.64644955797849 173.61248175134824,143.5501948567835 173.53462941080215,143.43874171275456 173.34389117636601,143.18037168968294 173.22711266546685,143.0081239434112 173.12201200568234,142.87133836189605 173.02858919698338,142.78014767594505 172.9079180690751,142.587633221945 172.4563744936895,141.9442219347584 171.99315306718927,141.30586513775052 171.56107257693657,140.68269603168665 171.01221357582835,139.90751890646425 170.96160955441883,139.8416533884847 170.45167672359094,139.26912479500606 170.327112978659,139.1829913606125 169.6848311688227,138.51418333025867 169.65369023258972,138.44324839219917 169.31113993402687,137.9466997818854 169.260535912661,137.84536246129937 169.1826835720567,137.7592255070449 169.12429431662895,137.66295454146166 168.9646970184258,137.44507716337466 168.63382457093394,136.96371533477577 167.99543537813588,136.46714563698333 167.43100590888935,136.05671023791 167.3375831001904,135.9756360069041 166.83543550339527,135.61079963253724 166.10751611892192,135.05340334937137 165.36013364931569,134.53146965330598 165.2394625214074,134.42505502740096 164.71006660543208,134.03486528448775 164.67503305216087,133.98419097125952 164.59718071158568,133.91831425383134 163.37100634735543,133.04163530745427 162.7014762183244,132.5551449857885 162.0124830041459,131.83553225991272 161.75557028020557,131.45038131278852 161.70885887584882,131.3439572737916 161.21060389610648,130.45200968759673 160.96147640625713,130.03136738849207 160.58389255440852,129.29649816975143 160.25691272394033,128.72379623491724 160.2063087025599,128.6122956479412 159.6340939992515,127.57836411149765 159.54067119056708,127.37562883813735 159.49395978621033,127.30973962019198 158.61422833758115,126.41262017175904 158.37288608177914,126.26056373741449 158.29892635822762,126.20480954511368 157.34523518606147,125.61178215749169 156.7924835679005,125.33300510955814 156.70295337621064,125.26711202667502 156.04899371530337,124.8514758608726 155.9322152044333,124.76530676658876 155.7726179062156,124.68420624777718 155.5312756504136,124.52707345506133 155.41449713952898,124.45104120402175 155.37946358625777,124.41049060225487 155.37946358625777,124.36487111882161 155.4300676076382,124.19253030868276 155.47288639497128,123.98977532233403 155.63248369317444,123.087501316204 155.7259065018734,122.50455904814953 155.73369173593528,122.33220903000984 156.0256380131177,121.29809100463899 156.1813426942972,121.10038847304895 156.17745007727353,121.0547646524683 155.9555709066044,120.54275989918824 156.15409437508788,119.74178686503365 156.27865812001983,118.57578052192184 156.29812120518181,118.17020394370047 156.3175842903147,117.91164640874558 156.3175842903147,117.86094862767641 156.5238929928746,116.57320023264401 156.69906075918698,115.61496283668384 156.71073861028708,115.41722802723598 156.7730204827385,115.1738605658793 155.8971816511621,114.61613704902265 155.47288639497128,114.10403758639222 155.0680542239279,113.79981651636263 154.9512757130433,113.7339016007063 154.1922153923515,113.23700052673667 153.82630939158844,112.99361782057895 153.81073892346467,112.96826535746732 152.33932968640875,112.04035250054585 152.00456462189322,111.80710275481033 151.25718215225788,111.3203156412128 151.0897996200074,111.20368855085326 149.14349110536568,109.98161596928912 148.88268576440169,109.7737072337004 147.96792076254496,109.14997357397078 147.91342412414087,108.58708238157851 147.89785365600255,107.98361234115873 147.89785365600255,107.52719947741207 147.90563889006444,106.46221284682906 147.90174627305532,106.37092676175962 147.96402814550675,105.52905491051206 147.96402814550675,105.41240840876708 147.99127646471607,104.93060349714506 148.39610863575945,104.3930027728129 148.40389386980678,104.31185477210602 148.376645550612,104.26620893851577 147.03758529253537,103.63223283576008 146.28631020587636,103.1504032712146 145.71409550259705,102.79536669042136 145.30537071453,102.52147885246086 143.79114269012643,101.49184417199285 143.40188098719227,101.20272944692624 143.37852528502117,101.17736839150894 143.4446997745108,100.83245620215166 143.76389437091711,99.82813358597923 143.771679604979,99.72668524467008 143.8067131582502,99.44770078053261 143.802820541212,98.77305637414975 143.82617624339764,98.11868952442092 143.8067131582502,97.48967412670027 143.8067131582502,95.9424507538497 143.8183910093503,95.1865690634877 143.81060577525932,94.68432986300468 143.8067131582502,93.05073401876143 144.59691441518953,93.00507340519835 145.53114250220824,93.00507340519835 145.72188073664438,93.0 145.7374512047536,93.01014680966546 146.22792095046316,93.72548943019137 146.34859207837144,93.72041613007605 146.37584039755166,93.74070932608083 146.37973301460443,93.76607580444397 146.371947780528,94.36471932269706 146.371947780528,94.88725566570429 146.3641625464661,94.97349877332454 146.6483235896012,95.16627671113747 147.01422959036427,95.17134980032642 147.02980005848804,95.18149597651791 147.04926314360637,95.16120362120637 147.04147790955903,95.14091125405685" stroke="#4dd2ff" stroke-linecap="round" stroke-linejoin="round" stroke-width="0.5"><title>2024-04-05 16.7km</title><desc>11109163802</desc></polyline><polyline fill="none" points="66.64728682170971,180.41841416675015 66.68604651160422,180.44867793629965 66.72093023255002,180.46885376800492 66.77131782945071,180.48398563408045 66.8759689922299,180.49911749355306 66.92635658913059,180.51424934644092 66.95736434108403,180.53946908659054 67.0,180.61512819704512 66.60465116277919,180.98333351327528 65.62015503876319,179.55588563980928 65.54263565890142,179.45500371001253 65.1782945736486,178.9657221900161 64.3023255813896,179.19775346159804 64.04651162790833,179.3591656050594 63.87596899224445,179.48526831975323 63.81782945735904,179.50040061471736 63.759689922473626,179.49031241880584 63.72868217053474,179.47013601817525 63.68992248059658,179.42473907388558 63.51162790697708,179.16748860112784 63.22868217054929,178.8295291993236 63.205426356580574,178.76899880966084 63.18604651161877,178.70846831441668 63.17441860464169,178.6832472435599 63.023255813954165,178.57731854583108 62.89922480619862,178.39572574025442 62.83333333332848,178.36041591770845 62.81007751937432,178.3150175216324 62.79069767441251,178.24944195578064 62.77519379842852,178.2343091152943 62.75968992248818,178.2343091152943 62.74031007751182,178.23935339618765 61.46511627906875,179.3238567628323 60.7325581395271,179.818177284782 60.437984496122226,179.98967459615233 60.29844961238268,180.08551095983785 60.00387596897781,180.25700695010164 59.794573643404874,180.38815037080713 59.51162790697708,180.55460092187786 59.38759689920698,180.61512819704512 59.248062015496544,180.69583106640857 59.18604651161877,180.7260945940252 59.112403100778465,180.74627026444796 58.980620155038196,180.85219234171745 58.666666666656965,181.06907939600205 58.42248062015278,181.23048283577737 58.26356589146599,181.31118427417096 57.980620155023644,181.50789324408106 57.751937984488904,181.6087692064175 57.751937984488904,181.58859403739189 57.09689922479447,182.06775113291587 55.755813953481265,182.93021723461425 55.49612403099309,183.1016991683682 55.10852713177155,183.32865924849102 55.06201550384867,183.3387463287254 55.03875968990906,183.3639640164547 53.77906976743543,184.16083351173074 51.18217054262641,185.76460399518692 51.16279069765005,185.76964718171075 50.7868217054056,186.10753901019416 49.28682170542015,187.04050683089372 47.95348837209167,187.88772074944063 47.174418604627135,188.32644840256035 45.99999999998545,189.12824668391113 45.88372093021462,189.18875901021966 44.71705426355766,189.92498386531588 44.534883720916696,190.03087793687155 44.41860465116042,190.11155891744056 44.17441860464169,190.2174524198963 43.988372093008365,190.35864325409784 43.87209302323754,190.4040259002977 42.75581395349582,191.22090338767157 42.651162790702074,191.30158160283827 42.581395348825026,191.33687826300957 42.55038759690069,191.36713251461333 42.01550387595489,192.59240754983693 41.99224806201528,192.58232315813075 41.92248062015278,192.526858951318 41.51550387595489,192.27979004466397 41.39922480619862,192.19407184990632 40.35658914728265,191.50831867345187 39.06201550386322,190.87801888173635 38.96899224806111,190.81750949972775 38.28294573642779,190.55025846780336 38.170542635649326,190.52504600010434 38.077519379832665,190.49479101469115 36.58527131781739,189.98045222878864 36.22480620152783,189.86951541323288 34.77131782945071,189.28456997780086 34.64728682169516,189.21397244836407 33.930232558137504,188.92653816780512 33.90697674416879,188.93662362145915 33.844961240305565,188.91645271123343 33.806201550367405,188.9315808950014 33.78682170542015,188.94670907215914 33.77906976744998,188.9668799647916 33.76356589146599,189.0425207077751 33.28294573642779,190.5099185106992 32.88759689920698,191.82094312492336 32.837209302320844,191.91674682882513 31.666666666656965,192.01759254733042 31.519379844947252,191.99238114515538 30.569767441847944,191.92178912169402 28.59689922480902,191.82094312492336 27.879844961236813,191.77052001669654 26.465116279068752,191.42259857404497 26.37209302323754,191.3923443707863 26.313953488352126,191.36713251461333 25.81782945735904,190.43932347298323 25.848837209297926,190.03592050365114 24.887596899221535,189.87455800345924 24.015503875969443,189.86951541323288 23.213178294565296,189.88968576969637 21.953488372077118,189.90481352935967 20.647286821709713,189.90481352935967 20.63565891471808,189.8947283569796 20.60465116277919,189.91489869881116 20.558139534885413,189.92498386531588 19.01162790696253,189.8947283569796 18.910852713190252,189.87960059293255 18.848837209297926,189.85943023059735 17.406976744168787,189.14841747106766 17.329457364350674,189.0929477781974 17.27906976743543,189.0425207077751 16.197674418595852,187.499416936771 15.298449612397235,186.77826976076176 15.178294573634048,186.7278393278575 13.748062015496544,186.46055681024882 13.0,185.60826484927384 13.034883720916696,185.43175206403248 13.220930232550018,184.79629860480418 13.59302325581666,183.59596588397835 13.635658914718078,183.44466049410403 13.937984496122226,182.42585369529115 14.294573643404874,181.28092125676267 14.930232558137504,180.32762269975865 15.108527131771552,180.34779860184062 16.670542635649326,180.3831064022561 18.36434108526737,180.19647905032252 18.468992248061113,180.17125906090223 19.87209302325209,180.09055497165537 20.027131782931974,180.1258630337943 21.166666666656965,180.90767520555528 22.895348837206257,182.380460617238 22.941860465100035,182.38550429550742 22.965116279068752,182.4056790012619 23.00387596899236,182.44602837759885 23.244186046504183,182.65281819499796 23.562015503863222,182.9604788138895 24.755813953481265,183.94900922864326 25.379844961236813,184.8215152335797 25.383720930243726,184.86186180152436 25.37209302323754,184.97281462153478 25.391472868213896,184.98794452405855 26.124031007755548,184.61978169040958 26.841085271313204,184.19109401807873 27.7325581395271,183.58587887850445 28.937984496122226,182.83943233844911 28.988372093008365,182.81421426959423 29.027131782946526,182.78395256277508 29.089147286809748,182.75873445360776 29.531007751924335,182.45107204633678 30.09302325580211,182.08792602337053 30.201550387588213,182.0324450463704 30.988372093022917,181.5684188566629 32.0,180.92280688030587 32.05038759688614,180.882455732979 32.52325581393961,180.6050403251902 33.72868217052019,179.813133233376 34.72480620154238,179.21288588193784 34.767441860443796,179.19775346159804 35.56589147285558,178.66811459225573 35.6434108527028,178.63280504688373 36.84496124029101,177.89129629412128 36.95348837209167,177.81563124473905 37.00387596899236,177.7601434370008 37.348837209297926,177.52810255235454 39.59302325581666,176.14086924328512 39.620155038748635,176.1206908950153 39.68992248062568,176.1055571261095 39.70542635656602,176.0702449729797 39.74806201548199,176.01475437406407 39.84496124029101,175.93908523249047 39.96124031006184,175.8835944238017 40.26356589146599,175.7019875202932 41.44961240309931,174.950326616221 42.55038759690069,174.28945693257992 42.60077519378683,174.2440532097571 42.63953488372499,174.22891862226606 43.09689922477992,173.88082128794485 44.51550387596944,172.99795006752538 44.631782945711166,172.94245455459895 45.82170542633685,172.22604996325026 46.13565891473263,171.9990172522048 46.96899224806111,171.46926848162911 47.14728682170971,171.36836303670498 48.248062015496544,170.8184232030435 49.45348837207712,170.22811111106785 50.980620155038196,169.49146825740536 52.077519379832665,168.63371371498943 53.16279069765005,167.5741052887861 54.09689922480902,167.40759245016307 54.2868217054056,167.56401362435645 56.59302325581666,169.24928088849992 56.90697674416879,169.5015593610733 57.073643410840305,169.61256130776383 58.081395348825026,170.37947414357768 58.151162790702074,170.41983750738655 58.48449612400145,170.67715284752194 58.666666666656965,170.79824175891554 59.027131782931974,171.10600750628146 59.05813953487086,171.12618877137356 59.89922480621317,172.27145632716565 59.98449612403056,172.39758480399905 61.038759689894505,172.57416390118306 61.18604651161877,172.54893837089548 62.32558139534376,172.59938941313158 63.45348837209167,172.54893837089548 64.22868217052019,172.55902858521222 65.3023255813896,172.54893837089548 65.79069767439796,172.39758480399905 66.18992248061113,172.37235914532357" stroke="#ff5700" stroke-linecap="round" stroke-linejoin="round" stroke-width="0.5"><title>2024-03-24 28.9km</title><desc>11025858700</desc></polyline><polyline fill="none" points="183.26824807192315,203.69391408858064 183.26824807192315,203.67964249031138 183.52414396588574,203.7605147981667 183.56070052215364,203.7938151021517 183.5680118334276,203.831872550938 183.52779962151544,203.88420147076977 183.4619978202245,203.93177314347486 183.35963946260745,203.9936162146114 183.2499697937892,204.0507020227269 183.19147930375766,204.06497345920798 183.1695453699649,204.060216314414 183.1476114362158,204.04594487585564 183.1147105355485,204.01264482838087 183.01235217797512,203.8556584339567 182.92096078726172,203.69391408858064 182.81860242967377,203.53216894390425 182.69796579396643,203.3751802450206 182.57001784698514,203.17537535740848 182.5261499794433,203.09450160376946 182.44572555563354,202.98984115535495 182.387235065602,202.8899376878653 182.2994993305183,202.77100459087524 182.2373531848425,202.70915920964399 182.171551383537,202.60925488541034 181.92662245646352,202.28575307637948 181.78770754260768,202.07642667253458 181.73652836380643,202.014579978837 181.68534918501973,201.9289459023057 181.4806324698584,201.64349736231816 181.40751935730805,201.55786231485763 181.30881665533525,201.40562167720418 181.1881800196279,201.23435011338734 181.115066907063,201.11065342652364 180.96152937070292,200.92510751962982 180.85185970184102,200.7633486912382 180.74950134426763,200.59207376620543 180.63617601980513,200.4350709641658 180.53747331783234,200.32088663503964 180.4204923377547,200.1448516804412 180.33275660268555,200.02115087561106 180.2962000464031,199.95930029784722 180.19384168881516,199.83084103207148 180.04395980808476,199.61198334384244 179.96719103989017,199.52634298045086 179.89773358296952,199.39788201517513 179.82462047040462,199.28369406712227 179.76247432471428,199.2075685470918 179.74419604656578,199.1647478642335 179.72226211283123,199.13144284996815 179.70763949029788,199.1266849880085 179.70032817905303,199.1362007112184 179.67839424527483,199.098137801775 179.58700285457599,198.96967515557117 179.44808794072014,198.7412958727291 179.3530408943916,198.60807388835747 179.19584770238725,198.42251379202207 179.13370155671146,198.3321123382666 178.93264049716527,198.06566449549427 178.0918397027417,196.86186416270357 178.0260379014362,196.78573300845528 177.19620407390175,196.0910280432836 177.1523362063599,196.03392834909027 177.07191178255016,195.88642034453733 176.56011999462498,195.09176900835155 176.17993180932535,194.54454279509446 176.17262049806595,194.55881837779816 175.27698486921145,193.8117211831668 174.35575965097814,193.13122927440781 173.3029308301193,192.3317521661993 172.75092683029652,191.87489933243705 172.72168158527347,191.8701404151725 171.77121112201712,191.1562949861036 171.50434826116543,190.96593357423626 171.3837116254581,190.86123432554086 171.2594193341065,190.78033013112872 170.4003402615199,190.15212604816043 170.33088280459924,190.0950159878521 169.68383175844792,189.39065037922774 169.27074267249554,188.60060063635683 168.9856015335099,188.1389362305199 168.89421014281106,188.1151389196093 167.77557952066127,188.54348786716218 167.73536730874912,188.46733735312955 167.23819814334274,187.67726530856817 167.2272311764682,187.60111277784017 166.847042991154,186.98236689292025 166.22192587876634,186.03042728995933 165.35919115057914,185.8590752189375 165.3043563161482,185.8590752189375 164.60978174683987,185.9114328914584 164.53666863428953,185.9304720243017 163.47287284655613,186.34457042190115 163.37051448896818,186.35884958348834 163.3193353101815,186.35884958348834 163.3047126876627,186.37788845588148 163.23159957511234,186.41120645593037 161.8278278139769,186.3969273172006 161.71084683388472,186.3874078879344 161.59386585377797,186.39216760292402 161.42936135052878,186.3731287388291 161.1953993903444,186.36360930262526 159.9926886887406,186.67774923441175 159.8793633642781,186.68250890713898 159.1189869936643,186.65871053655064 158.15389390788914,186.72534593056844 158.06981382843514,186.7539039150106 157.74811613316706,186.8348180688663 156.7428108354943,187.06328048157957 156.64776378916577,187.0918381709671 155.91297700793075,186.60159437649418 155.84717520665436,186.55399750024662 155.82524127287616,186.54447811669888 155.8398638953804,186.54923780881654 155.84717520665436,186.5254393412506 155.832552584121,186.53495873036445 155.81427430598706,186.52067964566595 155.20012416048849,185.85431542637525 154.61156360439782,185.12605900284325 153.92064469070465,184.29306608705156 153.76710715433,184.1217049131119 152.57170776398561,182.69842046238773 152.34871277067577,182.42708495824627 151.81498704901605,181.79872040983537 151.7747748371039,181.7368353693455 151.10578985718894,180.91803765379882 150.59765372489346,180.30392591166674 150.49895102294977,180.19443190887978 150.38197004284302,180.04685245544533 150.31251258592238,179.97544280336297 150.28326734088478,179.9040329953059 150.27961168526963,179.78025562526454 150.26133340713568,179.73264881969953 149.65815022851166,179.16612251318656 149.24871679818898,178.67099904737188 149.12442450683739,178.52817357732056 149.022066149264,178.39010836318266 148.8831512353936,178.2282380593315 148.82831640096265,178.15206352138557 148.47737346068607,177.73310039025455 148.28362371241383,177.4760067198804 147.84128938142385,176.93324677645796 147.34046456038777,176.17146323627458 146.33881491833017,174.90019742522418 145.77218829600315,174.1716969818881 145.75756567348435,174.2002659325808 145.76122132911405,174.2002659325808 145.14707118363003,173.48127308068797 144.6499020182091,172.8432131994632 144.6060341506818,172.76226441378458 144.29164776668767,172.32894691709953 144.25874686603493,172.26704394865374 143.64459672053636,171.5146754221314 143.13280493262573,170.85276727179007 143.12549362135178,170.86705320074543 143.12914927698148,170.85276727179007 142.8915316611674,170.56704738151166 142.22985799251182,169.7289212937576 141.9154716085177,169.3669965658919 141.74000013836485,169.2622281334916 140.7017939400248,168.9812565884531 139.6416538079211,168.56693820803775 139.52467282781436,168.50979043299958 138.98363579488068,168.35263353640403 138.20498114613292,167.49063832947286 138.13552368919773,167.40491380622188 137.3678360073245,166.71910952460894 136.53800217979006,166.0523415631833 136.4539221003506,165.96661326679168 137.11194011337648,164.87117634818787 137.14118535839953,164.7330534339344 137.20698715970502,163.72807258239845 137.21064281532017,163.64710121561438 137.19602019283047,163.28510912219645 137.18505322594137,163.20413665767046 137.23257674909837,162.01334194553783 137.22526543785352,161.90378665188473 137.23257674909837,161.85615380092713 137.24719937161717,160.3747374703271 137.25816633849172,160.34615643047073 137.26182199412142,160.31757536559599 137.26182199412142,158.92659998774252 137.29472289477417,157.51174577781785 137.30568986164872,157.39741144833897 137.17774191466742,157.28784067373635 137.22160978220927,157.2544929737196 137.31665682853782,157.26402089148178 137.29106723914447,157.00200214035794 137.32396813978266,155.91579290082154 137.32031248418207,155.80145298484786 137.35686904044996,154.96294803722049 137.3641803516948,154.92483366447777 137.3641803516948,154.77237572877493 137.34955772919056,154.60562404672964 137.33493510667176,154.50557262885923 137.33493510667176,154.2816469163372 137.34955772919056,154.11012831096014 137.37149166296877,153.0 137.09731749085768,153.25728631546735 137.09000617961283,153.31446077697547 137.04979396770068,154.77714005003145 137.05710527896008,154.83431185098743 137.05344962333038,154.9153050643581 137.03882700082613,155.02011951290842 137.04979396770068,155.30121114622307 137.02054872266308,156.1301791644437 137.03517134518188,156.13494328764864 136.8596998750436,156.0730096317202 136.8706668419327,156.0587172329142 136.8926007757109,156.07777376328158 136.8816338088218,156.09206615374933 136.92550167634909,156.09683028250947 136.97302519950608,156.1158867906488 137.02054872266308,156.11112266464988 137.02786003392248,156.12065091593468 137.00227044452913,156.8162057523259 137.02054872266308,158.04530069073007 136.99130347764003,158.9837645264197 137.01689306704793,159.58874976277002 137.00958175578853,159.63162230716262 136.98033651076548,160.24612259401692 136.98764782202488,160.32233887815164 136.99861478892853,161.3417145854619 137.00592610017338,161.48937852247764 136.9437799544976,162.53729696579103 136.95109126574243,162.78974502148776 136.94743561009818,162.91834988480696 136.95474692137213,163.1184008882883 136.94012429885333,163.2422413718523 136.94012429885333,163.36131831725652 136.8560442194139,164.75686777113515 136.83045463002054,164.85212494643565 136.77927545123384,164.94738184404196 136.23458276267047,165.65227425580088 136.17609227260982,165.7999187133064 136.21630448452197,165.84278310827722 136.9328129876085,166.5238431732032 137.04613831207098,166.600044815008 138.09165582165588,167.4430136220908 138.17573590110987,167.52873804539922 138.7277399009472,168.2240500588705 140.20828043024812,168.92410953791114 141.10391605908808,169.20984379133006 141.32691105239792,169.2527037138898 141.34518933054642,169.2717525503067 141.37077891993977,169.2717525503067 142.40532946265012,170.13370078097796 142.5149991314829,170.24799055215408 143.450846972235,171.41467576979267 143.5422383629484,171.54324669518974 144.45615226993687,172.7051239737957 145.13975987235608,173.60031272472406 145.18728339552763,173.6764978694082 145.59671682586486,174.21455039856664 145.7356317397207,174.42881663923254 146.7994275274541,175.77151977167523 146.8761962956487,175.881028587708 147.8595676595578,177.11892882375105 147.9253694608633,177.1284509515899 147.95095905025664,177.14749519894758 148.91605213604635,178.38534748333768 149.99447054626944,179.71360607806855 150.0237157913216,179.79929832807102 150.05296103634464,179.85642636997727 151.33609616174363,181.3179181693704 152.71062267787056,182.9459526427454 152.83857062482275,183.08875881757194 153.8584985450434,184.33590624025237 153.9645125582465,184.4406263784549 154.8930490877392,185.5496872613221 154.9442282665259,185.63060439441324 155.56568972329842,186.39216760292402 156.40649051772198,187.9533167462141 156.46132535213837,188.19604970607543 156.7537778023834,189.2907053816998 156.76474476925796,189.2954646742328 157.59092294116272,190.53761634734838 158.7936336427665,191.89869390834428 159.8245285298617,193.1121943322105 160.88466866195085,194.28282267507893 161.01992792019155,194.41606227051307 162.14586985360074,195.6627779079572 162.26650648932264,195.85311199341595 162.32499697936873,195.99586183092833 163.08171769435285,197.24251727700175 163.9407967669249,198.8650015154526 164.01025422387465,199.00298033449144 164.9095455083443,200.51595128957706 164.98631427652435,200.6253772940472 165.85636031597096,201.6244673711335 165.9038838391425,201.71010224432757 166.8360760242649,203.09925888891667 167.92546140142076,204.35515798460256 168.0497536927578,204.46932824022952 169.2122521824349,205.71090405792347 170.18465657946945,206.88108183560325 170.24314706951554,206.9476760608777 170.53194386413088,207.0 171.07298089706455,206.84778467215074 171.2118958109204,206.75740648636565 172.07828619475185,206.2484299386124 172.1221540622937,206.20561846629062 172.26106897614955,206.1057248131765 174.004816710687,205.02590253382368 174.0559958894737,205.00211750117887 174.26071260466415,204.87843505278943 174.54950939926493,204.72145281067787 175.57674863071588,204.01740198009065 175.85823411405727,203.8556584339567 176.74655843165237,203.2705206940991 177.77014200748818,202.64731371154994 177.92733519949252,202.55692392720448 178.0260379014362,202.48556339481001 178.25999986163515,203.54168338630552 178.2892451066582,203.60828440566183 178.30021207353275,203.6510992751173 179.00575360973016,203.48459669041404 179.0898336891696,203.43702436779495 179.79537522536702,203.41799541938235 179.84289874853857,203.48459669041404 179.89773358296952,203.5369261654596 179.80999784788582,203.58925555681344 179.81730915913067,203.60828440566183 179.83193178164947,203.62255603503218 179.88676661608042,203.6368276581925 180.2779217682546,203.94128746970455 180.2962000464031,203.94604463179712 180.83358142370707,203.7652719865182 180.86648232437437,203.74148603783397 180.91400584751682,203.75100041939004 181.76211795321433,203.28954972824795 181.86082065515802,203.22294806032733 182.83322505220713,202.4998355137286 182.93923906541022,202.42847485687525 183.81294076048653,203.52741172167225 183.82390772737563,203.56546948020332 183.81659641611623,203.58449834287603 183.78735117107863,203.60828440566183 183.22072454876616,203.62255603503218 183.2316915156407,203.61779882593692" stroke="#ff0000" stroke-linecap="round" stroke-linejoin="round" stroke-width="0.5"><title>2024-03-16 38.6km</title><desc>10969293139</desc></polyline><polyline fill="none" points="34.53525549528422,256.1005221353553 34.59691692830529,256.16070327241323 35.876391664205585,255.4786488491518 36.01512988860486,255.2579834611679 35.99971453030594,255.1978019305243 35.90722238080343,255.03731772046012 34.82814730226528,253.87380161673354 34.79731658578385,253.8938623223221 34.64316300308565,253.83368019686895 34.65857836138457,253.7734980451205 34.68940907792421,253.79355876526097 34.81273194402456,253.8938623223221 35.01313160144491,253.65313366295595 34.95147016836563,253.47258689290902 34.95147016836563,253.27197909366805 34.9206394518842,253.43246535643993 34.81273194402456,253.51270841778023 34.64316300308565,253.45252612612967 34.53525549528422,253.37228302974836 34.581501570064574,253.17167508471175 34.56608621176565,253.0111885187216 35.352269483264536,253.23185749881668 35.95346845558379,253.11149264429696 35.968883813824505,253.1516142741457 35.86097630596487,253.23185749881668 35.72223808156559,253.19173589230923 34.8435626605642,253.251918297683 34.56608621176565,253.4124045837525 34.581501570064574,253.45252612612967 34.550670853524935,253.47258689290902 34.4427633456653,253.5528299309808 34.27319440478459,253.43246535643993 34.38110191258602,253.05131017770327 34.519840136985295,253.21179669701087 36.508421353122685,254.9971966387384 36.49300599482376,255.03731772046012 38.37367970304331,253.9139230249566 38.789894376241136,253.61301217890286 39.25235512416111,253.4926476568362 39.36026263202075,253.5528299309808 39.499000856420025,253.71331586719316 39.83813873818144,254.23489387102018 42.304596060479525,256.5217895437672 44.98686839849688,255.98015978255717 47.31458749639569,253.43246535643993 48.02369397657458,252.7303365792468 48.74821581499418,251.90783832594752 48.902369397634175,251.84765533452446 49.22609192127129,251.86771633461467 49.33399942901451,251.82759433155297 52.01627176703187,248.67798069612763 52.40165572363185,248.27675086779345 53.989437624870334,246.37089325369743 54.86811304592993,245.46810940821888 56.53297173848841,244.26438842773496 56.872109620366246,244.0637672435405 61.35797887516674,243.5220885895542 61.89751641446492,243.56221300720063 66.55295461026253,243.14090604006196 67.0,243.18103056855034 65.68969454750186,243.1007814998593 65.44304881530115,243.12084377140854 64.78018840990262,243.32146632632066 64.64145018550334,243.26127959047153 64.62603482726263,243.08071922544332 63.43905224092305,241.57604032978998 58.62946046242723,238.5265074497147 54.83728232939029,236.17912374003208 51.738795318233315,234.21290836375556 51.7233799599926,230.98263656646304 52.2012560662115,223.23770176942344 52.23208678275114,222.61568037477264 52.216671424452215,222.59561512181244 52.24750214105006,222.5554846071609 49.21067656291416,222.39496243168833 45.880959177797195,222.39496243168833 42.628318584000226,222.49528881326842 38.92863260064041,222.3748971466557 33.74907222384354,222.39496243168833 33.08621181844501,222.3748971466557 31.328860976325814,222.47522354277316 29.84898658283055,222.43509299310972 28.214958606869914,222.45515826941119 26.981729945749976,222.41502771391242 26.812161004869267,222.49528881326842 21.63260062801419,222.53541934548412 21.617185269773472,222.65581087199098 21.69426206103526,223.3179623902979 21.678846702736337,223.4182881006709 21.678846702736337,223.5386788568867 21.755923494172748,224.12056603102246 21.802169568894897,224.18076111585833 21.60176991147455,224.14063106222602 21.648015986254904,224.28108619897102 21.725092777633108,225.0034246435389 21.755923494172748,225.0435544463253 21.78675421065418,225.74582410450967 21.8792463602731,226.38789609269588 21.940907793294173,226.2875725414924 21.355124179273844,226.2875725414924 21.49386240367312,226.3076372575306 21.66343134455383,226.40796079421125 21.910077076754533,226.40796079421125 21.98715386801632,226.5082842578704 21.8792463602731,226.42802549275802 21.586354553233832,227.7522891474946 21.50927776185563,231.96577077067923 21.01598629745422,232.90877046671812 20.33771053381497,233.65112739612232 20.04481872683391,234.15271765521902 18.395375392457936,236.3195666235115 17.79417642019689,235.8380475709564 17.578361404535826,235.51703393578646 16.42220953461947,233.99220897069608 15.420211247517727,232.48743097342958 14.402797602000646,231.10302072293416 13.431630031380337,231.223404774355 13.0,231.18327676887566 13.015415358182508,231.44410859585332 13.431630031380337,234.01227256646962 13.35455324006034,234.29316260099586 13.786183271440677,236.74089441625983 13.894090779300313,237.04184205198544 14.171567228040658,239.6299646274856 14.464459035021719,239.60990184848197 15.543534113559872,239.36914827270084 15.666856979660224,239.3089598131337 15.790179845760576,239.32902263589494 15.836425920540933,239.44939951132983 16.09848701109877,240.95410159426683 16.113902369339485,240.89391382598842 15.86725663713878,239.32902263589494 16.25264059373876,238.66694794422074 16.51470168423839,238.5265074497147 15.743933771096636,239.24877132727124 15.743933771096636,239.3089598131337 16.329717385058757,241.89703987081884 17.131316014798358,244.82612619179417 17.223808164417278,245.08693223362206 19.782757636276074,243.36159080227662 20.029403368534986,243.12084377140854 22.264630316814873,242.15785144815163 24.345703682512976,245.2474280143797 26.056808449910022,247.57459586148616 26.210962032491807,247.89558145042975 28.06080502422992,250.4835004890192 29.8027405081084,252.83064090894186 29.89523265772732,253.05131017770327 31.806737082486507,255.7996160564071 33.44076505844714,257.62510285335884 33.70282614894677,257.4646214655513 34.53525549528422,256.020280578392 34.458178703906015,255.87985774155823 34.350271196104586,255.87985774155823" stroke="#4dd2ff" stroke-linecap="round" stroke-linejoin="round" stroke-width="0.5"><title>2024-03-09 10.2km</title><desc>10921031918</desc></polyline></svg>