<?xml version="1.0" encoding="utf-8" ?>
<svg baseProfile="full" height="300mm" version="1.1" viewBox="0,0,200,300" width="200mm" xmlns="http://www.w3.org/2000/svg" xmlns:ev="http://www.w3.org/2001/xml-events" xmlns:xlink="http://www.w3.org/1999/xlink"><defs /><rect fill="#222222" height="300" width="200" x="0" y="0" /><text fill="#FFFFFF" style="font-size:12px; font-family:Arial; font-weight:bold;" x="10" y="20">Over 10km Runs</text><text fill="#FFFFFF" style="font-size:4px; font-family:Arial" x="10" y="280">ATHLETE</text><text fill="#FFFFFF" style="font-size:9px; font-family:Arial" x="10" y="290">OrdinarySk</text><text fill="#FFFFFF" style="font-size:4px; font-family:Arial" x="120" y="280">STATISTICS</text><text fill="#FFFFFF" style="font-size:3px; font-family:Arial" x="120" y="285">Number: 10</text><text fill="#FFFFFF" style="font-size:3px; font-family:Arial" x="120" y="290">Weekly: 1.4</text><text fill="#FFFFFF" style="font-size:3px; font-family:Arial" x="141" y="285">Total: 258.3 km</text><text fill="#FFFFFF" style="font-size:3px; font-family:Arial" x="141" y="290">Avg: 25.8 km</text><text fill="#FFFFFF" style="font-size:3px; font-family:Arial" x="167" y="285">Min: 10.2 km</text><text fill="#FFFFFF" style="font-size:3px; font-family:Arial" x="167" y="290">Max: 61.1 km</text><polyline fill="none" points="53.82803414529917,82.41520933995162 53.33471908148931,81.70236259226658 52.800113329532905,81.20165699497738 51.71568946680054,80.38692203123173 51.50271644366876,80.23698444791808 51.354939243938134,80.1125070854705 50.31397926349018,79.34865127963167 50.253129828306555,79.28640985497441 50.22705149894318,79.28075153376267 50.11621859914885,79.19587651804068 50.053195969849185,79.14778051137364 49.48816550029733,78.62437510074415 49.39906454163429,78.48291176062594 49.04483390110545,77.83782588339636 49.03179473642376,77.8236790234696 49.010062795285194,77.80953215326008 48.40808802579704,78.0075873996102 48.34941178472218,78.03871018348946 47.92346573845134,77.44170991506508 47.88434824439901,77.36248575304853 47.66268244481034,77.03426792871505 47.262814727888326,76.5023169297765 47.23239001030015,76.47968039420994 46.495677205770335,76.47119168658537 46.423961800013785,76.48250996259958 45.832853001098556,76.70887409927309 45.763310789458046,76.72868083584581 45.02877117902972,76.75980566683393 44.42896960366488,76.7230217703127 43.57707751110138,76.92957659515378 43.4814569700975,76.91825857938966 42.65781640102068,76.95504210655963 42.26446826643951,77.02294997388344 41.52558226780093,77.21818377135969 41.486464773748594,77.2153543100394 40.98445693348913,76.64379467989966 39.934804176584294,75.37328759506454 39.3676005129164,74.70828976129633 38.872112254997774,74.10552739028935 38.819955596278305,74.05458886868473 38.28317665019131,73.39520595859722 37.82245949809294,72.78957276399888 37.7485708982349,72.75278135447661 36.661973841393774,71.41975331488538 36.51202344754711,71.21313993643162 36.444654430029914,71.15087246015355 36.36641944193252,70.98388142521071 36.29253084206721,70.89897017919611 36.22298863044125,70.79424579819351 35.46671707888163,69.82905669200773 35.447158331851824,69.81773454120594 35.42977277893806,69.7894291353332 35.377616120211314,69.75546259386101 34.92341855045379,69.18934482875375 34.31709739273356,68.39109075712258 34.284499481043895,68.33730650221878 33.725988593825605,67.64092849642657 33.69991026445496,67.59846561558697 33.17399728894816,66.93603265839374 32.92190677176404,66.63877975956711 32.85888414247165,66.59631468847874 32.511173084283655,66.50006018371278 31.996126079335227,66.33586022205418 31.926583867694717,66.29339448886094 31.14206079266296,66.01028722882984 31.113809269190824,65.99046956612801 30.533566440833965,65.31948819973695 30.131525529803184,65.00239189525382 29.65994240713917,64.56920732848812 29.69036712473462,64.52673773337301 29.870742236162187,64.33420773763464 29.90768653609848,64.28324359581529 30.116313171012735,63.45081035139083 30.12935233569442,63.13651505337293 30.120659559244814,62.52773041588625 30.12935233569442,62.36632849801936 30.122832753360854,61.287449652245414 30.135871918027988,61.20249601663636 30.144564694492146,60.30762848100676 30.170643023848243,59.47502481861193 30.161950247398636,59.44670433837018 30.179335800305125,58.319515687288 30.190201770878048,58.27986464388414 30.203240935559734,57.17526731562975 30.227146070807066,56.84104343239051 30.2206264884735,56.591787977407876 30.231492459039146,55.504090358464964 30.251051206061675,54.67411342182277 30.24018523549603,54.57496704643199 30.29886147655634,52.89223418419715 30.294515088338812,52.83840698779932 30.335805776492634,52.096143057004156 30.31624702946283,51.69950183795663 30.327113000050304,51.419014939983754 30.294515088338812,51.025193160650815 30.285822311874654,50.67669671954718 30.292341894215497,50.60586334428808 30.27060995309148,49.93435010272515 30.253224400163162,49.88901503807938 30.251051206061675,49.85218022008121 30.24018523549603,49.10130138160275 30.253224400163162,48.51474562172007 30.24453162372083,48.33905880314887 30.255397594286478,48.09819525667808 30.248878011945635,48.0273524680706 30.266263564852125,47.80632130508093 30.255397594286478,47.18005266834916 30.28364911776589,46.37239132161085 30.301034670679655,44.70878637835449 30.28364911776589,43.818826690812784 30.290168700106733,43.7309622139619 30.285822311874654,42.30806914128152 30.277129535425047,42.217363254625525 30.301034670679655,41.88571624525321 30.277129535425047,41.87721240119936 30.294515088338812,41.65044185104125 30.29886147655634,41.01830494400565 30.28147592364985,40.78585480093352 30.292341894215497,40.726324438079246 30.303207864781143,40.510879692610615 30.292341894215497,40.36063391394782 30.259743982518557,40.179203497520575 30.205414129668497,40.00344116278575 30.138045112151303,39.85602636326621 29.96201638893399,39.626397231473675 29.892474177300755,39.55268853854977 29.872915430285502,39.57253321421376 29.43827660754323,39.19264589608065 28.88411210855702,38.756049785890355 28.356025938941457,38.30810329918677 28.24519303913985,38.191862329742435 27.62365952262917,37.64466986757907 27.11078571179678,37.1740152915645 27.08905377065821,37.16267407646592 27.073841411875037,37.17685059430369 27.07818780009984,37.148497548252635 27.308546376152663,36.811093117426935 27.347663870190445,36.777068815257735 27.571502863895148,36.49069523894104 27.945292251453793,36.04269640626262 28.33864038602769,35.628713597332535 28.266924980278418,35.53797645795021 28.29083011552575,35.48126553014663 28.28431053317763,35.45291000402722 27.743185198880383,34.89713331802159 27.69754812249448,34.84325615936723 27.243350552736956,34.42357632311359 27.2085794469167,34.40089066769178 27.076014605976525,34.26194044885233 26.328435830881062,33.57568190218262 26.280625560386397,33.51896523274081 26.119809195974085,33.40269554151746 25.65474565563636,33.28358928091802 25.400481944343483,33.2438870313963 24.874568968836684,33.19284116250128 23.6206359652424,33.028359114823616 23.377238224515168,33.03970274913627 22.45797711443447,33.0 22.45145753208635,33.028359114823616 22.434071979172586,33.05104637680233 22.36018337931455,33.031195024021144 22.297160750022158,33.03970274913627 22.162422714980494,33.03686684117747 22.162422714980494,33.05104637680233 22.18415465610451,33.04253865667306 22.716587213952153,33.04253865667306 22.716587213952153,33.03686684117747 22.712240825734625,33.05104637680233 22.73179957274988,33.03970274913627 22.82524691963772,33.03686684117747 22.829593307862524,33.03403093281122 22.949118984121014,33.0453745638024 22.97954370170919,33.03686684117747 23.185997142500128,33.03970274913627 23.364199059826205,33.031195024021144 23.48372473607742,33.096420821098945 23.481551541968656,33.1049285175759 23.23380741301662,33.14179515916112 22.840459278435446,33.15313872707884 22.766570678570133,33.16448228835179 22.620966672955547,33.17015406649807 22.75787790211325,33.19567704762994 22.773090260910976,33.19284116250128 22.70137485516898,33.16164639865747 22.195020626677433,33.15313872707884 22.25587006186106,33.17015406649807 22.40799364981649,33.15597461801735 22.418859620382136,33.16164639865747 22.88826954893011,33.18149761782115 23.418528912676265,33.16448228835179 23.95530785874871,33.187169390992494 24.713752604417095,33.289261024212465 25.159257397725014,33.36299353598406 25.194028503537993,33.37433697442975 25.194028503537993,33.36866525603364 25.726461061385635,33.42821821641519 26.198044184056926,33.618219295347444 26.50229135997506,33.91030687359671 26.554448018701805,33.95284353235547 27.004299200234527,34.39805495890323 27.01081878257537,34.395219249687216 27.012991976684134,34.40372637607106 26.999952812009724,34.417904911753794 27.13251765293535,34.52849713408068 27.154249594081193,34.53700420196583 27.48674829346419,34.86877693740098 27.708414093060128,35.06727073066395 28.034393210116832,35.34799419671981 28.0409127924504,35.33948748475814 28.175650827506615,35.64856228995632 28.140879721679084,35.67124648521349 27.873576845697244,36.008670755427374 27.63017910497001,36.29221602081452 27.56498328156158,36.38011421097144 27.286814435006818,36.70618466063206 26.989086841429526,37.07194411678938 26.860868388728704,37.210874194832286 27.134690847058664,37.42919087737937 27.710587287176168,37.96788386247499 27.758397557670833,38.00190607480181 27.88661601039348,38.112477852560914 28.364718715383788,38.46970544024589 28.812396702807746,38.860947151189976 29.24920871965878,39.291870913730236 29.297018990160723,39.314550846460406 29.6077857484197,39.59804776735291 29.99896068887756,40.028955148929526 30.027212212349696,40.08281789833018 30.103274006338324,40.65261992609885 30.08371525930852,40.97294903732836 30.09892761809897,41.57390619186481 30.107620394555852,43.02519762214433 30.09675442398293,43.18109160929271 30.105447200439812,43.353990747698845 30.103274006338324,43.8018206941033 30.092408035765402,45.295457217347575 29.65994240713917,45.3606417708761 29.110124296385038,45.366309982569874 28.829782255714235,45.252945433991044 28.829782255714235,44.84482757337901 28.838475032178394,44.78247547742649 28.81674309103255,44.73996256981445 28.80370392635814,44.731459977112536 28.810223508698982,44.754133549377 28.790664761669177,44.754133549377 28.760240044081,44.72579157991095 28.792837955785217,44.745630962886935 28.81456989691651,44.748465158796535 28.790664761669177,44.640765423047924 28.76893282053061,45.301125448089806 28.77762559698749,45.44566477238914 28.790664761669177,45.468337509850244 28.808050314582943,45.45700114443389 29.288326213696564,45.46266932796607 29.283979825479037,45.45700114443389 29.381773560591682,45.45700114443389 29.898993759648874,45.47400569007732 30.079368871069164,45.47400569007732 30.094581229874166,45.4881761333927 30.09675442398293,46.05215137322739 30.088061647533323,46.397896930928255 30.094581229874166,46.38372715211153 30.09675442398293,46.389395064878045 30.06632970640203,47.23956322703816 30.057636929945147,48.1236985972555 30.06632970640203,48.160536696685085 30.06632970640203,48.26538321224871 30.04894415348099,48.50907832982739 30.055463735829107,48.64225925180108 30.0467709593795,48.84344571957081 30.03590498880658,48.88311604446608 30.033731794697815,49.17214024918758 30.04894415348099,49.208976358127984 30.077195676967676,49.211809902071764 30.055463735829107,49.231644698098535 30.061983318162675,49.58583407069818 30.075022482851637,49.639670289307105 30.114139976896695,51.325518406461924 30.10110081221501,51.62583900474419 30.105447200439812,51.71366773536465 30.075022482851637,52.10747554414411 30.075022482851637,52.436114792995795 30.090234841649362,52.65426018700782 30.033731794697815,52.940395233377785 30.007653465327166,53.01122008861421 30.094581229874166,53.30301576640704 30.09675442398293,54.08489323871254 30.075022482851637,54.81291749663069 30.01417304766801,55.66554932546751 30.022865824124892,55.73636423821699 29.975055553615675,56.52380866155181 30.020692630008853,57.206423486151834 30.003307077102363,57.88901431171689 30.007653465327166,58.636721119617505 29.990267912420677,59.25695605529836 29.99678749476152,59.26545228672694 29.98157513595652,59.891331112106855 29.988094718304637,60.715421332628466 29.98157513595652,61.497000364577616 29.951150418368343,62.4342873637579 29.951150418368343,63.07705320869172 29.931591671345814,63.77076340406893 29.92507208900497,63.79907757968613 29.731657812888443,64.20396577612519 29.6947135129667,64.24360472641092 29.553455895562365,64.5720386315279 29.5925733896147,64.58902644110276 30.092408035765402,65.05335415040827 30.4705438115343,65.31382581111575 31.03992066932551,65.97631408038797 31.724476815128583,66.28207027766803 32.58506168414169,66.55668053838053 33.063164389153826,66.87658244245358 33.11532104788057,66.95584935662191 33.56734542352933,67.52486306896208 33.62167527636484,67.58148043726214 34.07152645789756,68.15613739038236 34.57570749226579,68.82985148628359 35.529739708166744,70.07814234082616 36.09694337184192,70.79424579819351 36.60764398855099,71.37446837879179 37.16615487576928,72.09052407441595 37.76378325702535,72.8801359369063 37.82245949809294,72.92258727894841 38.435300238154014,73.62160604571545 39.102470831050596,74.42813492754249 40.247744128952036,75.78642372977083 40.68238295168703,76.32122390737459 40.72367363984813,76.38630440646557 41.13658052144456,76.92957659515378 41.26045258592785,77.07671020064845 41.41257617388328,77.32004410489571 42.05584163153253,77.1134934280617 42.90773372409603,76.97484859236283 43.118533553126326,76.95221260693324 43.93130815163022,76.92391758809026 43.996503975045925,76.90694055702988 44.770161079512036,76.81073710097371 45.02442479081219,76.7994190160316 45.096140196561464,76.81073710097371 45.65899747200456,76.78527140058577 46.53479469980812,76.48250996259958 47.27150750434521,76.50797605954176 47.31931777484715,76.55890815335988 47.71266590942105,77.1927186046014 48.160343896845006,77.94251232690112 48.429819966928335,78.08963826783656 48.86445878967061,77.84914336391194 49.01658237762604,78.04719820681385 49.35560065936443,78.64135063239155 49.42079648276558,78.73471579162288 49.89020641131356,79.17607229441091 49.99451972878887,79.260947396564 50.58562852769683,79.69663375631717 50.92899319766002,79.95973832447453 51.49402366721188,80.36146101365375 52.261161189337145,80.9329113867916 52.46109504780179,81.09133029987242 53.043511070267414,81.51848915301707 53.475976698893646,82.09839178848233 53.78891665125411,82.34449158387542 53.795436233594955,82.35863515565143 54.46695321471634,82.3784361388789 54.51693667933432,82.37277871715924 55.33840405430237,82.38692226837338 55.716539830078545,82.42369545340625 55.72740580064419,82.4123806346488 55.81216037108243,82.44632507118513 55.81216037108243,82.91022643392535 55.792601624067174,83.36280246770912 55.79477481816866,83.45897351841268 55.603533736168174,83.92567921824048 57.32687666831043,85.70188700232029 57.54419607968157,85.95925397874089 57.37034055058757,86.34954026037667 57.837577285019506,86.96606350775073 57.8332308967947,86.9745476363587 57.79845979097445,87.0 57.58114037961059,86.86425367588163 57.58983315606747,86.85576949918322" stroke="red" stroke-linecap="round" stroke-linejoin="round" stroke-width="0.5"><title>2024-05-05 61.1km</title><desc>11336440436</desc></polyline><polyline fill="none" points="73.0,55.95562030080691 73.36043385555968,56.05332996876314 73.42551219058805,56.08589981075784 74.80717530357651,56.87408277146824 75.00741633443977,56.96527659975254 76.31899508665083,57.69482054750188 77.53545934916474,58.717464846042276 78.61175489009474,59.64889763357496 80.1135626216419,60.769196749879484 80.25873736903304,60.840842833986244 82.17103921383386,61.876441625659936 82.32121998700313,61.987164609319734 82.65662371370126,62.16301819782166 84.06331695555127,63.061814656612114 85.83545007876819,64.01920845836503 85.88050431071315,64.07782374130693 87.48743858345551,64.61838329457532 87.60257717620698,64.68351051173522 89.46481876328471,65.25011330966663 89.91536108276341,65.47805494450222 91.59738574209041,66.18141039946568 91.81264485025895,66.28561026933312 93.5747659219196,67.38620660967717 93.73495874661603,67.47086674779348 94.9263928802975,67.12571287453466 95.00648929266026,66.93685397032823 96.34309817370377,65.55620609540347 96.5233151014836,65.45200453059806 97.61963474549702,64.62489602055939 97.83989987944369,64.48161583065303 99.7321776211902,63.30279325295851 99.9224066005263,63.17253471305958 101.78464818760403,62.01973014070609 101.94984703807859,61.902494117010065 105.79447483076365,59.486061129489826 107.83693334565032,58.300593553583894 107.99212014456862,58.24197071718663 109.1334940205561,57.5189494318729 110.955687401467,56.32040197453534 113.02317604521522,55.0566813624464 113.14832668952295,54.94594126056472 114.79530916843214,54.073039115352 114.81032724576653,54.112124649545876 114.85538147768239,54.177267130824475 115.90164086397272,55.62340583664991 116.02178548253141,55.76020032595625 116.7476592193998,56.80894420913319 118.11430425511207,56.47673606888202 118.26949105403037,56.37902732381917 119.98655789374607,55.34981560573215 120.03661815144005,55.33027338248212 121.59349216645933,54.28800913172017 122.98016130525502,53.812468016298226 123.12533605261706,54.007896482591605 124.43691480482812,54.95896952203475 124.91749327891739,54.60069095157087 126.38926485582488,53.252235024017864 126.63456011863309,53.14149046408784 126.7046444794396,53.10240408348909 126.77973486602423,53.030745630545425 127.0,52.78971181171801 126.9148975618591,52.587763560160965 126.86483730416512,52.52913325221016" stroke="#4dd2ff" stroke-linecap="round" stroke-linejoin="round" stroke-width="0.5"><title>2024-05-01 11.0km</title><desc>11334576242</desc></polyline><polyline fill="none" points="187.0,57.97610845507006 186.97200000000885,58.00213502641782 186.9840000000113,58.01254564964984 186.96399999999267,57.99692971365948 186.9480000000185,57.99172440013717 186.94000000001688,57.981313770855195 186.93600000001607,57.939671223415644 186.916000000012,58.501841528501245 186.84000000001106,58.460199586283125 186.80800000000454,58.423762847127364 186.7280000000028,58.28322079172722 186.6760000000213,58.22075747897179 186.4840000000113,57.934465901591466 186.40000000000873,57.83556464299909 186.28000000002794,57.64296667144299 186.18000000000757,57.51803770364131 186.1200000000099,57.41392989758606 185.99599999999919,57.247356778407266 185.70000000001164,56.815304139687214 185.4719999999943,56.523795800076186 185.30000000001746,56.26351849174898 185.24800000000687,56.20105165629138 185.05199999999604,55.89912708207703 184.94000000000233,55.75336948003314 184.18000000002212,54.66016855398266 183.07200000001467,54.99854383537968 182.0639999999985,55.84707086373601 181.1880000000092,56.539412378431734 181.096000000005,56.59146759039868 180.08800000001793,57.2577676210567 178.94800000000396,57.934465901591466 178.416000000012,58.30404187177919 177.78800000001502,58.66840881318785 177.79200000001583,58.66840881318785 177.6200000000099,58.75169216504946 177.5280000000057,58.7777181727688 177.51600000000326,58.78812857058074 177.50000000001455,58.8193597458303 176.6240000000107,59.43356732461325 176.00800000001618,59.78751267100597 174.84400000001187,60.55785221694896 173.7840000000142,61.19805423370417 173.6600000000035,61.281331703805336 173.14800000000105,61.58841570145887 172.99200000001292,61.666487484500976 171.7600000000093,62.46801461600262 171.6759999999922,62.54608448197905 170.51600000000326,63.31116016443775 170.44800000000396,63.34759193221544 170.17600000000675,63.5349547240985 168.90000000000873,64.34164444105772 168.56800000001385,64.51338893861248 167.20000000001164,65.40332451159702 166.11600000000908,66.07466478876086 165.98799999999756,66.17354330157832 164.98399999999674,66.81364496713286 164.68000000000757,67.0009896326701 164.60400000000664,67.06343763679615 164.46800000000803,67.14670147301877 163.25999999999476,67.87004790754872 163.2280000000028,67.88045566334404 162.88400000003458,68.10942552590495 162.8640000000014,68.11462936942553 162.85600000001432,68.062590900332 162.84800000002724,68.05738704927717 162.82000000000698,68.06779475064468 162.75200000000768,68.04697934488286 162.62800000001153,68.0417754915361 162.5,68.01055235567401 162.44400000000314,67.98453305500516 162.40000000000873,67.91167891258738 162.33200000000943,67.84402850484184 162.27600000001257,67.73474680712388 161.13200000001234,66.54303427631385 160.0280000000057,65.68435220500032 159.91200000001118,65.62190179698882 158.99199999999837,64.96616594006264 158.9880000000121,64.97137024014955 159.00000000001455,64.99218743291931 158.50400000000081,64.83605819225704 158.45200000000477,64.77360630546536 157.9200000000128,64.37287077458677 157.88000000000466,64.36246199976813 157.81200000000536,64.33644004949383 157.77200000001176,64.33123565717688 157.72800000001735,64.30000928734444 156.62400000002526,63.84722386623616 156.5240000000049,63.74833893240066 156.24800000000687,63.60261326922773 155.5920000000042,63.38402366295486 155.54800000000978,63.36320553563564 155.39600000000792,63.3371828595009 155.27200000001176,63.26952381304727 155.22800000001735,63.253910168787115 154.10800000000745,62.936431259618985 153.87200000001758,62.686609811946255 153.8480000000127,62.686609811946255 153.84400000001187,62.71263296070538 153.44800000000396,62.82713459064689 153.40800000001036,62.795906909697806 152.3120000000199,62.34310247653775 152.23600000000442,62.27544155247233 150.94800000000396,61.890292319531 150.91200000001118,61.838244808255695 150.87200000001758,61.76537816543714 150.4840000000113,61.42706681057825 150.3480000000127,61.44268125113376 149.82800000002317,60.4225234963269 149.76400000001013,60.31842413254344 149.34400000001187,59.73025704329484 149.29200000001583,59.5949251957536 149.20800000001327,59.47000303646928 149.13200000001234,59.26700359836104 149.04400000000896,59.142080295347114 148.64400000001478,59.058797851273994 148.68800000002375,59.058797851273994 148.24800000000687,58.24678387252425 148.23600000000442,58.106241122637584 147.56800000001385,57.33064343484875 147.5560000000114,57.262973041251826 147.53200000002107,57.23174050878515 147.20000000001164,56.856947994496295 147.10000000002037,56.82571510793059 146.69200000001,56.294751868634194 146.60800000000745,56.25831292629664 145.15200000000186,55.86268773717893 145.09200000001874,55.86268773717893 145.03200000000652,55.84186523772951 143.63600000001315,54.98813233593319 143.5800000000163,54.925663275713305 143.5280000000057,54.88922294025542 143.19600000001083,54.748667013274826 143.1480000000156,54.7070207067336 143.08800000000338,54.67578594504448 141.9200000000128,53.75955414791679 141.77200000001176,53.71270075550274 141.30400000000373,53.23895745513073 139.89600000000792,52.37475023433581 139.8480000000127,52.33310116676148 139.8080000000191,52.27583361971847 138.90000000000873,51.88537063057447 138.8640000000014,51.90098923187543 138.80400000003283,51.942638802091096 138.74800000000687,52.53093380631981 138.5800000000163,52.676704525543755 138.53200000000652,52.697528865559434 138.50400000001537,52.697528865559434 138.512000000017,52.73397143144757 138.4880000000121,52.801650383978995 139.12000000002445,52.44242986584504 139.0679999999993,52.42681150068893 139.27600000001257,52.926595806417026 139.2719999999972,52.99948043483528 139.0920000000042,53.946967104511714 138.4600000000064,54.691403329285095 138.46800000002258,54.717432287910924 138.52800000002026,54.79031327136909 138.52800000002026,54.77990171138299 138.52800000002026,54.79031327136909 139.00000000001455,54.55084662586523 139.03200000002107,55.08183572195048 138.99200000001292,55.7273412743707 139.05200000002515,55.84186523772951 139.05599999999686,55.831453983471874 139.51200000000244,55.85748211345708 139.56000000001222,55.89392146365208 139.18000000003667,56.15940703875094 138.91200000001118,56.40927401747467 138.91600000002654,56.43530172749524 138.87600000000384,56.85174251529679 138.90000000000873,56.81009865441956 139.14000000001397,56.26351849174898 139.14800000000105,56.232285087640776 139.16400000001886,56.216668375356676 139.20800000001327,56.190640506436466 139.19600000001083,56.195846081744094 139.21200000002864,56.190640506436466 139.92399999999907,56.0917344320078 139.6040000000212,55.91994954822803 139.56800000001385,55.90953831666047 139.41599999999744,55.81583709640836 139.38000000000466,55.80022020253091 139.07200000001467,55.49829224891073 139.06000000001222,54.70181491501717 138.608000000022,54.8319594810273 138.56400000001304,54.79551905021799 138.1240000000107,54.88922294025542 138.04800000002433,54.91525175507559 137.3800000000192,55.57117164319061 136.72800000001735,56.34680743622812 136.72000000000116,56.398862928163 136.72400000001653,56.38845183582089 136.72000000000116,56.38845183582089 136.42799999999988,57.11201554861691 136.3920000000071,57.15365905840736 136.3240000000078,57.19530251979086 136.19600000001083,57.22132965855417 136.16800000001967,57.15365905840736 136.16000000001804,57.14845362233609 135.44000000000233,57.205713377570646 135.22000000001572,57.38269749675237 135.16000000001804,57.38790289878307 133.89600000002247,57.37749209396861 133.76800000001094,57.35146506868114 133.00400000001537,57.25256220011943 133.0,57.2577676210567 134.10000000000582,57.62214520706766 134.31600000000617,57.63776130647602 136.9320000000298,57.36708128612372" stroke="#4dd2ff" stroke-linecap="round" stroke-linejoin="round" stroke-width="0.5"><title>2024-05-01 17.8km</title><desc>11304292210</desc></polyline><polyline fill="none" points="47.595035397447646,118.13119720333634 47.56116139437654,118.16897299051197 47.56116139437654,118.14378913605469 47.5563222511264,118.13749317014663 46.55461958955857,118.74190172640374 46.46267586702015,118.82374807042288 45.89165695849806,119.41555549742043 45.8287480957224,119.46592171382872 45.277085760375485,119.8184835899774 45.00125459273113,119.95069355418673 44.749619141512085,120.01994623164501 43.87857334886212,120.04512899601468 43.79146876960294,120.05772037271163 43.66081190071418,120.11438152259143 43.55435074827983,120.10808584294136 43.37046330317389,120.17733826891345 43.11882785195485,120.29695583499779 43.08979299222119,120.2906601818504 42.973653553199256,120.31584278895025 42.75105296174297,120.3976861609226 42.54780894346186,120.49212062887455 42.09776861727005,120.62432853837163 41.100905099039664,121.01465429937161 41.06703109596856,121.01465429937161 40.99928308988456,121.09020081487688 40.78152164173662,121.37349907534008 40.675060489273164,121.46163593430902 40.07500672104652,122.14783820703451 40.036293574696174,122.21708737423614 39.620127251546364,122.77737202218486 39.5572183887416,122.83402961708634 39.073304059536895,123.15508792287801 39.0297517698782,123.0921355013088 38.87973832784337,123.25581160719594 38.91361233085627,123.2998781455135 38.28452370286686,123.92939523033783 38.1877408370201,123.9860513195672 38.01837082175189,124.04900244297824 37.703826507757185,124.20637985159192 37.611882785189664,124.26303557882056 36.64889327000128,124.34487149853157 36.55211040418362,124.34487149853157 34.87292768168845,124.21897001958496 33.53732413300895,124.23156018394366 33.387310690945014,124.22526510222451 31.901693700172473,124.09306817498873 31.780715117871296,124.03011711555882 31.02096962093492,122.9725256484744 30.996773904480506,122.85921074663202 30.488663858763175,121.28536203716794 30.45962899902952,121.10908742319225 30.299937270377995,120.68728454403026 30.203154404531233,120.56137244129786 29.60310063624638,119.92551073497089 29.191773456404917,119.52258363733199 29.090151447278913,119.40925971623074 27.812617618066724,118.32637174938645 26.77220181017765,117.69677328418038 26.53508378888364,117.57085249361626 26.385070346819703,117.47011559777093 26.35603548702784,117.4260431322109 25.81405143829761,117.25604891662442 25.770499148668023,117.23716062929452 25.71726857245085,117.19308792681841 25.678555426100502,117.1867918228345 25.141410520649515,116.7775431002483 25.06882337128627,116.76495077059735 25.063984227977926,116.79013542626126 25.049466798081994,116.8027277486326 24.299399587791413,116.50680720607488 24.289721301174723,116.51939961073731 23.350927502469858,116.23606962059057 21.908862801326904,115.75125622988708 21.79272336230497,115.69458937565287 20.641007258731406,115.2286590983822 20.486154673359124,115.15310236518417 20.37001523433719,115.11532394918686 20.316784658120014,115.10273113652147 18.70534994173795,114.63049802054957 17.108432655251818,114.03862524861688 16.982614929642295,114.00084586105004 16.203512859588955,113.68601635051164 15.985751411441015,113.5474906413001 15.806703109585214,113.38377786857018 15.656689667521277,113.2389545156002 15.58410251812893,113.15709762372717 14.417868984688539,111.37509773158308 13.890402365796035,110.6635366653718 13.861367506033275,110.63834844887242 13.803297786565963,110.41795093011024 13.072587149392348,110.86504187008904 13.014517429895932,110.90282399164425 13.004839143308345,110.92801205438809 13.0,110.98468514201886 13.120978582301177,111.18618885330216 13.150013442063937,111.20507977818124 13.86620664934162,112.3007393307962 14.650147862703307,113.39637118073006 14.727574155404,113.47193097688069 15.511515368765686,114.46678933915973 15.622815664479276,114.54864375716352 16.634196612605592,114.82568833238474 16.730979478452355,114.81309543556927 16.89067120710388,114.85087411503991 17.15682408818975,115.07124908889818 17.7907518594875,115.05235984934188 17.964961018034955,114.93902423905456 17.839143292425433,115.0082849250175 17.93108701496385,115.37347580216738 17.950443588139024,115.4049576302532 17.97463930459344,115.41755035508686 18.02303073753137,115.4049576302532 18.110135316790547,115.32940120442436 18.18756160949124,115.36088306452439 18.235953042370966,115.36717943379335 18.894076530152233,115.26643741559383 18.96666367954458,115.45532850763993 18.976341966103064,115.66940408333903 19.111837978329277,115.52458836842561 19.10699883502093,115.59384811855125 19.479612868541153,115.80792301000838 19.557039161212742,115.75125622988708 20.84909042029176,115.8771823073148 20.970069002592936,115.92755263582512 22.155659109237604,116.34310561234815 24.105833856068784,116.97272374229578 24.260686441411963,117.03568505220028 25.630163993191672,117.74714149797728 26.496370642533293,118.30118798638796 26.578636078484124,118.33896362539599 26.617349224863574,118.33896362539599 27.773904471716378,119.03780700874267 28.601397974736756,119.83107503250358 29.428891477757134,120.64321534968258 29.511156913707964,120.7313536935726 30.072497535613365,121.7512272091044 30.101532395376125,121.82047700991825 30.449950712441932,123.35023984871441 30.49350300207152,123.5139149800707 31.08387848373968,124.35746162633222 31.214535352628445,124.46447756485941 32.81145263911458,124.84847375784739 33.45505869702902,124.87365371724809 33.88574245007476,124.94919350769487 33.890581593324896,125.0184381999461 35.42459001703537,125.18840197567624 36.034322071878705,125.23246654951436 37.12312931267661,125.70458417261398 36.82794157182798,126.25852896163633 35.46814230666496,128.88967005665108 35.48749887984013,129.53798891664337 35.560086029203376,129.58204906988976 36.02464378532022,129.0722074151854 36.77955013891915,127.6433599688753 37.64575678826077,125.95637813598296 37.74253965410753,125.80530193344748 38.94264719061903,124.5337230313744 39.436239806440426,123.96716596473198 39.86208441617782,123.551686076451 40.95573080025497,122.62628474035228 41.34286226364202,122.33040395467106 41.80742001972976,122.16042897293664 41.880007169093005,122.10377049757517 41.91388117216411,122.10377049757517 41.909042028855765,122.0974751068461 42.84783582758973,121.83936330002325 43.805986199498875,121.68197729766325 44.996415449422784,121.47422689951782 45.7948740926513,121.10279188799905 45.751321803050814,121.00835875047414 45.88197867193958,120.48582500408156 45.998118110961514,120.42286870583484 46.588493592629675,119.86884933817419 46.73366789138527,119.7177519179968 46.980464199295966,119.53517516581996 47.1304776413599,119.38407658242795 47.265973653586116,119.26445649701054 47.35307823281619,119.20149842469618 47.512769961496815,119.11965279398646 47.65794426025241,119.0818778353896 49.52101442782441,118.91818596764278 49.68070615650504,118.8992984046672 51.72282462584553,118.74190172640374 53.48427278432064,118.65375933689211 53.54234250381705,118.62857576411989 53.60041222334257,118.61598397222406 55.4102518146683,118.49006585226016 56.929742808511946,118.03675759131875 57.26848283896106,117.87935778067185 59.47029303704039,116.95383533147469 61.14463661619811,116.50051100235578 62.33506586612202,116.19199590008793 62.46572273503989,116.1479221347654 62.659288466733415,116.1038483246266 62.81414105207659,116.0534782010036 64.44493234160473,116.00940429481852 65.78537503362168,116.26125458360548 65.95958419214003,116.3179206968889 67.0,116.07866327011652 67.0,115.97792290580765 66.66609911283012,115.14680596481048 65.11757325925282,114.73124151707088 65.03530782330199,114.71864859282869 64.8901335245173,114.69346273332849 64.31427547271596,114.6619803883732 64.20781432028161,114.63049802054957 63.36580338742351,114.58642266717288 63.3754816740111,114.5612367308131 63.3754816740111,114.58642266717288 63.39483824715717,114.60531210981935" stroke="#ffc800" stroke-linecap="round" stroke-linejoin="round" stroke-width="0.5"><title>2024-04-21 21.1km</title><desc>11229738329</desc></polyline><polyline fill="none" points="127.0,136.60009286555942 126.97709646145813,136.57028412769432 126.92474551624036,136.4553072831768 126.87239457100804,136.39994790077253 126.76114881239482,136.2168353520192 126.3587009209732,135.6802664078623 125.81228793019545,134.8881704766609 125.22333979640098,134.10031187534514 125.16117304896761,134.02791299463934 124.41190014540916,133.31669094567042 124.37590887057013,133.24854900435275 123.92111003393074,132.58841573964492 123.4630392632098,131.9793763689613 123.15220552592655,131.7238316019284 121.03526417838293,130.15218225170793 119.5203587009164,129.00640096930874 119.22915656809346,128.80194457648395 119.06228793019545,128.6698990640034 118.8070770722261,128.49099774228125 118.67947164323414,128.39302750765273 118.53550654386345,128.28653775036219 118.42098885118321,128.1843072189531 118.00872515753144,127.77964119587159 117.91711100340763,127.65185076341731 117.8549442559306,127.57091653435964 117.66844401355775,127.27699561040572 117.25290838585352,126.51449134057475 116.96170625303057,126.32705708256253 116.8799079011078,126.35687624933234 116.69013572466793,126.44633356742997 115.95722249151731,126.54857016765345 115.4664323800389,125.7477072433976 115.43044110518531,125.7093675113465 115.38136209403456,125.68380766207702 115.25048473097559,125.63694788044813 115.214493456122,125.5900880238205 115.21122152205498,125.55174808532865 115.20140571981028,125.51766809785477 115.1555986427411,125.44098798095729 115.0868880271446,125.33874751267831 114.82840523509367,124.92978206872067 114.46849248665967,124.40578674379503 113.9089917595702,124.34614440493533 113.38875424138678,124.39300625283249 113.26442074647639,124.41430706800202 112.45952496363316,124.71251685275638 112.11269995152543,124.7977190904221 111.07876878332172,124.85310041192497 110.37857489094313,124.80623930055299 110.29023267087177,124.81049940469347 109.75690741636208,124.93830224042358 108.93565196314012,125.09166490680218 108.83095007271913,125.07888471528167 108.00642268540105,125.0831447797409 107.90499272903253,125.10018503136234 107.81010664081259,125.10444509272929 107.37493940863351,125.14704567221088 106.6420261754538,125.31744737017834 105.97782355792879,125.4921080812037 105.50339311681455,125.061844451262 105.45758603974537,125.00220344904847 105.32343674260483,124.88292108010683 104.69849733398587,124.20129821891533 103.97212796898384,123.28960283044762 103.91323315558839,123.2256978831465 103.14432864759874,122.33101397100108 102.64699466795719,121.73454283627143 102.2020116335334,121.18918716139342 101.75702859913872,120.6693855753474 101.24006301502232,120.0387942091802 100.65765874939098,119.31871042507919 100.36645661656803,118.8500073184332 100.34028114395915,118.8287024534111 100.2715705283481,118.79035365727941 99.79714008724841,118.2662484069715 99.24745516237454,117.60577720377296 98.25278720310598,116.37001685032374 97.9059621909837,115.82456119654853 97.83725157537265,115.73933283213591 97.17304895783309,114.89982017692273 96.67571497817698,114.3159824547838 96.61354823072907,114.26910446818329 96.54483761511801,114.17108661713246 96.37796897722001,113.89407787144955 96.27653902083694,113.83441410601336 95.91008240425435,113.37414668310885 95.83809985457628,113.2931729615866 95.45528356761497,112.79454036880088 95.0037566650426,112.15951732776921 94.94158991759468,112.05723044834667 94.29047503635229,111.26875708238185 94.01563257390808,110.90647841058671 93.10276296654774,109.7812548690872 93.08967523023603,109.75994339952558 93.04714008724841,109.67043505780566 92.69704314104456,109.44879417570701 92.61524478913634,109.43600715049251 92.31749878817936,109.36780958832242 91.86269995152543,109.244201101621 91.79726126998139,109.23567635914878 91.11997091614467,108.93304639171765 90.63572467281483,108.77107413691556 90.55392632090661,108.75828681543499 89.98788172563945,108.34056457325823 89.52326708676992,107.7906966086448 89.2287930198654,107.50936481539975 88.26030053320574,106.78470985572312 87.99527387300623,106.53320776099281 87.88075618031144,106.39679894062465 87.7269752787106,106.34138267561138 87.51102762966184,106.20071014670066 86.9875181774114,106.04724843438453 86.95807077072095,106.03019708331885 86.33640329616901,105.927888768103 86.25133301017922,105.9023116333774 86.01575375665561,105.80852861469975 85.9143238002871,105.75311123502252 85.88487639359664,105.7190081799472 85.60676199708541,105.5996471740491 85.21412990789395,105.51865192831247 85.19122636936663,105.52717775421843 84.78550654386345,105.41207889481302 84.04277750848269,105.07530555631092 83.96097915655992,105.09235746412924 83.93807561801805,105.09235746412924 83.53562772661098,104.94741593077742 83.13972370333795,104.78968462236844 82.79289869121567,104.4529041165024 82.82561803198769,104.43158876411508 82.6914687348326,104.47421945336828 82.27593310712837,104.64047854764794 82.18104701889388,104.65326766958242 81.70007270964561,104.65753070899518 81.50375666505715,104.31648559273708 81.464493456122,104.32501176911319 81.22891420261294,104.4401149069472 80.81337857489416,104.41879954522483 80.69558894813235,104.43585183584219 80.29314105672529,104.4230626188164 79.10870092098776,104.33353794301183 78.50012118274753,104.29517014091289 77.69849733398587,104.235486793159 77.59379544352123,104.21843438570431 76.65802229760448,104.18006643259105 76.53696073677565,104.18432954098353 76.34391662626876,104.18006643259105 75.0645904023113,104.28238086236524 74.8519146873441,104.3036963235063 73.90959767327877,104.02233098538272 73.74927290352935,103.91575249885318 73.4678865729511,103.46385540097617 73.47443044109968,103.44253932767424 73.11124575861322,103.42122323882359 73.0,103.39990713443876 73.08179835192277,103.42122323882359 73.0785264178412,103.4126967989323" stroke="#4dd2ff" stroke-linecap="round" stroke-linejoin="round" stroke-width="0.5"><title>2024-04-14 18.0km</title><desc>11176726526</desc></polyline><polyline fill="none" points="168.47290523155243,103.47126617783942 168.77980901539559,103.51427659328328 168.58622355174157,104.01810962977106 168.53428598833852,104.09798504755236 168.52484279498458,104.12870632189151 168.61927472846583,104.39290835972133 169.58248044995707,105.7261818261868 169.7146851568541,105.89821404957547 169.8185602836893,106.02109378057503 169.82800347701414,106.05795763024071 169.8185602836893,106.07024557298064 169.81383868699777,106.07024557298064 169.7807875102735,106.05181365753378 169.76662272028625,106.05181365753378 169.66274759342195,106.13168523314016 169.63913961005164,106.16240502972869 169.6296964167268,106.20541270745889 169.65802599675953,106.27914005322236 169.7382931401953,106.40201867709766 169.74773633354926,106.38973083077872 169.74773633354926,106.37129905461188 169.7382931401953,106.37129905461188 169.74301473688683,106.38973083077872 170.0121457473142,106.73993305140175 170.7298284417775,107.79052230960951 170.8761979386618,107.98712090864137 171.27281205929467,108.68135239815092 171.10283457901096,109.00081792668425 171.01312424222124,109.03153563876913 169.7382931401953,109.34485502735697 169.3511222129746,109.48615516848076 169.19058792601572,109.5168725279982 168.83646817549015,109.62131138338736 168.6759338885604,109.62745483743129 168.3595869113924,109.71346310040826 168.31237094465178,109.71346310040826 167.77883052048855,109.84861858874137 167.08003421273315,110.07592457221108 166.29152756815893,110.39537956469212 164.56342318546376,111.15100388360952 164.47371284867404,111.18786326110421 163.6191038506513,111.37830286626559 163.14222258658265,111.40901885131098 162.93447233291226,111.43359162326306 161.6077036675124,111.48888030795206 161.29607828703593,111.80218148917265 161.25830551364925,111.81446776270604 161.2724703036365,112.96936153680144 161.33857265708502,114.15493776293442 161.36218064045534,114.26550794452123 160.94195853645215,114.60335948599459 160.30926458214526,114.72007120944909 159.39799642405706,114.90435222229644 158.6850353262853,115.01492044459155 156.4469985027681,115.40190694616831 155.69626463160967,115.45104783586066 155.61127589148236,115.44490522778142 154.54891663978924,115.65989598003216 154.0106546189636,115.72132170850455 153.23159116774332,115.85031544794401 151.60264031519182,116.12672927906897 151.0690998910577,116.26800676180574 150.54500266021932,116.60584230695895 150.49306509678718,116.69183637850438 149.79426878903178,117.67461335023472 149.39293307173648,118.006295424173 149.31738752496312,118.0800021985051 148.76968231078354,118.52838230836278 148.60914802385378,118.73107312680077 148.42972735024523,118.86619979946772 147.9811756662093,119.52954265881272 148.34473861011793,119.85506821984382 148.34473861011793,120.5368211830937 148.64219920057803,120.94832441074323 148.76968231078354,120.96060802766442 148.9727109677915,121.7406103965368 148.95854617774603,122.30564249965755 148.9538245810545,122.82153478530017 148.8877222276351,123.40497681312263 148.87355743761873,123.97612805672179 148.84050626089447,124.59026057559822 148.8452278575569,125.32720783064724 148.81217668083264,125.83692217209682 148.73190953739686,127.96168929700434 148.75079592407565,128.2073202341562 148.74607432741323,128.2257424969539 148.76968231078354,128.82753200456136 148.7413527307508,129.7363407523153 148.73190953739686,129.87757279178186 148.67052878061077,131.38197178437986 148.6752503773023,131.51705805656457 148.66580718394835,131.90389363221038 148.60442642719136,133.08279929067794 148.58554004048347,133.1933200123749 148.5524888637883,134.74671961710555 148.48166491364827,135.54488696160843 148.46277852694038,135.63084254703426 148.48166491364827,136.08517631276845 148.3825113835046,137.91474130135612 148.33057382010156,139.38201983346516 148.2550282732991,140.76330251571198 148.2361418865912,141.37105261673787 148.19364751654211,142.14454012578062 148.17948272649664,142.73999310377985 148.16059633981786,142.83821134698883 148.14170995310997,143.47048583222931 148.0850507930445,144.5999623812204 148.0614428096742,145.2567636915701 148.0661644063366,145.3611143635644 147.98589726290083,146.67468317877137 147.3626465019188,146.76675423084453 146.85271406112588,146.56419765198007 146.772446917661,146.55805955870892 146.772446917661,146.56419765198007 146.73939574093674,146.53964527354765 146.27667926688446,146.33094948191138 146.27667926688446,146.3125350979717 146.11142338329228,146.18977233365513 145.99338346644072,146.22046305810363 146.04532102984376,146.22660120033106 146.18696893009474,146.2143249149958 146.23890649349778,146.22660120033106 146.29084405690082,146.3493638578584 146.30973044360871,146.373916346638 147.41458406532183,146.82813482100028 147.85841415269533,147.0 148.11338037307723,146.0485947146335 148.15587474315544,144.83935843150175 148.20309070989606,144.02908941359783 148.2739146600361,142.2918694774562 148.33529541676398,141.39560799295577 148.34946020678035,141.30966411380723 148.35418180347187,140.54843928111222 148.37306819015066,139.71353178805657 148.3164090300852,138.9154430542403 147.67899347908678,138.90930385181855 147.10295868484536,138.92772145644267 147.10768028150778,138.9399998550507 146.6874581775337,138.89702544428656 146.17280414004927,138.9154430542403 145.74786043938366,138.89702544428656 145.3134735453641,138.89702544428656 145.25209278860711,138.90316464850184 144.79409791121725,139.01980935930987 144.77993312120088,139.2899327186169 144.79881950790877,139.45568938108408 144.79409791121725,139.4434111320479 144.79881950790877,139.4434111320479 144.75160354116815,139.64600178566252 144.76576833118452,140.03890210769168 144.7846547178924,139.7626444493908 144.77048992787604,139.69511452535153 144.77993312120088,139.49252410680128 144.79409791121725,139.42499375182524 144.78937631455483,139.43727200619105 144.81770589461667,139.18556707959942 145.19071203185013,138.93386065619052 145.55427497575874,138.95227825012262 145.95561069305404,138.93386065619052 147.2351633917133,138.95227825012262 147.69315826910315,138.9461390530414 147.68843667241163,138.9399998550507 147.40041927527636,138.92158225578532 147.29182255180785,139.00139179476537 147.29654414847028,139.03208773122242 148.08032919638208,139.57233256925974 148.0661644063366,139.682836345768 148.05672121298267,140.0573192207812 148.07088600302814,140.20465583719488 148.0850507930445,140.16782173116735 148.1039371797233,140.07573632588537 148.05199961632024,139.03822691583264 147.94340289282263,139.03822691583264 147.70732305911952,138.95841744630889 148.3400170134264,138.95227825012262 148.46277852694038,138.92772145644267 148.83106306754053,138.93386065619052 150.12005895955372,138.79265883646076 150.70081535045756,138.76810195018334 152.17867510943324,138.78651961623473 153.74624520522775,138.76196272636662 154.06731377905817,138.72512736487988 154.4308767229668,138.41202549782247 154.42143352961284,138.3322148475454 154.3931039495801,136.79736537383724 154.39782554624253,135.76591525712865 154.35533117616433,134.3169309656223 154.36477436951827,134.18799351905182 154.3694959662098,133.9730969017728 154.34588798283949,132.75737548954203 154.35533117616433,132.65913385025488 154.33172319279402,132.1679222327075 154.34588798283949,131.9345947169095 154.3270015961316,131.91617406876685 154.31755840277765,131.7503878746138 154.34116638617706,130.65127038245555 154.34116638617706,130.34424922205653 154.30339361276128,128.9687670774765 154.3081152094237,126.02115476049585 154.29867201609886,125.52372493065195 154.1995184859552,123.23301578860264 154.16646730923094,123.10404456147808 154.1145297457988,122.43461616089917 154.10508655244485,121.83887739139391 153.93038747549872,120.94832441074323 153.95399545886903,120.91761535287878 154.05787058570422,120.89304809052555 155.01635471053305,120.56138865233515 155.03051950054942,120.5491049194934 154.93136597040575,120.56753051742271 155.71515101831756,120.26043617097821 155.81902614512364,120.26043617097821 155.93234446531278,120.28500380073092 155.98428202874493,120.30957141623003 156.24869144248078,120.36484849891349 157.08913565045805,120.46926056913435 157.09385724712047,120.48154432515003 156.6358623697306,120.38327417708933 156.56031682295725,120.37713228524444 155.9606740453455,120.1498816604726 155.39408244445804,120.19901703414871 154.90775798703544,120.37099039253008 154.23729125931277,120.67194208734873 154.14285932583152,120.70265132355053 153.66125646507135,120.34642281271226 153.51960856487858,120.06389461920844 153.19853999104816,119.36984995823514 152.85386343381833,118.77406802400219 152.57528923006612,118.26426857238766 151.9567600657756,117.5517674775947 151.79622577884584,117.41663660557606 151.75373140876764,117.36135566986559 151.67346426533186,117.30607466189758 151.56958913846756,117.15251592734057 150.97466795757646,116.41542624062276 151.08326468107407,116.34785904329692 152.01814082250348,116.15744181547052 153.70375083514955,115.8810281850565 154.53003025313956,115.79503246493914 155.2571561408986,115.55547203686365 155.60655429481994,115.54932944395478 155.54045194134233,115.43262000892719 155.43657681450713,115.29133973561329 155.43185521787382,115.25448393453553 155.44602000789018,115.22991338263091 155.43657681450713,115.21762810133805 155.4507416045526,115.22991338263091 155.46018479790655,115.10706040899822 155.49795757129323,115.10091775095498 155.52628715135506,115.05177645444928 155.5782247147581,114.99649242760643 155.64432706820662,114.84292530723542 155.76236698502908,114.9596363695673 155.7057078249345,115.15620164127904 155.61599748814479,115.19305752800938 155.5357303446799,115.2053428164545 155.30909370433073,115.15620164127904 155.44129841119866,115.18077223600994 155.4271336211823,115.22377074243195 155.46018479790655,115.27905447216472 156.1070435422589,115.12548837779104 156.22980505577289,114.7937837109348 156.2345266524353,114.74464205755794 156.53670883958694,114.56650308534881 156.54615203294088,114.53578939361614 156.62641917640576,114.4805046922811 156.71612951319548,114.4989329340824 156.71140791653306,114.48664744043344 156.62169757971424,114.44979093809889 156.08815715555102,113.97065348452816 155.92290127195884,114.0259388523773 156.4469985027681,113.43622453598437 156.57920320966514,113.41779583110474 158.0098470018711,113.31336635168918 158.65198414956103,113.23350834048688 160.18178147196886,113.13522135046878 160.69171391276177,113.10450661924187 161.71630039101,113.11679251441456 161.8012891311373,113.0922207204967 162.03736896484043,113.06764891231433 163.4916207404458,112.90793181110348 163.77963813755196,112.88950287599437 165.29999226660584,112.50249338350841 165.43691857013619,112.44720602402595 165.95157260762062,112.20762663102869 167.52858589676907,111.51345303351991 168.97811607568292,111.06499854454523 169.11032078257995,111.04656880625771 169.29918464954244,110.99742279826751 170.96590827548061,110.54896283664493 171.8724548368773,110.33394609973038 172.420160051086,110.40766624698517 173.6477751863422,110.65339914295328 173.91690619674046,110.67797235399848 175.1964588953997,110.67797235399848 175.22478847546154,110.59196605282341 175.24839645883185,109.81790147024003 175.19173729873728,109.7318934197101 174.2426963672624,109.71960654106078 173.81303106990526,109.70731965884988 172.84982534841402,109.5168725279982 172.37294408434536,109.43700734686718 171.71664214663906,109.43700734686718 171.73080693665543,109.40628992933125 171.68831256660633,109.27113302714861 171.50889189296868,108.44175166776768 171.48056231293594,108.39260263216784 171.25392567258677,108.09156354256993 170.54568617147743,107.10242001411461 169.77134431691957,105.9473659848336 169.74773633354926,105.94122199604317 169.66274759342195,105.83677405015624 167.90631363069406,103.35452340109259 167.6843985870073,103.06573725244016 167.50025631670724,102.75851577971116 166.76368723556516,101.75081367720122 165.95157260762062,100.62019247925127 165.74382235397934,100.3006636164755 164.73812226238078,98.85046380511994 164.11014990476542,97.99629741309764 164.19513864489272,97.3326166453553 164.45954805862857,96.98848177412583 164.464269655291,96.96390060467456 164.5067640253692,96.90859292114692 164.66729831229895,96.69965213020987 164.8042246158293,96.55216389119232 164.94587251608027,95.34151181131892 164.90337814600207,93.92801626330402 164.8656053726154,93.66374880663352 164.87977016260265,93.59614523834534 166.14515807124553,93.45479197333407 167.29722765972838,93.4609377773013 167.39165959320962,93.44864616848645 167.48136993002845,93.295000756636 167.75994413380977,93.20281324138341 167.71744976373157,93.20281324138341 167.66551220032852,93.1352089357315 167.65134741028305,93.0 167.64662581362063,93.04916693576524 167.65134741028305,93.07989624157926 167.6796769903449,93.16593817899047 167.67023379699094,93.26427160723324 167.68912018366973,93.25197994121481 167.68912018366973,93.23968827162025 167.660790603637,93.17822987002364 167.75050094045582,93.282709099567 167.54275068678544,93.26427160723324 166.5842665619566,93.33802152824137 166.56538017527782,93.38718807078476 166.50872101515415,93.7252065021712 166.52288580519962,94.97892398314434 166.53232899855357,95.08339876114042 166.6220393353433,95.43369466150762 166.99976706926827,96.20187726079894 166.9619942958816,96.15271399264384 167.33972202980658,96.52758246797748 167.5144211067527,96.73037878188916 168.37375170140876,97.57842555219031 168.79869540207437,97.96557168169238 169.98381616725237,99.10855385160903 170.0310321340221,99.14542372959113 170.21045280763065,99.34206253579032 170.8573115519539,99.95655290921422 171.76385811337968,101.03188956850863 171.67886937325238,101.1056259372308 171.51833508632262,101.2776769640659 170.47014062467497,102.31611293657625 169.62497482003528,103.05959284487471 169.3747301963158,103.2439246836293 168.77036582204164,103.56957563453398 168.72787145196344,103.50813225089587 168.6759338885604,103.20091399314697 168.69009867857676,103.20705838017602 168.68537708191434,103.21934715156749 168.66176909851492,103.23778030195899 168.62871792181977,103.21934715156749 168.65232590519008,103.2869353303613 168.62399632512825,103.33609030161097 168.58622355174157,103.3852452157007 168.30292775129783,103.01043755211867 168.529564391647,103.42825571864887 168.5059564082767,103.42825571864887 168.49651321495185,103.49584356345076 168.529564391647,103.45897747969138" stroke="#ff8300" stroke-linecap="round" stroke-linejoin="round" stroke-width="0.5"><title>2024-04-06 34.9km</title><desc>11117345079</desc></polyline><polyline fill="none" points="56.25946133125399,206.74165637752594 56.29060226750153,206.78724656769555 56.6136894809315,206.95441008812486 56.62147471499338,207.0 55.86241439428704,206.81257442536298 55.64053522363247,206.4833108401108 55.57825335113739,206.4073264940671 55.480937925414764,206.21989773222595 55.42254866997246,206.1388471446371 55.28630707395496,205.9260884554751 54.994360796757974,205.53096172969163 54.873689668864245,205.38912027389233 54.815300413407385,205.28780459487461 54.44160917859699,204.7356289673553 53.935568964792765,204.03146570412355 53.75650858145673,203.7629680510654 53.68644147492887,203.64644955797849 53.61248175134824,203.5501948567835 53.534629410802154,203.43874171275456 53.343891176366014,203.18037168968294 53.22711266546685,203.0081239434112 53.122012005682336,202.87133836189605 53.028589196983376,202.78014767594505 52.907918069075095,202.587633221945 52.45637449368951,201.9442219347584 51.99315306718927,201.30586513775052 51.56107257693657,200.68269603168665 51.012213575828355,199.90751890646425 50.96160955441883,199.8416533884847 50.451676723590936,199.26912479500606 50.32711297865899,199.1829913606125 49.68483116882271,198.51418333025867 49.653690232589724,198.44324839219917 49.31113993402687,197.9466997818854 49.260535912661,197.84536246129937 49.1826835720567,197.7592255070449 49.12429431662895,197.66295454146166 48.964697018425795,197.44507716337466 48.63382457093394,196.96371533477577 47.99543537813588,196.46714563698333 47.43100590888935,196.05671023791 47.337583100190386,195.9756360069041 46.835435503395274,195.61079963253724 46.10751611892192,195.05340334937137 45.360133649315685,194.53146965330598 45.239462521407404,194.42505502740096 44.710066605432075,194.03486528448775 44.67503305216087,193.98419097125952 44.59718071158568,193.91831425383134 43.37100634735543,193.04163530745427 42.70147621832439,192.5551449857885 42.012483004145906,191.83553225991272 41.755570280205575,191.45038131278852 41.70885887584882,191.3439572737916 41.21060389610648,190.45200968759673 40.961476406257134,190.03136738849207 40.58389255440852,189.29649816975143 40.25691272394033,188.72379623491724 40.20630870255991,188.6122956479412 39.63409399925149,187.57836411149765 39.54067119056708,187.37562883813735 39.493959786210326,187.30973962019198 38.61422833758115,186.41262017175904 38.37288608177914,186.2605637374145 38.29892635822762,186.20480954511368 37.34523518606147,185.6117821574917 36.79248356790049,185.33300510955814 36.702953376210644,185.26711202667502 36.04899371530337,184.8514758608726 35.932215204433305,184.76530676658876 35.7726179062156,184.68420624777718 35.53127565041359,184.52707345506133 35.414497139528976,184.45104120402175 35.37946358625777,184.41049060225487 35.37946358625777,184.3648711188216 35.43006760763819,184.19253030868276 35.47288639497128,183.98977532233403 35.632483693174436,183.087501316204 35.725906501873396,182.50455904814953 35.73369173593528,182.33220903000984 36.025638013117714,181.298091004639 36.1813426942972,181.10038847304895 36.177450077273534,181.0547646524683 35.95557090660441,180.54275989918824 36.15409437508788,179.74178686503365 36.27865812001983,178.57578052192184 36.298121205181815,178.17020394370047 36.3175842903147,177.91164640874558 36.3175842903147,177.8609486276764 36.52389299287461,176.573200232644 36.69906075918698,175.61496283668384 36.71073861028708,175.41722802723598 36.7730204827385,175.1738605658793 35.8971816511621,174.61613704902265 35.47288639497128,174.10403758639222 35.0680542239279,173.79981651636263 34.95127571304329,173.7339016007063 34.1922153923515,173.23700052673667 33.82630939158844,172.99361782057895 33.81073892346467,172.96826535746732 32.339329686408746,172.04035250054585 32.00456462189322,171.80710275481033 31.257182152257883,171.3203156412128 31.089799620007398,171.20368855085326 29.143491105365683,169.98161596928912 28.882685764401685,169.7737072337004 27.967920762544964,169.14997357397078 27.913424124140874,168.5870823815785 27.897853656002553,167.98361234115873 27.897853656002553,167.52719947741207 27.905638890064438,166.46221284682906 27.901746273055323,166.37092676175962 27.964028145506745,165.52905491051206 27.964028145506745,165.41240840876708 27.991276464716066,164.93060349714506 28.396108635759447,164.3930027728129 28.40389386980678,164.31185477210602 28.37664555061201,164.26620893851577 27.03758529253537,163.63223283576008 26.28631020587636,163.1504032712146 25.714095502597047,162.79536669042136 25.30537071453,162.52147885246086 23.791142690126435,161.49184417199285 23.40188098719227,161.20272944692624 23.37852528502117,161.17736839150894 23.44469977451081,160.83245620215166 23.763894370917114,159.82813358597923 23.771679604979,159.72668524467008 23.806713158250204,159.4477007805326 23.802820541211986,158.77305637414975 23.82617624339764,158.11868952442092 23.806713158250204,157.48967412670027 23.806713158250204,155.9424507538497 23.818391009350307,155.1865690634877 23.81060577525932,154.68432986300468 23.806713158250204,153.05073401876143 24.59691441518953,153.00507340519835 25.53114250220824,153.00507340519835 25.72188073664438,153.0 25.737451204753597,153.01014680966546 26.227920950463158,153.72548943019137 26.34859207837144,153.72041613007605 26.375840397551656,153.74070932608083 26.379733014604426,153.76607580444397 26.37194778052799,154.36471932269706 26.37194778052799,154.8872556657043 26.364162546466105,154.97349877332454 26.648323589601205,155.16627671113747 27.014229590364266,155.17134980032642 27.029800058488036,155.1814959765179 27.049263143606368,155.16120362120637 27.041477909559035,155.14091125405685" stroke="#4dd2ff" stroke-linecap="round" stroke-linejoin="round" stroke-width="0.5"><title>2024-04-05 16.7km</title><desc>11109163802</desc></polyline><polyline fill="none" points="126.64728682170971,180.41841416675015 126.68604651160422,180.44867793629965 126.72093023255002,180.46885376800492 126.77131782945071,180.48398563408045 126.8759689922299,180.49911749355306 126.92635658913059,180.51424934644092 126.95736434108403,180.53946908659054 127.0,180.61512819704512 126.60465116277919,180.98333351327528 125.62015503876319,179.55588563980928 125.54263565890142,179.45500371001253 125.1782945736486,178.9657221900161 124.3023255813896,179.19775346159804 124.04651162790833,179.3591656050594 123.87596899224445,179.48526831975323 123.81782945735904,179.50040061471736 123.75968992247363,179.49031241880584 123.72868217053474,179.47013601817525 123.68992248059658,179.42473907388558 123.51162790697708,179.16748860112784 123.22868217054929,178.8295291993236 123.20542635658057,178.76899880966084 123.18604651161877,178.70846831441668 123.17441860464169,178.6832472435599 123.02325581395417,178.57731854583108 122.89922480619862,178.39572574025442 122.83333333332848,178.36041591770845 122.81007751937432,178.3150175216324 122.79069767441251,178.24944195578064 122.77519379842852,178.2343091152943 122.75968992248818,178.2343091152943 122.74031007751182,178.23935339618765 121.46511627906875,179.3238567628323 120.7325581395271,179.818177284782 120.43798449612223,179.98967459615233 120.29844961238268,180.08551095983785 120.00387596897781,180.25700695010164 119.79457364340487,180.38815037080713 119.51162790697708,180.55460092187786 119.38759689920698,180.61512819704512 119.24806201549654,180.69583106640857 119.18604651161877,180.7260945940252 119.11240310077847,180.74627026444796 118.9806201550382,180.85219234171745 118.66666666665697,181.06907939600205 118.42248062015278,181.23048283577737 118.26356589146599,181.31118427417096 117.98062015502364,181.50789324408106 117.7519379844889,181.6087692064175 117.7519379844889,181.58859403739189 117.09689922479447,182.06775113291587 115.75581395348127,182.93021723461425 115.49612403099309,183.1016991683682 115.10852713177155,183.32865924849102 115.06201550384867,183.3387463287254 115.03875968990906,183.3639640164547 113.77906976743543,184.16083351173074 111.18217054262641,185.76460399518692 111.16279069765005,185.76964718171075 110.7868217054056,186.10753901019416 109.28682170542015,187.04050683089372 107.95348837209167,187.88772074944063 107.17441860462714,188.32644840256035 105.99999999998545,189.12824668391113 105.88372093021462,189.18875901021966 104.71705426355766,189.92498386531588 104.5348837209167,190.03087793687155 104.41860465116042,190.11155891744056 104.17441860464169,190.2174524198963 103.98837209300837,190.35864325409784 103.87209302323754,190.4040259002977 102.75581395349582,191.22090338767157 102.65116279070207,191.30158160283827 102.58139534882503,191.33687826300957 102.55038759690069,191.36713251461333 102.01550387595489,192.59240754983693 101.99224806201528,192.58232315813075 101.92248062015278,192.526858951318 101.51550387595489,192.27979004466397 101.39922480619862,192.19407184990632 100.35658914728265,191.50831867345187 99.06201550386322,190.87801888173635 98.96899224806111,190.81750949972775 98.28294573642779,190.55025846780336 98.17054263564933,190.52504600010434 98.07751937983267,190.49479101469115 96.58527131781739,189.98045222878864 96.22480620152783,189.86951541323288 94.77131782945071,189.28456997780086 94.64728682169516,189.21397244836407 93.9302325581375,188.92653816780512 93.90697674416879,188.93662362145915 93.84496124030557,188.91645271123343 93.8062015503674,188.9315808950014 93.78682170542015,188.94670907215914 93.77906976744998,188.9668799647916 93.76356589146599,189.0425207077751 93.28294573642779,190.5099185106992 92.88759689920698,191.82094312492336 92.83720930232084,191.91674682882513 91.66666666665697,192.01759254733042 91.51937984494725,191.99238114515538 90.56976744184794,191.92178912169402 88.59689922480902,191.82094312492336 87.87984496123681,191.77052001669654 86.46511627906875,191.42259857404497 86.37209302323754,191.3923443707863 86.31395348835213,191.36713251461333 85.81782945735904,190.43932347298323 85.84883720929793,190.03592050365114 84.88759689922153,189.87455800345924 84.01550387596944,189.86951541323288 83.2131782945653,189.88968576969637 81.95348837207712,189.90481352935967 80.64728682170971,189.90481352935967 80.63565891471808,189.8947283569796 80.60465116277919,189.91489869881116 80.55813953488541,189.92498386531588 79.01162790696253,189.8947283569796 78.91085271319025,189.87960059293255 78.84883720929793,189.85943023059735 77.40697674416879,189.14841747106766 77.32945736435067,189.0929477781974 77.27906976743543,189.0425207077751 76.19767441859585,187.499416936771 75.29844961239723,186.77826976076176 75.17829457363405,186.7278393278575 73.74806201549654,186.46055681024882 73.0,185.60826484927384 73.0348837209167,185.43175206403248 73.22093023255002,184.79629860480418 73.59302325581666,183.59596588397835 73.63565891471808,183.44466049410403 73.93798449612223,182.42585369529115 74.29457364340487,181.28092125676267 74.9302325581375,180.32762269975865 75.10852713177155,180.34779860184062 76.67054263564933,180.3831064022561 78.36434108526737,180.19647905032252 78.46899224806111,180.17125906090223 79.87209302325209,180.09055497165537 80.02713178293197,180.1258630337943 81.16666666665697,180.90767520555528 82.89534883720626,182.380460617238 82.94186046510004,182.38550429550742 82.96511627906875,182.4056790012619 83.00387596899236,182.44602837759885 83.24418604650418,182.65281819499796 83.56201550386322,182.9604788138895 84.75581395348127,183.94900922864326 85.37984496123681,184.8215152335797 85.38372093024373,184.86186180152436 85.37209302323754,184.97281462153478 85.3914728682139,184.98794452405855 86.12403100775555,184.61978169040958 86.8410852713132,184.19109401807873 87.7325581395271,183.58587887850445 88.93798449612223,182.83943233844911 88.98837209300837,182.81421426959423 89.02713178294653,182.78395256277508 89.08914728680975,182.75873445360776 89.53100775192434,182.45107204633678 90.09302325580211,182.08792602337053 90.20155038758821,182.0324450463704 90.98837209302292,181.5684188566629 92.0,180.92280688030587 92.05038759688614,180.882455732979 92.52325581393961,180.6050403251902 93.72868217052019,179.813133233376 94.72480620154238,179.21288588193784 94.7674418604438,179.19775346159804 95.56589147285558,178.66811459225573 95.6434108527028,178.63280504688373 96.84496124029101,177.89129629412128 96.95348837209167,177.81563124473905 97.00387596899236,177.7601434370008 97.34883720929793,177.52810255235454 99.59302325581666,176.14086924328512 99.62015503874863,176.1206908950153 99.68992248062568,176.1055571261095 99.70542635656602,176.0702449729797 99.74806201548199,176.01475437406407 99.84496124029101,175.93908523249047 99.96124031006184,175.8835944238017 100.26356589146599,175.7019875202932 101.44961240309931,174.950326616221 102.55038759690069,174.28945693257992 102.60077519378683,174.2440532097571 102.63953488372499,174.22891862226606 103.09689922477992,173.88082128794485 104.51550387596944,172.99795006752538 104.63178294571117,172.94245455459895 105.82170542633685,172.22604996325026 106.13565891473263,171.9990172522048 106.96899224806111,171.46926848162911 107.14728682170971,171.36836303670498 108.24806201549654,170.8184232030435 109.45348837207712,170.22811111106785 110.9806201550382,169.49146825740536 112.07751937983267,168.63371371498943 113.16279069765005,167.5741052887861 114.09689922480902,167.40759245016307 114.2868217054056,167.56401362435645 116.59302325581666,169.24928088849992 116.90697674416879,169.5015593610733 117.0736434108403,169.61256130776383 118.08139534882503,170.37947414357768 118.15116279070207,170.41983750738655 118.48449612400145,170.67715284752194 118.66666666665697,170.79824175891554 119.02713178293197,171.10600750628146 119.05813953487086,171.12618877137356 119.89922480621317,172.27145632716565 119.98449612403056,172.39758480399905 121.0387596898945,172.57416390118306 121.18604651161877,172.54893837089548 122.32558139534376,172.59938941313158 123.45348837209167,172.54893837089548 124.22868217052019,172.55902858521222 125.3023255813896,172.54893837089548 125.79069767439796,172.39758480399905 126.18992248061113,172.37235914532357" stroke="#ffa100" stroke-linecap="round" stroke-linejoin="round" stroke-width="0.5"><title>2024-03-24 28.9km</title><desc>11025858700</desc></polyline><polyline fill="none" points="183.26824807192315,203.69391408858064 183.26824807192315,203.67964249031138 183.52414396588574,203.7605147981667 183.56070052215364,203.7938151021517 183.5680118334276,203.831872550938 183.52779962151544,203.88420147076977 183.4619978202245,203.93177314347486 183.35963946260745,203.9936162146114 183.2499697937892,204.0507020227269 183.19147930375766,204.06497345920798 183.1695453699649,204.060216314414 183.1476114362158,204.04594487585564 183.1147105355485,204.01264482838087 183.01235217797512,203.8556584339567 182.92096078726172,203.69391408858064 182.81860242967377,203.53216894390425 182.69796579396643,203.3751802450206 182.57001784698514,203.17537535740848 182.5261499794433,203.09450160376946 182.44572555563354,202.98984115535495 182.387235065602,202.8899376878653 182.2994993305183,202.77100459087524 182.2373531848425,202.70915920964399 182.171551383537,202.60925488541034 181.92662245646352,202.28575307637948 181.78770754260768,202.07642667253458 181.73652836380643,202.014579978837 181.68534918501973,201.9289459023057 181.4806324698584,201.64349736231816 181.40751935730805,201.55786231485763 181.30881665533525,201.40562167720418 181.1881800196279,201.23435011338734 181.115066907063,201.11065342652364 180.96152937070292,200.92510751962982 180.85185970184102,200.7633486912382 180.74950134426763,200.59207376620543 180.63617601980513,200.4350709641658 180.53747331783234,200.32088663503964 180.4204923377547,200.1448516804412 180.33275660268555,200.02115087561106 180.2962000464031,199.95930029784722 180.19384168881516,199.83084103207148 180.04395980808476,199.61198334384244 179.96719103989017,199.52634298045086 179.89773358296952,199.39788201517513 179.82462047040462,199.28369406712227 179.76247432471428,199.2075685470918 179.74419604656578,199.1647478642335 179.72226211283123,199.13144284996815 179.70763949029788,199.1266849880085 179.70032817905303,199.1362007112184 179.67839424527483,199.098137801775 179.58700285457599,198.96967515557117 179.44808794072014,198.7412958727291 179.3530408943916,198.60807388835747 179.19584770238725,198.42251379202207 179.13370155671146,198.3321123382666 178.93264049716527,198.06566449549427 178.0918397027417,196.86186416270357 178.0260379014362,196.78573300845528 177.19620407390175,196.0910280432836 177.1523362063599,196.03392834909027 177.07191178255016,195.88642034453733 176.56011999462498,195.09176900835155 176.17993180932535,194.54454279509446 176.17262049806595,194.55881837779816 175.27698486921145,193.8117211831668 174.35575965097814,193.13122927440781 173.3029308301193,192.3317521661993 172.75092683029652,191.87489933243705 172.72168158527347,191.8701404151725 171.77121112201712,191.1562949861036 171.50434826116543,190.96593357423626 171.3837116254581,190.86123432554086 171.2594193341065,190.78033013112872 170.4003402615199,190.15212604816043 170.33088280459924,190.0950159878521 169.68383175844792,189.39065037922774 169.27074267249554,188.60060063635683 168.9856015335099,188.1389362305199 168.89421014281106,188.1151389196093 167.77557952066127,188.54348786716218 167.73536730874912,188.46733735312955 167.23819814334274,187.67726530856817 167.2272311764682,187.60111277784017 166.847042991154,186.98236689292025 166.22192587876634,186.03042728995933 165.35919115057914,185.8590752189375 165.3043563161482,185.8590752189375 164.60978174683987,185.9114328914584 164.53666863428953,185.9304720243017 163.47287284655613,186.34457042190115 163.37051448896818,186.35884958348834 163.3193353101815,186.35884958348834 163.3047126876627,186.37788845588148 163.23159957511234,186.41120645593037 161.8278278139769,186.3969273172006 161.71084683388472,186.3874078879344 161.59386585377797,186.39216760292402 161.42936135052878,186.3731287388291 161.1953993903444,186.36360930262526 159.9926886887406,186.67774923441175 159.8793633642781,186.68250890713898 159.1189869936643,186.65871053655064 158.15389390788914,186.72534593056844 158.06981382843514,186.7539039150106 157.74811613316706,186.8348180688663 156.7428108354943,187.06328048157957 156.64776378916577,187.0918381709671 155.91297700793075,186.60159437649418 155.84717520665436,186.55399750024662 155.82524127287616,186.54447811669888 155.8398638953804,186.54923780881654 155.84717520665436,186.5254393412506 155.832552584121,186.53495873036445 155.81427430598706,186.52067964566595 155.20012416048849,185.85431542637525 154.61156360439782,185.12605900284325 153.92064469070465,184.29306608705156 153.76710715433,184.1217049131119 152.57170776398561,182.69842046238773 152.34871277067577,182.42708495824627 151.81498704901605,181.79872040983537 151.7747748371039,181.7368353693455 151.10578985718894,180.91803765379882 150.59765372489346,180.30392591166674 150.49895102294977,180.19443190887978 150.38197004284302,180.04685245544533 150.31251258592238,179.97544280336297 150.28326734088478,179.9040329953059 150.27961168526963,179.78025562526454 150.26133340713568,179.73264881969953 149.65815022851166,179.16612251318656 149.24871679818898,178.67099904737188 149.12442450683739,178.52817357732056 149.022066149264,178.39010836318266 148.8831512353936,178.2282380593315 148.82831640096265,178.15206352138557 148.47737346068607,177.73310039025455 148.28362371241383,177.4760067198804 147.84128938142385,176.93324677645796 147.34046456038777,176.17146323627458 146.33881491833017,174.90019742522418 145.77218829600315,174.1716969818881 145.75756567348435,174.2002659325808 145.76122132911405,174.2002659325808 145.14707118363003,173.48127308068797 144.6499020182091,172.8432131994632 144.6060341506818,172.76226441378458 144.29164776668767,172.32894691709953 144.25874686603493,172.26704394865374 143.64459672053636,171.5146754221314 143.13280493262573,170.85276727179007 143.12549362135178,170.86705320074543 143.12914927698148,170.85276727179007 142.8915316611674,170.56704738151166 142.22985799251182,169.7289212937576 141.9154716085177,169.3669965658919 141.74000013836485,169.2622281334916 140.7017939400248,168.9812565884531 139.6416538079211,168.56693820803775 139.52467282781436,168.50979043299958 138.98363579488068,168.35263353640403 138.20498114613292,167.49063832947286 138.13552368919773,167.40491380622188 137.3678360073245,166.71910952460894 136.53800217979006,166.0523415631833 136.4539221003506,165.96661326679168 137.11194011337648,164.87117634818787 137.14118535839953,164.7330534339344 137.20698715970502,163.72807258239845 137.21064281532017,163.64710121561438 137.19602019283047,163.28510912219645 137.18505322594137,163.20413665767046 137.23257674909837,162.01334194553783 137.22526543785352,161.90378665188473 137.23257674909837,161.85615380092713 137.24719937161717,160.3747374703271 137.25816633849172,160.34615643047073 137.26182199412142,160.31757536559599 137.26182199412142,158.92659998774252 137.29472289477417,157.51174577781785 137.30568986164872,157.39741144833897 137.17774191466742,157.28784067373635 137.22160978220927,157.2544929737196 137.31665682853782,157.26402089148178 137.29106723914447,157.00200214035794 137.32396813978266,155.91579290082154 137.32031248418207,155.80145298484786 137.35686904044996,154.96294803722049 137.3641803516948,154.92483366447777 137.3641803516948,154.77237572877493 137.34955772919056,154.60562404672964 137.33493510667176,154.50557262885923 137.33493510667176,154.2816469163372 137.34955772919056,154.11012831096014 137.37149166296877,153.0 137.09731749085768,153.25728631546735 137.09000617961283,153.31446077697547 137.04979396770068,154.77714005003145 137.05710527896008,154.83431185098743 137.05344962333038,154.9153050643581 137.03882700082613,155.02011951290842 137.04979396770068,155.30121114622307 137.02054872266308,156.1301791644437 137.03517134518188,156.13494328764864 136.8596998750436,156.0730096317202 136.8706668419327,156.0587172329142 136.8926007757109,156.07777376328158 136.8816338088218,156.09206615374933 136.92550167634909,156.09683028250947 136.97302519950608,156.1158867906488 137.02054872266308,156.11112266464988 137.02786003392248,156.12065091593468 137.00227044452913,156.8162057523259 137.02054872266308,158.04530069073007 136.99130347764003,158.9837645264197 137.01689306704793,159.58874976277002 137.00958175578853,159.63162230716262 136.98033651076548,160.24612259401692 136.98764782202488,160.32233887815164 136.99861478892853,161.3417145854619 137.00592610017338,161.48937852247764 136.9437799544976,162.53729696579103 136.95109126574243,162.78974502148776 136.94743561009818,162.91834988480696 136.95474692137213,163.1184008882883 136.94012429885333,163.2422413718523 136.94012429885333,163.36131831725652 136.8560442194139,164.75686777113515 136.83045463002054,164.85212494643565 136.77927545123384,164.94738184404196 136.23458276267047,165.65227425580088 136.17609227260982,165.7999187133064 136.21630448452197,165.84278310827722 136.9328129876085,166.5238431732032 137.04613831207098,166.600044815008 138.09165582165588,167.4430136220908 138.17573590110987,167.52873804539922 138.7277399009472,168.2240500588705 140.20828043024812,168.92410953791114 141.10391605908808,169.20984379133006 141.32691105239792,169.2527037138898 141.34518933054642,169.2717525503067 141.37077891993977,169.2717525503067 142.40532946265012,170.13370078097796 142.5149991314829,170.24799055215408 143.450846972235,171.41467576979267 143.5422383629484,171.54324669518974 144.45615226993687,172.7051239737957 145.13975987235608,173.60031272472406 145.18728339552763,173.6764978694082 145.59671682586486,174.21455039856664 145.7356317397207,174.42881663923254 146.7994275274541,175.77151977167523 146.8761962956487,175.881028587708 147.8595676595578,177.11892882375105 147.9253694608633,177.1284509515899 147.95095905025664,177.14749519894758 148.91605213604635,178.38534748333768 149.99447054626944,179.71360607806855 150.0237157913216,179.79929832807102 150.05296103634464,179.85642636997727 151.33609616174363,181.3179181693704 152.71062267787056,182.9459526427454 152.83857062482275,183.08875881757194 153.8584985450434,184.33590624025237 153.9645125582465,184.4406263784549 154.8930490877392,185.5496872613221 154.9442282665259,185.63060439441324 155.56568972329842,186.39216760292402 156.40649051772198,187.9533167462141 156.46132535213837,188.19604970607543 156.7537778023834,189.2907053816998 156.76474476925796,189.2954646742328 157.59092294116272,190.53761634734838 158.7936336427665,191.89869390834428 159.8245285298617,193.1121943322105 160.88466866195085,194.28282267507893 161.01992792019155,194.41606227051307 162.14586985360074,195.6627779079572 162.26650648932264,195.85311199341595 162.32499697936873,195.99586183092833 163.08171769435285,197.24251727700175 163.9407967669249,198.8650015154526 164.01025422387465,199.00298033449144 164.9095455083443,200.51595128957706 164.98631427652435,200.6253772940472 165.85636031597096,201.6244673711335 165.9038838391425,201.71010224432757 166.8360760242649,203.09925888891667 167.92546140142076,204.35515798460256 168.0497536927578,204.46932824022952 169.2122521824349,205.71090405792347 170.18465657946945,206.88108183560325 170.24314706951554,206.9476760608777 170.53194386413088,207.0 171.07298089706455,206.84778467215074 171.2118958109204,206.75740648636565 172.07828619475185,206.2484299386124 172.1221540622937,206.20561846629062 172.26106897614955,206.1057248131765 174.004816710687,205.02590253382368 174.0559958894737,205.00211750117887 174.26071260466415,204.87843505278943 174.54950939926493,204.72145281067787 175.57674863071588,204.01740198009065 175.85823411405727,203.8556584339567 176.74655843165237,203.2705206940991 177.77014200748818,202.64731371154994 177.92733519949252,202.55692392720448 178.0260379014362,202.48556339481001 178.25999986163515,203.54168338630552 178.2892451066582,203.60828440566183 178.30021207353275,203.6510992751173 179.00575360973016,203.48459669041404 179.0898336891696,203.43702436779495 179.79537522536702,203.41799541938235 179.84289874853857,203.48459669041404 179.89773358296952,203.5369261654596 179.80999784788582,203.58925555681344 179.81730915913067,203.60828440566183 179.83193178164947,203.62255603503218 179.88676661608042,203.6368276581925 180.2779217682546,203.94128746970455 180.2962000464031,203.94604463179712 180.83358142370707,203.7652719865182 180.86648232437437,203.74148603783397 180.91400584751682,203.75100041939004 181.76211795321433,203.28954972824795 181.86082065515802,203.22294806032733 182.83322505220713,202.4998355137286 182.93923906541022,202.42847485687525 183.81294076048653,203.52741172167225 183.82390772737563,203.56546948020332 183.81659641611623,203.58449834287603 183.78735117107863,203.60828440566183 183.22072454876616,203.62255603503218 183.2316915156407,203.61779882593692" stroke="#ff7100" stroke-linecap="round" stroke-linejoin="round" stroke-width="0.5"><title>2024-03-16 38.6km</title><desc>10969293139</desc></polyline><polyline fill="none" points="34.53525549528422,256.1005221353553 34.59691692830529,256.16070327241323 35.876391664205585,255.4786488491518 36.01512988860486,255.2579834611679 35.99971453030594,255.1978019305243 35.90722238080343,255.03731772046012 34.82814730226528,253.87380161673354 34.79731658578385,253.8938623223221 34.64316300308565,253.83368019686895 34.65857836138457,253.7734980451205 34.68940907792421,253.79355876526097 34.81273194402456,253.8938623223221 35.01313160144491,253.65313366295595 34.95147016836563,253.47258689290902 34.95147016836563,253.27197909366805 34.9206394518842,253.43246535643993 34.81273194402456,253.51270841778023 34.64316300308565,253.45252612612967 34.53525549528422,253.37228302974836 34.581501570064574,253.17167508471175 34.56608621176565,253.0111885187216 35.352269483264536,253.23185749881668 35.95346845558379,253.11149264429696 35.968883813824505,253.1516142741457 35.86097630596487,253.23185749881668 35.72223808156559,253.19173589230923 34.8435626605642,253.251918297683 34.56608621176565,253.4124045837525 34.581501570064574,253.45252612612967 34.550670853524935,253.47258689290902 34.4427633456653,253.5528299309808 34.27319440478459,253.43246535643993 34.38110191258602,253.05131017770327 34.519840136985295,253.21179669701087 36.508421353122685,254.9971966387384 36.49300599482376,255.03731772046012 38.37367970304331,253.9139230249566 38.789894376241136,253.61301217890286 39.25235512416111,253.4926476568362 39.36026263202075,253.5528299309808 39.499000856420025,253.71331586719316 39.83813873818144,254.23489387102018 42.304596060479525,256.5217895437672 44.98686839849688,255.98015978255717 47.31458749639569,253.43246535643993 48.02369397657458,252.7303365792468 48.74821581499418,251.90783832594752 48.902369397634175,251.84765533452446 49.22609192127129,251.86771633461467 49.33399942901451,251.82759433155297 52.01627176703187,248.67798069612763 52.40165572363185,248.27675086779345 53.989437624870334,246.37089325369743 54.86811304592993,245.46810940821888 56.53297173848841,244.26438842773496 56.872109620366246,244.0637672435405 61.35797887516674,243.5220885895542 61.89751641446492,243.56221300720063 66.55295461026253,243.14090604006196 67.0,243.18103056855034 65.68969454750186,243.1007814998593 65.44304881530115,243.12084377140854 64.78018840990262,243.32146632632066 64.64145018550334,243.26127959047153 64.62603482726263,243.08071922544332 63.43905224092305,241.57604032978998 58.62946046242723,238.5265074497147 54.83728232939029,236.17912374003208 51.738795318233315,234.21290836375556 51.7233799599926,230.98263656646304 52.2012560662115,223.23770176942344 52.23208678275114,222.61568037477264 52.216671424452215,222.59561512181244 52.24750214105006,222.5554846071609 49.21067656291416,222.39496243168833 45.880959177797195,222.39496243168833 42.628318584000226,222.49528881326842 38.92863260064041,222.3748971466557 33.74907222384354,222.39496243168833 33.08621181844501,222.3748971466557 31.328860976325814,222.47522354277316 29.84898658283055,222.43509299310972 28.214958606869914,222.45515826941119 26.981729945749976,222.41502771391242 26.812161004869267,222.49528881326842 21.63260062801419,222.53541934548412 21.617185269773472,222.65581087199098 21.69426206103526,223.3179623902979 21.678846702736337,223.4182881006709 21.678846702736337,223.5386788568867 21.755923494172748,224.12056603102246 21.802169568894897,224.18076111585833 21.60176991147455,224.14063106222602 21.648015986254904,224.28108619897102 21.725092777633108,225.0034246435389 21.755923494172748,225.0435544463253 21.78675421065418,225.74582410450967 21.8792463602731,226.38789609269588 21.940907793294173,226.2875725414924 21.355124179273844,226.2875725414924 21.49386240367312,226.3076372575306 21.66343134455383,226.40796079421125 21.910077076754533,226.40796079421125 21.98715386801632,226.5082842578704 21.8792463602731,226.42802549275802 21.586354553233832,227.7522891474946 21.50927776185563,231.96577077067923 21.01598629745422,232.90877046671812 20.33771053381497,233.65112739612232 20.04481872683391,234.15271765521902 18.395375392457936,236.3195666235115 17.79417642019689,235.8380475709564 17.578361404535826,235.51703393578646 16.42220953461947,233.99220897069608 15.420211247517727,232.48743097342958 14.402797602000646,231.10302072293416 13.431630031380337,231.223404774355 13.0,231.18327676887566 13.015415358182508,231.44410859585332 13.431630031380337,234.01227256646962 13.35455324006034,234.29316260099586 13.786183271440677,236.74089441625983 13.894090779300313,237.04184205198544 14.171567228040658,239.6299646274856 14.464459035021719,239.60990184848197 15.543534113559872,239.36914827270084 15.666856979660224,239.3089598131337 15.790179845760576,239.32902263589494 15.836425920540933,239.44939951132983 16.09848701109877,240.95410159426683 16.113902369339485,240.89391382598842 15.86725663713878,239.32902263589494 16.25264059373876,238.66694794422074 16.51470168423839,238.5265074497147 15.743933771096636,239.24877132727124 15.743933771096636,239.3089598131337 16.329717385058757,241.89703987081884 17.131316014798358,244.82612619179417 17.223808164417278,245.08693223362206 19.782757636276074,243.36159080227662 20.029403368534986,243.12084377140854 22.264630316814873,242.15785144815163 24.345703682512976,245.2474280143797 26.056808449910022,247.57459586148616 26.210962032491807,247.89558145042975 28.06080502422992,250.4835004890192 29.8027405081084,252.83064090894186 29.89523265772732,253.05131017770327 31.806737082486507,255.7996160564071 33.44076505844714,257.62510285335884 33.70282614894677,257.4646214655513 34.53525549528422,256.020280578392 34.458178703906015,255.87985774155823 34.350271196104586,255.87985774155823" stroke="#4dd2ff" stroke-linecap="round" stroke-linejoin="round" stroke-width="0.5"><title>2024-03-09 10.2km</title><desc>10921031918</desc></polyline></svg>