<?xml version="1.0" encoding="utf-8" ?>
<svg baseProfile="full" height="300mm" version="1.1" viewBox="0,0,200,300" width="200mm" xmlns="http://www.w3.org/2000/svg" xmlns:ev="http://www.w3.org/2001/xml-events" xmlns:xlink="http://www.w3.org/1999/xlink"><defs /><rect fill="#222222" height="300" width="200" x="0" y="0" /><text fill="#FFFFFF" style="font-size:12px; font-family:Arial; font-weight:bold;" x="10" y="20">Over 10km Runs</text><text fill="#FFFFFF" style="font-size:4px; font-family:Arial" x="10" y="280">ATHLETE</text><text fill="#FFFFFF" style="font-size:9px; font-family:Arial" x="10" y="290">OrdinarySk</text><text fill="#FFFFFF" style="font-size:4px; font-family:Arial" x="120" y="280">STATISTICS</text><text fill="#FFFFFF" style="font-size:3px; font-family:Arial" x="120" y="285">Number: 3</text><text fill="#FFFFFF" style="font-size:3px; font-family:Arial" x="120" y="290">Weekly: 1.0</text><text fill="#FFFFFF" style="font-size:3px; font-family:Arial" x="141" y="285">Total: 77.7 km</text><text fill="#FFFFFF" style="font-size:3px; font-family:Arial" x="141" y="290">Avg: 25.9 km</text><text fill="#FFFFFF" style="font-size:3px; font-family:Arial" x="167" y="285">Min: 10.2 km</text><text fill="#FFFFFF" style="font-size:3px; font-family:Arial" x="167" y="290">Max: 38.6 km</text><polyline fill="none" points="94.97093023255002,75.62762125012159 95.02906976742088,75.67301690444947 95.08139534882503,75.70328065200374 95.15697674418334,75.7259784511225 95.31395348836668,75.74867624032777 95.38953488369589,75.77137401965956 95.43604651163332,75.80920362988036 95.5,75.92269229556769 94.90697674415424,76.4750002699111 93.4302325581375,74.3338284597121 93.31395348833757,74.18250556501516 92.76744186045835,73.44858328501869 91.45348837209167,73.79663019239524 91.0697674418625,74.03874840758726 90.81395348836668,74.22790247962621 90.72674418604583,74.25060092207423 90.63953488369589,74.23546862820876 90.59302325581666,74.20520402726106 90.53488372088759,74.13710861082654 90.26744186045835,73.75123290168995 89.84302325581666,73.24429379898356 89.80813953487086,73.15349821449126 89.77906976742088,73.0627024716232 89.76162790696253,73.02487086534165 89.5348837209167,72.86597781874298 89.34883720928337,72.59358861037981 89.25,72.54062387656086 89.2151162790542,72.47252628245042 89.18604651163332,72.37416293366914 89.16279069765005,72.35146367294146 89.13953488372499,72.35146367294146 89.11046511627501,72.35903009428148 87.19767441859585,73.98578514425026 86.09883720928337,74.727265927173 85.65697674418334,74.98451189422485 85.44767441856675,75.12826643975495 85.00581395346671,75.38551042515246 84.69186046510004,75.58222555620887 84.26744186045835,75.83190138281498 84.08139534879592,75.92269229556769 83.87209302323754,76.04374659961468 83.77906976742088,76.08914189103598 83.66860465117497,76.11940539667194 83.47093023255002,76.27828851257436 82.9999999999709,76.60361909400308 82.63372093022917,76.84572425366787 82.3953488371917,76.96677641125643 81.97093023255002,77.26183986612159 81.62790697673336,77.41315380962624 81.62790697673336,77.38289105608419 80.6453488371917,78.10162669936835 78.63372093022917,79.39532585191773 78.24418604650418,79.6525487525505 77.66279069765005,79.99298887273835 77.59302325578756,80.00811949308627 77.55813953487086,80.04594602467841 75.66860465114587,81.2412502675943 71.77325581395417,83.64690599277674 71.74418604647508,83.65447077256249 71.1802325581084,84.16130851528942 68.9302325581375,85.56076024633512 66.9302325581375,86.83158112415549 65.76162790696253,87.4896726038387 64.0,88.6923700258667 63.82558139532921,88.78313851532948 62.07558139532921,89.887475797972 61.802325581375044,90.04631690530368 61.62790697673336,90.16733837615902 61.26162790696253,90.32617862984262 60.98255813951255,90.53796488114676 60.80813953487086,90.60603885044475 59.133720930229174,91.83135508150372 58.976744186045835,91.95237240425558 58.87209302323754,92.00531739451253 58.82558139535831,92.05069877192 58.02325581392506,93.88861132475358 57.988372093008365,93.87348473719612 57.883720930229174,93.7902884269788 57.273255813954165,93.41968506699413 57.098837209283374,93.29110777485403 55.534883720916696,92.26247801017598 53.59302325578756,91.31702832260271 53.45348837209167,91.22626424958798 52.42441860464169,90.8253877017014 52.25581395346671,90.78756900015287 52.11627906974172,90.7421865220349 49.87790697673336,89.97067834317932 49.33720930229174,89.8042731198475 47.15697674418334,88.9268549667031 46.97093023255002,88.82095867254247 45.895348837191705,88.38980725170404 45.86046511627501,88.4049354321869 45.76744186045835,88.37467906684833 45.70930232555838,88.39737134250026 45.680232558137504,88.42006360823507 45.668604651174974,88.45031994718738 45.645348837191705,88.56378106166085 44.92441860464169,90.764877766047 44.33139534879592,92.73141468738686 44.25581395346671,92.87512024323587 42.5,93.026388820992 42.27906976742088,92.98857171773125 40.85465116277919,92.88268368254285 37.89534883722081,92.73141468738686 36.819767441862496,92.6557800250448 34.69767441859585,92.13389786106563 34.55813953487086,92.08851655617764 34.470930232520914,92.05069877192 33.726744186045835,90.65898520947303 33.773255813954165,90.05388075547671 32.331395348825026,89.81183700518523 31.023255813954165,89.8042731198475 29.819767441862496,89.83452865454092 27.930232558137504,89.85722029403769 25.970930232550018,89.85722029403769 25.953488372062566,89.84209253546942 25.90697674418334,89.87234804821492 25.837209302320844,89.887475797972 23.517441860429244,89.84209253546942 23.366279069770826,89.81940088939518 23.273255813954165,89.78914534589421 21.110465116245905,88.72262620659967 20.994186046533287,88.63942166729612 20.91860465114587,88.56378106166085 19.29651162790833,86.24912540515288 17.947674418595852,85.16740464114264 17.767441860429244,85.09175899178445 15.62209302323754,84.69083521537323 14.5,83.41239727391076 14.552325581375044,83.14762809604872 14.831395348825026,82.19444790720445 15.389534883724991,80.39394882596389 15.45348837209167,80.16699074115604 15.90697674418334,78.63878054293673 16.44186046512914,76.92138188514218 17.39534883722081,75.49143404963252 17.662790697650053,75.52169790276093 20.005813953466713,75.57465960338595 22.54651162790833,75.29471857547833 22.70348837209167,75.25688859135334 24.80813953487086,75.13583245747941 25.04069767438341,75.18879455068964 26.749999999970896,76.36151280833292 29.34302325581666,78.57069092585516 29.412790697650053,78.5782564432593 29.447674418595852,78.6085185018892 29.505813953466713,78.66904256639464 29.866279069741722,78.97922729249694 30.34302325581666,79.44071822083424 32.133720930229174,80.9235138429649 33.069767441862496,82.2322728503641 33.07558139535831,82.29279270228653 33.05813953487086,82.45922193229853 33.087209302320844,82.48191678608782 34.18604651163332,81.92967253561073 35.261627906991635,81.28664102711991 36.598837209283374,80.37881831775667 38.40697674418334,79.25914850767367 38.48255813951255,79.22132140438771 38.54069767441251,79.17592884416081 38.63372093020007,79.138101680408 39.29651162787923,78.67660806950153 40.13953488369589,78.13188903505215 40.302325581375044,78.04866756955744 41.48255813954165,77.35262828499253 43.0,76.3842103204588 43.07558139532921,76.3236835994685 43.784883720916696,75.90756048778348 45.59302325578756,74.71969985005853 47.087209302320844,73.81932882290494 47.15116279068752,73.79663019239524 48.348837209283374,73.00217188837996 48.4651162790542,72.94920757032014 50.26744186045835,71.8369444411801 50.430232558137504,71.72344686710494 50.50581395349582,71.64021515550121 51.02325581392506,71.29215382852999 54.38953488372499,69.21130386492587 54.430232558137504,69.18103634251747 54.5348837209458,69.1583356891606 54.55813953487086,69.10536745946956 54.62209302323754,69.02213156109428 54.76744186045835,68.90862784873389 54.941860465100035,68.82539163570254 55.39534883722081,68.55298128043796 57.17441860464169,67.42548992432785 58.82558139535831,66.43418539886989 58.90116279068752,66.36607981463385 58.95930232558749,66.34337793339728 59.645348837191705,65.82123193191364 61.773255813954165,64.49692510128807 61.94767441856675,64.41368183189479 63.73255813951255,63.33907494487357 64.20348837209167,62.99852587830537 65.45348837209167,62.20390272244185 65.72093023255002,62.05254455505201 67.37209302323754,61.22763480456342 69.1802325581375,60.34216666659995 71.47093023255002,59.23720238610622 73.11627906977083,57.9505705724805 74.74418604647508,56.36115793317731 76.14534883722081,56.11138867524278 76.4302325581084,56.346020436532854 79.88953488372499,58.87392133274625 80.3604651162459,59.25233904160632 80.6104651162459,59.41884196164392 82.12209302323754,60.56921121536652 82.22674418604583,60.62975626107436 82.72674418601673,61.01572927127927 82.9999999999709,61.19736263836967 83.54069767441251,61.659011259424005 83.58720930229174,61.68928315705489 84.84883720931248,63.40718449074848 84.97674418604583,63.59637720599858 86.55813953484176,63.861245851770946 86.77906976742088,63.823407556345046 88.48837209300837,63.89908411969736 90.1802325581375,63.823407556345046 91.34302325578756,63.83854287781651 92.95348837209167,63.823407556345046 93.68604651160422,63.59637720599858 94.2848837209167,63.55853871798172" stroke="#ff5700" stroke-linecap="round" stroke-linejoin="round" stroke-width="0.5"><title>2024-03-24 28.9km</title><desc>11025858700</desc></polyline><polyline fill="none" points="179.90237210789928,110.54087113287096 179.90237210789928,110.51946373546525 180.28621594884316,110.64077219725004 180.34105078325956,110.69072265322757 180.35201775014866,110.74780882640698 180.29169943230227,110.82630220615101 180.19299673032947,110.89765971521047 180.03945919394027,110.99042432191709 179.87495469069108,111.07605303409218 179.7872189556365,111.09746018881197 179.7543180549692,111.09032447162099 179.721417154331,111.06891731378346 179.6720658033446,111.01896724257313 179.5185282669845,110.78348765093324 179.3814411808853,110.54087113287096 179.2279036445252,110.29825341585456 179.04694869095692,110.06277036753454 178.85502677049953,109.76306303610909 178.78922496916493,109.64175240565237 178.66858833347214,109.48476173303425 178.58085259841755,109.33490653179615 178.44924899577745,109.15650688631285 178.35602977726376,109.06373881446416 178.25732707532006,108.91388232811369 177.88993368472438,108.42862961456922 177.6815613139188,108.11464000880369 177.6047925457242,108.02186996825549 177.5280237775296,107.89341885345493 177.22094870480942,107.46524604347724 177.11127903597662,107.33679347228463 176.96322498301743,107.10843251580809 176.78227002944914,106.85152517008464 176.67260036061634,106.66598013978364 176.44229405606166,106.38766127944473 176.27778955278336,106.14502303685731 176.12425201642327,105.88811064930633 175.95426402971498,105.65260644624504 175.80620997675578,105.48132995255946 175.6307385066466,105.21727752065999 175.4991349040356,105.03172631341295 175.4443000696192,104.93895044677265 175.29076253323,104.7462615481054 175.06593971213442,104.41797501576366 174.95078655984253,104.28951447067811 174.84660037446884,104.09682302276269 174.73693070560694,103.92554110068522 174.64371148709324,103.81135282063406 174.61629406985594,103.74712179635026 174.58339316924685,103.69716427494859 174.56145923546865,103.69002748201456 174.55049226860865,103.70430106682761 174.51759136791225,103.64720670266252 174.38050428187125,103.45451273335857 174.17213191109477,103.11194380909365 174.02956134159467,102.91211083253438 173.79377155358088,102.63377068803311 173.7005523350672,102.49816850739808 173.3989607457479,102.09849674324141 172.13775955414167,100.29279624405535 172.03905685216887,100.17859951268474 170.79430611085263,99.1365420649272 170.72850430954713,99.05089252363541 170.60786767382524,98.82963051680781 169.84017999196658,97.63765351252732 169.2698977139953,96.8168141926435 169.2589307471062,96.83822756669906 167.91547730384627,95.71758177475203 166.53363947648904,94.6968439116099 164.95439624518622,93.49762824929712 164.12639024545206,92.8123489986574 164.08252237792476,92.80521062275875 162.65681668304023,91.73444247915904 162.25652239174815,91.44890036135621 162.07556743820896,91.29185148830948 161.88912900118157,91.17049519669308 160.60051039230893,90.22818907224428 160.49632420690614,90.14252398177632 159.525747637701,89.08597556883979 158.90611400874332,87.90090095453343 158.47840230027214,87.20840434577985 158.34131521423114,87.17270837941396 156.66336928098463,87.8152318007451 156.60305096313823,87.70100602969251 155.85729721502867,86.51589796285407 155.84084676473867,86.40166916675662 155.2705644867383,85.4735503393822 154.33288881817134,84.045640934939 153.0387867258978,83.78861282840808 152.9565344742441,83.78861282840808 151.91467262027436,83.86714933718758 151.80500295144157,83.89570803645256 150.20930926984875,84.51685563285355 150.05577173345955,84.53827437523432 149.97900296526495,84.53827437523432 149.95706903151586,84.56683268382403 149.84739936268306,84.61680968389555 147.74174172099447,84.59539097580273 147.56627025082707,84.58111183189976 147.39079878068878,84.58825140438785 147.144042025815,84.55969310824003 146.7930990855093,84.54541395393608 144.98903303314,85.01662385161762 144.8190450464317,85.02376336070665 143.67848049051827,84.98806580482415 142.23084086185554,85.08801889585084 142.10472074267454,85.13085587251408 141.62217419975786,85.25222710329763 140.11421625324874,85.59492072236753 139.97164568377775,85.63775725645246 138.8694655119034,84.90239156474127 138.7707628099888,84.83099625037357 138.7378619093215,84.8167171750465 138.7597958430997,84.82385671322481 138.7707628099888,84.78815901187409 138.7488288762106,84.80243809554668 138.7214114590024,84.7810194684971 137.80018624075456,83.78147313956651 136.917345406604,82.68908850426669 135.88096703606425,81.43959913057915 135.65066073150956,81.18255736966967 133.85756164600025,79.04763069357796 133.52306915601366,78.6406274373694 132.7224805735459,77.69808061475487 132.6621622556704,77.60525305402189 131.65868478579796,76.37705648070187 130.8964805873693,75.45588886749829 130.7484265344392,75.29164786331967 130.5729550642718,75.070278683168 130.46876887889812,74.96316420504445 130.42490101134172,74.85604949295885 130.41941752791172,74.67038343789318 130.39200011070352,74.5989732295493 129.48722534277476,73.74918376977803 128.8730751973053,73.006498571056 128.6866367602779,72.79226036597902 128.5330992238887,72.58516254477217 128.32472685308312,72.3423570889936 128.24247460145853,72.22809528208018 127.71606019104365,71.59965058538364 127.42543556864257,71.21401007981694 126.7619340721576,70.39987016468513 126.01069684058893,69.25719485441005 124.50822237750981,67.35029613783627 123.65828244399745,66.2575454728285 123.63634851024835,66.30039889887121 123.64183199367835,66.30039889887121 122.7206067754596,65.22190962103195 121.97485302732093,64.26481979919481 121.90905122604454,64.14339662067505 121.43747165004606,63.49342037564929 121.38812029905966,63.400565922980604 120.46689508081181,62.27201313319529 119.69920739895315,61.27915090768511 119.68824043206405,61.300579801121785 119.69372391549405,61.27915090768511 119.33729749175836,60.850571072267485 118.34478698877501,59.59338194063457 117.87320741277654,59.05049484883784 117.61000020755455,58.893342200237385 116.05269091005903,58.47188488268148 114.4624807118962,57.850407312052994 114.28700924175791,57.76468564950119 113.47545369234285,57.52895030460422 112.30747171922121,56.23595749420929 112.20328553381842,56.107370709334646 111.05175401101587,55.07866428690977 109.80700326969963,54.078512344774936 109.68088315054774,53.949919900187524 110.66791017007199,52.30676452228363 110.71177803762839,52.0995801509016 110.81048073957209,50.5921088735995 110.81596422300208,50.47065182341976 110.79403028925299,49.92766368329467 110.77757983893389,49.80620498650751 110.84886512366938,48.02001291830675 110.83789815678028,47.85567997783073 110.84886512366938,47.78423070139252 110.87079905744758,45.56210620548882 110.88724950773758,45.51923464570791 110.89273299119668,45.47636304839034 110.89273299119668,43.3898999816156 110.94208434215398,41.26761866672314 110.95853479250218,41.09611717250664 110.76661287201568,40.93176101060453 110.83241467332118,40.88173946057941 110.97498524282128,40.89603133721903 110.93660085872398,40.5030032105351 110.98595220968127,38.873689351232315 110.98046872628038,38.702179477269965 111.03530356066767,37.44442205582891 111.04627052755677,37.38725049671848 111.04627052755677,37.1585635931624 111.02433659380767,36.90843607009083 111.00240266002947,36.75835894328702 111.00240266002947,36.42247037450579 111.02433659380767,36.165192466436565 111.05723749447498,34.5 110.64597623629379,34.88592947319921 110.6350092694338,34.97169116546138 110.5746909515583,37.16571007504899 110.5856579184474,37.25146777648479 110.5801744350174,37.37295759653716 110.5582405012392,37.53017926936445 110.5746909515583,37.951816719330964 110.5308230840019,39.19526874666553 110.5527570177801,39.20241493147478 110.28954981258721,39.109514447580295 110.30600026290631,39.088075849373126 110.33890116357361,39.116660644922376 110.32245071325451,39.138099230622174 110.3882525145309,39.14524542376239 110.4595377992955,39.1738301859732 110.5308230840019,39.166683996976644 110.541790050891,39.18097637390383 110.5034056668228,40.22430862849069 110.5308230840019,42.06795103609693 110.4869552164746,43.475646789629536 110.525339600601,44.38312464415503 110.5143726337119,44.44743346074392 110.4705047661555,45.36918389102357 110.4814717330446,45.48350831722564 110.4979221833928,47.01257187819647 110.5088891502528,47.234067783716455 110.4156699317682,48.80594544868654 110.4266368986282,49.18461753223164 110.4211534151691,49.377524827210436 110.4321203820582,49.67760133243428 110.4101864483091,49.86336205777479 110.4101864483091,50.04197747588478 110.28406632912811,52.13530165670454 110.24568194503081,52.278187419655296 110.16891317686532,52.42107276606475 109.35187414402026,53.47841138370495 109.26413840890746,53.699878069961414 109.32445672681206,53.764174662417645 110.39921948142,54.78576475980299 110.5692074681283,54.90006722251201 112.13748373251292,56.164520433136204 112.26360385166481,56.293107068097015 113.09160985142807,57.33607508830755 115.31242064537946,58.386164306863066 116.6558740886394,58.81476568699145 116.99036657862598,58.87905557083286 117.01778399583418,58.90762882546187 117.05616837993148,58.90762882546187 118.607994193997,60.20055117146694 118.77249869724619,60.37198582823112 120.17627045838162,62.12201365469082 120.31335754442262,62.314870042784605 121.68422840491985,64.05768596069538 122.7096398085414,65.4004690870861 122.780925093306,65.51474680411047 123.39507523880457,66.32182559784997 123.60344760958105,66.64322495884699 125.19914129120298,68.65727965751285 125.31429444349487,68.82154288156016 126.7893514893367,70.67839323562293 126.8880541913095,70.69267642738487 126.92643857540679,70.72124279842319 128.37407820406952,72.57802122500652 129.99170581944054,74.57040911709919 130.03557368699694,74.69894749210289 130.07944155452424,74.78463955496773 132.00414424261544,76.97687725405558 134.06593401680584,79.4189289641181 134.25785593723413,79.6331382263561 135.78774781757966,81.5038593603822 135.94676883739885,81.66093956768236 137.33957363161608,83.32453089198316 137.41634239981067,83.44590659161986 138.34853458494763,84.58825140438785 139.60973577658297,86.92997511932117 139.69198802823666,87.29407455911132 140.13066670359694,88.93605807255153 140.14711715388694,88.94319701134737 141.38638441177318,90.80642452101893 143.1904504641716,92.84804086251825 144.73679279480712,94.66829149831392 146.32700299294083,96.4242340126184 146.52989188028732,96.62409340577142 148.21880478042294,98.49416686193581 148.39975973399123,98.7796679901221 148.48749546907493,98.99379274639432 149.62257654152927,100.86377591550263 150.9111951504019,103.29750227317709 151.0153813358047,103.50447050173534 152.36431826252374,105.77392693436559 152.47947141478653,105.93806594107082 153.78454047397827,107.43670105670026 153.85582575871376,107.56515336649318 155.2541140364192,109.64888833337682 156.88819210213842,111.53273697690383 157.0746305391658,111.70399236034427 158.81837827365962,113.56635608688157 160.27698486921145,115.3216227534067 160.36472060429514,115.42151409131475 160.79791579622542,115.5 161.60947134561138,115.2716770082261 161.81784371641697,115.13610972954848 163.1174292921496,114.37264490791495 163.1832310934551,114.30842769943774 163.3916034642607,114.15858721976474 166.00722506604507,112.53885380073552 166.08399383421056,112.50317625176831 166.39106890698895,112.31765257918232 166.82426409889013,112.08217921601681 168.36512294609565,111.02610297013598 168.78735117110773,110.78348765093324 170.11983764750767,109.90578104114684 171.6552130112541,108.97097056732309 171.89100279923878,108.83538589080854 172.03905685216887,108.72834509221502 172.38999979247455,110.31252507945828 172.43386766000185,110.41242660849457 172.45031811032095,110.47664891267414 173.5086304146098,110.22689503562287 173.6347505337617,110.15553655169424 174.69306283807964,110.12699312907716 174.76434812281514,110.22689503562287 174.84660037446884,110.30538924818757 174.71499677182874,110.38388333522016 174.72596373871784,110.41242660849457 174.74789767249604,110.43383405254644 174.83014992412063,110.45524148728873 175.416882652411,110.911931204555 175.4443000696192,110.91906694769568 176.25037213557516,110.64790797977912 176.29972348656156,110.61222905675095 176.37100877129706,110.62650062908506 177.6431769298506,109.9343245923701 177.79123098275159,109.83442209049463 179.2498375783034,108.74975327059292 179.4088585981517,108.64271228530924 180.71941114074434,110.2911175825102 180.73586159109254,110.34820422030316 180.72489462420344,110.37674751431405 180.68102675664704,110.41242660849457 179.8310868231638,110.43383405254644 179.84753727348289,110.42669823890537" stroke="#ff0000" stroke-linecap="round" stroke-linejoin="round" stroke-width="0.5"><title>2024-03-16 38.6km</title><desc>10969293139</desc></polyline><polyline fill="none" points="46.80288324295543,249.15078320303292 46.89537539263256,249.24105490861984 48.814587496453896,248.21797327371314 49.0226948329946,247.88697519175184 48.99957179557532,247.7967028957646 48.86083357129246,247.5559765806829 47.242220953456126,245.81070242509304 47.19597487873398,245.84079348348314 46.964744504657574,245.75052029530343 46.98786754219327,245.66024706767348 47.034113617031835,245.6903381478769 47.21909791615326,245.84079348348314 47.51969740225468,245.47970049442665 47.42720525257755,245.20888033935626 47.42720525257755,244.90796864048752 47.3809591778554,245.14869803465263 47.21909791615326,245.26906262667035 46.964744504657574,245.17878918920178 46.80288324295543,245.058424544608 46.87225235521328,244.75751262706763 46.849129317793995,244.51678277806786 48.0284042248968,244.84778624822502 48.93020268343389,244.66723896644544 48.95332572085317,244.7274214111967 48.791464459034614,244.84778624822502 48.58335712249391,244.787603838442 47.26534399099182,244.87787744650268 46.849129317793995,245.11860687562148 46.87225235521328,245.17878918920178 46.82600628037471,245.20888033935626 46.664145018556155,245.32924489646393 46.4097916072933,245.14869803465263 46.57165286899544,244.57696526654763 46.77976020553615,244.81769504550903 49.76263202971313,247.4957949581003 49.73950899229385,247.5559765806829 52.560519554652274,245.8708845374349 53.18484156439081,245.41951826834702 53.87853268627077,245.23897148524702 54.04039394808933,245.32924489646393 54.24850128463004,245.56997380078246 54.75720810738858,246.352340806523 58.45689409086481,249.78268431565084 62.48030259786174,248.97023967382847 65.97188124468084,245.14869803465263 67.03554096492007,244.09550486884837 68.12232372257859,242.86175748890673 68.35355409653857,242.77148300176486 68.83913788199425,242.80157450190745 69.00099914357997,242.74139149732946 73.02440765069332,238.01697104416962 73.60248358547688,237.4151263016829 75.9841564373346,234.55633988055342 77.3021695689531,233.20216411232832 79.79945760779083,231.3965826415806 80.30816443066578,231.09565086530347 87.03696831280831,230.28313288433128 87.84627462178469,230.34331951080821 94.82943191553932,229.71135906009295 95.5,229.77154585281096 93.5345418213401,229.65117224978167 93.16457322298083,229.68126565711282 92.17028261499945,229.98219948948827 91.96217527834233,229.89191938570002 91.93905224103946,229.62107883814315 90.15857836150099,227.36406049468496 82.94419069378637,222.78976117457205 77.25592349411454,219.26868561003357 72.60819297749549,216.31936254563334 72.58506994007621,211.4739548496873 73.30188409937546,199.8565526541206 73.34813017421402,198.92352056216623 73.32500713679474,198.8934226827114 73.3712532116333,198.83322691073408 68.81601484445855,198.59244364751794 63.8214387667831,198.59244364751794 58.94247787608765,198.74293321989535 53.39294890104793,198.56234571996902 45.62360833585262,198.59244364751794 44.629317727754824,198.56234571996902 41.993291464517824,198.71283531415975 39.77347987436224,198.65263948966458 37.32243791036308,198.68273740411678 35.47259491868317,198.62254157086136 35.218241507420316,198.74293321989535 27.448900942108594,198.80312901821162 27.425777904689312,198.9837163079792 27.541393091669306,199.97694358543959 27.518270054250024,200.12743215099908 27.518270054250024,200.30801828531548 27.633885241346434,201.1808490465337 27.703254353487864,201.27114167377295 27.40265486727003,201.2109465933172 27.47202397941146,201.4216292984347 27.58763916650787,202.50513696530834 27.633885241346434,202.56533166948066 27.680131316068582,203.61873615674267 27.81886954046786,204.58184413904382 27.91136169002857,204.43135881223134 27.03268626902718,204.43135881223134 27.240793605567887,204.46145588629588 27.495147016947158,204.6119411913096 27.865115615190007,204.6119411913096 27.98073080217,204.7624263868056 27.81886954046786,204.64203823912248 27.379531829850748,206.62843372122734 27.263916642870754,212.9486561560043 26.52397944626864,214.36315570006263 25.50656580075156,215.47669109416893 25.06722809036728,216.2290764828067 22.593063088832423,219.47934993526724 21.69126463041175,218.75707135642006 21.36754210689105,218.27555090366513 19.633314302074723,215.98831345603685 18.1303168713348,213.7311464601371 16.604196403175592,211.65453108439397 15.147445047157817,211.83510716151795 14.5,211.77491515329166 14.523123037302867,212.16616289375816 15.147445047157817,216.01840884968988 15.031829860177822,216.4397439014865 15.679274907219224,220.1113416243752 15.841136169037782,220.56276307797816 16.257350842119195,224.44494694122113 16.69668855261989,224.4148527727084 18.315301170456223,224.05372240905126 18.500285469577648,223.96343971969327 18.685269768699072,223.9935339538206 18.754638880956918,224.1740992669802 19.147730516735464,226.43115239139297 19.170853554154746,226.34087073897535 18.800884955795482,223.9935339538206 19.378960890695453,223.00042191633838 19.772052526474,222.78976117457205 18.615900656674057,223.87315699091414 18.615900656674057,223.96343971969327 19.494576077675447,227.8455598062137 20.696974022313952,232.23918928769126 20.83571224671323,232.6303983504331 24.67413645447232,230.04238620340766 25.044105052831583,229.68126565711282 28.39694547536783,228.23677717220562 31.518555523827672,232.87114202156954 34.08521267492324,236.36189379222924 34.316443048766814,236.84337217563007 37.09120753640309,240.72525073352153 39.70411076222081,244.2459613634128 39.84284898662008,244.57696526654763 42.71010562381707,248.69942408461065 45.16114758781623,251.43765428003098 45.55423922347836,251.1969321983197 46.80288324295543,249.0304208675807 46.68726805597544,248.8197866123228 46.52540679415688,248.8197866123228" stroke="#4dd2ff" stroke-linecap="round" stroke-linejoin="round" stroke-width="0.5"><title>2024-03-09 10.2km</title><desc>10921031918</desc></polyline></svg>