<?xml version="1.0" encoding="utf-8" ?>
<svg baseProfile="full" height="300mm" version="1.1" viewBox="0,0,200,300" width="200mm" xmlns="http://www.w3.org/2000/svg" xmlns:ev="http://www.w3.org/2001/xml-events" xmlns:xlink="http://www.w3.org/1999/xlink"><defs /><rect fill="#222222" height="300" width="200" x="0" y="0" /><text fill="#FFFFFF" style="font-size:12px; font-family:Arial; font-weight:bold;" x="10" y="20">Over 10km Runs</text><text fill="#FFFFFF" style="font-size:4px; font-family:Arial" x="10" y="280">ATHLETE</text><text fill="#FFFFFF" style="font-size:9px; font-family:Arial" x="10" y="290">OrdinarySk</text><text fill="#FFFFFF" style="font-size:4px; font-family:Arial" x="120" y="280">STATISTICS</text><text fill="#FFFFFF" style="font-size:3px; font-family:Arial" x="120" y="285">Number: 8</text><text fill="#FFFFFF" style="font-size:3px; font-family:Arial" x="120" y="290">Weekly: 1.1</text><text fill="#FFFFFF" style="font-size:3px; font-family:Arial" x="141" y="285">Total: 186.3 km</text><text fill="#FFFFFF" style="font-size:3px; font-family:Arial" x="141" y="290">Avg: 23.3 km</text><text fill="#FFFFFF" style="font-size:3px; font-family:Arial" x="167" y="285">Min: 10.2 km</text><text fill="#FFFFFF" style="font-size:3px; font-family:Arial" x="167" y="290">Max: 38.6 km</text><polyline fill="none" points="67.0,57.97610845507006 66.97200000000885,58.00213502641782 66.98400000001129,58.01254564964984 66.96399999999267,57.99692971365948 66.94800000001851,57.99172440013717 66.94000000001688,57.981313770855195 66.93600000001607,57.939671223415644 66.91600000001199,58.501841528501245 66.84000000001106,58.460199586283125 66.80800000000454,58.423762847127364 66.7280000000028,58.28322079172722 66.6760000000213,58.22075747897179 66.48400000001129,57.934465901591466 66.40000000000873,57.83556464299909 66.28000000002794,57.64296667144299 66.18000000000757,57.51803770364131 66.1200000000099,57.41392989758606 65.99599999999919,57.247356778407266 65.70000000001164,56.815304139687214 65.4719999999943,56.523795800076186 65.30000000001746,56.26351849174898 65.24800000000687,56.20105165629138 65.05199999999604,55.89912708207703 64.94000000000233,55.75336948003314 64.18000000002212,54.66016855398266 63.07200000001467,54.99854383537968 62.06399999999849,55.84707086373601 61.1880000000092,56.539412378431734 61.096000000005006,56.59146759039868 60.08800000001793,57.2577676210567 58.94800000000396,57.934465901591466 58.41600000001199,58.30404187177919 57.78800000001502,58.66840881318785 57.79200000001583,58.66840881318785 57.620000000009895,58.75169216504946 57.528000000005704,58.7777181727688 57.51600000000326,58.78812857058074 57.50000000001455,58.8193597458303 56.62400000001071,59.43356732461325 56.00800000001618,59.78751267100597 54.844000000011874,60.55785221694896 53.7840000000142,61.19805423370417 53.66000000000349,61.281331703805336 53.14800000000105,61.58841570145887 52.99200000001292,61.666487484500976 51.76000000000931,62.46801461600262 51.6759999999922,62.54608448197905 50.51600000000326,63.31116016443775 50.44800000000396,63.34759193221544 50.17600000000675,63.5349547240985 48.90000000000873,64.34164444105772 48.56800000001385,64.51338893861248 47.20000000001164,65.40332451159702 46.11600000000908,66.07466478876086 45.987999999997555,66.17354330157832 44.98399999999674,66.81364496713286 44.68000000000757,67.0009896326701 44.604000000006636,67.06343763679615 44.46800000000803,67.14670147301877 43.25999999999476,67.87004790754872 43.228000000002794,67.88045566334404 42.884000000034575,68.10942552590495 42.8640000000014,68.11462936942553 42.85600000001432,68.062590900332 42.84800000002724,68.05738704927717 42.820000000006985,68.06779475064468 42.75200000000768,68.04697934488286 42.628000000011525,68.0417754915361 42.5,68.01055235567401 42.44400000000314,67.98453305500516 42.40000000000873,67.91167891258738 42.33200000000943,67.84402850484184 42.27600000001257,67.73474680712388 41.13200000001234,66.54303427631385 40.028000000005704,65.68435220500032 39.912000000011176,65.62190179698882 38.99199999999837,64.96616594006264 38.98800000001211,64.97137024014955 39.00000000001455,64.99218743291931 38.504000000000815,64.83605819225704 38.45200000000477,64.77360630546536 37.920000000012806,64.37287077458677 37.88000000000466,64.36246199976813 37.812000000005355,64.33644004949383 37.77200000001176,64.33123565717688 37.728000000017346,64.30000928734444 36.62400000002526,63.84722386623616 36.52400000000489,63.74833893240066 36.24800000000687,63.60261326922773 35.59200000000419,63.38402366295486 35.54800000000978,63.36320553563564 35.396000000007916,63.3371828595009 35.27200000001176,63.26952381304727 35.228000000017346,63.253910168787115 34.10800000000745,62.936431259618985 33.87200000001758,62.686609811946255 33.84800000001269,62.686609811946255 33.844000000011874,62.71263296070538 33.44800000000396,62.82713459064689 33.40800000001036,62.795906909697806 32.31200000001991,62.34310247653775 32.236000000004424,62.27544155247233 30.948000000003958,61.890292319531 30.912000000011176,61.838244808255695 30.87200000001758,61.76537816543714 30.484000000011292,61.42706681057825 30.34800000001269,61.44268125113376 29.828000000023167,60.4225234963269 29.764000000010128,60.31842413254344 29.344000000011874,59.73025704329484 29.292000000015832,59.5949251957536 29.20800000001327,59.47000303646928 29.13200000001234,59.26700359836104 29.044000000008964,59.142080295347114 28.644000000014785,59.058797851273994 28.68800000002375,59.058797851273994 28.24800000000687,58.24678387252425 28.236000000004424,58.106241122637584 27.568000000013853,57.33064343484875 27.55600000001141,57.262973041251826 27.53200000002107,57.23174050878515 27.20000000001164,56.856947994496295 27.100000000020373,56.82571510793059 26.69200000001001,56.294751868634194 26.60800000000745,56.25831292629664 25.152000000001863,55.86268773717893 25.092000000018743,55.86268773717893 25.03200000000652,55.84186523772951 23.636000000013155,54.98813233593319 23.580000000016298,54.925663275713305 23.528000000005704,54.88922294025542 23.196000000010827,54.748667013274826 23.1480000000156,54.7070207067336 23.088000000003376,54.67578594504448 21.920000000012806,53.75955414791679 21.772000000011758,53.71270075550274 21.304000000003725,53.23895745513073 19.896000000007916,52.37475023433581 19.84800000001269,52.33310116676148 19.808000000019092,52.27583361971847 18.90000000000873,51.88537063057447 18.864000000001397,51.90098923187543 18.80400000003283,51.942638802091096 18.74800000000687,52.53093380631981 18.580000000016298,52.676704525543755 18.53200000000652,52.697528865559434 18.504000000015367,52.697528865559434 18.512000000016997,52.73397143144757 18.488000000012107,52.801650383978995 19.120000000024447,52.44242986584504 19.0679999999993,52.42681150068893 19.276000000012573,52.926595806417026 19.271999999997206,52.99948043483528 19.09200000000419,53.946967104511714 18.460000000006403,54.691403329285095 18.468000000022585,54.717432287910924 18.528000000020256,54.79031327136909 18.528000000020256,54.77990171138299 18.528000000020256,54.79031327136909 19.000000000014552,54.55084662586523 19.03200000002107,55.08183572195048 18.992000000012922,55.7273412743707 19.052000000025146,55.84186523772951 19.055999999996857,55.831453983471874 19.512000000002445,55.85748211345708 19.560000000012224,55.89392146365208 19.18000000003667,56.15940703875094 18.912000000011176,56.40927401747467 18.916000000026543,56.43530172749524 18.87600000000384,56.85174251529679 18.90000000000873,56.81009865441956 19.14000000001397,56.26351849174898 19.148000000001048,56.232285087640776 19.16400000001886,56.216668375356676 19.20800000001327,56.190640506436466 19.196000000010827,56.195846081744094 19.212000000028638,56.190640506436466 19.92399999999907,56.0917344320078 19.604000000021188,55.91994954822803 19.568000000013853,55.90953831666047 19.41599999999744,55.81583709640836 19.380000000004657,55.80022020253091 19.07200000001467,55.49829224891073 19.060000000012224,54.70181491501717 18.608000000022002,54.8319594810273 18.56400000001304,54.79551905021799 18.12400000001071,54.88922294025542 18.04800000002433,54.91525175507559 17.38000000001921,55.57117164319061 16.728000000017346,56.34680743622812 16.720000000001164,56.398862928163 16.72400000001653,56.38845183582089 16.720000000001164,56.38845183582089 16.427999999999884,57.11201554861691 16.3920000000071,57.15365905840736 16.3240000000078,57.19530251979086 16.196000000010827,57.22132965855417 16.168000000019674,57.15365905840736 16.160000000018044,57.14845362233609 15.440000000002328,57.205713377570646 15.220000000015716,57.38269749675237 15.160000000018044,57.38790289878307 13.896000000022468,57.37749209396861 13.768000000010943,57.35146506868114 13.004000000015367,57.25256220011943 13.0,57.2577676210567 14.10000000000582,57.62214520706766 14.31600000000617,57.63776130647602 16.932000000029802,57.36708128612372" stroke="#4dd2ff" stroke-linecap="round" stroke-linejoin="round" stroke-width="0.5"><title>2024-05-01 17.8km</title><desc>11304292210</desc></polyline><polyline fill="none" points="167.59503539744765,58.13119720333634 167.56116139437654,58.168972990511975 167.56116139437654,58.14378913605469 167.5563222511264,58.13749317014663 166.55461958955857,58.74190172640374 166.46267586702015,58.82374807042288 165.89165695849806,59.41555549742043 165.8287480957224,59.46592171382872 165.27708576037548,59.818483589977404 165.00125459273113,59.95069355418673 164.74961914151208,60.01994623164501 163.87857334886212,60.04512899601468 163.79146876960294,60.05772037271163 163.66081190071418,60.11438152259143 163.55435074827983,60.108085842941364 163.3704633031739,60.177338268913445 163.11882785195485,60.29695583499779 163.0897929922212,60.2906601818504 162.97365355319926,60.31584278895025 162.75105296174297,60.3976861609226 162.54780894346186,60.492120628874545 162.09776861727005,60.62432853837163 161.10090509903966,61.014654299371614 161.06703109596856,61.014654299371614 160.99928308988456,61.09020081487688 160.78152164173662,61.37349907534008 160.67506048927316,61.461635934309015 160.07500672104652,62.14783820703451 160.03629357469617,62.217087374236144 159.62012725154636,62.77737202218486 159.5572183887416,62.834029617086344 159.0733040595369,63.15508792287801 159.0297517698782,63.0921355013088 158.87973832784337,63.25581160719594 158.91361233085627,63.2998781455135 158.28452370286686,63.92939523033783 158.1877408370201,63.986051319567196 158.0183708217519,64.04900244297824 157.70382650775719,64.20637985159192 157.61188278518966,64.26303557882056 156.64889327000128,64.34487149853157 156.55211040418362,64.34487149853157 154.87292768168845,64.21897001958496 153.53732413300895,64.23156018394366 153.38731069094501,64.22526510222451 151.90169370017247,64.09306817498873 151.7807151178713,64.03011711555882 151.02096962093492,62.9725256484744 150.9967739044805,62.859210746632016 150.48866385876318,61.28536203716794 150.45962899902952,61.10908742319225 150.299937270378,60.68728454403026 150.20315440453123,60.56137244129786 149.60310063624638,59.925510734970885 149.19177345640492,59.52258363733199 149.0901514472789,59.409259716230736 147.81261761806672,58.32637174938645 146.77220181017765,57.69677328418038 146.53508378888364,57.57085249361626 146.3850703468197,57.47011559777093 146.35603548702784,57.42604313221091 145.8140514382976,57.25604891662442 145.77049914866802,57.23716062929452 145.71726857245085,57.19308792681841 145.6785554261005,57.18679182283449 145.14141052064952,56.777543100248295 145.06882337128627,56.76495077059735 145.06398422797793,56.79013542626126 145.049466798082,56.802727748632606 144.2993995877914,56.50680720607488 144.28972130117472,56.51939961073731 143.35092750246986,56.23606962059057 141.9088628013269,55.751256229887076 141.79272336230497,55.69458937565287 140.6410072587314,55.228659098382195 140.48615467335912,55.15310236518417 140.3700152343372,55.11532394918686 140.31678465812,55.10273113652147 138.70534994173795,54.63049802054957 137.10843265525182,54.03862524861688 136.9826149296423,54.00084586105004 136.20351285958895,53.686016350511636 135.98575141144102,53.5474906413001 135.80670310958521,53.38377786857018 135.65668966752128,53.2389545156002 135.58410251812893,53.15709762372717 134.41786898468854,51.37509773158308 133.89040236579604,50.663536665371794 133.86136750603328,50.63834844887242 133.80329778656596,50.41795093011024 133.07258714939235,50.865041870089044 133.01451742989593,50.902823991644254 133.00483914330835,50.92801205438809 133.0,50.98468514201886 133.12097858230118,51.186188853302156 133.15001344206394,51.20507977818124 133.86620664934162,52.300739330796205 134.6501478627033,53.39637118073006 134.727574155404,53.471930976880685 135.51151536876569,54.46678933915973 135.62281566447928,54.54864375716352 136.6341966126056,54.82568833238474 136.73097947845235,54.81309543556927 136.89067120710388,54.850874115039915 137.15682408818975,55.071249088898185 137.7907518594875,55.05235984934188 137.96496101803496,54.93902423905456 137.83914329242543,55.008284925017506 137.93108701496385,55.37347580216738 137.95044358813902,55.40495763025319 137.97463930459344,55.41755035508686 138.02303073753137,55.40495763025319 138.11013531679055,55.32940120442436 138.18756160949124,55.36088306452439 138.23595304237097,55.36717943379335 138.89407653015223,55.26643741559383 138.96666367954458,55.45532850763993 138.97634196610306,55.66940408333903 139.11183797832928,55.52458836842561 139.10699883502093,55.59384811855125 139.47961286854115,55.80792301000838 139.55703916121274,55.751256229887076 140.84909042029176,55.8771823073148 140.97006900259294,55.92755263582512 142.1556591092376,56.343105612348154 144.10583385606878,56.972723742295784 144.26068644141196,57.03568505220028 145.63016399319167,57.74714149797728 146.4963706425333,58.30118798638796 146.57863607848412,58.33896362539599 146.61734922486357,58.33896362539599 147.77390447171638,59.037807008742675 148.60139797473676,59.83107503250358 149.42889147775713,60.64321534968258 149.51115691370796,60.7313536935726 150.07249753561337,61.7512272091044 150.10153239537613,61.82047700991825 150.44995071244193,63.35023984871441 150.49350300207152,63.513914980070695 151.08387848373968,64.35746162633222 151.21453535262845,64.46447756485941 152.81145263911458,64.84847375784739 153.45505869702902,64.87365371724809 153.88574245007476,64.94919350769487 153.8905815933249,65.0184381999461 155.42459001703537,65.18840197567624 156.0343220718787,65.23246654951436 157.1231293126766,65.70458417261398 156.82794157182798,66.25852896163633 155.46814230666496,68.88967005665108 155.48749887984013,69.53798891664337 155.56008602920338,69.58204906988976 156.02464378532022,69.0722074151854 156.77955013891915,67.6433599688753 157.64575678826077,65.95637813598296 157.74253965410753,65.80530193344748 158.94264719061903,64.5337230313744 159.43623980644043,63.967165964731976 159.86208441617782,63.551686076451006 160.95573080025497,62.626284740352276 161.34286226364202,62.330403954671056 161.80742001972976,62.16042897293664 161.880007169093,62.10377049757517 161.9138811721641,62.10377049757517 161.90904202885577,62.097475106846105 162.84783582758973,61.83936330002325 163.80598619949888,61.68197729766325 164.99641544942278,61.47422689951782 165.7948740926513,61.10279188799905 165.7513218030508,61.008358750474144 165.88197867193958,60.48582500408156 165.9981181109615,60.422868705834844 166.58849359262967,59.868849338174186 166.73366789138527,59.71775191799679 166.98046419929597,59.535175165819965 167.1304776413599,59.38407658242795 167.26597365358612,59.26445649701054 167.3530782328162,59.20149842469618 167.51276996149682,59.11965279398646 167.6579442602524,59.081877835389605 169.5210144278244,58.918185967642785 169.68070615650504,58.899298404667206 171.72282462584553,58.74190172640374 173.48427278432064,58.65375933689211 173.54234250381705,58.62857576411989 173.60041222334257,58.61598397222406 175.4102518146683,58.49006585226016 176.92974280851195,58.03675759131875 177.26848283896106,57.87935778067185 179.4702930370404,56.95383533147469 181.1446366161981,56.50051100235578 182.33506586612202,56.19199590008793 182.4657227350399,56.147922134765395 182.65928846673341,56.1038483246266 182.8141410520766,56.0534782010036 184.44493234160473,56.00940429481852 185.78537503362168,56.26125458360548 185.95958419214003,56.317920696888905 187.0,56.07866327011652 187.0,55.977922905807645 186.66609911283012,55.14680596481048 185.11757325925282,54.731241517070885 185.035307823302,54.718648592828686 184.8901335245173,54.69346273332849 184.31427547271596,54.661980388373195 184.2078143202816,54.63049802054957 183.3658033874235,54.58642266717288 183.3754816740111,54.56123673081311 183.3754816740111,54.58642266717288 183.39483824715717,54.60531210981935" stroke="#ff9d00" stroke-linecap="round" stroke-linejoin="round" stroke-width="0.5"><title>2024-04-21 21.1km</title><desc>11229738329</desc></polyline><polyline fill="none" points="67.0,136.60009286555942 66.97709646145813,136.57028412769432 66.92474551624036,136.4553072831768 66.87239457100804,136.39994790077253 66.76114881239482,136.2168353520192 66.3587009209732,135.6802664078623 65.81228793019545,134.8881704766609 65.22333979640098,134.10031187534514 65.16117304896761,134.02791299463934 64.41190014540916,133.31669094567042 64.37590887057013,133.24854900435275 63.921110033930745,132.58841573964492 63.463039263209794,131.9793763689613 63.15220552592655,131.7238316019284 61.03526417838293,130.15218225170793 59.520358700916404,129.00640096930874 59.22915656809346,128.80194457648395 59.06228793019545,128.6698990640034 58.80707707222609,128.49099774228125 58.67947164323414,128.39302750765273 58.53550654386345,128.28653775036219 58.42098885118321,128.1843072189531 58.008725157531444,127.77964119587159 57.917111003407626,127.65185076341731 57.854944255930604,127.57091653435964 57.668444013557746,127.27699561040572 57.252908385853516,126.51449134057475 56.96170625303057,126.32705708256253 56.8799079011078,126.35687624933234 56.690135724667925,126.44633356742997 55.957222491517314,126.54857016765345 55.466432380038896,125.7477072433976 55.43044110518531,125.7093675113465 55.38136209403456,125.68380766207702 55.250484730975586,125.63694788044813 55.214493456122,125.5900880238205 55.211221522054984,125.55174808532865 55.20140571981028,125.51766809785477 55.1555986427411,125.44098798095729 55.086888027144596,125.33874751267831 54.82840523509367,124.92978206872067 54.46849248665967,124.40578674379503 53.9089917595702,124.34614440493533 53.38875424138678,124.39300625283249 53.26442074647639,124.41430706800202 52.45952496363316,124.71251685275638 52.11269995152543,124.7977190904221 51.07876878332172,124.85310041192497 50.37857489094313,124.80623930055299 50.290232670871774,124.81049940469347 49.75690741636208,124.93830224042358 48.93565196314012,125.09166490680218 48.83095007271913,125.07888471528167 48.00642268540105,125.0831447797409 47.90499272903253,125.10018503136234 47.81010664081259,125.10444509272929 47.37493940863351,125.14704567221088 46.64202617545379,125.31744737017834 45.97782355792879,125.4921080812037 45.50339311681455,125.061844451262 45.457586039745365,125.00220344904847 45.32343674260483,124.88292108010683 44.69849733398587,124.20129821891533 43.97212796898384,123.28960283044762 43.91323315558839,123.2256978831465 43.14432864759874,122.33101397100108 42.64699466795719,121.73454283627143 42.2020116335334,121.18918716139342 41.75702859913872,120.6693855753474 41.240063015022315,120.0387942091802 40.657658749390976,119.31871042507919 40.36645661656803,118.8500073184332 40.340281143959146,118.8287024534111 40.27157052834809,118.79035365727941 39.79714008724841,118.2662484069715 39.247455162374536,117.60577720377296 38.25278720310598,116.37001685032374 37.9059621909837,115.82456119654853 37.83725157537265,115.73933283213591 37.17304895783309,114.89982017692273 36.675714978176984,114.3159824547838 36.613548230729066,114.26910446818329 36.54483761511801,114.17108661713246 36.37796897722001,113.89407787144955 36.276539020836935,113.83441410601336 35.910082404254354,113.37414668310885 35.838099854576285,113.2931729615866 35.45528356761497,112.79454036880088 35.0037566650426,112.15951732776921 34.94158991759468,112.05723044834667 34.29047503635229,111.26875708238185 34.01563257390808,110.90647841058671 33.10276296654774,109.7812548690872 33.089675230236026,109.75994339952558 33.04714008724841,109.67043505780566 32.69704314104456,109.44879417570701 32.61524478913634,109.43600715049251 32.317498788179364,109.36780958832242 31.86269995152543,109.244201101621 31.79726126998139,109.23567635914878 31.119970916144666,108.93304639171765 30.63572467281483,108.77107413691556 30.553926320906612,108.75828681543499 29.987881725639454,108.34056457325823 29.52326708676992,107.7906966086448 29.228793019865407,107.50936481539975 28.260300533205736,106.78470985572312 27.995273873006226,106.53320776099281 27.880756180311437,106.39679894062465 27.726975278710597,106.34138267561138 27.51102762966184,106.20071014670066 26.987518177411403,106.04724843438453 26.95807077072095,106.03019708331885 26.33640329616901,105.927888768103 26.251333010179223,105.9023116333774 26.015753756655613,105.80852861469975 25.914323800287093,105.75311123502252 25.88487639359664,105.7190081799472 25.606761997085414,105.5996471740491 25.21412990789395,105.51865192831247 25.191226369366632,105.52717775421843 24.78550654386345,105.41207889481302 24.042777508482686,105.07530555631092 23.960979156559915,105.09235746412924 23.938075618018047,105.09235746412924 23.535627726610983,104.94741593077742 23.13972370333795,104.78968462236844 22.79289869121567,104.4529041165024 22.825618031987688,104.43158876411508 22.691468734832597,104.47421945336828 22.275933107128367,104.64047854764794 22.181047018893878,104.65326766958242 21.70007270964561,104.65753070899518 21.503756665057153,104.31648559273708 21.464493456122,104.32501176911319 21.22891420261294,104.4401149069472 20.81337857489416,104.41879954522483 20.695588948132354,104.43585183584219 20.29314105672529,104.4230626188164 19.108700920987758,104.33353794301183 18.500121182747534,104.29517014091289 17.69849733398587,104.235486793159 17.59379544352123,104.21843438570431 16.658022297604475,104.18006643259105 16.536960736775654,104.18432954098353 16.343916626268765,104.18006643259105 15.064590402311296,104.28238086236524 14.851914687344106,104.3036963235063 13.909597673278768,104.02233098538272 13.749272903529345,103.91575249885318 13.467886572951102,103.46385540097617 13.474430441099685,103.44253932767424 13.111245758613222,103.42122323882359 13.0,103.39990713443876 13.081798351922771,103.42122323882359 13.078526417841204,103.4126967989323" stroke="#4dd2ff" stroke-linecap="round" stroke-linejoin="round" stroke-width="0.5"><title>2024-04-14 18.0km</title><desc>11176726526</desc></polyline><polyline fill="none" points="168.47290523155243,103.47126617783942 168.77980901539559,103.51427659328328 168.58622355174157,104.01810962977106 168.53428598833852,104.09798504755236 168.52484279498458,104.12870632189151 168.61927472846583,104.39290835972133 169.58248044995707,105.7261818261868 169.7146851568541,105.89821404957547 169.8185602836893,106.02109378057503 169.82800347701414,106.05795763024071 169.8185602836893,106.07024557298064 169.81383868699777,106.07024557298064 169.7807875102735,106.05181365753378 169.76662272028625,106.05181365753378 169.66274759342195,106.13168523314016 169.63913961005164,106.16240502972869 169.6296964167268,106.20541270745889 169.65802599675953,106.27914005322236 169.7382931401953,106.40201867709766 169.74773633354926,106.38973083077872 169.74773633354926,106.37129905461188 169.7382931401953,106.37129905461188 169.74301473688683,106.38973083077872 170.0121457473142,106.73993305140175 170.7298284417775,107.79052230960951 170.8761979386618,107.98712090864137 171.27281205929467,108.68135239815092 171.10283457901096,109.00081792668425 171.01312424222124,109.03153563876913 169.7382931401953,109.34485502735697 169.3511222129746,109.48615516848076 169.19058792601572,109.5168725279982 168.83646817549015,109.62131138338736 168.6759338885604,109.62745483743129 168.3595869113924,109.71346310040826 168.31237094465178,109.71346310040826 167.77883052048855,109.84861858874137 167.08003421273315,110.07592457221108 166.29152756815893,110.39537956469212 164.56342318546376,111.15100388360952 164.47371284867404,111.18786326110421 163.6191038506513,111.37830286626559 163.14222258658265,111.40901885131098 162.93447233291226,111.43359162326306 161.6077036675124,111.48888030795206 161.29607828703593,111.80218148917265 161.25830551364925,111.81446776270604 161.2724703036365,112.96936153680144 161.33857265708502,114.15493776293442 161.36218064045534,114.26550794452123 160.94195853645215,114.60335948599459 160.30926458214526,114.72007120944909 159.39799642405706,114.90435222229644 158.6850353262853,115.01492044459155 156.4469985027681,115.40190694616831 155.69626463160967,115.45104783586066 155.61127589148236,115.44490522778142 154.54891663978924,115.65989598003216 154.0106546189636,115.72132170850455 153.23159116774332,115.85031544794401 151.60264031519182,116.12672927906897 151.0690998910577,116.26800676180574 150.54500266021932,116.60584230695895 150.49306509678718,116.69183637850438 149.79426878903178,117.67461335023472 149.39293307173648,118.006295424173 149.31738752496312,118.0800021985051 148.76968231078354,118.52838230836278 148.60914802385378,118.73107312680077 148.42972735024523,118.86619979946772 147.9811756662093,119.52954265881272 148.34473861011793,119.85506821984382 148.34473861011793,120.5368211830937 148.64219920057803,120.94832441074323 148.76968231078354,120.96060802766442 148.9727109677915,121.7406103965368 148.95854617774603,122.30564249965755 148.9538245810545,122.82153478530017 148.8877222276351,123.40497681312263 148.87355743761873,123.97612805672179 148.84050626089447,124.59026057559822 148.8452278575569,125.32720783064724 148.81217668083264,125.83692217209682 148.73190953739686,127.96168929700434 148.75079592407565,128.2073202341562 148.74607432741323,128.2257424969539 148.76968231078354,128.82753200456136 148.7413527307508,129.7363407523153 148.73190953739686,129.87757279178186 148.67052878061077,131.38197178437986 148.6752503773023,131.51705805656457 148.66580718394835,131.90389363221038 148.60442642719136,133.08279929067794 148.58554004048347,133.1933200123749 148.5524888637883,134.74671961710555 148.48166491364827,135.54488696160843 148.46277852694038,135.63084254703426 148.48166491364827,136.08517631276845 148.3825113835046,137.91474130135612 148.33057382010156,139.38201983346516 148.2550282732991,140.76330251571198 148.2361418865912,141.37105261673787 148.19364751654211,142.14454012578062 148.17948272649664,142.73999310377985 148.16059633981786,142.83821134698883 148.14170995310997,143.47048583222931 148.0850507930445,144.5999623812204 148.0614428096742,145.2567636915701 148.0661644063366,145.3611143635644 147.98589726290083,146.67468317877137 147.3626465019188,146.76675423084453 146.85271406112588,146.56419765198007 146.772446917661,146.55805955870892 146.772446917661,146.56419765198007 146.73939574093674,146.53964527354765 146.27667926688446,146.33094948191138 146.27667926688446,146.3125350979717 146.11142338329228,146.18977233365513 145.99338346644072,146.22046305810363 146.04532102984376,146.22660120033106 146.18696893009474,146.2143249149958 146.23890649349778,146.22660120033106 146.29084405690082,146.3493638578584 146.30973044360871,146.373916346638 147.41458406532183,146.82813482100028 147.85841415269533,147.0 148.11338037307723,146.0485947146335 148.15587474315544,144.83935843150175 148.20309070989606,144.02908941359783 148.2739146600361,142.2918694774562 148.33529541676398,141.39560799295577 148.34946020678035,141.30966411380723 148.35418180347187,140.54843928111222 148.37306819015066,139.71353178805657 148.3164090300852,138.9154430542403 147.67899347908678,138.90930385181855 147.10295868484536,138.92772145644267 147.10768028150778,138.9399998550507 146.6874581775337,138.89702544428656 146.17280414004927,138.9154430542403 145.74786043938366,138.89702544428656 145.3134735453641,138.89702544428656 145.25209278860711,138.90316464850184 144.79409791121725,139.01980935930987 144.77993312120088,139.2899327186169 144.79881950790877,139.45568938108408 144.79409791121725,139.4434111320479 144.79881950790877,139.4434111320479 144.75160354116815,139.64600178566252 144.76576833118452,140.03890210769168 144.7846547178924,139.7626444493908 144.77048992787604,139.69511452535153 144.77993312120088,139.49252410680128 144.79409791121725,139.42499375182524 144.78937631455483,139.43727200619105 144.81770589461667,139.18556707959942 145.19071203185013,138.93386065619052 145.55427497575874,138.95227825012262 145.95561069305404,138.93386065619052 147.2351633917133,138.95227825012262 147.69315826910315,138.9461390530414 147.68843667241163,138.9399998550507 147.40041927527636,138.92158225578532 147.29182255180785,139.00139179476537 147.29654414847028,139.03208773122242 148.08032919638208,139.57233256925974 148.0661644063366,139.682836345768 148.05672121298267,140.0573192207812 148.07088600302814,140.20465583719488 148.0850507930445,140.16782173116735 148.1039371797233,140.07573632588537 148.05199961632024,139.03822691583264 147.94340289282263,139.03822691583264 147.70732305911952,138.95841744630889 148.3400170134264,138.95227825012262 148.46277852694038,138.92772145644267 148.83106306754053,138.93386065619052 150.12005895955372,138.79265883646076 150.70081535045756,138.76810195018334 152.17867510943324,138.78651961623473 153.74624520522775,138.76196272636662 154.06731377905817,138.72512736487988 154.4308767229668,138.41202549782247 154.42143352961284,138.3322148475454 154.3931039495801,136.79736537383724 154.39782554624253,135.76591525712865 154.35533117616433,134.3169309656223 154.36477436951827,134.18799351905182 154.3694959662098,133.9730969017728 154.34588798283949,132.75737548954203 154.35533117616433,132.65913385025488 154.33172319279402,132.1679222327075 154.34588798283949,131.9345947169095 154.3270015961316,131.91617406876685 154.31755840277765,131.7503878746138 154.34116638617706,130.65127038245555 154.34116638617706,130.34424922205653 154.30339361276128,128.9687670774765 154.3081152094237,126.02115476049585 154.29867201609886,125.52372493065195 154.1995184859552,123.23301578860264 154.16646730923094,123.10404456147808 154.1145297457988,122.43461616089917 154.10508655244485,121.83887739139391 153.93038747549872,120.94832441074323 153.95399545886903,120.91761535287878 154.05787058570422,120.89304809052555 155.01635471053305,120.56138865233515 155.03051950054942,120.5491049194934 154.93136597040575,120.56753051742271 155.71515101831756,120.26043617097821 155.81902614512364,120.26043617097821 155.93234446531278,120.28500380073092 155.98428202874493,120.30957141623003 156.24869144248078,120.36484849891349 157.08913565045805,120.46926056913435 157.09385724712047,120.48154432515003 156.6358623697306,120.38327417708933 156.56031682295725,120.37713228524444 155.9606740453455,120.1498816604726 155.39408244445804,120.19901703414871 154.90775798703544,120.37099039253008 154.23729125931277,120.67194208734873 154.14285932583152,120.70265132355053 153.66125646507135,120.34642281271226 153.51960856487858,120.06389461920844 153.19853999104816,119.36984995823514 152.85386343381833,118.77406802400219 152.57528923006612,118.26426857238766 151.9567600657756,117.5517674775947 151.79622577884584,117.41663660557606 151.75373140876764,117.36135566986559 151.67346426533186,117.30607466189758 151.56958913846756,117.15251592734057 150.97466795757646,116.41542624062276 151.08326468107407,116.34785904329692 152.01814082250348,116.15744181547052 153.70375083514955,115.8810281850565 154.53003025313956,115.79503246493914 155.2571561408986,115.55547203686365 155.60655429481994,115.54932944395478 155.54045194134233,115.43262000892719 155.43657681450713,115.29133973561329 155.43185521787382,115.25448393453553 155.44602000789018,115.22991338263091 155.43657681450713,115.21762810133805 155.4507416045526,115.22991338263091 155.46018479790655,115.10706040899822 155.49795757129323,115.10091775095498 155.52628715135506,115.05177645444928 155.5782247147581,114.99649242760643 155.64432706820662,114.84292530723542 155.76236698502908,114.9596363695673 155.7057078249345,115.15620164127904 155.61599748814479,115.19305752800938 155.5357303446799,115.2053428164545 155.30909370433073,115.15620164127904 155.44129841119866,115.18077223600994 155.4271336211823,115.22377074243195 155.46018479790655,115.27905447216472 156.1070435422589,115.12548837779104 156.22980505577289,114.7937837109348 156.2345266524353,114.74464205755794 156.53670883958694,114.56650308534881 156.54615203294088,114.53578939361614 156.62641917640576,114.4805046922811 156.71612951319548,114.4989329340824 156.71140791653306,114.48664744043344 156.62169757971424,114.44979093809889 156.08815715555102,113.97065348452816 155.92290127195884,114.0259388523773 156.4469985027681,113.43622453598437 156.57920320966514,113.41779583110474 158.0098470018711,113.31336635168918 158.65198414956103,113.23350834048688 160.18178147196886,113.13522135046878 160.69171391276177,113.10450661924187 161.71630039101,113.11679251441456 161.8012891311373,113.0922207204967 162.03736896484043,113.06764891231433 163.4916207404458,112.90793181110348 163.77963813755196,112.88950287599437 165.29999226660584,112.50249338350841 165.43691857013619,112.44720602402595 165.95157260762062,112.20762663102869 167.52858589676907,111.51345303351991 168.97811607568292,111.06499854454523 169.11032078257995,111.04656880625771 169.29918464954244,110.99742279826751 170.96590827548061,110.54896283664493 171.8724548368773,110.33394609973038 172.420160051086,110.40766624698517 173.6477751863422,110.65339914295328 173.91690619674046,110.67797235399848 175.1964588953997,110.67797235399848 175.22478847546154,110.59196605282341 175.24839645883185,109.81790147024003 175.19173729873728,109.7318934197101 174.2426963672624,109.71960654106078 173.81303106990526,109.70731965884988 172.84982534841402,109.5168725279982 172.37294408434536,109.43700734686718 171.71664214663906,109.43700734686718 171.73080693665543,109.40628992933125 171.68831256660633,109.27113302714861 171.50889189296868,108.44175166776768 171.48056231293594,108.39260263216784 171.25392567258677,108.09156354256993 170.54568617147743,107.10242001411461 169.77134431691957,105.9473659848336 169.74773633354926,105.94122199604317 169.66274759342195,105.83677405015624 167.90631363069406,103.35452340109259 167.6843985870073,103.06573725244016 167.50025631670724,102.75851577971116 166.76368723556516,101.75081367720122 165.95157260762062,100.62019247925127 165.74382235397934,100.3006636164755 164.73812226238078,98.85046380511994 164.11014990476542,97.99629741309764 164.19513864489272,97.3326166453553 164.45954805862857,96.98848177412583 164.464269655291,96.96390060467456 164.5067640253692,96.90859292114692 164.66729831229895,96.69965213020987 164.8042246158293,96.55216389119232 164.94587251608027,95.34151181131892 164.90337814600207,93.92801626330402 164.8656053726154,93.66374880663352 164.87977016260265,93.59614523834534 166.14515807124553,93.45479197333407 167.29722765972838,93.4609377773013 167.39165959320962,93.44864616848645 167.48136993002845,93.295000756636 167.75994413380977,93.20281324138341 167.71744976373157,93.20281324138341 167.66551220032852,93.1352089357315 167.65134741028305,93.0 167.64662581362063,93.04916693576524 167.65134741028305,93.07989624157926 167.6796769903449,93.16593817899047 167.67023379699094,93.26427160723324 167.68912018366973,93.25197994121481 167.68912018366973,93.23968827162025 167.660790603637,93.17822987002364 167.75050094045582,93.282709099567 167.54275068678544,93.26427160723324 166.5842665619566,93.33802152824137 166.56538017527782,93.38718807078476 166.50872101515415,93.7252065021712 166.52288580519962,94.97892398314434 166.53232899855357,95.08339876114042 166.6220393353433,95.43369466150762 166.99976706926827,96.20187726079894 166.9619942958816,96.15271399264384 167.33972202980658,96.52758246797748 167.5144211067527,96.73037878188916 168.37375170140876,97.57842555219031 168.79869540207437,97.96557168169238 169.98381616725237,99.10855385160903 170.0310321340221,99.14542372959113 170.21045280763065,99.34206253579032 170.8573115519539,99.95655290921422 171.76385811337968,101.03188956850863 171.67886937325238,101.1056259372308 171.51833508632262,101.2776769640659 170.47014062467497,102.31611293657625 169.62497482003528,103.05959284487471 169.3747301963158,103.2439246836293 168.77036582204164,103.56957563453398 168.72787145196344,103.50813225089587 168.6759338885604,103.20091399314697 168.69009867857676,103.20705838017602 168.68537708191434,103.21934715156749 168.66176909851492,103.23778030195899 168.62871792181977,103.21934715156749 168.65232590519008,103.2869353303613 168.62399632512825,103.33609030161097 168.58622355174157,103.3852452157007 168.30292775129783,103.01043755211867 168.529564391647,103.42825571864887 168.5059564082767,103.42825571864887 168.49651321495185,103.49584356345076 168.529564391647,103.45897747969138" stroke="#ff2100" stroke-linecap="round" stroke-linejoin="round" stroke-width="0.5"><title>2024-04-06 34.9km</title><desc>11117345079</desc></polyline><polyline fill="none" points="56.25946133125399,206.74165637752594 56.29060226750153,206.78724656769555 56.6136894809315,206.95441008812486 56.62147471499338,207.0 55.86241439428704,206.81257442536298 55.64053522363247,206.4833108401108 55.57825335113739,206.4073264940671 55.480937925414764,206.21989773222595 55.42254866997246,206.1388471446371 55.28630707395496,205.9260884554751 54.994360796757974,205.53096172969163 54.873689668864245,205.38912027389233 54.815300413407385,205.28780459487461 54.44160917859699,204.7356289673553 53.935568964792765,204.03146570412355 53.75650858145673,203.7629680510654 53.68644147492887,203.64644955797849 53.61248175134824,203.5501948567835 53.534629410802154,203.43874171275456 53.343891176366014,203.18037168968294 53.22711266546685,203.0081239434112 53.122012005682336,202.87133836189605 53.028589196983376,202.78014767594505 52.907918069075095,202.587633221945 52.45637449368951,201.9442219347584 51.99315306718927,201.30586513775052 51.56107257693657,200.68269603168665 51.012213575828355,199.90751890646425 50.96160955441883,199.8416533884847 50.451676723590936,199.26912479500606 50.32711297865899,199.1829913606125 49.68483116882271,198.51418333025867 49.653690232589724,198.44324839219917 49.31113993402687,197.9466997818854 49.260535912661,197.84536246129937 49.1826835720567,197.7592255070449 49.12429431662895,197.66295454146166 48.964697018425795,197.44507716337466 48.63382457093394,196.96371533477577 47.99543537813588,196.46714563698333 47.43100590888935,196.05671023791 47.337583100190386,195.9756360069041 46.835435503395274,195.61079963253724 46.10751611892192,195.05340334937137 45.360133649315685,194.53146965330598 45.239462521407404,194.42505502740096 44.710066605432075,194.03486528448775 44.67503305216087,193.98419097125952 44.59718071158568,193.91831425383134 43.37100634735543,193.04163530745427 42.70147621832439,192.5551449857885 42.012483004145906,191.83553225991272 41.755570280205575,191.45038131278852 41.70885887584882,191.3439572737916 41.21060389610648,190.45200968759673 40.961476406257134,190.03136738849207 40.58389255440852,189.29649816975143 40.25691272394033,188.72379623491724 40.20630870255991,188.6122956479412 39.63409399925149,187.57836411149765 39.54067119056708,187.37562883813735 39.493959786210326,187.30973962019198 38.61422833758115,186.41262017175904 38.37288608177914,186.2605637374145 38.29892635822762,186.20480954511368 37.34523518606147,185.6117821574917 36.79248356790049,185.33300510955814 36.702953376210644,185.26711202667502 36.04899371530337,184.8514758608726 35.932215204433305,184.76530676658876 35.7726179062156,184.68420624777718 35.53127565041359,184.52707345506133 35.414497139528976,184.45104120402175 35.37946358625777,184.41049060225487 35.37946358625777,184.3648711188216 35.43006760763819,184.19253030868276 35.47288639497128,183.98977532233403 35.632483693174436,183.087501316204 35.725906501873396,182.50455904814953 35.73369173593528,182.33220903000984 36.025638013117714,181.298091004639 36.1813426942972,181.10038847304895 36.177450077273534,181.0547646524683 35.95557090660441,180.54275989918824 36.15409437508788,179.74178686503365 36.27865812001983,178.57578052192184 36.298121205181815,178.17020394370047 36.3175842903147,177.91164640874558 36.3175842903147,177.8609486276764 36.52389299287461,176.573200232644 36.69906075918698,175.61496283668384 36.71073861028708,175.41722802723598 36.7730204827385,175.1738605658793 35.8971816511621,174.61613704902265 35.47288639497128,174.10403758639222 35.0680542239279,173.79981651636263 34.95127571304329,173.7339016007063 34.1922153923515,173.23700052673667 33.82630939158844,172.99361782057895 33.81073892346467,172.96826535746732 32.339329686408746,172.04035250054585 32.00456462189322,171.80710275481033 31.257182152257883,171.3203156412128 31.089799620007398,171.20368855085326 29.143491105365683,169.98161596928912 28.882685764401685,169.7737072337004 27.967920762544964,169.14997357397078 27.913424124140874,168.5870823815785 27.897853656002553,167.98361234115873 27.897853656002553,167.52719947741207 27.905638890064438,166.46221284682906 27.901746273055323,166.37092676175962 27.964028145506745,165.52905491051206 27.964028145506745,165.41240840876708 27.991276464716066,164.93060349714506 28.396108635759447,164.3930027728129 28.40389386980678,164.31185477210602 28.37664555061201,164.26620893851577 27.03758529253537,163.63223283576008 26.28631020587636,163.1504032712146 25.714095502597047,162.79536669042136 25.30537071453,162.52147885246086 23.791142690126435,161.49184417199285 23.40188098719227,161.20272944692624 23.37852528502117,161.17736839150894 23.44469977451081,160.83245620215166 23.763894370917114,159.82813358597923 23.771679604979,159.72668524467008 23.806713158250204,159.4477007805326 23.802820541211986,158.77305637414975 23.82617624339764,158.11868952442092 23.806713158250204,157.48967412670027 23.806713158250204,155.9424507538497 23.818391009350307,155.1865690634877 23.81060577525932,154.68432986300468 23.806713158250204,153.05073401876143 24.59691441518953,153.00507340519835 25.53114250220824,153.00507340519835 25.72188073664438,153.0 25.737451204753597,153.01014680966546 26.227920950463158,153.72548943019137 26.34859207837144,153.72041613007605 26.375840397551656,153.74070932608083 26.379733014604426,153.76607580444397 26.37194778052799,154.36471932269706 26.37194778052799,154.8872556657043 26.364162546466105,154.97349877332454 26.648323589601205,155.16627671113747 27.014229590364266,155.17134980032642 27.029800058488036,155.1814959765179 27.049263143606368,155.16120362120637 27.041477909559035,155.14091125405685" stroke="#4dd2ff" stroke-linecap="round" stroke-linejoin="round" stroke-width="0.5"><title>2024-04-05 16.7km</title><desc>11109163802</desc></polyline><polyline fill="none" points="186.6472868217097,180.41841416675015 186.68604651160422,180.44867793629965 186.72093023255002,180.46885376800492 186.7713178294507,180.48398563408045 186.8759689922299,180.49911749355306 186.9263565891306,180.51424934644092 186.95736434108403,180.53946908659054 187.0,180.61512819704512 186.6046511627792,180.98333351327528 185.6201550387632,179.55588563980928 185.54263565890142,179.45500371001253 185.1782945736486,178.9657221900161 184.3023255813896,179.19775346159804 184.04651162790833,179.3591656050594 183.87596899224445,179.48526831975323 183.81782945735904,179.50040061471736 183.75968992247363,179.49031241880584 183.72868217053474,179.47013601817525 183.68992248059658,179.42473907388558 183.51162790697708,179.16748860112784 183.2286821705493,178.8295291993236 183.20542635658057,178.76899880966084 183.18604651161877,178.70846831441668 183.1744186046417,178.6832472435599 183.02325581395417,178.57731854583108 182.89922480619862,178.39572574025442 182.83333333332848,178.36041591770845 182.81007751937432,178.3150175216324 182.7906976744125,178.24944195578064 182.77519379842852,178.2343091152943 182.75968992248818,178.2343091152943 182.74031007751182,178.23935339618765 181.46511627906875,179.3238567628323 180.7325581395271,179.818177284782 180.43798449612223,179.98967459615233 180.29844961238268,180.08551095983785 180.0038759689778,180.25700695010164 179.79457364340487,180.38815037080713 179.51162790697708,180.55460092187786 179.38759689920698,180.61512819704512 179.24806201549654,180.69583106640857 179.18604651161877,180.7260945940252 179.11240310077847,180.74627026444796 178.9806201550382,180.85219234171745 178.66666666665697,181.06907939600205 178.42248062015278,181.23048283577737 178.263565891466,181.31118427417096 177.98062015502364,181.50789324408106 177.7519379844889,181.6087692064175 177.7519379844889,181.58859403739189 177.09689922479447,182.06775113291587 175.75581395348127,182.93021723461425 175.4961240309931,183.1016991683682 175.10852713177155,183.32865924849102 175.06201550384867,183.3387463287254 175.03875968990906,183.3639640164547 173.77906976743543,184.16083351173074 171.1821705426264,185.76460399518692 171.16279069765005,185.76964718171075 170.7868217054056,186.10753901019416 169.28682170542015,187.04050683089372 167.95348837209167,187.88772074944063 167.17441860462714,188.32644840256035 165.99999999998545,189.12824668391113 165.88372093021462,189.18875901021966 164.71705426355766,189.92498386531588 164.5348837209167,190.03087793687155 164.41860465116042,190.11155891744056 164.1744186046417,190.2174524198963 163.98837209300837,190.35864325409784 163.87209302323754,190.4040259002977 162.75581395349582,191.22090338767157 162.65116279070207,191.30158160283827 162.58139534882503,191.33687826300957 162.5503875969007,191.36713251461333 162.0155038759549,192.59240754983693 161.99224806201528,192.58232315813075 161.92248062015278,192.526858951318 161.5155038759549,192.27979004466397 161.39922480619862,192.19407184990632 160.35658914728265,191.50831867345187 159.06201550386322,190.87801888173635 158.9689922480611,190.81750949972775 158.2829457364278,190.55025846780336 158.17054263564933,190.52504600010434 158.07751937983267,190.49479101469115 156.5852713178174,189.98045222878864 156.22480620152783,189.86951541323288 154.7713178294507,189.28456997780086 154.64728682169516,189.21397244836407 153.9302325581375,188.92653816780512 153.9069767441688,188.93662362145915 153.84496124030557,188.91645271123343 153.8062015503674,188.9315808950014 153.78682170542015,188.94670907215914 153.77906976744998,188.9668799647916 153.763565891466,189.0425207077751 153.2829457364278,190.5099185106992 152.88759689920698,191.82094312492336 152.83720930232084,191.91674682882513 151.66666666665697,192.01759254733042 151.51937984494725,191.99238114515538 150.56976744184794,191.92178912169402 148.59689922480902,191.82094312492336 147.8798449612368,191.77052001669654 146.46511627906875,191.42259857404497 146.37209302323754,191.3923443707863 146.31395348835213,191.36713251461333 145.81782945735904,190.43932347298323 145.84883720929793,190.03592050365114 144.88759689922153,189.87455800345924 144.01550387596944,189.86951541323288 143.2131782945653,189.88968576969637 141.95348837207712,189.90481352935967 140.6472868217097,189.90481352935967 140.63565891471808,189.8947283569796 140.6046511627792,189.91489869881116 140.5581395348854,189.92498386531588 139.01162790696253,189.8947283569796 138.91085271319025,189.87960059293255 138.84883720929793,189.85943023059735 137.4069767441688,189.14841747106766 137.32945736435067,189.0929477781974 137.27906976743543,189.0425207077751 136.19767441859585,187.499416936771 135.29844961239723,186.77826976076176 135.17829457363405,186.7278393278575 133.74806201549654,186.46055681024882 133.0,185.60826484927384 133.0348837209167,185.43175206403248 133.22093023255002,184.79629860480418 133.59302325581666,183.59596588397835 133.63565891471808,183.44466049410403 133.93798449612223,182.42585369529115 134.29457364340487,181.28092125676267 134.9302325581375,180.32762269975865 135.10852713177155,180.34779860184062 136.67054263564933,180.3831064022561 138.36434108526737,180.19647905032252 138.4689922480611,180.17125906090223 139.8720930232521,180.09055497165537 140.02713178293197,180.1258630337943 141.16666666665697,180.90767520555528 142.89534883720626,182.380460617238 142.94186046510004,182.38550429550742 142.96511627906875,182.4056790012619 143.00387596899236,182.44602837759885 143.24418604650418,182.65281819499796 143.56201550386322,182.9604788138895 144.75581395348127,183.94900922864326 145.3798449612368,184.8215152335797 145.38372093024373,184.86186180152436 145.37209302323754,184.97281462153478 145.3914728682139,184.98794452405855 146.12403100775555,184.61978169040958 146.8410852713132,184.19109401807873 147.7325581395271,183.58587887850445 148.93798449612223,182.83943233844911 148.98837209300837,182.81421426959423 149.02713178294653,182.78395256277508 149.08914728680975,182.75873445360776 149.53100775192434,182.45107204633678 150.0930232558021,182.08792602337053 150.2015503875882,182.0324450463704 150.98837209302292,181.5684188566629 152.0,180.92280688030587 152.05038759688614,180.882455732979 152.5232558139396,180.6050403251902 153.7286821705202,179.813133233376 154.72480620154238,179.21288588193784 154.7674418604438,179.19775346159804 155.56589147285558,178.66811459225573 155.6434108527028,178.63280504688373 156.844961240291,177.89129629412128 156.95348837209167,177.81563124473905 157.00387596899236,177.7601434370008 157.34883720929793,177.52810255235454 159.59302325581666,176.14086924328512 159.62015503874863,176.1206908950153 159.68992248062568,176.1055571261095 159.70542635656602,176.0702449729797 159.748062015482,176.01475437406407 159.844961240291,175.93908523249047 159.96124031006184,175.8835944238017 160.263565891466,175.7019875202932 161.4496124030993,174.950326616221 162.5503875969007,174.28945693257992 162.60077519378683,174.2440532097571 162.639534883725,174.22891862226606 163.09689922477992,173.88082128794485 164.51550387596944,172.99795006752538 164.63178294571117,172.94245455459895 165.82170542633685,172.22604996325026 166.13565891473263,171.9990172522048 166.9689922480611,171.46926848162911 167.1472868217097,171.36836303670498 168.24806201549654,170.8184232030435 169.45348837207712,170.22811111106785 170.9806201550382,169.49146825740536 172.07751937983267,168.63371371498943 173.16279069765005,167.5741052887861 174.09689922480902,167.40759245016307 174.2868217054056,167.56401362435645 176.59302325581666,169.24928088849992 176.9069767441688,169.5015593610733 177.0736434108403,169.61256130776383 178.08139534882503,170.37947414357768 178.15116279070207,170.41983750738655 178.48449612400145,170.67715284752194 178.66666666665697,170.79824175891554 179.02713178293197,171.10600750628146 179.05813953487086,171.12618877137356 179.89922480621317,172.27145632716565 179.98449612403056,172.39758480399905 181.0387596898945,172.57416390118306 181.18604651161877,172.54893837089548 182.32558139534376,172.59938941313158 183.45348837209167,172.54893837089548 184.2286821705202,172.55902858521222 185.3023255813896,172.54893837089548 185.79069767439796,172.39758480399905 186.18992248061113,172.37235914532357" stroke="#ff5700" stroke-linecap="round" stroke-linejoin="round" stroke-width="0.5"><title>2024-03-24 28.9km</title><desc>11025858700</desc></polyline><polyline fill="none" points="63.26824807192315,263.69391408858064 63.26824807192315,263.6796424903114 63.52414396588574,263.7605147981667 63.56070052215364,263.7938151021517 63.56801183342759,263.831872550938 63.52779962151544,263.88420147076977 63.4619978202245,263.93177314347486 63.35963946260745,263.9936162146114 63.249969793789205,264.0507020227269 63.19147930375766,264.064973459208 63.16954536996491,264.060216314414 63.14761143621581,264.04594487585564 63.11471053554851,264.01264482838087 63.01235217797512,263.8556584339567 62.92096078726172,263.69391408858064 62.818602429673774,263.53216894390425 62.69796579396643,263.3751802450206 62.57001784698514,263.1753753574085 62.52614997944329,263.09450160376946 62.445725555633544,262.98984115535495 62.387235065602,262.8899376878653 62.2994993305183,262.77100459087524 62.237353184842505,262.709159209644 62.17155138353701,262.60925488541034 61.92662245646352,262.2857530763795 61.78770754260768,262.0764266725346 61.73652836380643,262.014579978837 61.68534918501973,261.9289459023057 61.48063246985839,261.64349736231816 61.40751935730805,261.55786231485763 61.30881665533525,261.4056216772042 61.18818001962791,261.23435011338734 61.11506690706301,261.11065342652364 60.96152937070292,260.9251075196298 60.85185970184102,260.7633486912382 60.74950134426763,260.59207376620543 60.636176019805134,260.4350709641658 60.53747331783234,260.32088663503964 60.420492337754695,260.1448516804412 60.33275660268555,260.02115087561106 60.2962000464031,259.9593002978472 60.193841688815155,259.8308410320715 60.043959808084765,259.61198334384244 59.96719103989017,259.52634298045086 59.89773358296952,259.3978820151751 59.824620470404625,259.28369406712227 59.762474324714276,259.2075685470918 59.744196046565776,259.1647478642335 59.72226211283123,259.13144284996815 59.70763949029788,259.1266849880085 59.70032817905303,259.1362007112184 59.67839424527483,259.098137801775 59.587002854575985,258.96967515557117 59.44808794072014,258.7412958727291 59.3530408943916,258.60807388835747 59.195847702387255,258.4225137920221 59.13370155671146,258.3321123382666 58.932640497165266,258.0656644954943 58.09183970274171,256.86186416270357 58.02603790143621,256.7857330084553 57.196204073901754,256.0910280432836 57.152336206359905,256.0339283490903 57.07191178255016,255.88642034453733 56.56011999462498,255.09176900835155 56.17993180932535,254.54454279509446 56.17262049806595,254.55881837779816 55.27698486921145,253.8117211831668 54.35575965097814,253.13122927440781 53.302930830119294,252.3317521661993 52.75092683029652,251.87489933243705 52.72168158527347,251.8701404151725 51.77121112201712,251.1562949861036 51.50434826116543,250.96593357423626 51.38371162545809,250.86123432554086 51.2594193341065,250.78033013112872 50.40034026151989,250.15212604816043 50.33088280459924,250.0950159878521 49.68383175844792,249.39065037922774 49.270742672495544,248.60060063635683 48.98560153350991,248.1389362305199 48.89421014281106,248.1151389196093 47.77557952066127,248.54348786716218 47.73536730874912,248.46733735312955 47.23819814334274,247.67726530856817 47.227231176468194,247.60111277784017 46.84704299115401,246.98236689292025 46.22192587876634,246.03042728995933 45.359191150579136,245.8590752189375 45.30435631614819,245.8590752189375 44.60978174683987,245.9114328914584 44.536668634289526,245.9304720243017 43.47287284655613,246.34457042190115 43.37051448896818,246.35884958348834 43.319335310181486,246.35884958348834 43.304712687662686,246.37788845588148 43.23159957511234,246.41120645593037 41.82782781397691,246.3969273172006 41.710846833884716,246.3874078879344 41.59386585377797,246.39216760292402 41.42936135052878,246.3731287388291 41.19539939034439,246.36360930262526 39.9926886887406,246.67774923441175 39.879363364278106,246.68250890713898 39.11898699366429,246.65871053655064 38.15389390788914,246.72534593056844 38.069813828435144,246.7539039150106 37.74811613316706,246.8348180688663 36.74281083549431,247.06328048157957 36.647763789165765,247.0918381709671 35.91297700793075,246.60159437649418 35.847175206654356,246.55399750024662 35.825241272876156,246.54447811669888 35.839863895380404,246.54923780881654 35.847175206654356,246.5254393412506 35.832552584121004,246.53495873036445 35.814274305987055,246.52067964566595 35.200124160488485,245.85431542637525 34.611563604397816,245.12605900284325 33.92064469070465,244.29306608705156 33.767107154330006,244.1217049131119 32.571707763985614,242.69842046238773 32.348712770675775,242.42708495824627 31.814987049016054,241.79872040983537 31.774774837103905,241.7368353693455 31.105789857188938,240.91803765379882 30.597653724893462,240.30392591166674 30.49895102294977,240.19443190887978 30.381970042843022,240.04685245544533 30.312512585922377,239.97544280336297 30.283267340884777,239.9040329953059 30.27961168526963,239.78025562526454 30.26133340713568,239.73264881969953 29.65815022851166,239.16612251318656 29.24871679818898,238.67099904737188 29.124424506837386,238.52817357732056 29.022066149263992,238.39010836318266 28.883151235393598,238.2282380593315 28.82831640096265,238.15206352138557 28.477373460686067,237.73310039025455 28.283623712413828,237.4760067198804 27.84128938142385,236.93324677645796 27.340464560387773,236.17146323627458 26.338814918330172,234.90019742522418 25.77218829600315,234.1716969818881 25.75756567348435,234.2002659325808 25.76122132911405,234.2002659325808 25.147071183630032,233.48127308068797 24.649902018209104,232.8432131994632 24.606034150681808,232.76226441378458 24.291647766687674,232.32894691709953 24.258746866034926,232.26704394865374 23.644596720536356,231.5146754221314 23.13280493262573,230.85276727179007 23.12549362135178,230.86705320074543 23.12914927698148,230.85276727179007 22.89153166116739,230.56704738151166 22.229857992511825,229.7289212937576 21.91547160851769,229.3669965658919 21.74000013836485,229.2622281334916 20.7017939400248,228.9812565884531 19.641653807921102,228.56693820803775 19.524672827814356,228.50979043299958 18.983635794880684,228.35263353640403 18.204981146132923,227.49063832947286 18.135523689197726,227.40491380622188 17.367836007324513,226.71910952460894 16.538002179790055,226.0523415631833 16.45392210035061,225.96661326679168 17.111940113376477,224.87117634818787 17.141185358399525,224.7330534339344 17.206987159705022,223.72807258239845 17.21064281532017,223.64710121561438 17.196020192830474,223.28510912219645 17.185053225941374,223.20413665767046 17.23257674909837,222.01334194553783 17.225265437853523,221.90378665188473 17.23257674909837,221.85615380092713 17.24719937161717,220.3747374703271 17.25816633849172,220.34615643047073 17.26182199412142,220.31757536559599 17.26182199412142,218.92659998774252 17.294722894774168,217.51174577781785 17.305689861648716,217.39741144833897 17.177741914667422,217.28784067373635 17.22160978220927,217.2544929737196 17.316656828537816,217.26402089148178 17.291067239144468,217.00200214035794 17.323968139782664,215.91579290082154 17.320312484182068,215.80145298484786 17.356869040449965,214.96294803722049 17.364180351694813,214.92483366447777 17.364180351694813,214.77237572877493 17.349557729190565,214.60562404672964 17.334935106671765,214.50557262885923 17.334935106671765,214.2816469163372 17.349557729190565,214.11012831096014 17.371491662968765,213.0 17.097317490857677,213.25728631546735 17.09000617961283,213.31446077697547 17.04979396770068,214.77714005003145 17.05710527896008,214.83431185098743 17.05344962333038,214.9153050643581 17.03882700082613,215.02011951290842 17.04979396770068,215.30121114622307 17.02054872266308,216.1301791644437 17.03517134518188,216.13494328764864 16.85969987504359,216.0730096317202 16.87066684193269,216.0587172329142 16.89260077571089,216.07777376328158 16.88163380882179,216.09206615374933 16.925501676349086,216.09683028250947 16.973025199506083,216.1158867906488 17.02054872266308,216.11112266464988 17.02786003392248,216.12065091593468 17.00227044452913,216.8162057523259 17.02054872266308,218.04530069073007 16.99130347764003,218.9837645264197 17.01689306704793,219.58874976277002 17.00958175578853,219.63162230716262 16.980336510765483,220.24612259401692 16.987647822024883,220.32233887815164 16.998614788928535,221.3417145854619 17.005926100173383,221.48937852247764 16.943779954497586,222.53729696579103 16.951091265742434,222.78974502148776 16.947435610098182,222.91834988480696 16.954746921372134,223.1184008882883 16.940124298853334,223.2422413718523 16.940124298853334,223.36131831725652 16.85604421941389,224.75686777113515 16.83045463002054,224.85212494643565 16.779275451233843,224.94738184404196 16.23458276267047,225.65227425580088 16.17609227260982,225.7999187133064 16.21630448452197,225.84278310827722 16.932812987608486,226.5238431732032 17.04613831207098,226.600044815008 18.091655821655877,227.4430136220908 18.175735901109874,227.52873804539922 18.7277399009472,228.2240500588705 20.208280430248124,228.92410953791114 21.10391605908808,229.20984379133006 21.326911052397918,229.2527037138898 21.345189330546418,229.2717525503067 21.370778919939767,229.2717525503067 22.405329462650116,230.13370078097796 22.51499913148291,230.24799055215408 23.450846972235013,231.41467576979267 23.54223836294841,231.54324669518974 24.456152269936865,232.7051239737957 25.13975987235608,233.60031272472406 25.18728339552763,233.6764978694082 25.59671682586486,234.21455039856664 25.735631739720702,234.42881663923254 26.7994275274541,235.77151977167523 26.876196295648697,235.881028587708 27.859567659557797,237.11892882375105 27.925369460863294,237.1284509515899 27.950959050256643,237.14749519894758 28.916052136046346,238.38534748333768 29.99447054626944,239.71360607806855 30.023715791321592,239.79929832807102 30.05296103634464,239.85642636997727 31.336096161743626,241.3179181693704 32.71062267787056,242.9459526427454 32.83857062482275,243.08875881757194 33.8584985450434,244.33590624025237 33.9645125582465,244.4406263784549 34.8930490877392,245.5496872613221 34.9442282665259,245.63060439441324 35.56568972329842,246.39216760292402 36.40649051772198,247.9533167462141 36.461325352138374,248.19604970607543 36.75377780238341,249.2907053816998 36.76474476925796,249.2954646742328 37.59092294116272,250.53761634734838 38.79363364276651,251.89869390834428 39.82452852986171,253.1121943322105 40.884668661950855,254.28282267507893 41.01992792019155,254.41606227051307 42.14586985360074,255.6627779079572 42.26650648932264,255.85311199341595 42.324996979368734,255.99586183092833 43.08171769435285,257.24251727700175 43.940796766924905,258.8650015154526 44.010254223874654,259.00298033449144 44.90954550834431,260.51595128957706 44.986314276524354,260.6253772940472 45.85636031597096,261.6244673711335 45.90388383914251,261.7101022443276 46.83607602426491,263.09925888891667 47.92546140142076,264.35515798460256 48.049753692757804,264.4693282402295 49.212252182434895,265.71090405792347 50.18465657946945,266.88108183560325 50.243147069515544,266.9476760608777 50.53194386413088,267.0 51.072980897064554,266.84778467215074 51.211895810920396,266.75740648636565 52.078286194751854,266.2484299386124 52.1221540622937,266.2056184662906 52.261068976149545,266.1057248131765 54.00481671068701,265.0259025338237 54.05599588947371,265.0021175011789 54.26071260466415,264.8784350527894 54.549509399264934,264.7214528106779 55.57674863071588,264.01740198009065 55.85823411405727,263.8556584339567 56.746558431652375,263.2705206940991 57.770142007488175,262.64731371154994 57.92733519949252,262.5569239272045 58.02603790143621,262.48556339481 58.25999986163515,263.5416833863055 58.2892451066582,263.60828440566183 58.30021207353275,263.6510992751173 59.005753609730164,263.48459669041404 59.08983368916961,263.43702436779495 59.795375225367025,263.41799541938235 59.84289874853857,263.48459669041404 59.89773358296952,263.5369261654596 59.809997847885825,263.58925555681344 59.81730915913067,263.60828440566183 59.83193178164947,263.6225560350322 59.88676661608042,263.6368276581925 60.2779217682546,263.94128746970455 60.2962000464031,263.9460446317971 60.833581423707074,263.7652719865182 60.866482324374374,263.74148603783397 60.91400584751682,263.75100041939004 61.76211795321433,263.28954972824795 61.86082065515802,263.2229480603273 62.833225052207126,262.4998355137286 62.93923906541022,262.42847485687525 63.812940760486526,263.52741172167225 63.82390772737563,263.5654694802033 63.81659641611623,263.58449834287603 63.787351171078626,263.60828440566183 63.22072454876616,263.6225560350322 63.231691515640705,263.6177988259369" stroke="#ff0000" stroke-linecap="round" stroke-linejoin="round" stroke-width="0.5"><title>2024-03-16 38.6km</title><desc>10969293139</desc></polyline><polyline fill="none" points="154.53525549528422,256.1005221353553 154.5969169283053,256.16070327241323 155.87639166420558,255.4786488491518 156.01512988860486,255.2579834611679 155.99971453030594,255.1978019305243 155.90722238080343,255.03731772046012 154.82814730226528,253.87380161673354 154.79731658578385,253.8938623223221 154.64316300308565,253.83368019686895 154.65857836138457,253.7734980451205 154.6894090779242,253.79355876526097 154.81273194402456,253.8938623223221 155.0131316014449,253.65313366295595 154.95147016836563,253.47258689290902 154.95147016836563,253.27197909366805 154.9206394518842,253.43246535643993 154.81273194402456,253.51270841778023 154.64316300308565,253.45252612612967 154.53525549528422,253.37228302974836 154.58150157006457,253.17167508471175 154.56608621176565,253.0111885187216 155.35226948326454,253.23185749881668 155.9534684555838,253.11149264429696 155.9688838138245,253.1516142741457 155.86097630596487,253.23185749881668 155.7222380815656,253.19173589230923 154.8435626605642,253.251918297683 154.56608621176565,253.4124045837525 154.58150157006457,253.45252612612967 154.55067085352493,253.47258689290902 154.4427633456653,253.5528299309808 154.2731944047846,253.43246535643993 154.38110191258602,253.05131017770327 154.5198401369853,253.21179669701087 156.50842135312269,254.9971966387384 156.49300599482376,255.03731772046012 158.3736797030433,253.9139230249566 158.78989437624114,253.61301217890286 159.2523551241611,253.4926476568362 159.36026263202075,253.5528299309808 159.49900085642003,253.71331586719316 159.83813873818144,254.23489387102018 162.30459606047953,256.5217895437672 164.98686839849688,255.98015978255717 167.3145874963957,253.43246535643993 168.02369397657458,252.7303365792468 168.74821581499418,251.90783832594752 168.90236939763417,251.84765533452446 169.2260919212713,251.86771633461467 169.3339994290145,251.82759433155297 172.01627176703187,248.67798069612763 172.40165572363185,248.27675086779345 173.98943762487033,246.37089325369743 174.86811304592993,245.46810940821888 176.5329717384884,244.26438842773496 176.87210962036625,244.0637672435405 181.35797887516674,243.5220885895542 181.89751641446492,243.56221300720063 186.55295461026253,243.14090604006196 187.0,243.18103056855034 185.68969454750186,243.1007814998593 185.44304881530115,243.12084377140854 184.78018840990262,243.32146632632066 184.64145018550334,243.26127959047153 184.62603482726263,243.08071922544332 183.43905224092305,241.57604032978998 178.62946046242723,238.5265074497147 174.8372823293903,236.17912374003208 171.73879531823331,234.21290836375556 171.7233799599926,230.98263656646304 172.2012560662115,223.23770176942344 172.23208678275114,222.61568037477264 172.21667142445222,222.59561512181244 172.24750214105006,222.5554846071609 169.21067656291416,222.39496243168833 165.8809591777972,222.39496243168833 162.62831858400023,222.49528881326842 158.9286326006404,222.3748971466557 153.74907222384354,222.39496243168833 153.086211818445,222.3748971466557 151.3288609763258,222.47522354277316 149.84898658283055,222.43509299310972 148.2149586068699,222.45515826941119 146.98172994574998,222.41502771391242 146.81216100486927,222.49528881326842 141.6326006280142,222.53541934548412 141.61718526977347,222.65581087199098 141.69426206103526,223.3179623902979 141.67884670273634,223.4182881006709 141.67884670273634,223.5386788568867 141.75592349417275,224.12056603102246 141.8021695688949,224.18076111585833 141.60176991147455,224.14063106222602 141.6480159862549,224.28108619897102 141.7250927776331,225.0034246435389 141.75592349417275,225.0435544463253 141.78675421065418,225.74582410450967 141.8792463602731,226.38789609269588 141.94090779329417,226.2875725414924 141.35512417927384,226.2875725414924 141.49386240367312,226.3076372575306 141.66343134455383,226.40796079421125 141.91007707675453,226.40796079421125 141.98715386801632,226.5082842578704 141.8792463602731,226.42802549275802 141.58635455323383,227.7522891474946 141.50927776185563,231.96577077067923 141.01598629745422,232.90877046671812 140.33771053381497,233.65112739612232 140.0448187268339,234.15271765521902 138.39537539245794,236.3195666235115 137.7941764201969,235.8380475709564 137.57836140453583,235.51703393578646 136.42220953461947,233.99220897069608 135.42021124751773,232.48743097342958 134.40279760200065,231.10302072293416 133.43163003138034,231.223404774355 133.0,231.18327676887566 133.0154153581825,231.44410859585332 133.43163003138034,234.01227256646962 133.35455324006034,234.29316260099586 133.78618327144068,236.74089441625983 133.8940907793003,237.04184205198544 134.17156722804066,239.6299646274856 134.46445903502172,239.60990184848197 135.54353411355987,239.36914827270084 135.66685697966022,239.3089598131337 135.79017984576058,239.32902263589494 135.83642592054093,239.44939951132983 136.09848701109877,240.95410159426683 136.11390236933948,240.89391382598842 135.86725663713878,239.32902263589494 136.25264059373876,238.66694794422074 136.5147016842384,238.5265074497147 135.74393377109664,239.24877132727124 135.74393377109664,239.3089598131337 136.32971738505876,241.89703987081884 137.13131601479836,244.82612619179417 137.22380816441728,245.08693223362206 139.78275763627607,243.36159080227662 140.029403368535,243.12084377140854 142.26463031681487,242.15785144815163 144.34570368251298,245.2474280143797 146.05680844991002,247.57459586148616 146.2109620324918,247.89558145042975 148.06080502422992,250.4835004890192 149.8027405081084,252.83064090894186 149.89523265772732,253.05131017770327 151.8067370824865,255.7996160564071 153.44076505844714,257.62510285335884 153.70282614894677,257.4646214655513 154.53525549528422,256.020280578392 154.45817870390601,255.87985774155823 154.3502711961046,255.87985774155823" stroke="#4dd2ff" stroke-linecap="round" stroke-linejoin="round" stroke-width="0.5"><title>2024-03-09 10.2km</title><desc>10921031918</desc></polyline></svg>