<?xml version="1.0" encoding="utf-8" ?>
<svg baseProfile="full" height="300mm" version="1.1" viewBox="0,0,200,300" width="200mm" xmlns="http://www.w3.org/2000/svg" xmlns:ev="http://www.w3.org/2001/xml-events" xmlns:xlink="http://www.w3.org/1999/xlink"><defs /><rect fill="#222222" height="300" width="200" x="0" y="0" /><text fill="#FFFFFF" style="font-size:12px; font-family:Arial; font-weight:bold;" x="10" y="20">Over 10km Runs</text><text fill="#FFFFFF" style="font-size:4px; font-family:Arial" x="10" y="280">ATHLETE</text><text fill="#FFFFFF" style="font-size:9px; font-family:Arial" x="10" y="290">OrdinarySk</text><text fill="#FFFFFF" style="font-size:4px; font-family:Arial" x="120" y="280">STATISTICS</text><text fill="#FFFFFF" style="font-size:3px; font-family:Arial" x="120" y="285">Number: 5</text><text fill="#FFFFFF" style="font-size:3px; font-family:Arial" x="120" y="290">Weekly: 1.2</text><text fill="#FFFFFF" style="font-size:3px; font-family:Arial" x="141" y="285">Total: 129.3 km</text><text fill="#FFFFFF" style="font-size:3px; font-family:Arial" x="141" y="290">Avg: 25.9 km</text><text fill="#FFFFFF" style="font-size:3px; font-family:Arial" x="167" y="285">Min: 10.2 km</text><text fill="#FFFFFF" style="font-size:3px; font-family:Arial" x="167" y="290">Max: 38.6 km</text><polyline fill="none" points="61.297206975432346,47.96168823712287 61.70641202054685,48.01903545771347 61.44829806900816,48.69081283969717 61.37904798446107,48.7973133967389 61.36645706000854,48.83827509585535 61.492366304650204,49.19054447962844 62.77664059997187,50.968242434919375 62.95291354248184,51.197618732767296 63.09141371160513,51.36145837410368 63.10400463605765,51.41061017365428 63.09141371160513,51.426994097309944 63.08511824934976,51.426994097309944 63.04105001373682,51.402418210043834 63.022163627058035,51.402418210043834 62.88366345790564,51.508913644189306 62.85218614677433,51.5498733729728 62.839595222321805,51.60721694327731 62.87736799567938,51.70552007096558 62.98439085364225,51.86935823613385 62.99698177809478,51.852974441040715 62.99698177809478,51.82839873948251 62.98439085364225,51.82839873948251 62.990686315868516,51.852974441040715 63.34952766311471,52.31991073520476 64.3064379223797,53.720696412816324 64.50159725156846,53.98282787818607 65.03041607906925,54.908469864200015 64.80377943869098,55.33442390224809 64.68416565630469,55.37538085169217 62.98439085364225,55.79314003647596 62.46816295062308,55.98154022464223 62.25411723469733,56.022496703997604 61.781957567320205,56.16174851118194 61.56791185145266,56.169939783241716 61.14611588185653,56.28461746721223 61.0831612595357,56.28461746721223 60.371774027327774,56.464824784990924 59.440045616967836,56.76789942961477 58.38870342425071,57.193839419589494 56.084564247285016,58.20133851148057 55.96495046489872,58.25048434814016 54.8254718008684,58.50440382168745 54.18963011546293,58.54535846841463 53.91262977721635,58.57812216435195 52.14360489003593,58.651840410602745 51.72810438272427,59.0695753188993 51.67774068485596,59.08595701694139 51.69662707153475,60.62581538240556 51.78476354281884,62.20658368391378 51.81624085395015,62.354010592694976 51.25594471528893,62.80447931465824 50.41235277621308,62.960094945930905 49.19732856543851,63.20580296306434 48.246713768399786,63.35322725945662 45.262664670386584,63.86920926156017 44.261686175479554,63.93473044781422 44.14836785531952,63.92654030370977 42.73188885307172,64.2131946400441 42.014206158637535,64.29509561134182 40.975454890343826,64.46708726392535 38.80352042027516,64.8356390387562 38.09213318806724,65.0240090157422 37.393336880311836,65.47445640927617 37.32408679576474,65.58911517134038 36.392358385404805,66.89948446697963 35.85724409567774,67.3417272322331 35.756516699970234,67.44000293134013 35.02624308105442,68.03784307781825 34.81219736515777,68.3080975023986 34.57296980035608,68.4882663992903 33.97490088827908,69.37272354508241 34.45965148016694,69.80675762645842 34.45965148016694,70.71576157745949 34.85626560077071,71.26443254766127 35.02624308105442,71.2808107035562 35.29694795704563,72.32081386204663 35.27806157033774,73.07418999954461 35.27176610811148,73.76204638040144 35.183629636856494,74.53996908416593 35.16474325017771,75.30150407562905 35.120675014535664,76.12034743413096 35.126970476761926,77.10294377419996 35.082902241148986,77.78256289613273 34.975879383215215,80.61558572933791 35.001061232120264,80.94309364554647 34.994765769894,80.96765666260762 35.02624308105442,81.77004267275333 34.98847030766774,82.98178766975616 34.975879383215215,83.17009705570672 34.89403837418649,85.17596237917314 34.900333836412756,85.35607740875275 34.88774291193113,85.87185817628051 34.80590190293151,87.4437323875718 34.780720053997356,87.59109334983441 34.736651818384416,89.66229282280983 34.64221988490317,90.72651594881245 34.61703803593991,90.8411233960469 34.64221988490317,91.44690175035794 34.510015178035246,93.8863217351427 34.44076509348815,95.8426931112881 34.340037697780645,97.68440335428386 34.31485584881739,98.49473682231837 34.25819668875192,99.52605350104204 34.23931030201493,100.31999080504102 34.21412845313898,100.45094846265056 34.188946604175726,101.2939811096403 34.113401057431474,102.7999498416284 34.081923746241955,103.67568492209466 34.08821920846822,103.81481915142285 33.98119635053445,105.56624423836183 33.15019533588202,105.68900564112846 32.47028541483451,105.41893020263888 32.363262556900736,105.41074607827613 32.363262556900736,105.41893020263888 32.31919432125869,105.3861936980611 31.702239022532012,105.10793264254971 31.702239022532012,105.08338013063258 31.481897844409104,104.91969644487108 31.324511288607027,104.96061741080484 31.39376137315412,104.96880160044384 31.582625240145717,104.95243321999442 31.65187532469281,104.96880160044384 31.721125409239903,105.13248514381121 31.746307258144952,105.16522179551612 33.219445420458214,105.77084642800037 33.811218870279845,106.0 34.15117383078905,104.73145961951013 34.20783299088362,103.11914457533567 34.27078761323355,102.03878588479711 34.3652195467148,99.72249263660706 34.447060555714415,98.52747732394346 34.465946942422306,98.41288548507873 34.472242404619465,97.39791904148296 34.49742425355362,96.28470905074573 34.42187870678026,95.22059073898708 33.57199130547815,95.21240513575685 32.80394491314655,95.23696194192598 32.810240375372814,95.25333314007003 32.2499442367116,95.19603392571662 31.563738853408722,95.22059073898708 30.997147252521245,95.19603392571662 30.417964727181243,95.19603392571662 30.336123718181625,95.204219531337 29.725463881652104,95.35974581241317 29.706577494973317,95.71991029148921 29.73175934390747,95.94091917477999 29.725463881652104,95.92454817606631 29.73175934390747,95.92454817606631 29.668804721557535,96.19466904755245 29.687691108265426,96.7185361435877 29.71287295719958,96.35019259919136 29.693986570520792,96.26015270046992 29.706577494973317,95.99003214240292 29.725463881652104,95.89999166910275 29.719168419396738,95.9163626749214 29.756941192841623,95.58075610613378 30.254282709152903,95.245147541591 30.739033301040763,95.26970433349925 31.274147590767825,95.245147541591 32.980217855627416,95.26970433349925 33.59087769212783,95.26151873738854 33.58458222990157,95.25333314007003 33.200559033750324,95.22877634104952 33.055763402429875,95.33518905968958 33.06205886465614,95.37611697496686 34.10710559517611,96.09644342567844 34.08821920846822,96.24378179435735 34.07562828401569,96.74309229437495 34.09451467069448,96.93954111626226 34.113401057431474,96.8904289748898 34.138582906336524,96.76764843451383 34.06933282178943,95.38430255444473 33.92453719043988,95.38430255444473 33.60976407886483,95.27788992841306 34.45335601794068,95.26970433349925 34.61703803593991,95.23696194192598 35.108084090054035,95.245147541591 36.82674527942436,95.05687844861677 37.601087133953115,95.02413593357778 39.57156681257766,95.04869282164509 41.6616602736467,95.0159503018258 42.089751705439994,94.96683648651015 42.57450229729875,94.54936733042996 42.561911372846225,94.44295313006296 42.52413859945955,92.39648716511874 42.53043406168581,91.0212203428382 42.47377490159124,89.08924128750004 42.486365826043766,88.91732469206909 42.49266128829913,88.63079586903405 42.46118397713872,87.00983398605604 42.47377490159124,86.8788451336768 42.442297590430826,86.22389631027909 42.46118397713872,85.9127929558781 42.436002128204564,85.88823209169277 42.42341120369383,85.66718383281841 42.454888514912454,84.20169384327892 42.454888514912454,83.79233229607416 42.40452481704415,81.95835610330323 42.41082027927041,78.0282063473278 42.398229354817886,77.36496657420503 42.26602464794996,74.31068771814171 42.22195641230792,74.13872608197198 42.152706327760825,73.24615488119889 42.1401154032792,72.45183652185733 41.90718330067466,71.26443254766127 41.93866061186418,71.22348713717292 42.07716078098747,71.19073078736619 43.35513961405377,70.74851820311596 43.37402600076166,70.73213989265787 43.241821293893736,70.75670735656604 44.28686802444281,70.34724822797216 44.425368193537,70.34724822797216 44.57645928708371,70.38000506764365 44.645709371659905,70.4127618883067 44.99825525665074,70.48646466522041 46.11884753394406,70.62568075884701 46.125142996170325,70.64205910020246 45.51448315966991,70.51103223612154 45.4137557639624,70.5028430469938 44.614232060470385,70.19984221396226 43.85877659264952,70.26535604553646 43.21034398273332,70.49465385670555 42.316388345789164,70.89592278313648 42.1904791011475,70.93686843139949 41.548341953457566,70.46189708361999 41.35947808652418,70.08519282561247 40.93138665475999,69.15979994431473 40.47181791177718,68.36542403200292 40.10038564010756,67.68569142985143 39.2756800877105,66.73568997012626 39.06163437181385,66.55551547410505 39.004975211719284,66.48180755981957 38.89795235378551,66.40809954920041 38.75945218466222,66.20335456978864 37.966223943425575,65.22056832083399 38.11101957477513,65.13047872439711 39.357521096710116,64.87658908729281 41.605001113552134,64.50803758007532 42.70670700419578,64.39337661991885 43.67620818791329,64.07396271582184 44.14207239309326,64.06577259194091 44.053935921838274,63.910160011906555 43.915435752714984,63.72178631415227 43.909140290517826,63.67264524604616 43.92802667719661,63.6398845101794 43.915435752714984,63.6235041351174 43.934322139422875,63.6398845101794 43.9469130638754,63.47608054533339 43.997276761743706,63.467890334606636 44.03504953515949,63.40236860593359 44.10429961970658,63.3286565701419 44.19243609093246,63.12390040964965 44.34982264673454,63.2795151594255 44.27427709993208,63.54160218837205 44.15466331754578,63.590743370677956 44.04764045961201,63.60712375527146 43.74545827246038,63.54160218837205 43.92173121497035,63.574362981347804 43.90284482826246,63.63169432324139 43.9469130638754,63.70540596288993 44.809391389688244,63.500651170386845 44.97307340771658,63.058378281246405 44.979368869942846,62.99285607674756 45.382278452801984,62.75533744713175 45.39486937725451,62.714385858158494 45.50189223521738,62.640672923040256 45.62150601760368,62.66524391210987 45.61521055540652,62.6488632539149 45.49559677296202,62.59972125080094 44.78420954075409,61.960871312701784 44.56386836263118,62.034585136505484 45.262664670386584,61.2482993813137 45.43893761289655,61.22372777480632 47.346462669200264,61.084488468921336 48.20264553275774,60.97801112064917 50.24237529595848,60.84696180062747 50.92228521700599,60.806008825657045 52.28840052138548,60.82239001922062 52.40171884151641,60.789627627331356 52.71649195314967,60.7568652164191 54.6554943206429,60.54390908147252 55.039517516765045,60.51933716799249 57.06665635551326,60.003324511344545 57.249224760220386,59.929608032034594 57.93543014352326,59.6101688413728 60.03811452904483,58.684604044694424 61.9708214342827,58.086664726062736 62.147094376792666,58.06209174167816 62.39891286607599,57.99656373102334 64.62121103398385,57.398617115530215 65.82993978253216,57.111928132973844 66.56021340147709,57.21022166264811 68.19703358178958,57.53786552394013 68.55587492900668,57.57062980533374 70.26194519389537,57.57062980533374 70.29971796728205,57.45595473709909 70.33119527847157,56.42386862698913 70.25564973166911,56.309191226282564 68.99026182302623,56.29280872141317 68.41737475991249,56.276426211799844 67.13310046456172,56.022496703997604 66.49725877912715,55.91600979582654 65.62218952889089,55.91600979582654 65.64107591556967,55.87505323910955 65.58441675550421,55.694844036199356 65.3451891906443,54.58900222369266 65.30741641728673,54.52347017622378 65.0052342301351,54.122084723429 64.06091489532264,52.80322668548979 63.02845908925519,51.26315464644722 62.99698177809478,51.25496266139089 62.88366345790564,51.11569873354165 60.54175150761148,47.80603120145679 60.24586478268611,47.42098300325233 60.00034175562905,47.01135437294943 59.018249647459015,45.66775156960284 57.93543014352326,44.16025663900291 57.658429805305786,43.7342181553031 56.31749634988955,41.80061840682538 55.480199873039965,40.66172988413018 55.5935181932291,39.776822193809494 55.94606407819083,39.31797569883565 55.95235954041709,39.28520080623275 56.00901870051166,39.211457228197105 56.223064416408306,38.93286950694528 56.40563282111543,38.7362185215934 56.59449668810703,37.12201574842402 56.53783752801246,35.23735501774354 56.48747383017326,34.884998408844694 56.506360216852045,34.79486031779743 58.19354409503285,34.60638929777997 59.72963687966694,34.61458370307082 59.8555461243086,34.59819489131769 59.975159906724,34.39333434218133 60.346592178422725,34.27041765517788 60.289933018328156,34.27041765517788 60.22068293378106,34.180278580977756 60.20179654707317,34.0 60.195501084817806,34.06555591435608 60.20179654707317,34.1065283221069 60.239569320488954,34.22125090532063 60.226978396007326,34.352362142977654 60.25216024494148,34.3359732549543 60.25216024494148,34.31958436216155 60.2143874715257,34.23763982669698 60.334001253941096,34.37694546609055 60.057000915752724,34.352362142977654 58.77902208262822,34.450695370989706 58.75384023372317,34.51625076104756 58.678294686891604,34.96694200289858 58.6971810736286,36.63856531085912 58.70977199808112,36.77786501485389 58.82938578046742,37.24492621534591 59.333022759034066,38.26916968106525 59.28265906119486,38.20361865685845 59.78629603976151,38.70344329064028 60.01922814233694,38.97383837585221 61.16500226856442,40.10456740292284 61.731593869422795,40.620762242255296 63.31175488966983,42.14473846881083 63.37470951201976,42.19389830612636 63.61393707685056,42.45608338105376 64.4764154026343,43.27540387895351 65.68514415121172,44.709186091346055 65.57182583105168,44.8075012496447 65.35778011509683,45.03690261875818 63.96018749958603,46.42148391543742 62.83329976006644,47.41279045983538 62.4996402617835,47.658566244841495 61.693821096094325,48.09276751270954 61.63716193599976,48.01084300119692 61.56791185145266,47.60121865753172 61.58679823813145,47.60941117356924 61.58050277590519,47.625796202093625 61.54902546471567,47.65037373594532 61.50495722910273,47.625796202093625 61.536434540263144,47.71591377381628 61.49866176687647,47.7814537354825 61.44829806900816,47.84699362093306 61.070570335083175,47.3472500694952 61.372752522234805,47.90434095820092 61.341275211045286,47.90434095820092 61.328684286621865,47.99445808460587 61.372752522234805,47.94530330625639" stroke="#ff2100" stroke-linecap="round" stroke-linejoin="round" stroke-width="0.5"><title>2024-04-06 34.9km</title><desc>11117345079</desc></polyline><polyline fill="none" points="171.67928177499562,105.65554183669883 171.72080302331597,105.71632875693103 172.15158597458503,105.93921345083436 172.16196628662874,106.0 171.1498858590203,105.75009923382095 170.8540469648142,105.31108112014772 170.7710044681735,105.20976865875855 170.64125056721969,104.95986364296914 170.56339822660084,104.85179619285191 170.38174276525388,104.56811794063469 169.99248106233426,104.04128230625793 169.83158622513292,103.85216036519341 169.75373388454318,103.71707279316979 169.2554789047863,102.98083862313797 168.58075861970428,102.04195427216473 168.3420114419132,101.68395740141932 168.2485886332288,101.52859941063798 168.14997566846432,101.40025980904466 168.0461725477362,101.25165561700851 167.79185490179225,100.9071622529118 167.63615022061276,100.67749859121614 167.49601600755705,100.49511781586261 167.3714522626251,100.37353023459218 167.21055742542376,100.11684429592788 166.60849932490964,99.25896257967906 165.99087075624266,98.40782018366735 165.41476343589602,97.57692804225007 164.6829514344281,96.54335854195597 164.61547940588207,96.45553785131415 163.9355689647782,95.69216639334263 163.76948397152591,95.57732181415122 162.91310822509695,94.68557777367823 162.8715869767766,94.59099785626313 162.41485324534005,93.92893304251265 162.34738121685223,93.79381661506704 162.2435780960659,93.67896734273018 162.16572575547616,93.55060605528342 161.95292935788166,93.26010288450198 161.51176609456888,92.61828711303315 160.66058050419088,91.95619418264687 159.90800787849003,91.40894698388001 159.78344413355808,91.30084800920667 159.11391400452703,90.81439951005086 158.14335482520983,90.07120446582849 157.14684486572514,89.37529287107827 156.9859500285238,89.23340670320249 156.28008880722336,88.71315371265155 156.23337740288116,88.64558796168058 156.12957428209484,88.55775233844543 154.49467512979754,87.38884707660691 153.60196829109918,86.7401933143883 152.68331067217514,85.78070967988606 152.34076037359773,85.26717508371803 152.27847850113176,85.12527636505547 151.61413852812257,83.93601291679806 151.28196854164707,83.37515651799185 150.77852340586833,82.39533089300312 150.3425502985774,81.631728313223 150.27507827006048,81.48306086392404 149.51212533231592,80.10448548199929 149.38756158741307,79.83417178418676 149.3252797149471,79.74631949359173 148.1523044501082,78.55016022901327 147.83051477570552,78.34741831655629 147.73190181097016,78.27307939348611 146.4603135813959,77.48237620999134 145.72331142384792,77.11067347941207 145.60393783493782,77.02281603556548 144.7319916203851,76.46863448116346 144.5762869392347,76.35374235545532 144.3634905416111,76.24560833036958 144.04170086720842,76.03609794007934 143.88599618602893,75.93472160536112 143.83928478165762,75.88065413634104 143.83928478165762,75.81982815843003 143.90675681017456,75.59004041157823 143.96384852661868,75.31970042977991 144.17664492421318,74.11666842160776 144.30120866914513,73.33941206420059 144.31158898124704,73.10961204001433 144.70085068413755,71.73078800618532 144.9084569257102,71.46718463073194 144.90326676968834,71.40635286995894 144.60742787545314,70.72367986558675 144.8721258334408,69.65571582004486 145.0382108266931,68.10104069589579 145.06416160688968,67.56027192493639 145.09011238708626,67.21552854499168 145.09011238708626,67.14793150356854 145.36519065714674,65.43093364352535 145.59874767888687,64.15328378224513 145.61431814703974,63.88963736965161 145.69736064365134,63.565147421177244 144.5295755348634,62.82151606536354 143.96384852661868,62.13871678185387 143.42407229857054,61.733088688481075 143.26836761736195,61.64520213427386 142.2562871897826,60.98266736898222 141.76841252209852,60.6581570941089 141.7476518979529,60.62435380995885 139.78577291520196,59.38713666739568 139.33941949583823,59.076137006413774 138.34290953632444,58.42708752161707 138.11973282665713,58.2715847344698 135.52465480714454,56.64215462571883 135.17691435254528,56.36494297826721 133.95722768339328,55.53329809862771 133.8845654988254,54.78277650877135 133.86380487467977,53.97814978821407 133.86380487467977,53.36959930321609 133.87418518672348,51.94961712910663 133.86899503073073,51.82790234901404 133.95203752734233,50.70540654735305 133.95203752734233,50.54987787835853 133.98836861961172,49.90747132952674 134.52814484765986,49.19067036375054 134.53852515973267,49.082473029473476 134.50219406746328,49.021611918022245 132.71678039003746,48.17631044768132 131.71508027450182,47.53387102828856 130.95212733678636,47.06048892056424 130.40716095268726,46.69530513661448 128.3881902534922,45.322458895992895 127.8691746495897,44.93697259590408 127.83803371334216,44.90315785534767 127.92626636600471,44.443274936202215 128.35185916122282,43.10417811463776 128.36223947329563,42.96891365956253 128.40895087766694,42.596934374043485 128.40376072161598,41.697408498865116 128.43490165783442,40.82491936589577 128.40895087766694,39.986232168932474 128.40895087766694,37.92326767180202 128.4245213457907,36.91542541798481 128.4141410336597,36.24577315067654 128.40895087766694,34.067645358351 129.46255255356664,34.00676454026325 130.70819000291522,34.00676454026325 130.96250764885917,34.0 130.9832682730048,34.01352907955152 131.63722793394118,34.967319240255165 131.79812277114252,34.960554840101395 131.8344538634119,34.987612434779294 131.83964401946287,35.02143440592772 131.82926370736095,35.81962576359729 131.82926370736095,36.51634088760693 131.81888339528814,36.631331697764836 132.19776478610584,36.888368948188145 132.68563945378992,36.895133067104325 132.70640007796464,36.9086613020263 132.73235085813212,36.88160482827516 132.7219705460593,36.85454833874246" stroke="#4dd2ff" stroke-linecap="round" stroke-linejoin="round" stroke-width="0.5"><title>2024-04-05 16.7km</title><desc>11109163802</desc></polyline><polyline fill="none" points="85.52971576229902,150.55788555566687 85.58139534882503,150.59823724840317 85.62790697673336,150.6251383573399 85.69509043928701,150.6453141787788 85.8346253229829,150.6654899914065 85.90180878553656,150.68566579525577 85.94315245479811,150.71929211545284 86.0,150.82017092939714 85.47286821703892,151.31111135103492 84.16020671837032,149.40784751974934 84.05684754520189,149.27333828001792 83.57105943153147,148.62096292002025 82.40310077520553,148.93033794880103 82.06201550387777,149.14555414008282 81.834625323012,149.3136910930043 81.75710594316479,149.33386748628982 81.67958656331757,149.32041655841022 81.63824289405602,149.29351469090034 81.5865633074718,149.23298543184865 81.34883720931248,148.88998480150622 80.97157622739905,148.439372265766 80.94056847546017,148.35866507955143 80.91472868216806,148.277957752558 80.89922480619862,148.24432965808592 80.69767441862496,148.10309139444144 80.53229974160786,147.8609676536762 80.44444444443798,147.81388789027915 80.41343669249909,147.7533566955135 80.38759689923609,147.66592260770994 80.36692506459076,147.64574548706514 80.34625323000364,147.64574548706514 80.32041343671153,147.6524711949205 78.62015503877774,149.09847568378245 77.6434108527028,149.75756971304872 77.25064599484904,149.98623279486856 77.06459948318661,150.11401461311834 76.67183462533285,150.3426759334725 76.39276485788287,150.51753382774405 76.01550387599855,150.7394678958408 75.85012919895235,150.82017092939714 75.66408268734813,150.92777475521507 75.58139534882503,150.96812612536814 75.48320413439069,150.99502701926758 75.30749354008003,151.1362564556257 74.88888888887595,151.42543919467425 74.56330749354674,151.64064378104013 74.35142118862132,151.74824569889824 73.9741602067079,152.01052432544748 73.66925064599491,152.14502560855908 73.66925064599491,152.11812538318918 72.7958656330593,152.7570015105557 71.00775193798472,153.90695631282142 70.66149870801019,154.13559889116004 70.14470284237177,154.4382123313262 70.082687338494,154.45166177163628 70.05167958655511,154.48528535527294 68.37209302326664,155.54777801564342 64.90956072352128,157.68613866025044 64.88372093022917,157.69286290894888 64.3824289405602,158.14338534692797 62.3824289405602,159.3873424411904 60.604651162808295,160.5169609992554 59.56589147285558,161.10193120341864 58.0,162.1709955785518 57.844961240305565,162.2516786802953 56.28940568474354,163.2333118204224 56.04651162790833,163.37450391582752 55.891472868243,163.48207855658984 55.56589147288469,163.62326989319627 55.31782945737359,163.81152433879834 55.162790697679156,163.8720345337315 53.67441860467079,164.96120451689785 53.5348837209458,165.06877547045224 53.44186046512914,165.1158376840176 53.40051679586759,165.15617668615596 52.68733850127319,166.78987673311713 52.656330749363406,166.7764308775113 52.563307493546745,166.70247860176096 52.02067183461622,166.3730533928865 51.86563307495089,166.25876246654298 50.475452196376864,165.34442489793946 48.74935400518007,164.5040251756509 48.62532299742452,164.42334599963942 47.71059431525646,164.06701129040448 47.5607235142088,164.033394666807 47.436692506453255,163.99305468625607 45.44702842377592,163.30726963838606 44.96640826872317,163.1593538843117 43.02842377263005,162.37942663707145 42.86304909561295,162.28529659781998 41.90697674418334,161.90205089040683 41.87596899224445,161.91549816194674 41.793281653750455,161.88860361498155 41.74160206716624,161.90877452666973 41.71576227390324,161.92894542954673 41.70542635660968,161.95583995305788 41.68475452196435,162.05669427703833 41.04392764857039,164.0132246809335 40.51679586560931,165.76125749990388 40.44961240311386,165.88899577176926 38.88888888890506,166.02345672977754 38.69250645994907,165.98984152687626 37.42635658913059,165.89571882893142 34.7958656330884,165.76125749990388 33.839793281658785,165.69402668893235 31.953488372120773,165.2301314320648 31.829457364336122,165.18979249438416 31.751937984488904,165.15617668615596 31.090439276507823,163.9190979639825 31.13178294574027,163.38122733820637 29.85012919898145,163.16607733794444 28.687338501302293,163.1593538843117 27.617571059439797,163.18624769292728 25.937984496122226,163.20641803914987 24.196382428955985,163.20641803914987 24.180878552957438,163.1929711426419 24.13953488372499,163.21986493175064 24.077519379847217,163.2333118204224 22.015503875969443,163.1929711426419 21.881136950920336,163.17280079057673 21.798449612397235,163.14590697413223 19.87596899221535,162.19788996142597 19.77260981913423,162.12393037093352 19.705426356580574,162.05669427703833 18.26356589148054,159.99922258236256 17.064599483215716,159.03769301435386 16.904392764845397,158.97045243714456 14.997416020662058,158.61407574700206 14.0,157.47768646569966 14.04651162790833,157.24233608537907 14.294573643419426,156.3950648064092 14.790697674441617,154.79462117864023 14.847545219643507,154.592880658809 15.250645994849037,153.23447159372517 15.726098191225901,151.7078950090181 16.57364341086941,150.43683026634608 16.81136950905784,150.46373146912447 18.894056847551838,150.5108085363463 21.152454780356493,150.26197206709548 21.291989664081484,150.22834541453994 23.162790697679156,150.12073996220715 23.3695090439287,150.16781737839483 24.888888888875954,151.21023360740946 27.193798449618043,153.17394748965307 27.255813953495817,153.1806723940099 27.286821705434704,153.20757200168373 27.338501291989814,153.26137117013423 27.658914728672244,153.5370909266676 28.082687338493997,153.94730508519206 29.67441860467079,155.26534563819587 30.50645994831575,156.42868697810627 30.511627906991635,156.4824824020361 30.496124030993087,156.63041949538092 30.521963824285194,156.65059269874837 31.498708010360133,156.15970892054975 32.45478036176064,155.58812535744437 33.643410852731904,154.78117183801078 35.25064599484904,153.78590978460488 35.31782945734449,153.75228569279352 35.3695090439287,153.7119367503692 35.4521963824227,153.67831260481398 36.04134366923245,153.26809606178358 36.79069767441251,152.78390136449525 36.93540051681339,152.70992672849752 37.98449612403056,152.09122514221963 39.333333333343035,151.23040917374237 39.40051679586759,151.17660764397442 40.03100775193889,150.80672043358936 41.63824289405602,149.7508443111692 42.96640826872317,148.9505145092553 43.023255813954165,148.93033794880103 44.08785529716988,148.22415278967674 44.1912144702801,148.17707339584376 45.793281653750455,147.1883950588308 45.937984496122226,147.08750832631995 46.005167958675884,147.01352458267138 46.465116279083304,146.70413673647636 49.45736434109858,144.8544923243826 49.49354005168425,144.8275878600216 49.58656330750091,144.80740950148174 49.60723514211713,144.76032663064325 49.66408268731902,144.68633916541876 49.793281653750455,144.58544697665639 49.94832041344489,144.5114592317368 50.35142118865042,144.2693166937279 51.932816537475446,143.26710215496496 53.40051679586759,142.38594257677687 53.46770025839214,142.32540427967615 53.519379844976356,142.30522482969172 54.12919896640233,141.84109505059678 56.02067183461622,140.66393342337324 56.17571059431066,140.58993940613072 57.76227390181157,139.6347332843361 58.18087855298654,139.33202300294215 59.291989664081484,138.62569130884003 59.52971576229902,138.49115071560664 60.99741602066206,137.75789760406042 62.60465116277919,136.97081481475834 64.64082687339396,135.988624343212 66.10335917313932,134.8449516199871 67.55038759688614,133.43214038505175 68.7958656330884,133.2101232668865 69.04909560721717,133.41868483247526 72.12403100775555,135.66570785133445 72.54263565890142,136.00207914810017 72.7648578811204,136.15008174368995 74.1085271317861,137.17263219143933 74.20155038760277,137.22645000984994 74.64599483201164,137.56953713003168 74.88888888887595,137.7309890118886 75.3695090439287,138.14134334171104 75.41085271316115,138.16825169516596 76.53229974163696,139.69527510289117 76.64599483204074,139.8634464053357 78.05167958655511,140.0988852015762 78.2480620155111,140.06525116119883 79.76744186045835,140.13251921751362 81.27131782946526,140.06525116119883 82.30490956071299,140.07870478028417 83.73643410851946,140.06525116119883 84.38759689920698,139.8634464053357 84.91989664081484,139.82981219376597" stroke="#ff5700" stroke-linecap="round" stroke-linejoin="round" stroke-width="0.5"><title>2024-03-24 28.9km</title><desc>11025858700</desc></polyline><polyline fill="none" points="181.0243307625642,181.59188545144207 181.0243307625642,181.57285665375093 181.36552528783795,181.68068639755802 181.41426736288122,181.72508680287137 181.42401577788405,181.77583006791974 181.37039949535392,181.84560196102757 181.28266376029933,181.9090308579689 181.14618595014326,181.99148828615216 180.99995972504257,182.06760269697406 180.9219724049908,182.08663127894397 180.8927271599532,182.08028841921987 180.8634819149447,182.06125983447782 180.81961404741742,182.01685977117813 180.68313623729046,181.80754457860894 180.5612810496823,181.59188545144207 180.42480323958443,181.37622525854022 180.26395439196494,181.16690699336687 180.09335712931352,180.90050047654586 180.03486663926742,180.79266880502837 179.92763407417806,180.65312154047933 179.8496467541263,180.5199169171574 179.7326657740341,180.36133945450274 179.64980424646637,180.27887894619198 179.56206851138268,180.14567318054833 179.23549660862773,179.71433743517628 179.0502767234866,179.4352355633855 178.98203781840857,179.352773305116 178.91379891335964,179.23859453640762 178.64084329316393,178.8579964830933 178.5433591430774,178.74381641981017 178.4117555404373,178.54082890294012 178.2509066928469,178.31246681785342 178.15342254276038,178.1475379020303 177.9487058276136,177.90014335950764 177.8024796024547,177.68446492165458 177.66600179235684,177.4560983549418 177.51490135974018,177.24676128555438 177.38329775712918,177.09451551338861 177.22732311699656,176.8598022405895 177.11034213690436,176.69486783414686 177.0616000618611,176.61240039713448 176.92512225173414,176.44112137609773 176.72527974410332,176.14931112512568 176.62292138650082,176.0351239739357 176.53031144395936,175.86384268690017 176.43282729387283,175.7115920895012 176.349965766276,175.6100913961236 176.32559472875437,175.55299715231376 176.29634948377497,175.508590466623 176.2768526537402,175.50224665068163 176.26710423873737,175.51493428162576 176.23785899369977,175.46418373570486 176.1160038060916,175.2929002074343 175.9307839209505,174.98839449697334 175.80405452585546,174.81076518447662 175.5944636031927,174.56335172269974 175.51160207562498,174.44281645102092 175.24352066288702,174.08755266066146 174.12245293700835,172.48248555027385 174.03471720192465,172.3809773446119 172.92827209853567,171.4547040577163 172.86978160848957,171.37857113212158 172.7625490434002,171.18189379272007 172.0801599928527,170.12235867780328 171.5732424124435,169.39272372679625 171.56349399741157,169.41175783706785 170.369313158968,168.41562824422726 169.14101286797086,167.50830569921163 167.73724110683543,166.44233622160027 167.0012357737287,165.8331991099185 166.96224211368826,165.82685388690152 165.6949481627089,164.87505998147753 165.33913101488724,164.62124476565077 165.17828216726775,164.48164576738782 165.0125591121323,164.37377350817405 163.86712034870288,163.53616806421996 163.77451040613232,163.46002131713612 162.91177567793056,162.52086717230486 162.36099022999406,161.46746751514365 161.98080204467988,160.8519149740314 161.85894685707171,160.82018522614817 160.3674393608817,161.39131715621988 160.31382307835156,161.2897831375085 159.65093085778062,160.23635374475998 159.63630823529093,160.13481703712023 159.12939065488172,159.3098225238973 158.29590117168846,158.04056971994578 157.14558820077218,157.8121002919179 157.07247508820728,157.8121002919179 156.14637566244346,157.88191052194816 156.04889151238604,157.9072960324047 154.6304971287318,158.45942722920518 154.49401931863395,158.47846611132263 154.4257804135559,158.47846611132263 154.40628358355025,158.50385127451227 154.30879943346372,158.54827527457746 152.43710375198862,158.529236422939 152.28112911182689,158.51654385057918 152.12515447169426,158.52289013723566 151.90581513402867,158.49750498510548 151.59386585379252,158.48481240350156 149.99025158499717,158.90366564588476 149.8391511523805,158.9100118761853 148.8253159915621,158.87828071540207 147.53852521051886,158.96712790742458 147.42641843791353,159.00520522001534 146.99748817755608,159.1130907584884 145.6570811139827,159.41770730877397 145.5303517188877,159.45578422795734 144.55063601056463,158.8021258353292 144.46290027553914,158.73866333366823 144.43365503050154,158.7259708222664 144.4531518605072,158.7323170784257 144.46290027553914,158.70058578833414 144.44340344550437,158.71327830715745 144.41903240798274,158.6942395275546 143.60016554730828,157.8057539018373 142.8154181391874,156.83474533712797 141.89419292093953,155.72408811607238 141.68947620576364,155.4956065508195 140.09561035200022,153.5978939498491 139.79828369422466,153.23611327766412 139.08664939869777,152.39829387978534 139.03303311613854,152.31578049246673 138.14105314292829,151.22405020506994 137.46353829986765,150.40523454888898 137.33193469725666,150.25924254517668 137.17596005712403,150.0624699405962 137.08335011455347,149.96725707115547 137.04435645451304,149.8720439937424 137.03948224702617,149.70700750035394 137.01511120950454,149.6435317596006 136.21086697134888,148.88816335091542 135.66495573092834,148.2279987298316 135.49923267579288,148.03756476976196 135.36275486566592,147.8534778175781 135.1775349805248,147.63765074577532 135.1044218679599,147.5360846951844 134.63649794759112,146.97746718701092 134.3781649498851,146.6346756265084 133.78838584190817,145.91099570194638 133.12061941385036,144.89528431503277 131.78508655776386,143.20026323363345 131.02958439465147,142.22892930918533 131.0100875646458,142.2670212434423 131.01496177216177,142.2670212434423 130.1960949115164,141.30836410758639 129.53320269094547,140.45761759928791 129.47471220089938,140.34968588504853 129.05553035557386,139.771929222803 129.01166248804657,139.68939193154074 128.1927956273721,138.68623389617642 127.51040657682461,137.80368969572373 127.50065816182178,137.82273760099997 127.50553236930864,137.80368969572373 127.18870888155652,137.42272984201918 126.3064773233491,136.3052283916768 125.88729547802359,135.8226620878595 125.6533335178101,135.68297084465667 124.26905858670943,135.3083421179399 122.85553841057117,134.755917610717 122.69956377043854,134.6797205773364 121.97818105985061,134.47017804854113 120.93997486151056,133.3208511059638 120.84736491894,133.20655174163403 119.82378134311875,132.2921460328107 118.71733623972978,131.40312208424803 118.60522946712445,131.28881768905921 119.4825868178159,129.8282351309208 119.52158047788544,129.64407124524587 119.60931621294003,128.3040967765337 119.6141904204269,128.19613495415615 119.59469359045033,127.7134788295989 119.58007096793153,127.60551554356425 119.6434356654645,126.01778926072075 119.63368725046166,125.87171553584994 119.6434356654645,125.80820506790769 119.66293249549926,123.83298329377067 119.67755511798896,123.79487524063006 119.68242932550493,123.7567671541292 119.68242932550493,121.90213331699124 119.72629719303222,120.01566103709047 119.74091981555102,119.86321526445317 119.5703225528996,119.71712089831635 119.6288130429457,119.67265729829523 119.75554243804072,119.68536118864358 119.72142298551626,119.3360028538118 119.76529085304355,117.88772386776327 119.76041664558579,117.73527064646623 119.80915872059995,116.61726404962974 119.81890713560279,116.56644488597158 119.81890713560279,116.36316763837021 119.79941030559712,116.14083206230498 119.77991347556235,116.0074301718123 119.77991347556235,115.70886255511869 119.79941030559712,115.48017108127897 119.82865555063472,114.0 119.46308998781024,114.34304842062193 119.4533415728074,114.41928103597093 119.39972529024817,116.36952006670981 119.4094737052801,116.44574913465476 119.40459949779324,116.55374008581202 119.38510266775847,116.69349268388032 119.39972529024817,117.06828152829621 119.36073163020774,118.17357221926068 119.3802284602425,118.17992438353394 119.14626650005812,118.09734617562935 119.16088912257692,118.07828964389046 119.19013436761452,118.10369835104211 119.17551174509572,118.12275487166698 119.23400223514182,118.12910704334718 119.29736693267478,118.1545157208675 119.36073163020774,118.14816355287257 119.37048004523967,118.16086788791654 119.33636059271521,119.08827433643819 119.36073163020774,120.72706758764252 119.32173797019641,121.97835270189535 119.35585742274998,122.78499968369579 119.34610900771804,122.84216307621682 119.30711534767761,123.66149679202135 119.31686376270954,123.76311850420461 119.33148638522835,125.12228611395403 119.34123480023118,125.31917136330594 119.25837327266345,126.71639595439046 119.26812168766628,127.05299336198732 119.26324748015031,127.22446651307837 119.27299589515314,127.49120118438805 119.25349906514748,127.6563218291376 119.25349906514748,127.81509108967657 119.14139229254215,129.67582369485172 119.10727284001769,129.80283326191784 119.03903393496876,129.92984245872867 118.31277701689396,130.86969900774056 118.2347896968131,131.06655828441217 118.28840597937233,131.12371081103993 119.24375065014465,132.0317908976067 119.3948510827613,132.13339308667855 120.7888744288939,133.25735149612228 120.90098120147013,133.37165072720018 121.63698653457686,134.29873341182974 123.61104057368357,135.23214605054818 124.80522141212714,135.61312505510796 125.10254806987359,135.67027161852093 125.12691910739522,135.69567006707803 125.16103855991969,135.69567006707803 126.54043928353349,136.8449343746397 126.68666550866328,136.99732073620908 127.93446262966609,138.55290102639628 128.05631781727425,138.72432892692086 129.27486969323945,140.27349863173004 130.18634649648448,141.46708363296784 130.24971119404654,141.5686638258776 130.79562243446708,142.2860671980925 130.9808423196373,142.57175551897672 132.39923670326243,144.36202636223607 132.50159506086493,144.5080381169464 133.8127568794007,146.1585717650014 133.9004926144844,146.17126793545685 133.93461206700886,146.1966602652683 135.2214028480521,147.8471299777848 136.659294061712,149.61814143742595 136.69828772175242,149.73239777076378 136.73728138179285,149.80856849330667 138.44812821564847,151.75722422583203 140.28083023714134,153.92793685699507 140.45142749976367,154.11834509009714 141.8113313934009,155.78120832034256 141.95268341098563,155.92083517127685 143.1907321169856,157.39958301509978 143.25897102203453,157.50747252588917 144.08758629774093,158.52289013723566 145.2086540236196,160.6044223282879 145.2817671361845,160.92806627476966 145.6717037365015,162.38760717560217 145.6863263589912,162.39395289897948 146.78789725489332,164.05015512979662 148.39151152368868,165.86492521113178 149.7660380398156,167.48292577628308 151.17955821595388,169.04376356677312 151.35990389357903,169.22141636068773 152.861159804801,170.8837038772799 153.02200865242048,171.13748265788672 153.09999597250135,171.32781577457354 154.1089569258038,172.99002303600355 155.2543956892332,175.15333535393802 155.34700563183287,175.3373071126589 156.5460606777924,177.3546017194385 156.6484190353658,177.50050305873083 157.80848042131402,178.83262316151377 157.87184511884698,178.9468029924392 159.11476803236292,180.79901185189374 160.5672818685416,182.4735439794713 160.73300492367707,182.6257709869751 162.2830029099132,184.28120541056342 163.57954210595926,185.84144244747586 163.65752942604013,185.93023474783695 164.04259181884117,186.0 164.7639745294291,185.79704622953432 164.94919441457023,185.67654198182208 166.10438159300247,184.99790658481652 166.16287208307767,184.94082462172446 166.3480919682188,184.80763308423775 168.67308894757298,183.36787004510188 168.7413278526219,183.3361566682397 169.01428347287583,183.1712467370562 169.39934586567688,182.96193708090505 170.76899817428784,182.02320264012087 171.14431215208606,181.80754457860894 172.3287445755268,181.02736092546547 173.6935226766509,180.1964182820666 173.90311359931366,180.0758985696084 174.03471720192465,179.98075119308123 174.3466664821899,181.38891118174433 174.38566014220123,181.4777125408873 174.40028276472003,181.53479903349216 175.34100481297355,181.31279558722235 175.45311158554978,181.24936582373266 176.3938336338324,181.22399389251586 176.45719833139447,181.31279558722235 176.53031144395936,181.3825682206152 176.41333046383807,181.45234074242035 176.4230788788409,181.4777125408873 176.44257570887567,181.4967413800441 176.51568882144056,181.51577021092453 177.03722902433947,181.92171662627516 177.0616000618611,181.92805950906404 177.77810856496217,181.68702931536245 177.82197643248946,181.65531471711438 177.88534113002243,181.66800055918793 179.01615727096214,181.05273297099848 179.14776087354403,180.96393074710795 180.4443000695901,179.99978068497512 180.58565208723303,179.90463314250155 181.7505876806681,181.36988229556664 181.7652103031869,181.42062597360564 181.75546188815497,181.44599779050623 181.71646822811454,181.4777125408873 180.96096606503124,181.4967413800441 180.97558868752094,181.49039843458377" stroke="#ff0000" stroke-linecap="round" stroke-linejoin="round" stroke-width="0.5"><title>2024-03-16 38.6km</title><desc>10969293139</desc></polyline><polyline fill="none" points="42.713673993828706,251.46736284715007 42.79588923777919,251.5476043632225 44.50185555231292,250.63819846553088 44.68683985155076,250.34397794821416 44.66628604044672,250.26373590735602 44.542963174404576,250.04975696060865 43.10419640305918,248.49840215564473 43.063088781083934,248.52514976309612 42.85755067085847,248.4449069291586 42.878104481846094,248.36466406016552 42.91921210393775,248.39141168700007 43.083642592071556,248.52514976309612 43.3508421353763,248.20417821726005 43.26862689119298,247.9634491905308 43.26862689119298,247.69597212488588 43.22751926921774,247.90995380858658 43.083642592071556,248.01694455705 42.85755067085847,247.93670150151593 42.713673993828706,247.8297107063263 42.77533542679157,247.56223344628233 42.75478161580395,247.34825135828578 43.80302597768605,247.6424766650889 44.604624607483856,247.4819901923911 44.62517841847148,247.5354856988415 44.4813017413253,247.6424766650889 44.29631744220387,247.58898118973593 43.124750214163214,247.66922439690097 42.75478161580395,247.88320611167 42.77533542679157,247.93670150151593 42.73422780481633,247.9634491905308 42.59035112767015,248.07043990796956 42.364259206457064,247.90995380858658 42.50813588348683,247.4017469035898 42.69312018272467,247.61572892934782 45.344561804202385,249.99626218498452 45.32400799309835,250.04975696060865 47.83157293742988,248.55189736660395 48.38652583502699,248.15068290519412 49.003140165586956,247.99019687577675 49.14701684273314,248.07043990796956 49.33200114197098,248.28442115624784 49.78418498428073,248.97985849468387 53.07279474742245,252.02905272503267 56.64915786474012,251.30687971007137 59.752783328644,247.90995380858658 60.698258635471575,246.97378210564784 61.66428775340319,245.87711776793003 61.86982586362865,245.79687377935625 62.30145589506719,245.82362177947653 62.44533257209696,245.77012577540881 66.02169568941463,241.57064092815563 66.53554096492007,241.0356678237149 68.65258349990472,238.4945243382681 69.82415072794538,237.29081254429184 72.04396231798455,235.6858512369654 72.49614616052713,235.41835632472066 78.4773051670054,234.69611811940558 79.1966885527363,234.74961734293902 85.40393948042765,234.18787472008262 86.0,234.24137409139075 84.25292606349103,234.13437533313117 83.92406508710701,234.16112502854958 83.0402512132423,234.42862176842755 82.85526691412088,234.34837278728082 82.83471310313325,234.10762563391472 81.25206965464167,232.10138710639148 74.83928061660845,228.03534326628142 69.78304310585372,224.90549832003308 65.65172709105536,222.28387781835045 65.63117328006774,217.9768487552792 66.26834142173175,207.65026902589307 66.30944904370699,206.82090716637322 66.28889523271937,206.79415349574992 66.33000285481103,206.74064614287636 62.280902083963156,206.52661657557474 57.8412789037684,206.52661657557474 53.50442477874458,206.66038508435304 48.57151013426483,206.49986286219792 41.66542963183019,206.52661657557474 40.78161575796548,206.49986286219792 38.43848130176775,206.63363139035937 36.46531544381287,206.5801239908178 34.28661147586536,206.6068776925531 32.64230659441091,206.5533702852117 32.41621467319783,206.66038508435304 25.510134170763195,206.71389246064064 25.489580359775573,206.87441449599282 25.592349414830096,207.75728318704932 25.57179560372606,207.8910508008994 25.57179560372606,208.0515718091774 25.674564658896998,208.82742137469177 25.736226091976278,208.90768148780626 25.469026548671536,208.85417474962014 25.530687981750816,209.041448265285 25.633457036921754,210.0045661913755 25.674564658896998,210.05807259508583 25.715672280988656,210.99443213934137 25.8389951470308,211.85052812359936 25.921210391097702,211.716763388642 25.14016557240393,211.716763388642 25.32514987164177,211.74351634336927 25.551241792854853,211.87728105894348 25.880102769006044,211.87728105894348 25.982871824060567,212.01104567716538 25.8389951470308,211.90403399034403 25.448472737683915,213.66971886331157 25.345703682512976,219.2876943609008 24.687981729977764,220.54502728894295 23.783614045125432,221.5348365281534 23.393091635778546,222.20362354027748 21.193833856726997,225.09275549801532 20.392235227045603,224.45073009459884 20.10448187275324,224.0227119143674 18.562946046236902,221.98961196093296 17.22694833006244,219.98324129790126 15.870396802783944,218.13736096389766 14.575506708584726,218.2978730324685 14.0,218.244369025153 14.020553810987622,218.59214479445654 14.575506708584726,222.0163634219498 14.472737653530203,222.39088346798962 15.048244361998513,225.6545258883416 15.192121039144695,226.0557894026424 15.562089637387544,229.50661950331414 15.95261204673443,229.47986913130444 17.391378818196245,229.15886436360597 17.555809306330048,229.0786130841734 17.72023979446385,229.10536351452174 17.781901227426715,229.2658660150919 18.131316014914773,231.2721354590176 18.151869825902395,231.1918851013179 17.823008849518374,229.10536351452174 18.33685412502382,228.22259725896583 18.686268912395462,228.03534326628142 17.658578361500986,228.99836176969984 17.658578361500986,229.0786130841734 18.439623180078343,232.52938649442513 19.508421353180893,236.43483492238738 19.631744219339453,236.7825763114961 23.043676848406903,234.4821210696973 23.372537824790925,234.16112502854958 26.352840422536246,232.87713526419248 29.127604910056107,236.99657068583474 31.409077933290973,240.0994611486385 31.61461604340002,240.52744193389663 34.081073365639895,243.97800065203046 36.403654010850005,247.10752121191763 36.526976877008565,247.4017469035898 39.07564944331534,251.0661547418713 41.25435341137927,253.50013713780208 41.6037681986345,253.28616195406357 42.713673993828706,251.36037410452263 42.61090493865777,251.17314365541097 42.46702826151159,251.17314365541097" stroke="#4dd2ff" stroke-linecap="round" stroke-linejoin="round" stroke-width="0.5"><title>2024-03-09 10.2km</title><desc>10921031918</desc></polyline></svg>