<?xml version="1.0" encoding="utf-8" ?>
<svg baseProfile="full" height="300mm" version="1.1" viewBox="0,0,200,300" width="200mm" xmlns="http://www.w3.org/2000/svg" xmlns:ev="http://www.w3.org/2001/xml-events" xmlns:xlink="http://www.w3.org/1999/xlink"><defs /><rect fill="#222222" height="300" width="200" x="0" y="0" /><text fill="#FFFFFF" style="font-size:12px; font-family:Arial; font-weight:bold;" x="10" y="20">Over 10km Runs</text><text fill="#FFFFFF" style="font-size:4px; font-family:Arial" x="10" y="280">ATHLETE</text><text fill="#FFFFFF" style="font-size:9px; font-family:Arial" x="10" y="290">OrdinarySk</text><text fill="#FFFFFF" style="font-size:4px; font-family:Arial" x="120" y="280">STATISTICS</text><text fill="#FFFFFF" style="font-size:3px; font-family:Arial" x="120" y="285">Number: 6</text><text fill="#FFFFFF" style="font-size:3px; font-family:Arial" x="120" y="290">Weekly: 1.2</text><text fill="#FFFFFF" style="font-size:3px; font-family:Arial" x="141" y="285">Total: 147.3 km</text><text fill="#FFFFFF" style="font-size:3px; font-family:Arial" x="141" y="290">Avg: 24.6 km</text><text fill="#FFFFFF" style="font-size:3px; font-family:Arial" x="167" y="285">Min: 10.2 km</text><text fill="#FFFFFF" style="font-size:3px; font-family:Arial" x="167" y="290">Max: 38.6 km</text><polyline fill="none" points="86.0,92.13345715407922 85.96946194861084,92.0937121702591 85.89966068831563,91.94040971090362 85.82985942799132,91.86659720103125 85.68153174985491,91.62244713602558 85.14493456129276,90.90702187715215 84.41638390692242,89.85089396887997 83.63111972853949,88.80041583379716 83.54823073194711,88.70388399285366 82.54920019388373,87.75558792756419 82.50121182743169,87.66473200580367 81.89481337857433,86.78455431952898 81.28405235093669,85.97250182528296 80.86960736790206,85.63177546923907 78.04701890451543,83.53624300227966 76.0271449345455,82.00853462574378 75.63887542411976,81.73592610198102 75.41638390690787,81.55986541867242 75.07610276294872,81.3213303230441 74.9059621909837,81.19070334353819 74.71400872514641,81.04871700048534 74.56131846824428,80.91240962527081 74.01163354337041,80.37285492783121 73.88948133787198,80.20246768455763 73.80659234123596,80.09455537914619 73.55792535141518,79.70266081387672 73.00387784779014,78.68598845410088 72.61560833736439,78.43607611008338 72.50654386813403,78.47583499911343 72.25351429954753,78.59511142324118 71.27629665534187,78.7314268902046 70.62190984003246,77.66360965786589 70.57392147356586,77.61249001512988 70.50848279205093,77.57841021610147 70.33397964129108,77.51593050726296 70.28599127482448,77.45345069842733 70.28162869607331,77.4023307804382 70.26854095974704,77.35689079714211 70.20746485699783,77.25465064128002 70.11585070284491,77.11833001690684 69.77120698010549,76.57304275829301 69.29132331554138,75.87438232505883 68.54532234607905,75.79485920658044 67.85167232184904,75.85734167044575 67.68589432862063,75.88574275733845 66.61269995151088,76.28335580367639 66.1502666020242,76.39695878723069 64.77169171108108,76.47080054923572 63.838099854576285,76.40831906740641 63.72031022782903,76.41399920625918 63.00920988849248,76.58440298723144 61.91420261752501,76.7888865424029 61.77460009694914,76.77184628704345 60.6752302472014,76.77752637298909 60.539990305376705,76.80024670848434 60.413475521068904,76.80592679030815 59.83325254483498,76.86272756294784 58.85603490060021,77.08992982690688 57.970431410576566,77.3228107749419 57.337857489081216,76.74912593501722 57.27678138631745,76.66960459873371 57.097915656806435,76.51056144014365 56.26466311197146,75.60173095855498 55.296170625297236,74.3861371072635 55.21764420745603,74.30093051086442 54.19243819679832,73.10801862800145 53.52932622394292,72.31272378169888 52.93601551138272,71.58558288186032 52.342704798837076,70.89251410046563 51.653417353358236,70.05172561224026 50.87687833250675,69.09161390010559 50.488608822081005,68.4666764245776 50.45370819194068,68.43826993788389 50.36209403780231,68.38713820970588 49.72952011633606,67.68833120929776 48.996606883156346,66.80770293836395 47.67038293746009,65.16002246709832 47.207949587958865,64.4327482620647 47.116335433820495,64.31911044284789 46.23073194376775,63.199760235896974 45.56761997091235,62.421309939712955 45.48473097430542,62.35880595758135 45.3931168201525,62.228115489509946 45.17062530295516,61.85877049526607 45.035385361115914,61.77921880802023 44.546776539005805,61.16552891081301 44.45079980610171,61.057563948783354 43.94037809014844,60.39272049173451 43.33834222004225,59.54602310369228 43.25545322344988,59.40964059779435 42.38730004847457,58.35834277651156 42.02084343187744,57.87530454744774 40.80368395539699,56.3750064921187 40.78623364031955,56.34659119936623 40.72952011632151,56.22724674374331 40.26272418805456,55.931725567610556 40.153659718853305,55.914676200656686 39.75666505089612,55.82374611776322 39.1502666020242,55.65893480216255 39.063015026651556,55.64756847886747 38.15996122152137,55.24406185562475 37.51429956374341,55.02809884922317 37.4052350945276,55.01104908724665 36.65050896750472,54.454086097681284 36.03102278235019,53.72092881152639 35.638390693158726,53.345819753867545 34.3470673776028,52.379613140965375 33.993698497331934,52.04427701465829 33.84100824041525,51.86239858750196 33.635967038280796,51.788510234149726 33.34803683953942,51.600946862268756 32.650024236543686,51.39633124584725 32.610761027623084,51.37359611109059 31.781871061539277,51.23718502413976 31.668444013572298,51.20308217783895 31.354338342207484,51.078038152933004 31.21909840038279,51.00414831336457 31.17983519146219,50.95867757326414 30.809015996113885,50.79952956540001 30.28550654386345,50.69153590441783 30.25496849247429,50.70290367229245 29.714008725146414,50.54943852641736 28.72370334462903,50.100407408415776 28.61463887539867,50.12314328550565 28.584100824024063,50.12314328550565 28.04750363547646,49.92988790770323 27.5196316044603,49.71957949649368 27.057198254959076,49.27053882200562 27.1008240426454,49.24211835215465 26.92195831310528,49.29895927116013 26.367910809494788,49.520638063531806 26.241396025186987,49.53769022611232 25.600096946189296,49.54337427866267 25.338342220071354,49.0886474569852 25.285991274839034,49.10001569215092 24.97188560347422,49.253486542598694 24.417838099849178,49.2250660603022 24.26078526416677,49.24780244778958 23.724188075619168,49.23075015842187 22.14493456130731,49.11138392401699 21.333494910315494,49.06022685455173 20.26466311197146,48.98064905754654 20.12506059136649,48.95791251427363 18.877363063482335,48.906755243457155 18.715947649034206,48.91243938797925 18.458555501681985,48.906755243457155 16.75278720309143,49.04317448315487 16.469219583115773,49.07159509801204 15.212796897714725,48.69644131384484 14.999030538034276,48.55433666514 14.623848763934802,47.9518072013052 14.632573921451694,47.923385770234745 14.148327678136411,47.89496431843145 14.0,47.866542845920776 14.10906446921581,47.89496431843145 14.104701890450087,47.883595731913374" stroke="#4dd2ff" stroke-linecap="round" stroke-linejoin="round" stroke-width="0.5"><title>2024-04-14 18.0km</title><desc>11176726526</desc></polyline><polyline fill="none" points="161.29720697543235,47.96168823712287 161.70641202054685,48.01903545771347 161.44829806900816,48.69081283969717 161.37904798446107,48.7973133967389 161.36645706000854,48.83827509585535 161.4923663046502,49.19054447962844 162.77664059997187,50.968242434919375 162.95291354248184,51.197618732767296 163.09141371160513,51.36145837410368 163.10400463605765,51.41061017365428 163.09141371160513,51.426994097309944 163.08511824934976,51.426994097309944 163.04105001373682,51.402418210043834 163.02216362705803,51.402418210043834 162.88366345790564,51.508913644189306 162.85218614677433,51.5498733729728 162.8395952223218,51.60721694327731 162.87736799567938,51.70552007096558 162.98439085364225,51.86935823613385 162.99698177809478,51.852974441040715 162.99698177809478,51.82839873948251 162.98439085364225,51.82839873948251 162.99068631586852,51.852974441040715 163.3495276631147,52.31991073520476 164.3064379223797,53.720696412816324 164.50159725156846,53.98282787818607 165.03041607906925,54.908469864200015 164.80377943869098,55.33442390224809 164.68416565630469,55.37538085169217 162.98439085364225,55.79314003647596 162.46816295062308,55.98154022464223 162.25411723469733,56.022496703997604 161.7819575673202,56.16174851118194 161.56791185145266,56.169939783241716 161.14611588185653,56.28461746721223 161.0831612595357,56.28461746721223 160.37177402732777,56.464824784990924 159.44004561696784,56.76789942961477 158.3887034242507,57.193839419589494 156.08456424728502,58.20133851148057 155.96495046489872,58.25048434814016 154.8254718008684,58.50440382168745 154.18963011546293,58.54535846841463 153.91262977721635,58.57812216435195 152.14360489003593,58.651840410602745 151.72810438272427,59.0695753188993 151.67774068485596,59.08595701694139 151.69662707153475,60.62581538240556 151.78476354281884,62.20658368391378 151.81624085395015,62.354010592694976 151.25594471528893,62.80447931465824 150.41235277621308,62.960094945930905 149.1973285654385,63.20580296306434 148.2467137683998,63.35322725945662 145.26266467038658,63.86920926156017 144.26168617547955,63.93473044781422 144.14836785531952,63.92654030370977 142.73188885307172,64.2131946400441 142.01420615863753,64.29509561134182 140.97545489034383,64.46708726392535 138.80352042027516,64.8356390387562 138.09213318806724,65.0240090157422 137.39333688031184,65.47445640927617 137.32408679576474,65.58911517134038 136.3923583854048,66.89948446697963 135.85724409567774,67.3417272322331 135.75651669997023,67.44000293134013 135.02624308105442,68.03784307781825 134.81219736515777,68.3080975023986 134.57296980035608,68.4882663992903 133.97490088827908,69.37272354508241 134.45965148016694,69.80675762645842 134.45965148016694,70.71576157745949 134.8562656007707,71.26443254766127 135.02624308105442,71.2808107035562 135.29694795704563,72.32081386204663 135.27806157033774,73.07418999954461 135.27176610811148,73.76204638040144 135.1836296368565,74.53996908416593 135.1647432501777,75.30150407562905 135.12067501453566,76.12034743413096 135.12697047676193,77.10294377419996 135.082902241149,77.78256289613273 134.97587938321522,80.61558572933791 135.00106123212026,80.94309364554647 134.994765769894,80.96765666260762 135.02624308105442,81.77004267275333 134.98847030766774,82.98178766975616 134.97587938321522,83.17009705570672 134.8940383741865,85.17596237917314 134.90033383641276,85.35607740875275 134.88774291193113,85.87185817628051 134.8059019029315,87.4437323875718 134.78072005399736,87.59109334983441 134.73665181838442,89.66229282280983 134.64221988490317,90.72651594881245 134.6170380359399,90.8411233960469 134.64221988490317,91.44690175035794 134.51001517803525,93.8863217351427 134.44076509348815,95.8426931112881 134.34003769778064,97.68440335428386 134.3148558488174,98.49473682231837 134.25819668875192,99.52605350104204 134.23931030201493,100.31999080504102 134.21412845313898,100.45094846265056 134.18894660417573,101.2939811096403 134.11340105743147,102.7999498416284 134.08192374624196,103.67568492209466 134.08821920846822,103.81481915142285 133.98119635053445,105.56624423836183 133.15019533588202,105.68900564112846 132.4702854148345,105.41893020263888 132.36326255690074,105.41074607827613 132.36326255690074,105.41893020263888 132.3191943212587,105.3861936980611 131.702239022532,105.10793264254971 131.702239022532,105.08338013063258 131.4818978444091,104.91969644487108 131.32451128860703,104.96061741080484 131.39376137315412,104.96880160044384 131.58262524014572,104.95243321999442 131.6518753246928,104.96880160044384 131.7211254092399,105.13248514381121 131.74630725814495,105.16522179551612 133.21944542045821,105.77084642800037 133.81121887027984,106.0 134.15117383078905,104.73145961951013 134.20783299088362,103.11914457533567 134.27078761323355,102.03878588479711 134.3652195467148,99.72249263660706 134.44706055571442,98.52747732394346 134.4659469424223,98.41288548507873 134.47224240461946,97.39791904148296 134.49742425355362,96.28470905074573 134.42187870678026,95.22059073898708 133.57199130547815,95.21240513575685 132.80394491314655,95.23696194192598 132.8102403753728,95.25333314007003 132.2499442367116,95.19603392571662 131.56373885340872,95.22059073898708 130.99714725252124,95.19603392571662 130.41796472718124,95.19603392571662 130.33612371818163,95.204219531337 129.7254638816521,95.35974581241317 129.70657749497332,95.71991029148921 129.73175934390747,95.94091917477999 129.7254638816521,95.92454817606631 129.73175934390747,95.92454817606631 129.66880472155754,96.19466904755245 129.68769110826543,96.7185361435877 129.71287295719958,96.35019259919136 129.6939865705208,96.26015270046992 129.70657749497332,95.99003214240292 129.7254638816521,95.89999166910275 129.71916841939674,95.9163626749214 129.75694119284162,95.58075610613378 130.2542827091529,95.245147541591 130.73903330104076,95.26970433349925 131.27414759076783,95.245147541591 132.98021785562742,95.26970433349925 133.59087769212783,95.26151873738854 133.58458222990157,95.25333314007003 133.20055903375032,95.22877634104952 133.05576340242987,95.33518905968958 133.06205886465614,95.37611697496686 134.1071055951761,96.09644342567844 134.08821920846822,96.24378179435735 134.0756282840157,96.74309229437495 134.09451467069448,96.93954111626226 134.11340105743147,96.8904289748898 134.13858290633652,96.76764843451383 134.06933282178943,95.38430255444473 133.92453719043988,95.38430255444473 133.60976407886483,95.27788992841306 134.45335601794068,95.26970433349925 134.6170380359399,95.23696194192598 135.10808409005404,95.245147541591 136.82674527942436,95.05687844861677 137.60108713395311,95.02413593357778 139.57156681257766,95.04869282164509 141.6616602736467,95.0159503018258 142.08975170544,94.96683648651015 142.57450229729875,94.54936733042996 142.56191137284623,94.44295313006296 142.52413859945955,92.39648716511874 142.5304340616858,91.0212203428382 142.47377490159124,89.08924128750004 142.48636582604377,88.91732469206909 142.49266128829913,88.63079586903405 142.46118397713872,87.00983398605604 142.47377490159124,86.8788451336768 142.44229759043083,86.22389631027909 142.46118397713872,85.9127929558781 142.43600212820456,85.88823209169277 142.42341120369383,85.66718383281841 142.45488851491245,84.20169384327892 142.45488851491245,83.79233229607416 142.40452481704415,81.95835610330323 142.4108202792704,78.0282063473278 142.3982293548179,77.36496657420503 142.26602464794996,74.31068771814171 142.22195641230792,74.13872608197198 142.15270632776082,73.24615488119889 142.1401154032792,72.45183652185733 141.90718330067466,71.26443254766127 141.93866061186418,71.22348713717292 142.07716078098747,71.19073078736619 143.35513961405377,70.74851820311596 143.37402600076166,70.73213989265787 143.24182129389374,70.75670735656604 144.2868680244428,70.34724822797216 144.425368193537,70.34724822797216 144.5764592870837,70.38000506764365 144.6457093716599,70.4127618883067 144.99825525665074,70.48646466522041 146.11884753394406,70.62568075884701 146.12514299617033,70.64205910020246 145.5144831596699,70.51103223612154 145.4137557639624,70.5028430469938 144.61423206047039,70.19984221396226 143.85877659264952,70.26535604553646 143.21034398273332,70.49465385670555 142.31638834578916,70.89592278313648 142.1904791011475,70.93686843139949 141.54834195345757,70.46189708361999 141.35947808652418,70.08519282561247 140.93138665476,69.15979994431473 140.47181791177718,68.36542403200292 140.10038564010756,67.68569142985143 139.2756800877105,66.73568997012626 139.06163437181385,66.55551547410505 139.00497521171928,66.48180755981957 138.8979523537855,66.40809954920041 138.75945218466222,66.20335456978864 137.96622394342558,65.22056832083399 138.11101957477513,65.13047872439711 139.35752109671012,64.87658908729281 141.60500111355213,64.50803758007532 142.70670700419578,64.39337661991885 143.6762081879133,64.07396271582184 144.14207239309326,64.06577259194091 144.05393592183827,63.910160011906555 143.91543575271498,63.72178631415227 143.90914029051783,63.67264524604616 143.9280266771966,63.6398845101794 143.91543575271498,63.6235041351174 143.93432213942287,63.6398845101794 143.9469130638754,63.47608054533339 143.9972767617437,63.467890334606636 144.0350495351595,63.40236860593359 144.10429961970658,63.3286565701419 144.19243609093246,63.12390040964965 144.34982264673454,63.2795151594255 144.27427709993208,63.54160218837205 144.15466331754578,63.590743370677956 144.047640459612,63.60712375527146 143.74545827246038,63.54160218837205 143.92173121497035,63.574362981347804 143.90284482826246,63.63169432324139 143.9469130638754,63.70540596288993 144.80939138968824,63.500651170386845 144.97307340771658,63.058378281246405 144.97936886994285,62.99285607674756 145.38227845280198,62.75533744713175 145.3948693772545,62.714385858158494 145.50189223521738,62.640672923040256 145.62150601760368,62.66524391210987 145.61521055540652,62.6488632539149 145.49559677296202,62.59972125080094 144.7842095407541,61.960871312701784 144.56386836263118,62.034585136505484 145.26266467038658,61.2482993813137 145.43893761289655,61.22372777480632 147.34646266920026,61.084488468921336 148.20264553275774,60.97801112064917 150.24237529595848,60.84696180062747 150.922285217006,60.806008825657045 152.28840052138548,60.82239001922062 152.4017188415164,60.789627627331356 152.71649195314967,60.7568652164191 154.6554943206429,60.54390908147252 155.03951751676505,60.51933716799249 157.06665635551326,60.003324511344545 157.2492247602204,59.929608032034594 157.93543014352326,59.6101688413728 160.03811452904483,58.684604044694424 161.9708214342827,58.086664726062736 162.14709437679267,58.06209174167816 162.398912866076,57.99656373102334 164.62121103398385,57.398617115530215 165.82993978253216,57.111928132973844 166.56021340147709,57.21022166264811 168.19703358178958,57.53786552394013 168.55587492900668,57.57062980533374 170.26194519389537,57.57062980533374 170.29971796728205,57.45595473709909 170.33119527847157,56.42386862698913 170.2556497316691,56.309191226282564 168.99026182302623,56.29280872141317 168.4173747599125,56.276426211799844 167.13310046456172,56.022496703997604 166.49725877912715,55.91600979582654 165.62218952889089,55.91600979582654 165.64107591556967,55.87505323910955 165.5844167555042,55.694844036199356 165.3451891906443,54.58900222369266 165.30741641728673,54.52347017622378 165.0052342301351,54.122084723429 164.06091489532264,52.80322668548979 163.0284590892552,51.26315464644722 162.99698177809478,51.25496266139089 162.88366345790564,51.11569873354165 160.54175150761148,47.80603120145679 160.2458647826861,47.42098300325233 160.00034175562905,47.01135437294943 159.01824964745902,45.66775156960284 157.93543014352326,44.16025663900291 157.6584298053058,43.7342181553031 156.31749634988955,41.80061840682538 155.48019987303996,40.66172988413018 155.5935181932291,39.776822193809494 155.94606407819083,39.31797569883565 155.9523595404171,39.28520080623275 156.00901870051166,39.211457228197105 156.2230644164083,38.93286950694528 156.40563282111543,38.7362185215934 156.59449668810703,37.12201574842402 156.53783752801246,35.23735501774354 156.48747383017326,34.884998408844694 156.50636021685204,34.79486031779743 158.19354409503285,34.60638929777997 159.72963687966694,34.61458370307082 159.8555461243086,34.59819489131769 159.975159906724,34.39333434218133 160.34659217842272,34.27041765517788 160.28993301832816,34.27041765517788 160.22068293378106,34.180278580977756 160.20179654707317,34.0 160.1955010848178,34.06555591435608 160.20179654707317,34.1065283221069 160.23956932048895,34.22125090532063 160.22697839600733,34.352362142977654 160.25216024494148,34.3359732549543 160.25216024494148,34.31958436216155 160.2143874715257,34.23763982669698 160.3340012539411,34.37694546609055 160.05700091575272,34.352362142977654 158.77902208262822,34.450695370989706 158.75384023372317,34.51625076104756 158.6782946868916,34.96694200289858 158.6971810736286,36.63856531085912 158.70977199808112,36.77786501485389 158.82938578046742,37.24492621534591 159.33302275903407,38.26916968106525 159.28265906119486,38.20361865685845 159.7862960397615,38.70344329064028 160.01922814233694,38.97383837585221 161.16500226856442,40.10456740292284 161.7315938694228,40.620762242255296 163.31175488966983,42.14473846881083 163.37470951201976,42.19389830612636 163.61393707685056,42.45608338105376 164.4764154026343,43.27540387895351 165.68514415121172,44.709186091346055 165.57182583105168,44.8075012496447 165.35778011509683,45.03690261875818 163.96018749958603,46.42148391543742 162.83329976006644,47.41279045983538 162.4996402617835,47.658566244841495 161.69382109609433,48.09276751270954 161.63716193599976,48.01084300119692 161.56791185145266,47.60121865753172 161.58679823813145,47.60941117356924 161.5805027759052,47.625796202093625 161.54902546471567,47.65037373594532 161.50495722910273,47.625796202093625 161.53643454026314,47.71591377381628 161.49866176687647,47.7814537354825 161.44829806900816,47.84699362093306 161.07057033508318,47.3472500694952 161.3727525222348,47.90434095820092 161.34127521104529,47.90434095820092 161.32868428662186,47.99445808460587 161.3727525222348,47.94530330625639" stroke="#ff2100" stroke-linecap="round" stroke-linejoin="round" stroke-width="0.5"><title>2024-04-06 34.9km</title><desc>11117345079</desc></polyline><polyline fill="none" points="71.67928177499562,185.65554183669883 71.72080302331597,185.71632875693103 72.15158597458503,185.93921345083436 72.16196628662874,186.0 71.14988585902029,185.75009923382095 70.85404696481419,185.31108112014772 70.77100446817349,185.20976865875855 70.64125056721969,184.95986364296914 70.56339822660084,184.8517961928519 70.38174276525388,184.5681179406347 69.99248106233426,184.04128230625793 69.83158622513292,183.8521603651934 69.75373388454318,183.7170727931698 69.25547890478629,182.98083862313797 68.58075861970428,182.04195427216473 68.3420114419132,181.68395740141932 68.24858863322879,181.52859941063798 68.14997566846432,181.40025980904466 68.0461725477362,181.2516556170085 67.79185490179225,180.9071622529118 67.63615022061276,180.67749859121614 67.49601600755705,180.4951178158626 67.3714522626251,180.37353023459218 67.21055742542376,180.11684429592788 66.60849932490964,179.25896257967906 65.99087075624266,178.40782018366735 65.41476343589602,177.57692804225007 64.6829514344281,176.54335854195597 64.61547940588207,176.45553785131415 63.93556896477821,175.69216639334263 63.769483971525915,175.57732181415122 62.91310822509695,174.68557777367823 62.8715869767766,174.59099785626313 62.414853245340055,173.92893304251265 62.34738121685223,173.79381661506704 62.2435780960659,173.67896734273018 62.16572575547616,173.55060605528342 61.95292935788166,173.26010288450198 61.511766094568884,172.61828711303315 60.660580504190875,171.95619418264687 59.908007878490025,171.40894698388 59.78344413355808,171.30084800920667 59.11391400452703,170.81439951005086 58.143354825209826,170.0712044658285 57.14684486572514,169.37529287107827 56.9859500285238,169.2334067032025 56.280088807223365,168.71315371265155 56.23337740288116,168.64558796168058 56.129574282094836,168.55775233844543 54.49467512979754,167.3888470766069 53.60196829109918,166.7401933143883 52.68331067217514,165.78070967988606 52.34076037359773,165.26717508371803 52.27847850113176,165.12527636505547 51.61413852812257,163.93601291679806 51.281968541647075,163.37515651799185 50.77852340586833,162.39533089300312 50.34255029857741,161.631728313223 50.275078270060476,161.48306086392404 49.51212533231592,160.1044854819993 49.387561587413074,159.83417178418676 49.3252797149471,159.74631949359173 48.152304450108204,158.55016022901327 47.830514775705524,158.3474183165563 47.73190181097016,158.2730793934861 46.460313581395894,157.48237620999134 45.72331142384792,157.11067347941207 45.603937834937824,157.02281603556548 44.73199162038509,156.46863448116346 44.576286939234706,156.35374235545532 44.3634905416111,156.24560833036958 44.04170086720842,156.03609794007934 43.88599618602893,155.93472160536112 43.839284781657625,155.88065413634104 43.839284781657625,155.81982815843003 43.90675681017456,155.59004041157823 43.963848526618676,155.3197004297799 44.17664492421318,154.11666842160776 44.301208669145126,153.3394120642006 44.31158898124704,153.10961204001433 44.70085068413755,151.73078800618532 44.9084569257102,151.46718463073194 44.903266769688344,151.40635286995894 44.60742787545314,150.72367986558675 44.872125833440805,149.65571582004486 45.0382108266931,148.1010406958958 45.064161606889684,147.5602719249364 45.090112387086265,147.21552854499168 45.090112387086265,147.14793150356854 45.36519065714674,145.43093364352535 45.598747678886866,144.15328378224513 45.61431814703974,143.8896373696516 45.697360643651336,143.56514742117724 44.5295755348634,142.82151606536354 43.963848526618676,142.13871678185387 43.424072298570536,141.73308868848108 43.268367617361946,141.64520213427386 42.2562871897826,140.98266736898222 41.768412522098515,140.6581570941089 41.74765189795289,140.62435380995885 39.78577291520196,139.38713666739568 39.33941949583823,139.07613700641377 38.34290953632444,138.42708752161707 38.11973282665713,138.2715847344698 35.52465480714454,136.64215462571883 35.17691435254528,136.3649429782672 33.957227683393285,135.5332980986277 33.884565498825395,134.78277650877135 33.86380487467977,133.97814978821407 33.86380487467977,133.3695993032161 33.87418518672348,131.94961712910663 33.86899503073073,131.82790234901404 33.95203752734233,130.70540654735305 33.95203752734233,130.54987787835853 33.98836861961172,129.90747132952674 34.52814484765986,129.19067036375054 34.53852515973267,129.08247302947348 34.50219406746328,129.02161191802224 32.71678039003746,128.17631044768132 31.715080274501815,127.53387102828856 30.95212733678636,127.06048892056424 30.407160952687263,126.69530513661448 28.388190253492212,125.3224588959929 27.869174649589695,124.93697259590408 27.838033713342156,124.90315785534767 27.92626636600471,124.44327493620222 28.35185916122282,123.10417811463776 28.36223947329563,122.96891365956253 28.40895087766694,122.59693437404349 28.40376072161598,121.69740849886512 28.434901657834416,120.82491936589577 28.40895087766694,119.98623216893247 28.40895087766694,117.92326767180202 28.42452134579071,116.9154254179848 28.41414103365969,116.24577315067654 28.40895087766694,114.067645358351 29.46255255356664,114.00676454026325 30.708190002915217,114.00676454026325 30.962507648859173,114.0 30.983268273004796,114.01352907955152 31.637227933941176,114.96731924025516 31.798122771142516,114.9605548401014 31.83445386341191,114.9876124347793 31.839644019462867,115.02143440592772 31.82926370736095,115.81962576359729 31.82926370736095,116.51634088760693 31.81888339528814,116.63133169776484 32.197764786105836,116.88836894818814 32.68563945378992,116.89513306710433 32.706400077964645,116.9086613020263 32.73235085813212,116.88160482827516 32.72197054605931,116.85454833874246" stroke="#4dd2ff" stroke-linecap="round" stroke-linejoin="round" stroke-width="0.5"><title>2024-04-05 16.7km</title><desc>11109163802</desc></polyline><polyline fill="none" points="185.52971576229902,150.55788555566687 185.58139534882503,150.59823724840317 185.62790697673336,150.6251383573399 185.69509043928701,150.6453141787788 185.8346253229829,150.6654899914065 185.90180878553656,150.68566579525577 185.9431524547981,150.71929211545284 186.0,150.82017092939714 185.47286821703892,151.31111135103492 184.16020671837032,149.40784751974934 184.0568475452019,149.27333828001792 183.57105943153147,148.62096292002025 182.40310077520553,148.93033794880103 182.06201550387777,149.14555414008282 181.834625323012,149.3136910930043 181.7571059431648,149.33386748628982 181.67958656331757,149.32041655841022 181.63824289405602,149.29351469090034 181.5865633074718,149.23298543184865 181.34883720931248,148.88998480150622 180.97157622739905,148.439372265766 180.94056847546017,148.35866507955143 180.91472868216806,148.277957752558 180.89922480619862,148.24432965808592 180.69767441862496,148.10309139444144 180.53229974160786,147.8609676536762 180.44444444443798,147.81388789027915 180.4134366924991,147.7533566955135 180.3875968992361,147.66592260770994 180.36692506459076,147.64574548706514 180.34625323000364,147.64574548706514 180.32041343671153,147.6524711949205 178.62015503877774,149.09847568378245 177.6434108527028,149.75756971304872 177.25064599484904,149.98623279486856 177.0645994831866,150.11401461311834 176.67183462533285,150.3426759334725 176.39276485788287,150.51753382774405 176.01550387599855,150.7394678958408 175.85012919895235,150.82017092939714 175.66408268734813,150.92777475521507 175.58139534882503,150.96812612536814 175.4832041343907,150.99502701926758 175.30749354008003,151.1362564556257 174.88888888887595,151.42543919467425 174.56330749354674,151.64064378104013 174.35142118862132,151.74824569889824 173.9741602067079,152.01052432544748 173.6692506459949,152.14502560855908 173.6692506459949,152.11812538318918 172.7958656330593,152.7570015105557 171.00775193798472,153.90695631282142 170.66149870801019,154.13559889116004 170.14470284237177,154.4382123313262 170.082687338494,154.45166177163628 170.0516795865551,154.48528535527294 168.37209302326664,155.54777801564342 164.90956072352128,157.68613866025044 164.88372093022917,157.69286290894888 164.3824289405602,158.14338534692797 162.3824289405602,159.3873424411904 160.6046511628083,160.5169609992554 159.56589147285558,161.10193120341864 158.0,162.1709955785518 157.84496124030557,162.2516786802953 156.28940568474354,163.2333118204224 156.04651162790833,163.37450391582752 155.891472868243,163.48207855658984 155.5658914728847,163.62326989319627 155.3178294573736,163.81152433879834 155.16279069767916,163.8720345337315 153.6744186046708,164.96120451689785 153.5348837209458,165.06877547045224 153.44186046512914,165.1158376840176 153.4005167958676,165.15617668615596 152.6873385012732,166.78987673311713 152.6563307493634,166.7764308775113 152.56330749354674,166.70247860176096 152.02067183461622,166.3730533928865 151.8656330749509,166.25876246654298 150.47545219637686,165.34442489793946 148.74935400518007,164.5040251756509 148.62532299742452,164.42334599963942 147.71059431525646,164.06701129040448 147.5607235142088,164.033394666807 147.43669250645326,163.99305468625607 145.44702842377592,163.30726963838606 144.96640826872317,163.1593538843117 143.02842377263005,162.37942663707145 142.86304909561295,162.28529659781998 141.90697674418334,161.90205089040683 141.87596899224445,161.91549816194674 141.79328165375046,161.88860361498155 141.74160206716624,161.90877452666973 141.71576227390324,161.92894542954673 141.70542635660968,161.95583995305788 141.68475452196435,162.05669427703833 141.0439276485704,164.0132246809335 140.5167958656093,165.76125749990388 140.44961240311386,165.88899577176926 138.88888888890506,166.02345672977754 138.69250645994907,165.98984152687626 137.4263565891306,165.89571882893142 134.7958656330884,165.76125749990388 133.83979328165879,165.69402668893235 131.95348837212077,165.2301314320648 131.82945736433612,165.18979249438416 131.7519379844889,165.15617668615596 131.09043927650782,163.9190979639825 131.13178294574027,163.38122733820637 129.85012919898145,163.16607733794444 128.6873385013023,163.1593538843117 127.6175710594398,163.18624769292728 125.93798449612223,163.20641803914987 124.19638242895599,163.20641803914987 124.18087855295744,163.1929711426419 124.13953488372499,163.21986493175064 124.07751937984722,163.2333118204224 122.01550387596944,163.1929711426419 121.88113695092034,163.17280079057673 121.79844961239723,163.14590697413223 119.87596899221535,162.19788996142597 119.77260981913423,162.12393037093352 119.70542635658057,162.05669427703833 118.26356589148054,159.99922258236256 117.06459948321572,159.03769301435386 116.9043927648454,158.97045243714456 114.99741602066206,158.61407574700206 114.0,157.47768646569966 114.04651162790833,157.24233608537907 114.29457364341943,156.3950648064092 114.79069767444162,154.79462117864023 114.84754521964351,154.592880658809 115.25064599484904,153.23447159372517 115.7260981912259,151.7078950090181 116.57364341086941,150.43683026634608 116.81136950905784,150.46373146912447 118.89405684755184,150.5108085363463 121.15245478035649,150.26197206709548 121.29198966408148,150.22834541453994 123.16279069767916,150.12073996220715 123.3695090439287,150.16781737839483 124.88888888887595,151.21023360740946 127.19379844961804,153.17394748965307 127.25581395349582,153.1806723940099 127.2868217054347,153.20757200168373 127.33850129198981,153.26137117013423 127.65891472867224,153.5370909266676 128.082687338494,153.94730508519206 129.6744186046708,155.26534563819587 130.50645994831575,156.42868697810627 130.51162790699163,156.4824824020361 130.4961240309931,156.63041949538092 130.5219638242852,156.65059269874837 131.49870801036013,156.15970892054975 132.45478036176064,155.58812535744437 133.6434108527319,154.78117183801078 135.25064599484904,153.78590978460488 135.3178294573445,153.75228569279352 135.3695090439287,153.7119367503692 135.4521963824227,153.67831260481398 136.04134366923245,153.26809606178358 136.7906976744125,152.78390136449525 136.9354005168134,152.70992672849752 137.98449612403056,152.09122514221963 139.33333333334303,151.23040917374237 139.4005167958676,151.17660764397442 140.0310077519389,150.80672043358936 141.63824289405602,149.7508443111692 142.96640826872317,148.9505145092553 143.02325581395417,148.93033794880103 144.08785529716988,148.22415278967674 144.1912144702801,148.17707339584376 145.79328165375046,147.1883950588308 145.93798449612223,147.08750832631995 146.00516795867588,147.01352458267138 146.4651162790833,146.70413673647636 149.45736434109858,144.8544923243826 149.49354005168425,144.8275878600216 149.5865633075009,144.80740950148174 149.60723514211713,144.76032663064325 149.66408268731902,144.68633916541876 149.79328165375046,144.58544697665639 149.9483204134449,144.5114592317368 150.35142118865042,144.2693166937279 151.93281653747545,143.26710215496496 153.4005167958676,142.38594257677687 153.46770025839214,142.32540427967615 153.51937984497636,142.30522482969172 154.12919896640233,141.84109505059678 156.02067183461622,140.66393342337324 156.17571059431066,140.58993940613072 157.76227390181157,139.6347332843361 158.18087855298654,139.33202300294215 159.29198966408148,138.62569130884003 159.52971576229902,138.49115071560664 160.99741602066206,137.75789760406042 162.6046511627792,136.97081481475834 164.64082687339396,135.988624343212 166.10335917313932,134.8449516199871 167.55038759688614,133.43214038505175 168.7958656330884,133.2101232668865 169.04909560721717,133.41868483247526 172.12403100775555,135.66570785133445 172.54263565890142,136.00207914810017 172.7648578811204,136.15008174368995 174.1085271317861,137.17263219143933 174.20155038760277,137.22645000984994 174.64599483201164,137.56953713003168 174.88888888887595,137.7309890118886 175.3695090439287,138.14134334171104 175.41085271316115,138.16825169516596 176.53229974163696,139.69527510289117 176.64599483204074,139.8634464053357 178.0516795865551,140.0988852015762 178.2480620155111,140.06525116119883 179.76744186045835,140.13251921751362 181.27131782946526,140.06525116119883 182.30490956071299,140.07870478028417 183.73643410851946,140.06525116119883 184.38759689920698,139.8634464053357 184.91989664081484,139.82981219376597" stroke="#ff5700" stroke-linecap="round" stroke-linejoin="round" stroke-width="0.5"><title>2024-03-24 28.9km</title><desc>11025858700</desc></polyline><polyline fill="none" points="81.0243307625642,261.59188545144207 81.0243307625642,261.57285665375093 81.36552528783795,261.680686397558 81.41426736288122,261.7250868028714 81.42401577788405,261.77583006791974 81.37039949535392,261.84560196102757 81.28266376029933,261.9090308579689 81.14618595014326,261.99148828615216 80.99995972504257,262.06760269697406 80.92197240499081,262.08663127894397 80.89272715995321,262.08028841921987 80.86348191494471,262.0612598344778 80.81961404741742,262.01685977117813 80.68313623729046,261.80754457860894 80.5612810496823,261.59188545144207 80.42480323958443,261.3762252585402 80.26395439196494,261.16690699336687 80.09335712931352,260.90050047654586 80.03486663926742,260.79266880502837 79.92763407417806,260.65312154047933 79.8496467541263,260.5199169171574 79.7326657740341,260.36133945450274 79.64980424646637,260.278878946192 79.56206851138268,260.14567318054833 79.23549660862773,259.7143374351763 79.0502767234866,259.4352355633855 78.98203781840857,259.352773305116 78.91379891335964,259.2385945364076 78.64084329316393,258.8579964830933 78.5433591430774,258.7438164198102 78.4117555404373,258.5408289029401 78.25090669284691,258.3124668178534 78.15342254276038,258.1475379020303 77.9487058276136,257.90014335950764 77.8024796024547,257.6844649216546 77.66600179235684,257.4560983549418 77.51490135974018,257.2467612855544 77.38329775712918,257.0945155133886 77.22732311699656,256.8598022405895 77.11034213690436,256.69486783414686 77.0616000618611,256.6124003971345 76.92512225173414,256.4411213760977 76.72527974410332,256.1493111251257 76.62292138650082,256.0351239739357 76.53031144395936,255.86384268690017 76.43282729387283,255.7115920895012 76.349965766276,255.6100913961236 76.32559472875437,255.55299715231376 76.29634948377497,255.508590466623 76.2768526537402,255.50224665068163 76.26710423873737,255.51493428162576 76.23785899369977,255.46418373570486 76.11600380609161,255.2929002074343 75.93078392095049,254.98839449697334 75.80405452585546,254.81076518447662 75.59446360319271,254.56335172269974 75.51160207562498,254.44281645102092 75.24352066288702,254.08755266066146 74.12245293700835,252.48248555027385 74.03471720192465,252.3809773446119 72.92827209853567,251.4547040577163 72.86978160848957,251.37857113212158 72.76254904340021,251.18189379272007 72.08015999285271,250.12235867780328 71.5732424124435,249.39272372679625 71.56349399741157,249.41175783706785 70.369313158968,248.41562824422726 69.14101286797086,247.50830569921163 67.73724110683543,246.44233622160027 67.0012357737287,245.8331991099185 66.96224211368826,245.82685388690152 65.6949481627089,244.87505998147753 65.33913101488724,244.62124476565077 65.17828216726775,244.48164576738782 65.0125591121323,244.37377350817405 63.86712034870288,243.53616806421996 63.77451040613232,243.46002131713612 62.911775677930564,242.52086717230486 62.36099022999406,241.46746751514365 61.980802044679876,240.8519149740314 61.858946857071714,240.82018522614817 60.36743936088169,241.39131715621988 60.31382307835156,241.2897831375085 59.65093085778062,240.23635374475998 59.636308235290926,240.13481703712023 59.12939065488172,239.3098225238973 58.295901171688456,238.04056971994578 57.14558820077218,237.8121002919179 57.072475088207284,237.8121002919179 56.14637566244346,237.88191052194816 56.048891512386035,237.9072960324047 54.630497128731804,238.45942722920518 54.494019318633946,238.47846611132263 54.42578041355591,238.47846611132263 54.40628358355025,238.50385127451227 54.30879943346372,238.54827527457746 52.437103751988616,238.529236422939 52.281129111826885,238.51654385057918 52.12515447169426,238.52289013723566 51.90581513402867,238.49750498510548 51.59386585379252,238.48481240350156 49.99025158499717,238.90366564588476 49.83915115238051,238.9100118761853 48.82531599156209,238.87828071540207 47.538525210518856,238.96712790742458 47.426418437913526,239.00520522001534 46.99748817755608,239.1130907584884 45.65708111398271,239.41770730877397 45.53035171888769,239.45578422795734 44.55063601056463,238.8021258353292 44.46290027553914,238.73866333366823 44.43365503050154,238.7259708222664 44.453151860507205,238.7323170784257 44.46290027553914,238.70058578833414 44.44340344550437,238.71327830715745 44.41903240798274,238.6942395275546 43.60016554730828,237.8057539018373 42.815418139187386,236.83474533712797 41.89419292093953,235.72408811607238 41.68947620576364,235.4956065508195 40.09561035200022,233.5978939498491 39.798283694224665,233.23611327766412 39.08664939869777,232.39829387978534 39.03303311613854,232.31578049246673 38.141053142928286,231.22405020506994 37.46353829986765,230.40523454888898 37.331934697256656,230.25924254517668 37.17596005712403,230.0624699405962 37.08335011455347,229.96725707115547 37.044356454513036,229.8720439937424 37.03948224702617,229.70700750035394 37.01511120950454,229.6435317596006 36.21086697134888,228.88816335091542 35.66495573092834,228.2279987298316 35.49923267579288,228.03756476976196 35.36275486566592,227.8534778175781 35.1775349805248,227.63765074577532 35.1044218679599,227.5360846951844 34.636497947591124,226.97746718701092 34.378164949885104,226.6346756265084 33.788385841908166,225.91099570194638 33.12061941385036,224.89528431503277 31.78508655776386,223.20026323363345 31.029584394651465,222.22892930918533 31.0100875646458,222.2670212434423 31.01496177216177,222.2670212434423 30.19609491151641,221.30836410758639 29.533202690945473,220.45761759928791 29.474712200899376,220.34968588504853 29.055530355573865,219.771929222803 29.011662488046568,219.68939193154074 28.192795627372107,218.68623389617642 27.510406576824607,217.80368969572373 27.500658161821775,217.82273760099997 27.50553236930864,217.80368969572373 27.188708881556522,217.42272984201918 26.3064773233491,216.3052283916768 25.88729547802359,215.8226620878595 25.653333517810097,215.68297084465667 24.269058586709434,215.3083421179399 22.85553841057117,214.755917610717 22.699563770438544,214.6797205773364 21.978181059850613,214.47017804854113 20.939974861510564,213.3208511059638 20.847364918940002,213.20655174163403 19.823781343118753,212.2921460328107 18.717336239729775,211.40312208424803 18.605229467124445,211.28881768905921 19.4825868178159,209.8282351309208 19.521580477885436,209.64407124524587 19.60931621294003,208.3040967765337 19.614190420426894,208.19613495415615 19.594693590450333,207.7134788295989 19.580070967931533,207.60551554356425 19.643435665464494,206.01778926072075 19.633687250461662,205.87171553584994 19.643435665464494,205.8082050679077 19.662932495499263,203.83298329377067 19.67755511798896,203.79487524063006 19.682429325504927,203.7567671541292 19.682429325504927,201.90213331699124 19.726297193032224,200.01566103709047 19.740919815551024,199.86321526445317 19.570322552899597,199.71712089831635 19.628813042945694,199.67265729829523 19.75554243804072,199.68536118864358 19.721422985516256,199.3360028538118 19.765290853043552,197.88772386776327 19.760416645585792,197.73527064646623 19.809158720599953,196.61726404962974 19.818907135602785,196.56644488597158 19.818907135602785,196.36316763837021 19.79941030559712,196.14083206230498 19.779913475562353,196.0074301718123 19.779913475562353,195.70886255511869 19.79941030559712,195.48017108127897 19.82865555063472,194.0 19.463089987810235,194.34304842062193 19.453341572807403,194.41928103597093 19.39972529024817,196.3695200667098 19.409473705280107,196.44574913465476 19.404599497793242,196.55374008581202 19.385102667758474,196.69349268388032 19.39972529024817,197.0682815282962 19.360731630207738,198.17357221926068 19.380228460242506,198.17992438353394 19.14626650005812,198.09734617562935 19.16088912257692,198.07828964389046 19.19013436761452,198.1036983510421 19.17551174509572,198.12275487166698 19.234002235141816,198.12910704334718 19.297366932674777,198.1545157208675 19.360731630207738,198.14816355287257 19.370480045239674,198.16086788791654 19.33636059271521,199.0882743364382 19.360731630207738,200.72706758764252 19.32173797019641,201.97835270189535 19.355857422749978,202.7849996836958 19.34610900771804,202.84216307621682 19.30711534767761,203.66149679202135 19.316863762709545,203.7631185042046 19.331486385228345,205.12228611395403 19.341234800231177,205.31917136330594 19.258373272663448,206.71639595439046 19.26812168766628,207.05299336198732 19.263247480150312,207.22446651307837 19.272995895153144,207.49120118438805 19.25349906514748,207.6563218291376 19.25349906514748,207.81509108967657 19.14139229254215,209.67582369485172 19.107272840017686,209.80283326191784 19.039033934968757,209.92984245872867 18.31277701689396,210.86969900774056 18.234789696813095,211.06655828441217 18.288405979372328,211.12371081103993 19.243750650144648,212.0317908976067 19.394851082761306,212.13339308667855 20.788874428893905,213.25735149612228 20.90098120147013,213.37165072720018 21.636986534576863,214.29873341182974 23.611040573683567,215.23214605054818 24.80522141212714,215.61312505510796 25.102548069873592,215.67027161852093 25.126919107395224,215.69567006707803 25.16103855991969,215.69567006707803 26.540439283533487,216.8449343746397 26.686665508663282,216.99732073620908 27.934462629666086,218.55290102639628 28.05631781727425,218.72432892692086 29.274869693239452,220.27349863173004 30.186346496484475,221.46708363296784 30.24971119404654,221.5686638258776 30.795622434467077,222.2860671980925 30.980842319637304,222.57175551897672 32.39923670326243,224.36202636223607 32.50159506086493,224.5080381169464 33.812756879400695,226.1585717650014 33.90049261448439,226.17126793545685 33.93461206700886,226.1966602652683 35.221402848052094,227.8471299777848 36.65929406171199,229.61814143742595 36.69828772175242,229.73239777076378 36.737281381792855,229.80856849330667 38.44812821564847,231.75722422583203 40.280830237141345,233.92793685699507 40.45142749976367,234.11834509009714 41.811331393400906,235.78120832034256 41.95268341098563,235.92083517127685 43.1907321169856,237.39958301509978 43.25897102203453,237.50747252588917 44.08758629774093,238.52289013723566 45.2086540236196,240.6044223282879 45.2817671361845,240.92806627476966 45.67170373650151,242.38760717560217 45.68632635899121,242.39395289897948 46.78789725489332,244.05015512979662 48.39151152368868,245.86492521113178 49.76603803981561,247.48292577628308 51.179558215953875,249.04376356677312 51.35990389357903,249.22141636068773 52.86115980480099,250.8837038772799 53.02200865242048,251.13748265788672 53.09999597250135,251.32781577457354 54.108956925803795,252.99002303600355 55.254395689233206,255.15333535393802 55.34700563183287,255.3373071126589 56.54606067779241,257.3546017194385 56.648419035365805,257.5005030587308 57.808480421314016,258.83262316151377 57.87184511884698,258.9468029924392 59.11476803236292,260.79901185189374 60.56728186854161,262.4735439794713 60.73300492367707,262.6257709869751 62.28300290991319,264.2812054105634 63.57954210595926,265.84144244747586 63.65752942604013,265.93023474783695 64.04259181884117,266.0 64.7639745294291,265.7970462295343 64.94919441457023,265.6765419818221 66.10438159300247,264.9979065848165 66.16287208307767,264.94082462172446 66.3480919682188,264.80763308423775 68.67308894757298,263.3678700451019 68.74132785262191,263.3361566682397 69.01428347287583,263.1712467370562 69.39934586567688,262.96193708090505 70.76899817428784,262.02320264012087 71.14431215208606,261.80754457860894 72.3287445755268,261.0273609254655 73.6935226766509,260.1964182820666 73.90311359931366,260.0758985696084 74.03471720192465,259.98075119308123 74.3466664821899,261.38891118174433 74.38566014220123,261.4777125408873 74.40028276472003,261.53479903349216 75.34100481297355,261.31279558722235 75.45311158554978,261.24936582373266 76.3938336338324,261.22399389251586 76.45719833139447,261.31279558722235 76.53031144395936,261.3825682206152 76.41333046383807,261.45234074242035 76.4230788788409,261.4777125408873 76.44257570887567,261.4967413800441 76.51568882144056,261.51577021092453 77.03722902433947,261.92171662627516 77.0616000618611,261.92805950906404 77.77810856496217,261.68702931536245 77.82197643248946,261.6553147171144 77.88534113002243,261.66800055918793 79.01615727096214,261.0527329709985 79.14776087354403,260.96393074710795 80.4443000695901,259.9997806849751 80.58565208723303,259.90463314250155 81.7505876806681,261.36988229556664 81.7652103031869,261.42062597360564 81.75546188815497,261.4459977905062 81.71646822811454,261.4777125408873 80.96096606503124,261.4967413800441 80.97558868752094,261.49039843458377" stroke="#ff0000" stroke-linecap="round" stroke-linejoin="round" stroke-width="0.5"><title>2024-03-16 38.6km</title><desc>10969293139</desc></polyline><polyline fill="none" points="142.7136739938287,251.46736284715007 142.7958892377792,251.5476043632225 144.50185555231292,250.63819846553088 144.68683985155076,250.34397794821416 144.66628604044672,250.26373590735602 144.54296317440458,250.04975696060865 143.10419640305918,248.49840215564473 143.06308878108393,248.52514976309612 142.85755067085847,248.4449069291586 142.8781044818461,248.36466406016552 142.91921210393775,248.39141168700007 143.08364259207156,248.52514976309612 143.3508421353763,248.20417821726005 143.26862689119298,247.9634491905308 143.26862689119298,247.69597212488588 143.22751926921774,247.90995380858658 143.08364259207156,248.01694455705 142.85755067085847,247.93670150151593 142.7136739938287,247.8297107063263 142.77533542679157,247.56223344628233 142.75478161580395,247.34825135828578 143.80302597768605,247.6424766650889 144.60462460748386,247.4819901923911 144.62517841847148,247.5354856988415 144.4813017413253,247.6424766650889 144.29631744220387,247.58898118973593 143.1247502141632,247.66922439690097 142.75478161580395,247.88320611167 142.77533542679157,247.93670150151593 142.73422780481633,247.9634491905308 142.59035112767015,248.07043990796956 142.36425920645706,247.90995380858658 142.50813588348683,247.4017469035898 142.69312018272467,247.61572892934782 145.34456180420239,249.99626218498452 145.32400799309835,250.04975696060865 147.83157293742988,248.55189736660395 148.386525835027,248.15068290519412 149.00314016558696,247.99019687577675 149.14701684273314,248.07043990796956 149.33200114197098,248.28442115624784 149.78418498428073,248.97985849468387 153.07279474742245,252.02905272503267 156.64915786474012,251.30687971007137 159.752783328644,247.90995380858658 160.69825863547157,246.97378210564784 161.6642877534032,245.87711776793003 161.86982586362865,245.79687377935625 162.3014558950672,245.82362177947653 162.44533257209696,245.77012577540881 166.02169568941463,241.57064092815563 166.53554096492007,241.0356678237149 168.65258349990472,238.4945243382681 169.82415072794538,237.29081254429184 172.04396231798455,235.6858512369654 172.49614616052713,235.41835632472066 178.4773051670054,234.69611811940558 179.1966885527363,234.74961734293902 185.40393948042765,234.18787472008262 186.0,234.24137409139075 184.25292606349103,234.13437533313117 183.924065087107,234.16112502854958 183.0402512132423,234.42862176842755 182.85526691412088,234.34837278728082 182.83471310313325,234.10762563391472 181.25206965464167,232.10138710639148 174.83928061660845,228.03534326628142 169.78304310585372,224.90549832003308 165.65172709105536,222.28387781835045 165.63117328006774,217.9768487552792 166.26834142173175,207.65026902589307 166.309449043707,206.82090716637322 166.28889523271937,206.79415349574992 166.33000285481103,206.74064614287636 162.28090208396316,206.52661657557474 157.8412789037684,206.52661657557474 153.50442477874458,206.66038508435304 148.57151013426483,206.49986286219792 141.6654296318302,206.52661657557474 140.78161575796548,206.49986286219792 138.43848130176775,206.63363139035937 136.46531544381287,206.5801239908178 134.28661147586536,206.6068776925531 132.6423065944109,206.5533702852117 132.41621467319783,206.66038508435304 125.5101341707632,206.71389246064064 125.48958035977557,206.87441449599282 125.5923494148301,207.75728318704932 125.57179560372606,207.8910508008994 125.57179560372606,208.0515718091774 125.674564658897,208.82742137469177 125.73622609197628,208.90768148780626 125.46902654867154,208.85417474962014 125.53068798175082,209.041448265285 125.63345703692175,210.0045661913755 125.674564658897,210.05807259508583 125.71567228098866,210.99443213934137 125.8389951470308,211.85052812359936 125.9212103910977,211.716763388642 125.14016557240393,211.716763388642 125.32514987164177,211.74351634336927 125.55124179285485,211.87728105894348 125.88010276900604,211.87728105894348 125.98287182406057,212.01104567716538 125.8389951470308,211.90403399034403 125.44847273768391,213.66971886331157 125.34570368251298,219.2876943609008 124.68798172997776,220.54502728894295 123.78361404512543,221.5348365281534 123.39309163577855,222.20362354027748 121.193833856727,225.09275549801532 120.3922352270456,224.45073009459884 120.10448187275324,224.0227119143674 118.5629460462369,221.98961196093296 117.22694833006244,219.98324129790126 115.87039680278394,218.13736096389766 114.57550670858473,218.2978730324685 114.0,218.244369025153 114.02055381098762,218.59214479445654 114.57550670858473,222.0163634219498 114.4727376535302,222.39088346798962 115.04824436199851,225.6545258883416 115.1921210391447,226.0557894026424 115.56208963738754,229.50661950331414 115.95261204673443,229.47986913130444 117.39137881819624,229.15886436360597 117.55580930633005,229.0786130841734 117.72023979446385,229.10536351452174 117.78190122742672,229.2658660150919 118.13131601491477,231.2721354590176 118.1518698259024,231.1918851013179 117.82300884951837,229.10536351452174 118.33685412502382,228.22259725896583 118.68626891239546,228.03534326628142 117.65857836150099,228.99836176969984 117.65857836150099,229.0786130841734 118.43962318007834,232.52938649442513 119.50842135318089,236.43483492238738 119.63174421933945,236.7825763114961 123.0436768484069,234.4821210696973 123.37253782479092,234.16112502854958 126.35284042253625,232.87713526419248 129.1276049100561,236.99657068583474 131.40907793329097,240.0994611486385 131.61461604340002,240.52744193389663 134.0810733656399,243.97800065203046 136.40365401085,247.10752121191763 136.52697687700856,247.4017469035898 139.07564944331534,251.0661547418713 141.25435341137927,253.50013713780208 141.6037681986345,253.28616195406357 142.7136739938287,251.36037410452263 142.61090493865777,251.17314365541097 142.4670282615116,251.17314365541097" stroke="#4dd2ff" stroke-linecap="round" stroke-linejoin="round" stroke-width="0.5"><title>2024-03-09 10.2km</title><desc>10921031918</desc></polyline></svg>