<?xml version="1.0" encoding="utf-8" ?>
<svg baseProfile="full" height="300mm" version="1.1" viewBox="0,0,200,300" width="200mm" xmlns="http://www.w3.org/2000/svg" xmlns:ev="http://www.w3.org/2001/xml-events" xmlns:xlink="http://www.w3.org/1999/xlink"><defs /><rect fill="#222222" height="300" width="200" x="0" y="0" /><text fill="#FFFFFF" style="font-size:12px; font-family:Arial; font-weight:bold;" x="10" y="20">Over 10km Runs</text><text fill="#FFFFFF" style="font-size:4px; font-family:Arial" x="10" y="280">ATHLETE</text><text fill="#FFFFFF" style="font-size:9px; font-family:Arial" x="10" y="290">OrdinarySk</text><text fill="#FFFFFF" style="font-size:4px; font-family:Arial" x="120" y="280">STATISTICS</text><text fill="#FFFFFF" style="font-size:3px; font-family:Arial" x="120" y="285">Number: 2</text><text fill="#FFFFFF" style="font-size:3px; font-family:Arial" x="120" y="290">Weekly: 1.0</text><text fill="#FFFFFF" style="font-size:3px; font-family:Arial" x="141" y="285">Total: 48.8 km</text><text fill="#FFFFFF" style="font-size:3px; font-family:Arial" x="141" y="290">Avg: 24.4 km</text><text fill="#FFFFFF" style="font-size:3px; font-family:Arial" x="167" y="285">Min: 10.2 km</text><text fill="#FFFFFF" style="font-size:3px; font-family:Arial" x="167" y="290">Max: 38.6 km</text><polyline fill="none" points="146.5364961438463,137.38782817716128 146.5364961438463,137.35928498062276 147.04828793177148,137.5210295963334 147.12140104430728,137.58763020430342 147.13602366685518,137.66374510187597 147.05559924303088,137.76840294153953 146.923995640449,137.8635462869497 146.7192789252149,137.9872324292228 146.4999395875784,138.10140404545382 146.38295860751532,138.12994691841595 146.33909073992982,138.12043262882798 146.29522287243162,138.09188975171128 146.22942107109702,138.02528965676174 146.02470435595023,137.7113168679134 145.84192157452344,137.38782817716128 145.63720485934755,137.0643378878085 145.39593158793286,136.7503604900412 145.14003569397028,136.35075071481697 145.05229995888658,136.18900320753892 144.8914511112671,135.9796823107099 144.774470131204,135.77987537573063 144.5989986610366,135.54200918175047 144.474706369685,135.41831841928797 144.34310276707401,135.21850977082067 143.85324491292704,134.57150615275896 143.57541508521535,134.15285334506916 143.47305672761286,134.02915995767398 143.37069837003946,133.85789180461143 142.96126493971678,133.28699472463632 142.8150387146161,133.11572462971526 142.6176333106705,132.81124335440836 142.37636003925581,132.46870022677467 142.23013381412602,132.22130685304728 141.92305874140584,131.85021503925964 141.70371940368204,131.5266973824764 141.49900268853526,131.18414753241086 141.27235203961027,130.87014192833158 141.07494663566467,130.64177327007928 140.8409846755094,130.2897033608824 140.6655132053711,130.0423017512221 140.5924000928062,129.91860059569444 140.3876833776303,129.66168206414295 140.08791961616953,129.22396668768488 139.93438207978033,129.05268596090173 139.79546716593904,128.79576403035026 139.64924094080925,128.56738813424454 139.52494864942855,128.4151370941836 139.48839209313155,128.329495728467 139.44452422566246,128.2628856999363 139.41527898059576,128.25336997601698 139.40065635810606,128.27240142243681 139.35678849054966,128.19627560355002 139.17400570915197,127.93935031114233 138.89617588144029,127.4825917454582 138.7060817887832,127.21614777671493 138.3916954047745,126.84502758404415 138.26740311342292,126.6642246765332 137.86528099433053,126.13132899098855 136.18367940548342,123.72372832540714 136.05207580287242,123.57146601691056 134.3924081478035,122.18205608656717 134.3046724127198,122.06785669818055 134.14382356510032,121.77284068907466 133.12023998924997,120.1835380167031 132.3598636186507,119.08908559018892 132.3452409961319,119.11763675559632 130.5539697384229,117.62344236633362 128.7115193019563,116.26245854881563 126.60586166023859,114.66350433239859 125.50185366059304,113.7497986648741 125.44336317054695,113.740280830345 123.54242224403424,112.3125899722072 123.00869652233087,111.93186714847252 122.76742325091618,111.72246865108173 122.518838668213,111.56066026225744 120.80068052303977,110.30425209632085 120.66176560919848,110.19003197570419 119.36766351689585,108.78130075845547 118.54148534499109,107.20120127271366 117.97120306701981,106.2778724610398 117.78842028562212,106.23027783921862 115.55115904132253,107.08697573432437 115.47073461749824,106.9346747062591 114.47639628668549,105.35453061713633 114.45446235293639,105.20222555568034 113.69408598230802,103.96473378584051 112.44385175753268,102.06085457991867 110.71838230115827,101.71815043787501 110.60871263229637,101.71815043787501 109.21956349367974,101.82286578291678 109.07333726857905,101.86094404860341 106.94574569311226,102.6891408438023 106.74102897793637,102.71769916697667 106.63867062036297,102.71769916697667 106.60942537532537,102.75577691176295 106.46319915022468,102.82241291186074 103.65565562795382,102.79385463440121 103.42169366776943,102.77481577586877 103.18773170755594,102.78433520584804 102.85872270105756,102.74625747765822 102.39079878068878,102.72721860525053 99.9853773774812,103.3554984688235 99.75872672855621,103.36501781427796 98.23797398732859,103.31742107310129 96.30778781577828,103.45069186113687 96.13962765687029,103.50780783002119 95.49623226633412,103.6696361377326 93.48562167098862,104.12656096315914 93.29552757833153,104.18367634193419 91.8259540158615,103.20318875298835 91.69435041330871,103.10799500049325 91.65048254575231,103.08895623339777 91.67972779076081,103.09847561763308 91.69435041330871,103.0508786825012 91.66510516824201,103.0699174607289 91.62854861197411,103.0413592913319 90.40024832097697,101.7086308527505 89.22312720879563,100.2521180056865 87.8412893814093,98.58613217410311 87.53421430866001,98.2434098262238 85.14341552797123,95.39684092477546 84.69742554135155,94.85416991649254 83.62997409803211,93.59744081967074 83.54954967420781,93.473670738691 82.21157971437788,91.83607530759764 81.19530744978692,90.60785182333348 80.99790204589954,90.38886381775956 80.76394008568604,90.09370491089066 80.62502517184475,89.95088560672593 80.56653468176955,89.8080659906118 80.55922337053926,89.56051125052909 80.52266681427136,89.46529763939907 79.31630045702332,88.33224502637313 78.49743359637796,87.34199809474376 78.24884901367477,87.05634715464112 78.04413229852798,86.78021672636532 77.7663024707872,86.45647611866298 77.6566328019253,86.30412704277114 76.95474692137213,85.4662007805091 76.56724742482766,84.95201343976078 75.6825787628477,83.86649355291593 74.68092912077555,82.34292647254915 72.67762983666034,79.80039485044836 71.5443765920063,78.34339396377618 71.5151313469687,78.40053186516161 71.5224426582281,78.40053186516161 70.29414236726006,76.96254616137594 69.29980403641821,75.68642639892641 69.21206830136362,75.52452882756916 68.58329553337535,74.65789383419906 68.51749373206985,74.53408789730747 67.28919344107271,73.02935084426281 66.26560986525146,71.70553454358014 66.25098724270356,71.73410640149086 66.25829855396296,71.70553454358014 65.78306332233478,71.13409476302331 64.45971598502365,69.45784258751519 63.83094321703538,68.73399313178379 63.4800002767297,68.52445626698318 61.4035878800496,67.96251317690621 59.283307615842205,67.13387641607551 59.04934565562871,67.01958086599916 57.96727158976137,66.70526707280806 56.409962292265845,64.98127665894572 56.27104737839545,64.80982761244377 54.735672014649026,63.43821904921788 53.07600435958011,62.10468312636658 52.90784420070122,61.933226533583365 54.223880226752954,59.74235269637575 54.28237071679905,59.4661068678688 54.413974319410045,57.45614516479691 54.42128563064034,57.29420243122877 54.39204038566095,56.57021824439289 54.37010645188275,56.40827331534092 54.46515349819674,54.02668389107566 54.450530875707045,53.80757330376946 54.46515349819674,53.71230760185426 54.49439874323434,50.74947494065418 54.51633267698344,50.692312860941456 54.52364398824284,50.63515073119197 54.52364398824284,47.85319997548504 54.589445789548336,45.0234915556357 54.61137972329743,44.79482289667794 54.355483829334844,44.57568134747271 54.44321956441854,44.508985947439214 54.63331365707563,44.528041782963555 54.582134478288935,44.00400428071589 54.64793627956533,41.83158580164309 54.640624968364136,41.60290596969571 54.71373808089993,39.92589607444097 54.728360703389626,39.84966732895555 54.728360703389626,39.544751457549864 54.69911545838113,39.21124809345929 54.66987021334353,39.011145257718454 54.66987021334353,38.56329383267439 54.69911545838113,38.22025662192027 54.74298332593753,36.0 54.19463498171535,36.51457263093471 54.18001235922566,36.62892155395093 54.09958793540136,39.5542801000629 54.11421055792016,39.668623701974866 54.10689924666076,39.830610128716216 54.07765400165226,40.040239025816845 54.09958793540136,40.602422292446136 54.04109744532616,42.26035832888738 54.07034269036376,42.26988657529728 53.71939975008718,42.146019263440394 53.74133368386538,42.11743446582841 53.78520155142178,42.15554752656317 53.76326761764358,42.18413230749866 53.85100335269817,42.193660565018945 53.946050399012165,42.2317735812976 54.04109744532616,42.22224532929977 54.05572006784496,42.24130183186935 54.00454088905826,43.63241150465183 54.04109744532616,46.09060138146015 53.98260695528006,47.96752905283938 54.03378613409586,49.17749952554004 54.01916351157706,49.26324461432523 53.960673021530965,50.49224518803385 53.975295644049766,50.64467775630328 53.99722957785707,52.68342917092377 54.011852200346766,52.97875704495527 53.88755990899517,55.07459393158206 53.90218253148487,55.57949004297552 53.894871220196364,55.836699769613915 53.90949384274427,56.23680177657661 53.88024859770667,56.484482743704575 53.88024859770667,56.72263663451304 53.71208843882778,59.5137355422703 53.66090926004108,59.7042498928713 53.55855090246769,59.89476368808391 52.46916552534094,61.30454851160175 52.35218454521964,61.599837426612794 52.43260896904394,61.685566216554435 53.86562597521697,63.04768634640641 54.09227662414196,63.20008963001601 56.183311643311754,64.8860272441816 56.35147180221975,65.05747609079845 57.4554798018944,66.44810011774098 60.41656086049625,67.84821907582227 62.20783211817616,68.41968758266012 62.653822104795836,68.50540742777957 62.690378661092836,68.5435051006134 62.74155783987953,68.5435051006134 64.81065892530023,70.26740156195592 65.02999826296582,70.49598110430816 66.90169394447003,72.82935153958533 67.08447672589682,73.08649339037947 68.91230453987373,75.41024794759142 70.27951974471216,77.20062544944813 70.37456679105526,77.35299573881639 71.19343365172972,78.42910079713329 71.4712634794414,78.85763327846507 73.5988550549082,81.54303954335046 73.7523925912974,81.76205717541598 75.7191353191156,84.2378576475021 75.85073892172659,84.25690190317982 75.90191810051329,84.29499039789516 77.83210427209269,86.77069496667536 79.98894109253888,89.4272121561371 80.04743158264318,89.59859665614204 80.10592207268928,89.71285273995454 82.67219232348725,92.63583633874077 85.42124535574112,95.8919052854908 85.6771412496455,96.17751763514389 87.7169970900868,98.67181248050474 87.929025116493,98.88125275690982 89.7860981754784,101.09937452264421 89.8884565330518,101.26120878882648 91.13137944659684,102.78433520584804 92.81298103544395,105.90663349242823 92.92265070427675,106.39209941215086 93.50755560476682,108.58141076339962 93.52948953851592,108.59092934846558 95.18184588232543,111.07523269469675 97.58726728553302,113.79738781668857 99.64905705972342,116.22438866442099 101.76933732390171,118.56564535015787 102.0398558403831,118.83212454102613 104.29173970720149,121.32555581591441 104.53301297864527,121.7062239868319 104.64999395873747,121.99172366185667 106.1634353887057,124.4850345540035 107.88159353384981,127.73000303090521 108.02050844774931,128.00596066898288 109.81909101668862,131.03190257915412 109.97262855304871,131.25075458809442 111.71272063194192,133.248934742267 111.80776767828502,133.42020448865514 113.67215204852982,136.19851777783333 115.85092280284152,138.7103159692051 116.09950738551561,138.93865648045903 118.42450436486979,141.42180811584694 120.3693131589389,143.7621636712065 120.48629413903109,143.89535212175542 121.06388772826176,144.0 122.14596179412911,143.69556934430148 122.42379162184079,143.5148129727313 124.15657238950371,142.49685987722478 124.2443081245874,142.41123693258123 124.52213795229909,142.211449626353 128.00963342137402,140.05180506764736 128.1119917789474,140.00423500235775 128.5214252093283,139.75687010557886 129.09901879852987,139.44290562135575 131.15349726143177,138.0348039601813 131.71646822811454,137.7113168679134 133.49311686330475,136.5410413881982 135.54028401497635,135.29462742309988 135.85467039898504,135.11384785440896 136.05207580287242,134.97112678962003 136.5199997232703,137.08336677261104 136.5784902133164,137.21656881132367 136.6004241470655,137.3021985502346 138.01150721946033,136.96919338082807 138.17966737833922,136.8740487355899 139.59075045073405,136.8359908387647 139.68579749707715,136.96919338082807 139.79546716593904,137.07385233091918 139.61999569577165,137.17851111362688 139.63461831826135,137.21656881132367 139.66386356329895,137.24511207006435 139.77353323216084,137.27365531638497 140.5558435365092,137.8825749394091 140.5924000928062,137.89208926359424 141.66716284741415,137.5305439730364 141.73296464874875,137.48297207566793 141.82801169503364,137.50200083878008 143.52423590642866,136.5790994564959 143.72164131031604,136.44589612065465 145.66645010441425,134.99967102745723 145.87847813082044,134.8569497137505 147.62588152097305,137.0548234433445 147.64781545475125,137.13093896040664 147.63319283223245,137.16899668575206 147.57470234215725,137.21656881132367 146.4414490975323,137.24511207006435 146.4633830312814,137.23559765187383" stroke="#ff0000" stroke-linecap="round" stroke-linejoin="round" stroke-width="0.5"><title>2024-03-16 38.6km</title><desc>10969293139</desc></polyline><polyline fill="none" points="89.07051099056844,242.20104427071055 89.19383385661058,242.32140654482646 91.75278332841117,240.9572976983036 92.03025977720972,240.5159669223358 91.99942906061187,240.39560386104858 91.81444476160686,240.07463544092025 89.65629460453056,237.7476032334671 89.5946331715677,237.7877246446442 89.2863260061713,237.6673603937379 89.31715672276914,237.546996090241 89.37881815584842,237.58711753052194 89.62546388804913,237.7877246446442 90.02626320288982,237.3062673259119 89.90294033673126,236.94517378581804 89.90294033673126,236.5439581873361 89.8412789037684,236.86493071287987 89.62546388804913,237.02541683556046 89.2863260061713,236.90505225225934 89.07051099056844,236.74456605949672 89.16300314012915,236.3433501694235 89.1321724235313,236.02237703744322 90.70453896652907,236.46371499763336 91.90693691116758,236.22298528859392 91.93776762764901,236.30322854829137 91.72195261192974,236.46371499763336 91.44447616313118,236.38347178461845 89.6871253211284,236.503836595366 89.1321724235313,236.824809167505 89.16300314012915,236.90505225225934 89.10134170704987,236.94517378581804 88.8855266913306,237.1056598619616 88.54638880956918,236.86493071287987 88.76220382517204,236.10262035540654 89.03968027397059,236.42359339402174 93.01684270624537,239.99439327747677 92.98601198964752,240.07463544092025 96.74735940608662,237.8278460499132 97.57978875248227,237.22602435780573 98.50471024832223,236.9852953136724 98.7205252640415,237.1056598619616 98.99800171284005,237.42663173438632 99.67627747636288,238.46978774204035 104.60919212095905,243.04357908753445 109.97373679699376,241.96031956511433 114.62917499279138,236.86493071287987 116.04738795314915,235.4606731584936 117.49643162998836,233.81567665189505 117.80473879526835,233.69531066904892 118.45218384254258,233.73543266922934 118.66799885802902,233.65518866310595 124.03254353406373,227.35596139225527 124.8033114472637,226.5535017355869 127.97887524974067,222.74178650739486 129.73622609185986,220.93621881643776 133.06594347697683,218.5287768554699 133.7442192407325,218.127534487081 142.71595775033347,217.04417717910837 143.79503282892983,217.12442601440125 153.10590922052506,216.28181208012393 154.0,216.36206113710068 151.37938909500372,216.2015629997186 150.8860976306023,216.2416875428171 149.56037681980524,216.64293265264132 149.2829003710067,216.52255918094306 149.25206965452526,216.16143845088664 146.8781044818461,213.15208065957995 137.25892092485446,207.0530148994294 129.67456465878058,202.35824748006416 123.47759063646663,198.42581672751112 123.4467599199852,191.9652731329261 124.402512132423,176.47540353884688 124.46417356550228,175.23136074954527 124.43334284890443,175.1912302436249 124.49500428210013,175.1109692143218 118.42135312582832,174.78992486337665 111.76191835559439,174.78992486337665 105.25663716800045,174.99057762653683 97.85726520128082,174.74979429331142 87.49814444768708,174.78992486337665 86.17242363689002,174.74979429331142 82.65772195265163,174.95044708554633 79.6979731656611,174.87018598621944 76.42991721373983,174.91031653882237 73.96345989149995,174.83005542782485 73.62432200973853,174.99057762653683 63.26520125602838,175.07083869096823 63.234370539546944,175.31162174398196 63.38852412207052,176.63592478059581 63.35769340547267,176.8365762013418 63.35769340547267,177.07735771377338 63.511846988345496,178.24113206204493 63.60433913778979,178.36152223171666 63.2035398229491,178.28126212445204 63.29603197250981,178.56217239794205 63.450185555266216,180.00684928707778 63.511846988345496,180.08710889265058 63.57350842130836,181.49164820901933 63.7584927205462,182.77579218539177 63.881815586588345,182.57514508298482 62.71024835854769,182.57514508298482 62.98772480734624,182.61527451506117 63.32686268910766,182.8159215884225 63.820154153509066,182.8159215884225 63.97430773603264,183.0165685157408 63.7584927205462,182.85605098551605 63.172709106467664,185.5045782949892 63.01855552371126,193.93154154135846 62.03197259490844,195.81754093343625 60.67542106762994,197.30225479224464 60.08963745366782,198.30543531043804 56.79075078491587,202.63913324702298 55.58835284039378,201.6760951419128 55.15672280907165,201.03406787157292 52.84441906923894,197.98441794139217 50.840422495035455,194.97486194685916 48.80559520400129,192.20604144586832 46.86326006276067,192.44680954871 46.0,192.36655353775132 46.03083071636502,192.88821719170664 46.86326006276067,198.02454513293924 46.70910648012068,198.5863252019917 47.572366542881355,203.48178883251967 47.78818155860063,204.08368410397088 48.343134456081316,209.2599292549712 48.92891807004344,209.21980369696394 51.087068227119744,208.73829654540168 51.33371395932045,208.6179196262674 51.58035969152115,208.6580452717899 51.672851841081865,208.89879902265966 52.19697402219754,211.90820318853366 52.22780473867897,211.78782765197684 51.73451327427756,208.6580452717899 52.50528118747752,207.33389588844148 53.02940336847678,207.0530148994294 51.48786754219327,208.49754265454249 51.48786754219327,208.6179196262674 52.659434770117514,213.7940797416377 54.262632029596716,219.65225238358835 54.447616328834556,220.17386446724413 59.56551527255215,216.72318160455325 60.05880673706997,216.2416875428171 64.52926063362975,214.31570289630326 68.69140736502595,220.4948560287594 72.11361689982004,225.14919172297232 72.42192406498361,225.7911629008595 76.12161004845984,230.9670009780384 79.6054810162168,235.66128181788372 79.79046531545464,236.10262035540654 83.61347416497301,241.5992321128142 86.88153011689428,245.25020570671768 87.40565229789354,244.92924293110264 89.07051099056844,242.04056115678395 88.91635740781203,241.75971548311645 88.70054239220917,241.75971548311645" stroke="#4dd2ff" stroke-linecap="round" stroke-linejoin="round" stroke-width="0.5"><title>2024-03-09 10.2km</title><desc>10921031918</desc></polyline></svg>