<?xml version="1.0" encoding="utf-8" ?>
<svg baseProfile="full" height="300mm" version="1.1" viewBox="0,0,200,300" width="200mm" xmlns="http://www.w3.org/2000/svg" xmlns:ev="http://www.w3.org/2001/xml-events" xmlns:xlink="http://www.w3.org/1999/xlink"><defs /><rect fill="#222222" height="300" width="200" x="0" y="0" /><text fill="#FFFFFF" style="font-size:12px; font-family:Arial; font-weight:bold;" x="10" y="20">Over 10km Runs</text><text fill="#FFFFFF" style="font-size:4px; font-family:Arial" x="10" y="280">ATHLETE</text><text fill="#FFFFFF" style="font-size:9px; font-family:Arial" x="10" y="290">OrdinarySk</text><text fill="#FFFFFF" style="font-size:4px; font-family:Arial" x="120" y="280">STATISTICS</text><text fill="#FFFFFF" style="font-size:3px; font-family:Arial" x="120" y="285">Number: 11</text><text fill="#FFFFFF" style="font-size:3px; font-family:Arial" x="120" y="290">Weekly: 1.4</text><text fill="#FFFFFF" style="font-size:3px; font-family:Arial" x="141" y="285">Total: 274.9 km</text><text fill="#FFFFFF" style="font-size:3px; font-family:Arial" x="141" y="290">Avg: 25.0 km</text><text fill="#FFFFFF" style="font-size:3px; font-family:Arial" x="167" y="285">Min: 10.2 km</text><text fill="#FFFFFF" style="font-size:3px; font-family:Arial" x="167" y="290">Max: 61.1 km</text><polyline fill="none" points="13.083473861770472,60.8653352457477 13.053119730204344,60.90483621694875 13.151770657714223,61.102340728466515 13.02276559866732,61.19121757134417 13.0,61.24059354492056 13.007588532898808,61.25046873535757 13.02276559866732,61.24059354492056 13.88026981454459,61.398596419276146 14.039629005041206,61.467722561261326 14.145868465449894,61.90222812915454 13.918212478922214,62.05035439218045 15.246205733565148,64.87456670129905 15.329679595277412,64.99306255394185 15.382799325452652,65.02268648483732 15.51939291736926,65.1708059454977 16.118887015181826,66.15826076549274 16.908094435115345,67.25431881211989 17.05986509277136,67.45180486878962 17.34064080947428,67.87639794716961 18.74451939293067,69.86108854919439 18.782462057337398,70.14743215986528 18.782462057337398,70.31528819825326 18.75969645869918,70.35478367645555 18.281618887005607,70.58188223061006 17.735244519397384,70.71024194727943 17.484822934231488,70.73986338591203 16.725969645864097,70.95708687481238 16.483136593567906,71.00645575275848 15.231028667796636,71.34216317143 14.950252951093717,71.6383742225662 14.16863406408811,71.88521577892243 14.039629005041206,71.95433125404088 13.591905564942863,72.26041322751553 13.614671163581079,72.29990757529595 15.655986509314971,71.78647926398116 17.902192242851015,71.20393090574362 19.328836424974725,70.96696065324795 20.823777403042186,71.14468842010683 21.415682967955945,71.25329960433737 21.893760539620416,71.37178433465306 23.434232715022517,71.480395155937 23.441821247921325,71.460647746826 23.50252951096627,71.47052145210182 24.451096121425508,72.12218282955291 24.466273187164916,72.28016040425427 25.69561551429797,73.01080191061192 25.771500843169633,73.00092842907907 28.268128161900677,72.75409092508198 29.28499156833277,72.56649382246542 29.565767284977483,72.49737896991428 30.30944350757636,72.14193004644767 30.58263069143868,71.93458398260555 31.280775716673816,71.26317333976476 31.629848229378695,70.9965819800127 31.827150084311143,70.83860142149933 32.00927487350418,70.72998957447999 32.23693086003186,70.680620495732 32.53288364247419,70.65099903124064 33.60286677908152,70.71024194727943 33.75463743676664,70.73986338591203 33.92158516019117,70.73986338591203 34.68802698145737,70.81885382586188 35.24957841486321,70.84847521714255 35.902192242851015,70.90771796103218 36.615514333883766,70.93733931363386 36.84317032038234,70.95708687481238 36.97976391232805,70.98670820586267 37.33642495784443,71.03607706224284 37.33642495784443,71.01632952401269 37.56408094437211,71.01632952401269 40.65261382798781,70.21654940235021 40.88785834738519,70.17705384382134 41.320404721744126,70.07831484704366 44.31028667790815,69.85121461007657 47.46711635749671,70.08818875319412 50.449409780761926,70.2856665745494 50.66188870152109,70.2856665745494 52.68802698145737,70.12768436335318 55.723440134868724,68.69595382856642 55.79173693084158,68.64658327212965 55.875210792553844,68.60708680110838 56.14080944348825,68.55771618011931 57.21838111296529,68.08375639336737 57.38532883638982,67.90602062107791 57.468802698131185,67.77765560753323 58.65261382798781,65.34854887209804 58.66779089375632,65.06218503923446 58.59949409781257,64.01546558961854 58.42495784148923,62.77123092919646 58.10623946035048,59.57166574713483 58.1290050590178,59.40378316679562 58.40219224282191,57.73481024867215 58.86509274871787,56.362073983727896 60.27655986510217,54.38686522201169 62.06745362561196,51.443697628346854 63.75210792577127,49.25105365114723 67.0,48.33249257118587 66.84822934231488,46.98919808938081 66.6129848229175,47.04846164138144 63.95699831363163,47.86826880565786 63.77487352443859,47.90777733474533 61.77150084316963,49.62637610922684 61.66526138281915,49.764652281555755 60.13237774031586,52.1153041469006 59.91231028668699,52.4214755033463 59.79089376053889,52.64863400517788 58.3870151770534,54.66339790586062 57.241146711603506,56.75710884483851 57.21838111296529,56.98425284992845 56.81618887014338,59.384032247719006 56.81618887014338,59.4235340801315 57.059021922410466,62.11947987109306 57.08937605394749,62.35648097921512 57.32462057331577,64.85481737244118 57.32462057331577,64.9436893071179 57.29426644183695,65.08193430785468 55.93591905562789,66.94821429003787 55.875210792553844,67.00746043419349 55.26812816190068,67.44193057958182 54.95699831363163,67.58017049784394 54.86593591904966,67.64929035150999 54.62310286675347,67.75790712238813 54.418212478922214,67.94551749951643 54.45615514332894,67.95539171554992 51.337268128147116,68.93293200023618 50.69983136592782,68.99217641403811 50.43423271502252,68.99217641403811 48.47639123102999,68.8045689264909 45.22091062396066,68.36023333736375 42.37521079258295,68.33061086144153 42.162731871852884,68.35035918015637 38.7175379426626,68.89343569571065 37.51854974706657,69.0316726612291 37.26053962900187,69.10079103853059 34.710792580095585,69.21927952179249 34.43760539626237,69.19953145558975 31.75126475543948,69.34764181220089 30.916526138287736,69.53524780049338 30.741989881935297,69.65373552624806 29.04215851603658,70.94721309493616 28.852445193915628,70.98670820586267 27.000843170302687,71.34216317143 24.784991568303667,71.24342586749117 24.89881956152385,71.31254199530667 24.913996627321467,71.37178433465306 24.89881956152385,71.39153176962282 24.76222596966545,71.40140548493946 23.26728499159799,71.3816580528437 21.552276559872553,71.29279453739582 21.52192242833553,71.36191061499994 21.50674536259612,71.42115291130904" stroke="#4dd2ff" stroke-linecap="round" stroke-linejoin="round" stroke-width="0.5"><title>2024-05-19 16.6km</title><desc>11445695851</desc></polyline><polyline fill="none" points="113.82803414529917,82.41520933995162 113.33471908148931,81.70236259226658 112.8001133295329,81.20165699497738 111.71568946680054,80.38692203123173 111.50271644366876,80.23698444791808 111.35493924393813,80.1125070854705 110.31397926349018,79.34865127963167 110.25312982830656,79.28640985497441 110.22705149894318,79.28075153376267 110.11621859914885,79.19587651804068 110.05319596984918,79.14778051137364 109.48816550029733,78.62437510074415 109.39906454163429,78.48291176062594 109.04483390110545,77.83782588339636 109.03179473642376,77.8236790234696 109.0100627952852,77.80953215326008 108.40808802579704,78.0075873996102 108.34941178472218,78.03871018348946 107.92346573845134,77.44170991506508 107.884348244399,77.36248575304853 107.66268244481034,77.03426792871505 107.26281472788833,76.5023169297765 107.23239001030015,76.47968039420994 106.49567720577033,76.47119168658537 106.42396180001379,76.48250996259958 105.83285300109856,76.70887409927309 105.76331078945805,76.72868083584581 105.02877117902972,76.75980566683393 104.42896960366488,76.7230217703127 103.57707751110138,76.92957659515378 103.4814569700975,76.91825857938966 102.65781640102068,76.95504210655963 102.26446826643951,77.02294997388344 101.52558226780093,77.21818377135969 101.4864647737486,77.2153543100394 100.98445693348913,76.64379467989966 99.9348041765843,75.37328759506454 99.3676005129164,74.70828976129633 98.87211225499777,74.10552739028935 98.8199555962783,74.05458886868473 98.28317665019131,73.39520595859722 97.82245949809294,72.78957276399888 97.7485708982349,72.75278135447661 96.66197384139377,71.41975331488538 96.51202344754711,71.21313993643162 96.44465443002991,71.15087246015355 96.36641944193252,70.98388142521071 96.29253084206721,70.89897017919611 96.22298863044125,70.79424579819351 95.46671707888163,69.82905669200773 95.44715833185182,69.81773454120594 95.42977277893806,69.7894291353332 95.37761612021131,69.75546259386101 94.92341855045379,69.18934482875375 94.31709739273356,68.39109075712258 94.2844994810439,68.33730650221878 93.7259885938256,67.64092849642657 93.69991026445496,67.59846561558697 93.17399728894816,66.93603265839374 92.92190677176404,66.63877975956711 92.85888414247165,66.59631468847874 92.51117308428366,66.50006018371278 91.99612607933523,66.33586022205418 91.92658386769472,66.29339448886094 91.14206079266296,66.01028722882984 91.11380926919082,65.99046956612801 90.53356644083397,65.31948819973695 90.13152552980318,65.00239189525382 89.65994240713917,64.56920732848812 89.69036712473462,64.52673773337301 89.87074223616219,64.33420773763464 89.90768653609848,64.28324359581529 90.11631317101273,63.45081035139083 90.12935233569442,63.13651505337293 90.12065955924481,62.52773041588625 90.12935233569442,62.36632849801936 90.12283275336085,61.287449652245414 90.13587191802799,61.20249601663636 90.14456469449215,60.30762848100676 90.17064302384824,59.47502481861193 90.16195024739864,59.44670433837018 90.17933580030513,58.319515687288 90.19020177087805,58.27986464388414 90.20324093555973,57.17526731562975 90.22714607080707,56.84104343239051 90.2206264884735,56.591787977407876 90.23149245903915,55.504090358464964 90.25105120606167,54.67411342182277 90.24018523549603,54.57496704643199 90.29886147655634,52.89223418419715 90.29451508833881,52.83840698779932 90.33580577649263,52.096143057004156 90.31624702946283,51.69950183795663 90.3271130000503,51.419014939983754 90.29451508833881,51.025193160650815 90.28582231187465,50.67669671954718 90.2923418942155,50.60586334428808 90.27060995309148,49.93435010272515 90.25322440016316,49.88901503807938 90.25105120606167,49.85218022008121 90.24018523549603,49.10130138160275 90.25322440016316,48.51474562172007 90.24453162372083,48.33905880314887 90.25539759428648,48.09819525667808 90.24887801194564,48.0273524680706 90.26626356485212,47.80632130508093 90.25539759428648,47.18005266834916 90.28364911776589,46.37239132161085 90.30103467067966,44.70878637835449 90.28364911776589,43.818826690812784 90.29016870010673,43.7309622139619 90.28582231187465,42.30806914128152 90.27712953542505,42.217363254625525 90.30103467067966,41.88571624525321 90.27712953542505,41.87721240119936 90.29451508833881,41.65044185104125 90.29886147655634,41.01830494400565 90.28147592364985,40.78585480093352 90.2923418942155,40.726324438079246 90.30320786478114,40.510879692610615 90.2923418942155,40.36063391394782 90.25974398251856,40.179203497520575 90.2054141296685,40.00344116278575 90.1380451121513,39.85602636326621 89.96201638893399,39.626397231473675 89.89247417730076,39.55268853854977 89.8729154302855,39.57253321421376 89.43827660754323,39.19264589608065 88.88411210855702,38.756049785890355 88.35602593894146,38.30810329918677 88.24519303913985,38.191862329742435 87.62365952262917,37.64466986757907 87.11078571179678,37.1740152915645 87.08905377065821,37.16267407646592 87.07384141187504,37.17685059430369 87.07818780009984,37.148497548252635 87.30854637615266,36.811093117426935 87.34766387019044,36.777068815257735 87.57150286389515,36.49069523894104 87.9452922514538,36.04269640626262 88.33864038602769,35.628713597332535 88.26692498027842,35.53797645795021 88.29083011552575,35.48126553014663 88.28431053317763,35.45291000402722 87.74318519888038,34.89713331802159 87.69754812249448,34.84325615936723 87.24335055273696,34.42357632311359 87.2085794469167,34.40089066769178 87.07601460597652,34.26194044885233 86.32843583088106,33.57568190218262 86.2806255603864,33.51896523274081 86.11980919597409,33.40269554151746 85.65474565563636,33.28358928091802 85.40048194434348,33.2438870313963 84.87456896883668,33.19284116250128 83.6206359652424,33.028359114823616 83.37723822451517,33.03970274913627 82.45797711443447,33.0 82.45145753208635,33.028359114823616 82.43407197917259,33.05104637680233 82.36018337931455,33.031195024021144 82.29716075002216,33.03970274913627 82.1624227149805,33.03686684117747 82.1624227149805,33.05104637680233 82.18415465610451,33.04253865667306 82.71658721395215,33.04253865667306 82.71658721395215,33.03686684117747 82.71224082573463,33.05104637680233 82.73179957274988,33.03970274913627 82.82524691963772,33.03686684117747 82.82959330786252,33.03403093281122 82.94911898412101,33.0453745638024 82.97954370170919,33.03686684117747 83.18599714250013,33.03970274913627 83.3641990598262,33.031195024021144 83.48372473607742,33.096420821098945 83.48155154196866,33.1049285175759 83.23380741301662,33.14179515916112 82.84045927843545,33.15313872707884 82.76657067857013,33.16448228835179 82.62096667295555,33.17015406649807 82.75787790211325,33.19567704762994 82.77309026091098,33.19284116250128 82.70137485516898,33.16164639865747 82.19502062667743,33.15313872707884 82.25587006186106,33.17015406649807 82.40799364981649,33.15597461801735 82.41885962038214,33.16164639865747 82.88826954893011,33.18149761782115 83.41852891267627,33.16448228835179 83.95530785874871,33.187169390992494 84.7137526044171,33.289261024212465 85.15925739772501,33.36299353598406 85.194028503538,33.37433697442975 85.194028503538,33.36866525603364 85.72646106138563,33.42821821641519 86.19804418405693,33.618219295347444 86.50229135997506,33.91030687359671 86.5544480187018,33.95284353235547 87.00429920023453,34.39805495890323 87.01081878257537,34.395219249687216 87.01299197668413,34.40372637607106 86.99995281200972,34.417904911753794 87.13251765293535,34.52849713408068 87.1542495940812,34.53700420196583 87.48674829346419,34.86877693740098 87.70841409306013,35.06727073066395 88.03439321011683,35.34799419671981 88.0409127924504,35.33948748475814 88.17565082750662,35.64856228995632 88.14087972167908,35.67124648521349 87.87357684569724,36.008670755427374 87.63017910497001,36.29221602081452 87.56498328156158,36.38011421097144 87.28681443500682,36.70618466063206 86.98908684142953,37.07194411678938 86.8608683887287,37.210874194832286 87.13469084705866,37.42919087737937 87.71058728717617,37.96788386247499 87.75839755767083,38.00190607480181 87.88661601039348,38.112477852560914 88.36471871538379,38.46970544024589 88.81239670280775,38.860947151189976 89.24920871965878,39.291870913730236 89.29701899016072,39.314550846460406 89.6077857484197,39.59804776735291 89.99896068887756,40.028955148929526 90.0272122123497,40.08281789833018 90.10327400633832,40.65261992609885 90.08371525930852,40.97294903732836 90.09892761809897,41.57390619186481 90.10762039455585,43.02519762214433 90.09675442398293,43.18109160929271 90.10544720043981,43.353990747698845 90.10327400633832,43.8018206941033 90.0924080357654,45.295457217347575 89.65994240713917,45.3606417708761 89.11012429638504,45.366309982569874 88.82978225571424,45.252945433991044 88.82978225571424,44.84482757337901 88.8384750321784,44.78247547742649 88.81674309103255,44.73996256981445 88.80370392635814,44.731459977112536 88.81022350869898,44.754133549377 88.79066476166918,44.754133549377 88.760240044081,44.72579157991095 88.79283795578522,44.745630962886935 88.81456989691651,44.748465158796535 88.79066476166918,44.640765423047924 88.76893282053061,45.301125448089806 88.77762559698749,45.44566477238914 88.79066476166918,45.468337509850244 88.80805031458294,45.45700114443389 89.28832621369656,45.46266932796607 89.28397982547904,45.45700114443389 89.38177356059168,45.45700114443389 89.89899375964887,45.47400569007732 90.07936887106916,45.47400569007732 90.09458122987417,45.4881761333927 90.09675442398293,46.05215137322739 90.08806164753332,46.397896930928255 90.09458122987417,46.38372715211153 90.09675442398293,46.389395064878045 90.06632970640203,47.23956322703816 90.05763692994515,48.1236985972555 90.06632970640203,48.160536696685085 90.06632970640203,48.26538321224871 90.04894415348099,48.50907832982739 90.05546373582911,48.64225925180108 90.0467709593795,48.84344571957081 90.03590498880658,48.88311604446608 90.03373179469781,49.17214024918758 90.04894415348099,49.208976358127984 90.07719567696768,49.211809902071764 90.05546373582911,49.231644698098535 90.06198331816267,49.58583407069818 90.07502248285164,49.639670289307105 90.1141399768967,51.325518406461924 90.10110081221501,51.62583900474419 90.10544720043981,51.71366773536465 90.07502248285164,52.10747554414411 90.07502248285164,52.436114792995795 90.09023484164936,52.65426018700782 90.03373179469781,52.940395233377785 90.00765346532717,53.01122008861421 90.09458122987417,53.30301576640704 90.09675442398293,54.08489323871254 90.07502248285164,54.81291749663069 90.01417304766801,55.66554932546751 90.02286582412489,55.73636423821699 89.97505555361568,56.52380866155181 90.02069263000885,57.206423486151834 90.00330707710236,57.88901431171689 90.00765346532717,58.636721119617505 89.99026791242068,59.25695605529836 89.99678749476152,59.26545228672694 89.98157513595652,59.891331112106855 89.98809471830464,60.715421332628466 89.98157513595652,61.497000364577616 89.95115041836834,62.4342873637579 89.95115041836834,63.07705320869172 89.93159167134581,63.77076340406893 89.92507208900497,63.79907757968613 89.73165781288844,64.20396577612519 89.6947135129667,64.24360472641092 89.55345589556237,64.5720386315279 89.5925733896147,64.58902644110276 90.0924080357654,65.05335415040827 90.4705438115343,65.31382581111575 91.03992066932551,65.97631408038797 91.72447681512858,66.28207027766803 92.58506168414169,66.55668053838053 93.06316438915383,66.87658244245358 93.11532104788057,66.95584935662191 93.56734542352933,67.52486306896208 93.62167527636484,67.58148043726214 94.07152645789756,68.15613739038236 94.57570749226579,68.82985148628359 95.52973970816674,70.07814234082616 96.09694337184192,70.79424579819351 96.60764398855099,71.37446837879179 97.16615487576928,72.09052407441595 97.76378325702535,72.8801359369063 97.82245949809294,72.92258727894841 98.43530023815401,73.62160604571545 99.1024708310506,74.42813492754249 100.24774412895204,75.78642372977083 100.68238295168703,76.32122390737459 100.72367363984813,76.38630440646557 101.13658052144456,76.92957659515378 101.26045258592785,77.07671020064845 101.41257617388328,77.32004410489571 102.05584163153253,77.1134934280617 102.90773372409603,76.97484859236283 103.11853355312633,76.95221260693324 103.93130815163022,76.92391758809026 103.99650397504593,76.90694055702988 104.77016107951204,76.81073710097371 105.02442479081219,76.7994190160316 105.09614019656146,76.81073710097371 105.65899747200456,76.78527140058577 106.53479469980812,76.48250996259958 107.27150750434521,76.50797605954176 107.31931777484715,76.55890815335988 107.71266590942105,77.1927186046014 108.160343896845,77.94251232690112 108.42981996692833,78.08963826783656 108.8644587896706,77.84914336391194 109.01658237762604,78.04719820681385 109.35560065936443,78.64135063239155 109.42079648276558,78.73471579162288 109.89020641131356,79.17607229441091 109.99451972878887,79.260947396564 110.58562852769683,79.69663375631717 110.92899319766002,79.95973832447453 111.49402366721188,80.36146101365375 112.26116118933714,80.9329113867916 112.46109504780179,81.09133029987242 113.04351107026741,81.51848915301707 113.47597669889365,82.09839178848233 113.78891665125411,82.34449158387542 113.79543623359496,82.35863515565143 114.46695321471634,82.3784361388789 114.51693667933432,82.37277871715924 115.33840405430237,82.38692226837338 115.71653983007855,82.42369545340625 115.72740580064419,82.4123806346488 115.81216037108243,82.44632507118513 115.81216037108243,82.91022643392535 115.79260162406717,83.36280246770912 115.79477481816866,83.45897351841268 115.60353373616817,83.92567921824048 117.32687666831043,85.70188700232029 117.54419607968157,85.95925397874089 117.37034055058757,86.34954026037667 117.8375772850195,86.96606350775073 117.8332308967947,86.9745476363587 117.79845979097445,87.0 117.58114037961059,86.86425367588163 117.58983315606747,86.85576949918322" stroke="red" stroke-linecap="round" stroke-linejoin="round" stroke-width="0.5"><title>2024-05-05 61.1km</title><desc>11336440436</desc></polyline><polyline fill="none" points="133.0,55.95562030080691 133.36043385555968,56.05332996876314 133.42551219058805,56.08589981075784 134.8071753035765,56.87408277146824 135.00741633443977,56.96527659975254 136.31899508665083,57.69482054750188 137.53545934916474,58.717464846042276 138.61175489009474,59.64889763357496 140.1135626216419,60.769196749879484 140.25873736903304,60.840842833986244 142.17103921383386,61.876441625659936 142.32121998700313,61.987164609319734 142.65662371370126,62.16301819782166 144.06331695555127,63.061814656612114 145.8354500787682,64.01920845836503 145.88050431071315,64.07782374130693 147.4874385834555,64.61838329457532 147.60257717620698,64.68351051173522 149.4648187632847,65.25011330966663 149.9153610827634,65.47805494450222 151.5973857420904,66.18141039946568 151.81264485025895,66.28561026933312 153.5747659219196,67.38620660967717 153.73495874661603,67.47086674779348 154.9263928802975,67.12571287453466 155.00648929266026,66.93685397032823 156.34309817370377,65.55620609540347 156.5233151014836,65.45200453059806 157.61963474549702,64.62489602055939 157.8398998794437,64.48161583065303 159.7321776211902,63.30279325295851 159.9224066005263,63.17253471305958 161.78464818760403,62.01973014070609 161.9498470380786,61.902494117010065 165.79447483076365,59.486061129489826 167.83693334565032,58.300593553583894 167.99212014456862,58.24197071718663 169.1334940205561,57.5189494318729 170.955687401467,56.32040197453534 173.02317604521522,55.0566813624464 173.14832668952295,54.94594126056472 174.79530916843214,54.073039115352 174.81032724576653,54.112124649545876 174.85538147768239,54.177267130824475 175.90164086397272,55.62340583664991 176.0217854825314,55.76020032595625 176.7476592193998,56.80894420913319 178.11430425511207,56.47673606888202 178.26949105403037,56.37902732381917 179.98655789374607,55.34981560573215 180.03661815144005,55.33027338248212 181.59349216645933,54.28800913172017 182.98016130525502,53.812468016298226 183.12533605261706,54.007896482591605 184.43691480482812,54.95896952203475 184.9174932789174,54.60069095157087 186.38926485582488,53.252235024017864 186.6345601186331,53.14149046408784 186.7046444794396,53.10240408348909 186.77973486602423,53.030745630545425 187.0,52.78971181171801 186.9148975618591,52.587763560160965 186.86483730416512,52.52913325221016" stroke="#4dd2ff" stroke-linecap="round" stroke-linejoin="round" stroke-width="0.5"><title>2024-05-01 11.0km</title><desc>11334576242</desc></polyline><polyline fill="none" points="67.0,117.97610845507006 66.97200000000885,118.00213502641782 66.98400000001129,118.01254564964984 66.96399999999267,117.99692971365948 66.94800000001851,117.99172440013717 66.94000000001688,117.9813137708552 66.93600000001607,117.93967122341564 66.91600000001199,118.50184152850125 66.84000000001106,118.46019958628312 66.80800000000454,118.42376284712736 66.7280000000028,118.28322079172722 66.6760000000213,118.22075747897179 66.48400000001129,117.93446590159147 66.40000000000873,117.83556464299909 66.28000000002794,117.64296667144299 66.18000000000757,117.51803770364131 66.1200000000099,117.41392989758606 65.99599999999919,117.24735677840727 65.70000000001164,116.81530413968721 65.4719999999943,116.52379580007619 65.30000000001746,116.26351849174898 65.24800000000687,116.20105165629138 65.05199999999604,115.89912708207703 64.94000000000233,115.75336948003314 64.18000000002212,114.66016855398266 63.07200000001467,114.99854383537968 62.06399999999849,115.84707086373601 61.1880000000092,116.53941237843173 61.096000000005006,116.59146759039868 60.08800000001793,117.2577676210567 58.94800000000396,117.93446590159147 58.41600000001199,118.30404187177919 57.78800000001502,118.66840881318785 57.79200000001583,118.66840881318785 57.620000000009895,118.75169216504946 57.528000000005704,118.7777181727688 57.51600000000326,118.78812857058074 57.50000000001455,118.8193597458303 56.62400000001071,119.43356732461325 56.00800000001618,119.78751267100597 54.844000000011874,120.55785221694896 53.7840000000142,121.19805423370417 53.66000000000349,121.28133170380534 53.14800000000105,121.58841570145887 52.99200000001292,121.66648748450098 51.76000000000931,122.46801461600262 51.6759999999922,122.54608448197905 50.51600000000326,123.31116016443775 50.44800000000396,123.34759193221544 50.17600000000675,123.5349547240985 48.90000000000873,124.34164444105772 48.56800000001385,124.51338893861248 47.20000000001164,125.40332451159702 46.11600000000908,126.07466478876086 45.987999999997555,126.17354330157832 44.98399999999674,126.81364496713286 44.68000000000757,127.0009896326701 44.604000000006636,127.06343763679615 44.46800000000803,127.14670147301877 43.25999999999476,127.87004790754872 43.228000000002794,127.88045566334404 42.884000000034575,128.10942552590495 42.8640000000014,128.11462936942553 42.85600000001432,128.062590900332 42.84800000002724,128.05738704927717 42.820000000006985,128.06779475064468 42.75200000000768,128.04697934488286 42.628000000011525,128.0417754915361 42.5,128.010552355674 42.44400000000314,127.98453305500516 42.40000000000873,127.91167891258738 42.33200000000943,127.84402850484184 42.27600000001257,127.73474680712388 41.13200000001234,126.54303427631385 40.028000000005704,125.68435220500032 39.912000000011176,125.62190179698882 38.99199999999837,124.96616594006264 38.98800000001211,124.97137024014955 39.00000000001455,124.99218743291931 38.504000000000815,124.83605819225704 38.45200000000477,124.77360630546536 37.920000000012806,124.37287077458677 37.88000000000466,124.36246199976813 37.812000000005355,124.33644004949383 37.77200000001176,124.33123565717688 37.728000000017346,124.30000928734444 36.62400000002526,123.84722386623616 36.52400000000489,123.74833893240066 36.24800000000687,123.60261326922773 35.59200000000419,123.38402366295486 35.54800000000978,123.36320553563564 35.396000000007916,123.3371828595009 35.27200000001176,123.26952381304727 35.228000000017346,123.25391016878712 34.10800000000745,122.93643125961898 33.87200000001758,122.68660981194625 33.84800000001269,122.68660981194625 33.844000000011874,122.71263296070538 33.44800000000396,122.82713459064689 33.40800000001036,122.7959069096978 32.31200000001991,122.34310247653775 32.236000000004424,122.27544155247233 30.948000000003958,121.890292319531 30.912000000011176,121.8382448082557 30.87200000001758,121.76537816543714 30.484000000011292,121.42706681057825 30.34800000001269,121.44268125113376 29.828000000023167,120.4225234963269 29.764000000010128,120.31842413254344 29.344000000011874,119.73025704329484 29.292000000015832,119.5949251957536 29.20800000001327,119.47000303646928 29.13200000001234,119.26700359836104 29.044000000008964,119.14208029534711 28.644000000014785,119.058797851274 28.68800000002375,119.058797851274 28.24800000000687,118.24678387252425 28.236000000004424,118.10624112263758 27.568000000013853,117.33064343484875 27.55600000001141,117.26297304125183 27.53200000002107,117.23174050878515 27.20000000001164,116.8569479944963 27.100000000020373,116.82571510793059 26.69200000001001,116.2947518686342 26.60800000000745,116.25831292629664 25.152000000001863,115.86268773717893 25.092000000018743,115.86268773717893 25.03200000000652,115.84186523772951 23.636000000013155,114.98813233593319 23.580000000016298,114.9256632757133 23.528000000005704,114.88922294025542 23.196000000010827,114.74866701327483 23.1480000000156,114.7070207067336 23.088000000003376,114.67578594504448 21.920000000012806,113.75955414791679 21.772000000011758,113.71270075550274 21.304000000003725,113.23895745513073 19.896000000007916,112.3747502343358 19.84800000001269,112.33310116676148 19.808000000019092,112.27583361971847 18.90000000000873,111.88537063057447 18.864000000001397,111.90098923187543 18.80400000003283,111.9426388020911 18.74800000000687,112.53093380631981 18.580000000016298,112.67670452554376 18.53200000000652,112.69752886555943 18.504000000015367,112.69752886555943 18.512000000016997,112.73397143144757 18.488000000012107,112.801650383979 19.120000000024447,112.44242986584504 19.0679999999993,112.42681150068893 19.276000000012573,112.92659580641703 19.271999999997206,112.99948043483528 19.09200000000419,113.94696710451171 18.460000000006403,114.6914033292851 18.468000000022585,114.71743228791092 18.528000000020256,114.79031327136909 18.528000000020256,114.77990171138299 18.528000000020256,114.79031327136909 19.000000000014552,114.55084662586523 19.03200000002107,115.08183572195048 18.992000000012922,115.7273412743707 19.052000000025146,115.84186523772951 19.055999999996857,115.83145398347187 19.512000000002445,115.85748211345708 19.560000000012224,115.89392146365208 19.18000000003667,116.15940703875094 18.912000000011176,116.40927401747467 18.916000000026543,116.43530172749524 18.87600000000384,116.85174251529679 18.90000000000873,116.81009865441956 19.14000000001397,116.26351849174898 19.148000000001048,116.23228508764078 19.16400000001886,116.21666837535668 19.20800000001327,116.19064050643647 19.196000000010827,116.1958460817441 19.212000000028638,116.19064050643647 19.92399999999907,116.0917344320078 19.604000000021188,115.91994954822803 19.568000000013853,115.90953831666047 19.41599999999744,115.81583709640836 19.380000000004657,115.80022020253091 19.07200000001467,115.49829224891073 19.060000000012224,114.70181491501717 18.608000000022002,114.8319594810273 18.56400000001304,114.79551905021799 18.12400000001071,114.88922294025542 18.04800000002433,114.91525175507559 17.38000000001921,115.57117164319061 16.728000000017346,116.34680743622812 16.720000000001164,116.398862928163 16.72400000001653,116.38845183582089 16.720000000001164,116.38845183582089 16.427999999999884,117.11201554861691 16.3920000000071,117.15365905840736 16.3240000000078,117.19530251979086 16.196000000010827,117.22132965855417 16.168000000019674,117.15365905840736 16.160000000018044,117.14845362233609 15.440000000002328,117.20571337757065 15.220000000015716,117.38269749675237 15.160000000018044,117.38790289878307 13.896000000022468,117.37749209396861 13.768000000010943,117.35146506868114 13.004000000015367,117.25256220011943 13.0,117.2577676210567 14.10000000000582,117.62214520706766 14.31600000000617,117.63776130647602 16.932000000029802,117.36708128612372" stroke="#4dd2ff" stroke-linecap="round" stroke-linejoin="round" stroke-width="0.5"><title>2024-05-01 17.8km</title><desc>11304292210</desc></polyline><polyline fill="none" points="107.59503539744765,118.13119720333634 107.56116139437654,118.16897299051197 107.56116139437654,118.14378913605469 107.5563222511264,118.13749317014663 106.55461958955857,118.74190172640374 106.46267586702015,118.82374807042288 105.89165695849806,119.41555549742043 105.8287480957224,119.46592171382872 105.27708576037548,119.8184835899774 105.00125459273113,119.95069355418673 104.74961914151208,120.01994623164501 103.87857334886212,120.04512899601468 103.79146876960294,120.05772037271163 103.66081190071418,120.11438152259143 103.55435074827983,120.10808584294136 103.37046330317389,120.17733826891345 103.11882785195485,120.29695583499779 103.08979299222119,120.2906601818504 102.97365355319926,120.31584278895025 102.75105296174297,120.3976861609226 102.54780894346186,120.49212062887455 102.09776861727005,120.62432853837163 101.10090509903966,121.01465429937161 101.06703109596856,121.01465429937161 100.99928308988456,121.09020081487688 100.78152164173662,121.37349907534008 100.67506048927316,121.46163593430902 100.07500672104652,122.14783820703451 100.03629357469617,122.21708737423614 99.62012725154636,122.77737202218486 99.5572183887416,122.83402961708634 99.0733040595369,123.15508792287801 99.0297517698782,123.0921355013088 98.87973832784337,123.25581160719594 98.91361233085627,123.2998781455135 98.28452370286686,123.92939523033783 98.1877408370201,123.9860513195672 98.01837082175189,124.04900244297824 97.70382650775719,124.20637985159192 97.61188278518966,124.26303557882056 96.64889327000128,124.34487149853157 96.55211040418362,124.34487149853157 94.87292768168845,124.21897001958496 93.53732413300895,124.23156018394366 93.38731069094501,124.22526510222451 91.90169370017247,124.09306817498873 91.7807151178713,124.03011711555882 91.02096962093492,122.9725256484744 90.9967739044805,122.85921074663202 90.48866385876318,121.28536203716794 90.45962899902952,121.10908742319225 90.299937270378,120.68728454403026 90.20315440453123,120.56137244129786 89.60310063624638,119.92551073497089 89.19177345640492,119.52258363733199 89.09015144727891,119.40925971623074 87.81261761806672,118.32637174938645 86.77220181017765,117.69677328418038 86.53508378888364,117.57085249361626 86.3850703468197,117.47011559777093 86.35603548702784,117.4260431322109 85.81405143829761,117.25604891662442 85.77049914866802,117.23716062929452 85.71726857245085,117.19308792681841 85.6785554261005,117.1867918228345 85.14141052064952,116.7775431002483 85.06882337128627,116.76495077059735 85.06398422797793,116.79013542626126 85.049466798082,116.8027277486326 84.29939958779141,116.50680720607488 84.28972130117472,116.51939961073731 83.35092750246986,116.23606962059057 81.9088628013269,115.75125622988708 81.79272336230497,115.69458937565287 80.6410072587314,115.2286590983822 80.48615467335912,115.15310236518417 80.37001523433719,115.11532394918686 80.31678465812001,115.10273113652147 78.70534994173795,114.63049802054957 77.10843265525182,114.03862524861688 76.9826149296423,114.00084586105004 76.20351285958895,113.68601635051164 75.98575141144102,113.5474906413001 75.80670310958521,113.38377786857018 75.65668966752128,113.2389545156002 75.58410251812893,113.15709762372717 74.41786898468854,111.37509773158308 73.89040236579604,110.6635366653718 73.86136750603328,110.63834844887242 73.80329778656596,110.41795093011024 73.07258714939235,110.86504187008904 73.01451742989593,110.90282399164425 73.00483914330835,110.92801205438809 73.0,110.98468514201886 73.12097858230118,111.18618885330216 73.15001344206394,111.20507977818124 73.86620664934162,112.3007393307962 74.6501478627033,113.39637118073006 74.727574155404,113.47193097688069 75.51151536876569,114.46678933915973 75.62281566447928,114.54864375716352 76.63419661260559,114.82568833238474 76.73097947845235,114.81309543556927 76.89067120710388,114.85087411503991 77.15682408818975,115.07124908889818 77.7907518594875,115.05235984934188 77.96496101803496,114.93902423905456 77.83914329242543,115.0082849250175 77.93108701496385,115.37347580216738 77.95044358813902,115.4049576302532 77.97463930459344,115.41755035508686 78.02303073753137,115.4049576302532 78.11013531679055,115.32940120442436 78.18756160949124,115.36088306452439 78.23595304237097,115.36717943379335 78.89407653015223,115.26643741559383 78.96666367954458,115.45532850763993 78.97634196610306,115.66940408333903 79.11183797832928,115.52458836842561 79.10699883502093,115.59384811855125 79.47961286854115,115.80792301000838 79.55703916121274,115.75125622988708 80.84909042029176,115.8771823073148 80.97006900259294,115.92755263582512 82.1556591092376,116.34310561234815 84.10583385606878,116.97272374229578 84.26068644141196,117.03568505220028 85.63016399319167,117.74714149797728 86.4963706425333,118.30118798638796 86.57863607848412,118.33896362539599 86.61734922486357,118.33896362539599 87.77390447171638,119.03780700874267 88.60139797473676,119.83107503250358 89.42889147775713,120.64321534968258 89.51115691370796,120.7313536935726 90.07249753561337,121.7512272091044 90.10153239537613,121.82047700991825 90.44995071244193,123.35023984871441 90.49350300207152,123.5139149800707 91.08387848373968,124.35746162633222 91.21453535262845,124.46447756485941 92.81145263911458,124.84847375784739 93.45505869702902,124.87365371724809 93.88574245007476,124.94919350769487 93.8905815933249,125.0184381999461 95.42459001703537,125.18840197567624 96.0343220718787,125.23246654951436 97.12312931267661,125.70458417261398 96.82794157182798,126.25852896163633 95.46814230666496,128.88967005665108 95.48749887984013,129.53798891664337 95.56008602920338,129.58204906988976 96.02464378532022,129.0722074151854 96.77955013891915,127.6433599688753 97.64575678826077,125.95637813598296 97.74253965410753,125.80530193344748 98.94264719061903,124.5337230313744 99.43623980644043,123.96716596473198 99.86208441617782,123.551686076451 100.95573080025497,122.62628474035228 101.34286226364202,122.33040395467106 101.80742001972976,122.16042897293664 101.880007169093,122.10377049757517 101.91388117216411,122.10377049757517 101.90904202885577,122.0974751068461 102.84783582758973,121.83936330002325 103.80598619949888,121.68197729766325 104.99641544942278,121.47422689951782 105.7948740926513,121.10279188799905 105.75132180305081,121.00835875047414 105.88197867193958,120.48582500408156 105.99811811096151,120.42286870583484 106.58849359262967,119.86884933817419 106.73366789138527,119.7177519179968 106.98046419929597,119.53517516581996 107.1304776413599,119.38407658242795 107.26597365358612,119.26445649701054 107.35307823281619,119.20149842469618 107.51276996149682,119.11965279398646 107.6579442602524,119.0818778353896 109.52101442782441,118.91818596764278 109.68070615650504,118.8992984046672 111.72282462584553,118.74190172640374 113.48427278432064,118.65375933689211 113.54234250381705,118.62857576411989 113.60041222334257,118.61598397222406 115.4102518146683,118.49006585226016 116.92974280851195,118.03675759131875 117.26848283896106,117.87935778067185 119.47029303704039,116.95383533147469 121.14463661619811,116.50051100235578 122.33506586612202,116.19199590008793 122.46572273503989,116.1479221347654 122.65928846673341,116.1038483246266 122.8141410520766,116.0534782010036 124.44493234160473,116.00940429481852 125.78537503362168,116.26125458360548 125.95958419214003,116.3179206968889 127.0,116.07866327011652 127.0,115.97792290580765 126.66609911283012,115.14680596481048 125.11757325925282,114.73124151707088 125.03530782330199,114.71864859282869 124.8901335245173,114.69346273332849 124.31427547271596,114.6619803883732 124.20781432028161,114.63049802054957 123.36580338742351,114.58642266717288 123.3754816740111,114.5612367308131 123.3754816740111,114.58642266717288 123.39483824715717,114.60531210981935" stroke="#ffc800" stroke-linecap="round" stroke-linejoin="round" stroke-width="0.5"><title>2024-04-21 21.1km</title><desc>11229738329</desc></polyline><polyline fill="none" points="187.0,136.60009286555942 186.97709646145813,136.57028412769432 186.92474551624036,136.4553072831768 186.87239457100804,136.39994790077253 186.76114881239482,136.2168353520192 186.3587009209732,135.6802664078623 185.81228793019545,134.8881704766609 185.22333979640098,134.10031187534514 185.1611730489676,134.02791299463934 184.41190014540916,133.31669094567042 184.37590887057013,133.24854900435275 183.92111003393074,132.58841573964492 183.4630392632098,131.9793763689613 183.15220552592655,131.7238316019284 181.03526417838293,130.15218225170793 179.5203587009164,129.00640096930874 179.22915656809346,128.80194457648395 179.06228793019545,128.6698990640034 178.8070770722261,128.49099774228125 178.67947164323414,128.39302750765273 178.53550654386345,128.28653775036219 178.4209888511832,128.1843072189531 178.00872515753144,127.77964119587159 177.91711100340763,127.65185076341731 177.8549442559306,127.57091653435964 177.66844401355775,127.27699561040572 177.25290838585352,126.51449134057475 176.96170625303057,126.32705708256253 176.8799079011078,126.35687624933234 176.69013572466793,126.44633356742997 175.9572224915173,126.54857016765345 175.4664323800389,125.7477072433976 175.4304411051853,125.7093675113465 175.38136209403456,125.68380766207702 175.2504847309756,125.63694788044813 175.214493456122,125.5900880238205 175.21122152205498,125.55174808532865 175.20140571981028,125.51766809785477 175.1555986427411,125.44098798095729 175.0868880271446,125.33874751267831 174.82840523509367,124.92978206872067 174.46849248665967,124.40578674379503 173.9089917595702,124.34614440493533 173.38875424138678,124.39300625283249 173.2644207464764,124.41430706800202 172.45952496363316,124.71251685275638 172.11269995152543,124.7977190904221 171.07876878332172,124.85310041192497 170.37857489094313,124.80623930055299 170.29023267087177,124.81049940469347 169.75690741636208,124.93830224042358 168.93565196314012,125.09166490680218 168.83095007271913,125.07888471528167 168.00642268540105,125.0831447797409 167.90499272903253,125.10018503136234 167.8101066408126,125.10444509272929 167.3749394086335,125.14704567221088 166.6420261754538,125.31744737017834 165.9778235579288,125.4921080812037 165.50339311681455,125.061844451262 165.45758603974537,125.00220344904847 165.32343674260483,124.88292108010683 164.69849733398587,124.20129821891533 163.97212796898384,123.28960283044762 163.9132331555884,123.2256978831465 163.14432864759874,122.33101397100108 162.6469946679572,121.73454283627143 162.2020116335334,121.18918716139342 161.75702859913872,120.6693855753474 161.24006301502232,120.0387942091802 160.65765874939098,119.31871042507919 160.36645661656803,118.8500073184332 160.34028114395915,118.8287024534111 160.2715705283481,118.79035365727941 159.7971400872484,118.2662484069715 159.24745516237454,117.60577720377296 158.25278720310598,116.37001685032374 157.9059621909837,115.82456119654853 157.83725157537265,115.73933283213591 157.1730489578331,114.89982017692273 156.67571497817698,114.3159824547838 156.61354823072907,114.26910446818329 156.544837615118,114.17108661713246 156.37796897722,113.89407787144955 156.27653902083694,113.83441410601336 155.91008240425435,113.37414668310885 155.83809985457628,113.2931729615866 155.45528356761497,112.79454036880088 155.0037566650426,112.15951732776921 154.94158991759468,112.05723044834667 154.2904750363523,111.26875708238185 154.01563257390808,110.90647841058671 153.10276296654774,109.7812548690872 153.08967523023603,109.75994339952558 153.0471400872484,109.67043505780566 152.69704314104456,109.44879417570701 152.61524478913634,109.43600715049251 152.31749878817936,109.36780958832242 151.86269995152543,109.244201101621 151.7972612699814,109.23567635914878 151.11997091614467,108.93304639171765 150.63572467281483,108.77107413691556 150.5539263209066,108.75828681543499 149.98788172563945,108.34056457325823 149.52326708676992,107.7906966086448 149.2287930198654,107.50936481539975 148.26030053320574,106.78470985572312 147.99527387300623,106.53320776099281 147.88075618031144,106.39679894062465 147.7269752787106,106.34138267561138 147.51102762966184,106.20071014670066 146.9875181774114,106.04724843438453 146.95807077072095,106.03019708331885 146.336403296169,105.927888768103 146.25133301017922,105.9023116333774 146.0157537566556,105.80852861469975 145.9143238002871,105.75311123502252 145.88487639359664,105.7190081799472 145.6067619970854,105.5996471740491 145.21412990789395,105.51865192831247 145.19122636936663,105.52717775421843 144.78550654386345,105.41207889481302 144.0427775084827,105.07530555631092 143.96097915655992,105.09235746412924 143.93807561801805,105.09235746412924 143.53562772661098,104.94741593077742 143.13972370333795,104.78968462236844 142.79289869121567,104.4529041165024 142.8256180319877,104.43158876411508 142.6914687348326,104.47421945336828 142.27593310712837,104.64047854764794 142.18104701889388,104.65326766958242 141.7000727096456,104.65753070899518 141.50375666505715,104.31648559273708 141.464493456122,104.32501176911319 141.22891420261294,104.4401149069472 140.81337857489416,104.41879954522483 140.69558894813235,104.43585183584219 140.2931410567253,104.4230626188164 139.10870092098776,104.33353794301183 138.50012118274753,104.29517014091289 137.69849733398587,104.235486793159 137.59379544352123,104.21843438570431 136.65802229760448,104.18006643259105 136.53696073677565,104.18432954098353 136.34391662626876,104.18006643259105 135.0645904023113,104.28238086236524 134.8519146873441,104.3036963235063 133.90959767327877,104.02233098538272 133.74927290352935,103.91575249885318 133.4678865729511,103.46385540097617 133.47443044109968,103.44253932767424 133.11124575861322,103.42122323882359 133.0,103.39990713443876 133.08179835192277,103.42122323882359 133.0785264178412,103.4126967989323" stroke="#4dd2ff" stroke-linecap="round" stroke-linejoin="round" stroke-width="0.5"><title>2024-04-14 18.0km</title><desc>11176726526</desc></polyline><polyline fill="none" points="48.47290523155243,163.47126617783942 48.779809015395585,163.51427659328328 48.58622355174157,164.01810962977106 48.534285988338524,164.09798504755236 48.52484279498458,164.1287063218915 48.619274728465825,164.39290835972133 49.582480449957075,165.7261818261868 49.7146851568541,165.89821404957547 49.818560283689294,166.02109378057503 49.828003477014136,166.0579576302407 49.818560283689294,166.07024557298064 49.81383868699777,166.07024557298064 49.78078751027351,166.05181365753378 49.76662272028625,166.05181365753378 49.662747593421955,166.13168523314016 49.63913961005164,166.1624050297287 49.6296964167268,166.2054127074589 49.658025996759534,166.27914005322236 49.73829314019531,166.40201867709766 49.747736333549256,166.38973083077872 49.747736333549256,166.37129905461188 49.73829314019531,166.37129905461188 49.743014736886835,166.38973083077872 50.01214574731421,166.73993305140175 50.7298284417775,167.7905223096095 50.87619793866179,167.98712090864137 51.272812059294665,168.68135239815092 51.10283457901096,169.00081792668425 51.01312424222124,169.03153563876913 49.73829314019531,169.34485502735697 49.35112221297459,169.48615516848076 49.19058792601572,169.5168725279982 48.836468175490154,169.62131138338736 48.675933888560394,169.6274548374313 48.3595869113924,169.71346310040826 48.312370944651775,169.71346310040826 47.778830520488555,169.84861858874137 47.08003421273315,170.07592457221108 46.291527568158926,170.39537956469212 44.56342318546376,171.15100388360952 44.47371284867404,171.1878632611042 43.6191038506513,171.37830286626559 43.14222258658265,171.40901885131098 42.934472332912264,171.43359162326306 41.607703667512396,171.48888030795206 41.296078287035925,171.80218148917265 41.25830551364925,171.81446776270604 41.27247030363651,172.96936153680144 41.338572657085024,174.15493776293442 41.362180640455335,174.26550794452123 40.94195853645215,174.6033594859946 40.30926458214526,174.7200712094491 39.397996424057055,174.90435222229644 38.68503532628529,175.01492044459155 36.44699850276811,175.4019069461683 35.696264631609665,175.45104783586066 35.611275891482364,175.44490522778142 34.54891663978924,175.65989598003216 34.0106546189636,175.72132170850455 33.23159116774332,175.850315447944 31.60264031519182,176.12672927906897 31.069099891057704,176.26800676180574 30.545002660219325,176.60584230695895 30.493065096787177,176.69183637850438 29.794268789031776,177.67461335023472 29.39293307173648,178.006295424173 29.317387524963124,178.0800021985051 28.769682310783537,178.52838230836278 28.609148023853777,178.73107312680077 28.42972735024523,178.86619979946772 27.98117566620931,179.52954265881272 28.34473861011793,179.85506821984382 28.34473861011793,180.5368211830937 28.642199200578034,180.94832441074323 28.769682310783537,180.96060802766442 28.9727109677915,181.7406103965368 28.95854617774603,182.30564249965755 28.953824581054505,182.82153478530017 28.887722227635095,183.40497681312263 28.87355743761873,183.9761280567218 28.840506260894472,184.59026057559822 28.845227857556893,185.32720783064724 28.812176680832636,185.83692217209682 28.73190953739686,187.96168929700434 28.750795924075646,188.2073202341562 28.746074327413226,188.2257424969539 28.769682310783537,188.82753200456136 28.741352730750805,189.7363407523153 28.73190953739686,189.87757279178186 28.670528780610766,191.38197178437986 28.67525037730229,191.51705805656457 28.665807183948345,191.90389363221038 28.604426427191356,193.08279929067794 28.585540040483465,193.1933200123749 28.552488863788312,194.74671961710555 28.481664913648274,195.54488696160843 28.462778526940383,195.63084254703426 28.481664913648274,196.08517631276845 28.382511383504607,197.91474130135612 28.330573820101563,199.38201983346516 28.255028273299104,200.76330251571198 28.236141886591213,201.37105261673787 28.193647516542114,202.14454012578062 28.179482726496644,202.73999310377985 28.160596339817857,202.83821134698883 28.141709953109967,203.47048583222931 28.085050793044502,204.5999623812204 28.06144280967419,205.2567636915701 28.06616440633661,205.3611143635644 27.985897262900835,206.67468317877137 27.36264650191879,206.76675423084453 26.85271406112588,206.56419765198007 26.772446917661,206.55805955870892 26.772446917661,206.56419765198007 26.739395740936743,206.53964527354765 26.276679266884457,206.33094948191138 26.276679266884457,206.3125350979717 26.111423383292276,206.18977233365513 25.99338346644072,206.22046305810363 26.045321029843763,206.22660120033106 26.186968930094736,206.2143249149958 26.23890649349778,206.22660120033106 26.290844056900823,206.3493638578584 26.309730443608714,206.373916346638 27.414584065321833,206.82813482100028 27.85841415269533,207.0 28.113380373077234,206.0485947146335 28.155874743155437,204.83935843150175 28.20309070989606,204.02908941359783 28.273914660036098,202.2918694774562 28.335295416763984,201.39560799295577 28.34946020678035,201.30966411380723 28.354181803471874,200.54843928111222 28.37306819015066,199.71353178805657 28.316409030085197,198.9154430542403 27.678993479086785,198.90930385181855 27.102958684845362,198.92772145644267 27.107680281507783,198.9399998550507 26.6874581775337,198.89702544428656 26.172804140049266,198.9154430542403 25.747860439383658,198.89702544428656 25.313473545364104,198.89702544428656 25.252092788607115,198.90316464850184 24.79409791121725,199.01980935930987 24.779933121200884,199.2899327186169 24.798819507908775,199.45568938108408 24.79409791121725,199.4434111320479 24.798819507908775,199.4434111320479 24.75160354116815,199.64600178566252 24.765768331184518,200.03890210769168 24.78465471789241,199.7626444493908 24.770489927876042,199.69511452535153 24.779933121200884,199.49252410680128 24.79409791121725,199.42499375182524 24.78937631455483,199.43727200619105 24.817705894616665,199.18556707959942 25.190712031850126,198.93386065619052 25.554274975758744,198.95227825012262 25.95561069305404,198.93386065619052 27.235163391713286,198.95227825012262 27.69315826910315,198.9461390530414 27.688436672411626,198.9399998550507 27.400419275276363,198.92158225578532 27.291822551807854,199.00139179476537 27.296544148470275,199.03208773122242 28.08032919638208,199.57233256925974 28.06616440633661,199.682836345768 28.056721212982666,200.0573192207812 28.070886003028136,200.20465583719488 28.085050793044502,200.16782173116735 28.10393717972329,200.07573632588537 28.051999616320245,199.03822691583264 27.943402892822633,199.03822691583264 27.707323059119517,198.95841744630889 28.340017013426404,198.95227825012262 28.462778526940383,198.92772145644267 28.831063067540526,198.93386065619052 30.120058959553717,198.79265883646076 30.70081535045756,198.76810195018334 32.17867510943324,198.78651961623473 33.74624520522775,198.76196272636662 34.06731377905817,198.72512736487988 34.43087672296679,198.41202549782247 34.42143352961284,198.3322148475454 34.39310394958011,196.79736537383724 34.39782554624253,195.76591525712865 34.35533117616433,194.3169309656223 34.36477436951827,194.18799351905182 34.3694959662098,193.9730969017728 34.345887982839486,192.75737548954203 34.35533117616433,192.65913385025488 34.331723192794016,192.1679222327075 34.345887982839486,191.9345947169095 34.327001596131595,191.91617406876685 34.31755840277765,191.7503878746138 34.341166386177065,190.65127038245555 34.341166386177065,190.34424922205653 34.30339361276128,188.9687670774765 34.308115209423704,186.02115476049585 34.29867201609886,185.52372493065195 34.199518485955196,183.23301578860264 34.16646730923094,183.10404456147808 34.11452974579879,182.43461616089917 34.105086552444845,181.8388773913939 33.93038747549872,180.94832441074323 33.95399545886903,180.91761535287878 34.05787058570422,180.89304809052555 35.01635471053305,180.56138865233515 35.03051950054942,180.5491049194934 34.93136597040575,180.5675305174227 35.715151018317556,180.2604361709782 35.819026145123644,180.2604361709782 35.93234446531278,180.28500380073092 35.98428202874493,180.30957141623003 36.24869144248078,180.3648484989135 37.08913565045805,180.46926056913435 37.09385724712047,180.48154432515003 36.6358623697306,180.38327417708933 36.56031682295725,180.37713228524444 35.96067404534551,180.1498816604726 35.394082444458036,180.1990170341487 34.90775798703544,180.37099039253008 34.23729125931277,180.67194208734873 34.14285932583152,180.70265132355053 33.66125646507135,180.34642281271226 33.51960856487858,180.06389461920844 33.198539991048165,179.36984995823514 32.85386343381833,178.7740680240022 32.57528923006612,178.26426857238766 31.956760065775597,177.5517674775947 31.796225778845837,177.41663660557606 31.753731408767635,177.3613556698656 31.67346426533186,177.30607466189758 31.569589138467563,177.15251592734057 30.974667957576457,176.41542624062276 31.08326468107407,176.34785904329692 32.01814082250348,176.15744181547052 33.70375083514955,175.8810281850565 34.53003025313956,175.79503246493914 35.25715614089859,175.55547203686365 35.606554294819944,175.54932944395478 35.540451941342326,175.4326200089272 35.436576814507134,175.2913397356133 35.43185521787382,175.25448393453553 35.44602000789018,175.2299133826309 35.436576814507134,175.21762810133805 35.450741604552604,175.2299133826309 35.46018479790655,175.10706040899822 35.49795757129323,175.10091775095498 35.52628715135506,175.05177645444928 35.57822471475811,174.99649242760643 35.64432706820662,174.84292530723542 35.762366985029075,174.9596363695673 35.70570782493451,175.15620164127904 35.615997488144785,175.19305752800938 35.535730344679905,175.2053428164545 35.309093704330735,175.15620164127904 35.44129841119866,175.18077223600994 35.42713362118229,175.22377074243195 35.46018479790655,175.27905447216472 36.10704354225891,175.12548837779104 36.229805055772886,174.7937837109348 36.23452665243531,174.74464205755794 36.536708839586936,174.5665030853488 36.54615203294088,174.53578939361614 36.62641917640576,174.4805046922811 36.71612951319548,174.4989329340824 36.71140791653306,174.48664744043344 36.62169757971424,174.4497909380989 36.088157155551016,173.97065348452816 35.922901271958835,174.0259388523773 36.44699850276811,173.43622453598437 36.57920320966514,173.41779583110474 38.009847001871094,173.31336635168918 38.65198414956103,173.23350834048688 40.18178147196886,173.13522135046878 40.69171391276177,173.10450661924187 41.71630039101001,173.11679251441456 41.80128913113731,173.0922207204967 42.037368964840425,173.06764891231433 43.491620740445796,172.90793181110348 43.779638137551956,172.88950287599437 45.29999226660584,172.5024933835084 45.436918570136186,172.44720602402595 45.95157260762062,172.2076266310287 47.52858589676907,171.5134530335199 48.97811607568292,171.06499854454523 49.11032078257995,171.0465688062577 49.29918464954244,170.9974227982675 50.965908275480615,170.54896283664493 51.872454836877296,170.33394609973038 52.420160051085986,170.40766624698517 53.64777518634219,170.65339914295328 53.916906196740456,170.67797235399848 55.1964588953997,170.67797235399848 55.22478847546154,170.5919660528234 55.24839645883185,169.81790147024003 55.19173729873728,169.7318934197101 54.2426963672624,169.71960654106078 53.813031069905264,169.70731965884988 52.849825348414015,169.5168725279982 52.37294408434536,169.43700734686718 51.71664214663906,169.43700734686718 51.730806936655426,169.40628992933125 51.68831256660633,169.2711330271486 51.50889189296868,168.44175166776768 51.480562312935945,168.39260263216784 51.253925672586774,168.09156354256993 50.54568617147743,167.1024200141146 49.77134431691957,165.9473659848336 49.747736333549256,165.94122199604317 49.662747593421955,165.83677405015624 47.90631363069406,163.3545234010926 47.68439858700731,163.06573725244016 47.50025631670724,162.75851577971116 46.76368723556516,161.75081367720122 45.95157260762062,160.62019247925127 45.74382235397934,160.3006636164755 44.738122262380784,158.85046380511994 44.11014990476542,157.99629741309764 44.19513864489272,157.3326166453553 44.45954805862857,156.98848177412583 44.46426965529099,156.96390060467456 44.50676402536919,156.90859292114692 44.66729831229895,156.69965213020987 44.8042246158293,156.55216389119232 44.94587251608027,155.34151181131892 44.90337814600207,153.92801626330402 44.86560537261539,153.66374880663352 44.879770162602654,153.59614523834534 46.14515807124553,153.45479197333407 47.29722765972838,153.4609377773013 47.391659593209624,153.44864616848645 47.48136993002845,153.295000756636 47.75994413380977,153.2028132413834 47.717449763731565,153.2028132413834 47.66551220032852,153.1352089357315 47.65134741028305,153.0 47.64662581362063,153.04916693576524 47.65134741028305,153.07989624157926 47.67967699034489,153.16593817899047 47.67023379699094,153.26427160723324 47.68912018366973,153.2519799412148 47.68912018366973,153.23968827162025 47.660790603637,153.17822987002364 47.75050094045582,153.282709099567 47.54275068678544,153.26427160723324 46.58426656195661,153.33802152824137 46.565380175277824,153.38718807078476 46.50872101515415,153.7252065021712 46.52288580519962,154.97892398314434 46.53232899855357,155.08339876114042 46.62203933534329,155.43369466150762 46.99976706926827,156.20187726079894 46.961994295881595,156.15271399264384 47.33972202980658,156.52758246797748 47.51442110675271,156.73037878188916 48.373751701408764,157.5784255521903 48.79869540207437,157.96557168169238 49.98381616725237,159.10855385160903 50.0310321340221,159.14542372959113 50.210452807630645,159.34206253579032 50.8573115519539,159.95655290921422 51.76385811337968,161.03188956850863 51.67886937325238,161.1056259372308 51.51833508632262,161.2776769640659 50.47014062467497,162.31611293657625 49.62497482003528,163.05959284487471 49.374730196315795,163.2439246836293 48.77036582204164,163.56957563453398 48.72787145196344,163.50813225089587 48.675933888560394,163.20091399314697 48.69009867857676,163.20705838017602 48.68537708191434,163.2193471515675 48.661769098514924,163.237780301959 48.62871792181977,163.2193471515675 48.65232590519008,163.2869353303613 48.623996325128246,163.33609030161097 48.58622355174157,163.3852452157007 48.30292775129783,163.01043755211867 48.529564391647,163.42825571864887 48.50595640827669,163.42825571864887 48.49651321495185,163.49584356345076 48.529564391647,163.45897747969138" stroke="#ff8300" stroke-linecap="round" stroke-linejoin="round" stroke-width="0.5"><title>2024-04-06 34.9km</title><desc>11117345079</desc></polyline><polyline fill="none" points="116.25946133125399,206.74165637752594 116.29060226750153,206.78724656769555 116.6136894809315,206.95441008812486 116.62147471499338,207.0 115.86241439428704,206.81257442536298 115.64053522363247,206.4833108401108 115.57825335113739,206.4073264940671 115.48093792541476,206.21989773222595 115.42254866997246,206.1388471446371 115.28630707395496,205.9260884554751 114.99436079675797,205.53096172969163 114.87368966886424,205.38912027389233 114.81530041340739,205.28780459487461 114.44160917859699,204.7356289673553 113.93556896479276,204.03146570412355 113.75650858145673,203.7629680510654 113.68644147492887,203.64644955797849 113.61248175134824,203.5501948567835 113.53462941080215,203.43874171275456 113.34389117636601,203.18037168968294 113.22711266546685,203.0081239434112 113.12201200568234,202.87133836189605 113.02858919698338,202.78014767594505 112.9079180690751,202.587633221945 112.45637449368951,201.9442219347584 111.99315306718927,201.30586513775052 111.56107257693657,200.68269603168665 111.01221357582835,199.90751890646425 110.96160955441883,199.8416533884847 110.45167672359094,199.26912479500606 110.32711297865899,199.1829913606125 109.68483116882271,198.51418333025867 109.65369023258972,198.44324839219917 109.31113993402687,197.9466997818854 109.260535912661,197.84536246129937 109.1826835720567,197.7592255070449 109.12429431662895,197.66295454146166 108.9646970184258,197.44507716337466 108.63382457093394,196.96371533477577 107.99543537813588,196.46714563698333 107.43100590888935,196.05671023791 107.33758310019039,195.9756360069041 106.83543550339527,195.61079963253724 106.10751611892192,195.05340334937137 105.36013364931569,194.53146965330598 105.2394625214074,194.42505502740096 104.71006660543208,194.03486528448775 104.67503305216087,193.98419097125952 104.59718071158568,193.91831425383134 103.37100634735543,193.04163530745427 102.70147621832439,192.5551449857885 102.0124830041459,191.83553225991272 101.75557028020557,191.45038131278852 101.70885887584882,191.3439572737916 101.21060389610648,190.45200968759673 100.96147640625713,190.03136738849207 100.58389255440852,189.29649816975143 100.25691272394033,188.72379623491724 100.20630870255991,188.6122956479412 99.63409399925149,187.57836411149765 99.54067119056708,187.37562883813735 99.49395978621033,187.30973962019198 98.61422833758115,186.41262017175904 98.37288608177914,186.2605637374145 98.29892635822762,186.20480954511368 97.34523518606147,185.6117821574917 96.79248356790049,185.33300510955814 96.70295337621064,185.26711202667502 96.04899371530337,184.8514758608726 95.9322152044333,184.76530676658876 95.7726179062156,184.68420624777718 95.53127565041359,184.52707345506133 95.41449713952898,184.45104120402175 95.37946358625777,184.41049060225487 95.37946358625777,184.3648711188216 95.4300676076382,184.19253030868276 95.47288639497128,183.98977532233403 95.63248369317444,183.087501316204 95.7259065018734,182.50455904814953 95.73369173593528,182.33220903000984 96.02563801311771,181.298091004639 96.1813426942972,181.10038847304895 96.17745007727353,181.0547646524683 95.95557090660441,180.54275989918824 96.15409437508788,179.74178686503365 96.27865812001983,178.57578052192184 96.29812120518181,178.17020394370047 96.3175842903147,177.91164640874558 96.3175842903147,177.8609486276764 96.52389299287461,176.573200232644 96.69906075918698,175.61496283668384 96.71073861028708,175.41722802723598 96.7730204827385,175.1738605658793 95.8971816511621,174.61613704902265 95.47288639497128,174.10403758639222 95.0680542239279,173.79981651636263 94.95127571304329,173.7339016007063 94.1922153923515,173.23700052673667 93.82630939158844,172.99361782057895 93.81073892346467,172.96826535746732 92.33932968640875,172.04035250054585 92.00456462189322,171.80710275481033 91.25718215225788,171.3203156412128 91.0897996200074,171.20368855085326 89.14349110536568,169.98161596928912 88.88268576440169,169.7737072337004 87.96792076254496,169.14997357397078 87.91342412414087,168.5870823815785 87.89785365600255,167.98361234115873 87.89785365600255,167.52719947741207 87.90563889006444,166.46221284682906 87.90174627305532,166.37092676175962 87.96402814550675,165.52905491051206 87.96402814550675,165.41240840876708 87.99127646471607,164.93060349714506 88.39610863575945,164.3930027728129 88.40389386980678,164.31185477210602 88.37664555061201,164.26620893851577 87.03758529253537,163.63223283576008 86.28631020587636,163.1504032712146 85.71409550259705,162.79536669042136 85.30537071453,162.52147885246086 83.79114269012643,161.49184417199285 83.40188098719227,161.20272944692624 83.37852528502117,161.17736839150894 83.44469977451081,160.83245620215166 83.76389437091711,159.82813358597923 83.771679604979,159.72668524467008 83.8067131582502,159.4477007805326 83.80282054121199,158.77305637414975 83.82617624339764,158.11868952442092 83.8067131582502,157.48967412670027 83.8067131582502,155.9424507538497 83.81839100935031,155.1865690634877 83.81060577525932,154.68432986300468 83.8067131582502,153.05073401876143 84.59691441518953,153.00507340519835 85.53114250220824,153.00507340519835 85.72188073664438,153.0 85.7374512047536,153.01014680966546 86.22792095046316,153.72548943019137 86.34859207837144,153.72041613007605 86.37584039755166,153.74070932608083 86.37973301460443,153.76607580444397 86.37194778052799,154.36471932269706 86.37194778052799,154.8872556657043 86.3641625464661,154.97349877332454 86.6483235896012,155.16627671113747 87.01422959036427,155.17134980032642 87.02980005848804,155.1814959765179 87.04926314360637,155.16120362120637 87.04147790955903,155.14091125405685" stroke="#4dd2ff" stroke-linecap="round" stroke-linejoin="round" stroke-width="0.5"><title>2024-04-05 16.7km</title><desc>11109163802</desc></polyline><polyline fill="none" points="186.6472868217097,180.41841416675015 186.68604651160422,180.44867793629965 186.72093023255002,180.46885376800492 186.7713178294507,180.48398563408045 186.8759689922299,180.49911749355306 186.9263565891306,180.51424934644092 186.95736434108403,180.53946908659054 187.0,180.61512819704512 186.6046511627792,180.98333351327528 185.6201550387632,179.55588563980928 185.54263565890142,179.45500371001253 185.1782945736486,178.9657221900161 184.3023255813896,179.19775346159804 184.04651162790833,179.3591656050594 183.87596899224445,179.48526831975323 183.81782945735904,179.50040061471736 183.75968992247363,179.49031241880584 183.72868217053474,179.47013601817525 183.68992248059658,179.42473907388558 183.51162790697708,179.16748860112784 183.2286821705493,178.8295291993236 183.20542635658057,178.76899880966084 183.18604651161877,178.70846831441668 183.1744186046417,178.6832472435599 183.02325581395417,178.57731854583108 182.89922480619862,178.39572574025442 182.83333333332848,178.36041591770845 182.81007751937432,178.3150175216324 182.7906976744125,178.24944195578064 182.77519379842852,178.2343091152943 182.75968992248818,178.2343091152943 182.74031007751182,178.23935339618765 181.46511627906875,179.3238567628323 180.7325581395271,179.818177284782 180.43798449612223,179.98967459615233 180.29844961238268,180.08551095983785 180.0038759689778,180.25700695010164 179.79457364340487,180.38815037080713 179.51162790697708,180.55460092187786 179.38759689920698,180.61512819704512 179.24806201549654,180.69583106640857 179.18604651161877,180.7260945940252 179.11240310077847,180.74627026444796 178.9806201550382,180.85219234171745 178.66666666665697,181.06907939600205 178.42248062015278,181.23048283577737 178.263565891466,181.31118427417096 177.98062015502364,181.50789324408106 177.7519379844889,181.6087692064175 177.7519379844889,181.58859403739189 177.09689922479447,182.06775113291587 175.75581395348127,182.93021723461425 175.4961240309931,183.1016991683682 175.10852713177155,183.32865924849102 175.06201550384867,183.3387463287254 175.03875968990906,183.3639640164547 173.77906976743543,184.16083351173074 171.1821705426264,185.76460399518692 171.16279069765005,185.76964718171075 170.7868217054056,186.10753901019416 169.28682170542015,187.04050683089372 167.95348837209167,187.88772074944063 167.17441860462714,188.32644840256035 165.99999999998545,189.12824668391113 165.88372093021462,189.18875901021966 164.71705426355766,189.92498386531588 164.5348837209167,190.03087793687155 164.41860465116042,190.11155891744056 164.1744186046417,190.2174524198963 163.98837209300837,190.35864325409784 163.87209302323754,190.4040259002977 162.75581395349582,191.22090338767157 162.65116279070207,191.30158160283827 162.58139534882503,191.33687826300957 162.5503875969007,191.36713251461333 162.0155038759549,192.59240754983693 161.99224806201528,192.58232315813075 161.92248062015278,192.526858951318 161.5155038759549,192.27979004466397 161.39922480619862,192.19407184990632 160.35658914728265,191.50831867345187 159.06201550386322,190.87801888173635 158.9689922480611,190.81750949972775 158.2829457364278,190.55025846780336 158.17054263564933,190.52504600010434 158.07751937983267,190.49479101469115 156.5852713178174,189.98045222878864 156.22480620152783,189.86951541323288 154.7713178294507,189.28456997780086 154.64728682169516,189.21397244836407 153.9302325581375,188.92653816780512 153.9069767441688,188.93662362145915 153.84496124030557,188.91645271123343 153.8062015503674,188.9315808950014 153.78682170542015,188.94670907215914 153.77906976744998,188.9668799647916 153.763565891466,189.0425207077751 153.2829457364278,190.5099185106992 152.88759689920698,191.82094312492336 152.83720930232084,191.91674682882513 151.66666666665697,192.01759254733042 151.51937984494725,191.99238114515538 150.56976744184794,191.92178912169402 148.59689922480902,191.82094312492336 147.8798449612368,191.77052001669654 146.46511627906875,191.42259857404497 146.37209302323754,191.3923443707863 146.31395348835213,191.36713251461333 145.81782945735904,190.43932347298323 145.84883720929793,190.03592050365114 144.88759689922153,189.87455800345924 144.01550387596944,189.86951541323288 143.2131782945653,189.88968576969637 141.95348837207712,189.90481352935967 140.6472868217097,189.90481352935967 140.63565891471808,189.8947283569796 140.6046511627792,189.91489869881116 140.5581395348854,189.92498386531588 139.01162790696253,189.8947283569796 138.91085271319025,189.87960059293255 138.84883720929793,189.85943023059735 137.4069767441688,189.14841747106766 137.32945736435067,189.0929477781974 137.27906976743543,189.0425207077751 136.19767441859585,187.499416936771 135.29844961239723,186.77826976076176 135.17829457363405,186.7278393278575 133.74806201549654,186.46055681024882 133.0,185.60826484927384 133.0348837209167,185.43175206403248 133.22093023255002,184.79629860480418 133.59302325581666,183.59596588397835 133.63565891471808,183.44466049410403 133.93798449612223,182.42585369529115 134.29457364340487,181.28092125676267 134.9302325581375,180.32762269975865 135.10852713177155,180.34779860184062 136.67054263564933,180.3831064022561 138.36434108526737,180.19647905032252 138.4689922480611,180.17125906090223 139.8720930232521,180.09055497165537 140.02713178293197,180.1258630337943 141.16666666665697,180.90767520555528 142.89534883720626,182.380460617238 142.94186046510004,182.38550429550742 142.96511627906875,182.4056790012619 143.00387596899236,182.44602837759885 143.24418604650418,182.65281819499796 143.56201550386322,182.9604788138895 144.75581395348127,183.94900922864326 145.3798449612368,184.8215152335797 145.38372093024373,184.86186180152436 145.37209302323754,184.97281462153478 145.3914728682139,184.98794452405855 146.12403100775555,184.61978169040958 146.8410852713132,184.19109401807873 147.7325581395271,183.58587887850445 148.93798449612223,182.83943233844911 148.98837209300837,182.81421426959423 149.02713178294653,182.78395256277508 149.08914728680975,182.75873445360776 149.53100775192434,182.45107204633678 150.0930232558021,182.08792602337053 150.2015503875882,182.0324450463704 150.98837209302292,181.5684188566629 152.0,180.92280688030587 152.05038759688614,180.882455732979 152.5232558139396,180.6050403251902 153.7286821705202,179.813133233376 154.72480620154238,179.21288588193784 154.7674418604438,179.19775346159804 155.56589147285558,178.66811459225573 155.6434108527028,178.63280504688373 156.844961240291,177.89129629412128 156.95348837209167,177.81563124473905 157.00387596899236,177.7601434370008 157.34883720929793,177.52810255235454 159.59302325581666,176.14086924328512 159.62015503874863,176.1206908950153 159.68992248062568,176.1055571261095 159.70542635656602,176.0702449729797 159.748062015482,176.01475437406407 159.844961240291,175.93908523249047 159.96124031006184,175.8835944238017 160.263565891466,175.7019875202932 161.4496124030993,174.950326616221 162.5503875969007,174.28945693257992 162.60077519378683,174.2440532097571 162.639534883725,174.22891862226606 163.09689922477992,173.88082128794485 164.51550387596944,172.99795006752538 164.63178294571117,172.94245455459895 165.82170542633685,172.22604996325026 166.13565891473263,171.9990172522048 166.9689922480611,171.46926848162911 167.1472868217097,171.36836303670498 168.24806201549654,170.8184232030435 169.45348837207712,170.22811111106785 170.9806201550382,169.49146825740536 172.07751937983267,168.63371371498943 173.16279069765005,167.5741052887861 174.09689922480902,167.40759245016307 174.2868217054056,167.56401362435645 176.59302325581666,169.24928088849992 176.9069767441688,169.5015593610733 177.0736434108403,169.61256130776383 178.08139534882503,170.37947414357768 178.15116279070207,170.41983750738655 178.48449612400145,170.67715284752194 178.66666666665697,170.79824175891554 179.02713178293197,171.10600750628146 179.05813953487086,171.12618877137356 179.89922480621317,172.27145632716565 179.98449612403056,172.39758480399905 181.0387596898945,172.57416390118306 181.18604651161877,172.54893837089548 182.32558139534376,172.59938941313158 183.45348837209167,172.54893837089548 184.2286821705202,172.55902858521222 185.3023255813896,172.54893837089548 185.79069767439796,172.39758480399905 186.18992248061113,172.37235914532357" stroke="#ffa100" stroke-linecap="round" stroke-linejoin="round" stroke-width="0.5"><title>2024-03-24 28.9km</title><desc>11025858700</desc></polyline><polyline fill="none" points="63.26824807192315,263.69391408858064 63.26824807192315,263.6796424903114 63.52414396588574,263.7605147981667 63.56070052215364,263.7938151021517 63.56801183342759,263.831872550938 63.52779962151544,263.88420147076977 63.4619978202245,263.93177314347486 63.35963946260745,263.9936162146114 63.249969793789205,264.0507020227269 63.19147930375766,264.064973459208 63.16954536996491,264.060216314414 63.14761143621581,264.04594487585564 63.11471053554851,264.01264482838087 63.01235217797512,263.8556584339567 62.92096078726172,263.69391408858064 62.818602429673774,263.53216894390425 62.69796579396643,263.3751802450206 62.57001784698514,263.1753753574085 62.52614997944329,263.09450160376946 62.445725555633544,262.98984115535495 62.387235065602,262.8899376878653 62.2994993305183,262.77100459087524 62.237353184842505,262.709159209644 62.17155138353701,262.60925488541034 61.92662245646352,262.2857530763795 61.78770754260768,262.0764266725346 61.73652836380643,262.014579978837 61.68534918501973,261.9289459023057 61.48063246985839,261.64349736231816 61.40751935730805,261.55786231485763 61.30881665533525,261.4056216772042 61.18818001962791,261.23435011338734 61.11506690706301,261.11065342652364 60.96152937070292,260.9251075196298 60.85185970184102,260.7633486912382 60.74950134426763,260.59207376620543 60.636176019805134,260.4350709641658 60.53747331783234,260.32088663503964 60.420492337754695,260.1448516804412 60.33275660268555,260.02115087561106 60.2962000464031,259.9593002978472 60.193841688815155,259.8308410320715 60.043959808084765,259.61198334384244 59.96719103989017,259.52634298045086 59.89773358296952,259.3978820151751 59.824620470404625,259.28369406712227 59.762474324714276,259.2075685470918 59.744196046565776,259.1647478642335 59.72226211283123,259.13144284996815 59.70763949029788,259.1266849880085 59.70032817905303,259.1362007112184 59.67839424527483,259.098137801775 59.587002854575985,258.96967515557117 59.44808794072014,258.7412958727291 59.3530408943916,258.60807388835747 59.195847702387255,258.4225137920221 59.13370155671146,258.3321123382666 58.932640497165266,258.0656644954943 58.09183970274171,256.86186416270357 58.02603790143621,256.7857330084553 57.196204073901754,256.0910280432836 57.152336206359905,256.0339283490903 57.07191178255016,255.88642034453733 56.56011999462498,255.09176900835155 56.17993180932535,254.54454279509446 56.17262049806595,254.55881837779816 55.27698486921145,253.8117211831668 54.35575965097814,253.13122927440781 53.302930830119294,252.3317521661993 52.75092683029652,251.87489933243705 52.72168158527347,251.8701404151725 51.77121112201712,251.1562949861036 51.50434826116543,250.96593357423626 51.38371162545809,250.86123432554086 51.2594193341065,250.78033013112872 50.40034026151989,250.15212604816043 50.33088280459924,250.0950159878521 49.68383175844792,249.39065037922774 49.270742672495544,248.60060063635683 48.98560153350991,248.1389362305199 48.89421014281106,248.1151389196093 47.77557952066127,248.54348786716218 47.73536730874912,248.46733735312955 47.23819814334274,247.67726530856817 47.227231176468194,247.60111277784017 46.84704299115401,246.98236689292025 46.22192587876634,246.03042728995933 45.359191150579136,245.8590752189375 45.30435631614819,245.8590752189375 44.60978174683987,245.9114328914584 44.536668634289526,245.9304720243017 43.47287284655613,246.34457042190115 43.37051448896818,246.35884958348834 43.319335310181486,246.35884958348834 43.304712687662686,246.37788845588148 43.23159957511234,246.41120645593037 41.82782781397691,246.3969273172006 41.710846833884716,246.3874078879344 41.59386585377797,246.39216760292402 41.42936135052878,246.3731287388291 41.19539939034439,246.36360930262526 39.9926886887406,246.67774923441175 39.879363364278106,246.68250890713898 39.11898699366429,246.65871053655064 38.15389390788914,246.72534593056844 38.069813828435144,246.7539039150106 37.74811613316706,246.8348180688663 36.74281083549431,247.06328048157957 36.647763789165765,247.0918381709671 35.91297700793075,246.60159437649418 35.847175206654356,246.55399750024662 35.825241272876156,246.54447811669888 35.839863895380404,246.54923780881654 35.847175206654356,246.5254393412506 35.832552584121004,246.53495873036445 35.814274305987055,246.52067964566595 35.200124160488485,245.85431542637525 34.611563604397816,245.12605900284325 33.92064469070465,244.29306608705156 33.767107154330006,244.1217049131119 32.571707763985614,242.69842046238773 32.348712770675775,242.42708495824627 31.814987049016054,241.79872040983537 31.774774837103905,241.7368353693455 31.105789857188938,240.91803765379882 30.597653724893462,240.30392591166674 30.49895102294977,240.19443190887978 30.381970042843022,240.04685245544533 30.312512585922377,239.97544280336297 30.283267340884777,239.9040329953059 30.27961168526963,239.78025562526454 30.26133340713568,239.73264881969953 29.65815022851166,239.16612251318656 29.24871679818898,238.67099904737188 29.124424506837386,238.52817357732056 29.022066149263992,238.39010836318266 28.883151235393598,238.2282380593315 28.82831640096265,238.15206352138557 28.477373460686067,237.73310039025455 28.283623712413828,237.4760067198804 27.84128938142385,236.93324677645796 27.340464560387773,236.17146323627458 26.338814918330172,234.90019742522418 25.77218829600315,234.1716969818881 25.75756567348435,234.2002659325808 25.76122132911405,234.2002659325808 25.147071183630032,233.48127308068797 24.649902018209104,232.8432131994632 24.606034150681808,232.76226441378458 24.291647766687674,232.32894691709953 24.258746866034926,232.26704394865374 23.644596720536356,231.5146754221314 23.13280493262573,230.85276727179007 23.12549362135178,230.86705320074543 23.12914927698148,230.85276727179007 22.89153166116739,230.56704738151166 22.229857992511825,229.7289212937576 21.91547160851769,229.3669965658919 21.74000013836485,229.2622281334916 20.7017939400248,228.9812565884531 19.641653807921102,228.56693820803775 19.524672827814356,228.50979043299958 18.983635794880684,228.35263353640403 18.204981146132923,227.49063832947286 18.135523689197726,227.40491380622188 17.367836007324513,226.71910952460894 16.538002179790055,226.0523415631833 16.45392210035061,225.96661326679168 17.111940113376477,224.87117634818787 17.141185358399525,224.7330534339344 17.206987159705022,223.72807258239845 17.21064281532017,223.64710121561438 17.196020192830474,223.28510912219645 17.185053225941374,223.20413665767046 17.23257674909837,222.01334194553783 17.225265437853523,221.90378665188473 17.23257674909837,221.85615380092713 17.24719937161717,220.3747374703271 17.25816633849172,220.34615643047073 17.26182199412142,220.31757536559599 17.26182199412142,218.92659998774252 17.294722894774168,217.51174577781785 17.305689861648716,217.39741144833897 17.177741914667422,217.28784067373635 17.22160978220927,217.2544929737196 17.316656828537816,217.26402089148178 17.291067239144468,217.00200214035794 17.323968139782664,215.91579290082154 17.320312484182068,215.80145298484786 17.356869040449965,214.96294803722049 17.364180351694813,214.92483366447777 17.364180351694813,214.77237572877493 17.349557729190565,214.60562404672964 17.334935106671765,214.50557262885923 17.334935106671765,214.2816469163372 17.349557729190565,214.11012831096014 17.371491662968765,213.0 17.097317490857677,213.25728631546735 17.09000617961283,213.31446077697547 17.04979396770068,214.77714005003145 17.05710527896008,214.83431185098743 17.05344962333038,214.9153050643581 17.03882700082613,215.02011951290842 17.04979396770068,215.30121114622307 17.02054872266308,216.1301791644437 17.03517134518188,216.13494328764864 16.85969987504359,216.0730096317202 16.87066684193269,216.0587172329142 16.89260077571089,216.07777376328158 16.88163380882179,216.09206615374933 16.925501676349086,216.09683028250947 16.973025199506083,216.1158867906488 17.02054872266308,216.11112266464988 17.02786003392248,216.12065091593468 17.00227044452913,216.8162057523259 17.02054872266308,218.04530069073007 16.99130347764003,218.9837645264197 17.01689306704793,219.58874976277002 17.00958175578853,219.63162230716262 16.980336510765483,220.24612259401692 16.987647822024883,220.32233887815164 16.998614788928535,221.3417145854619 17.005926100173383,221.48937852247764 16.943779954497586,222.53729696579103 16.951091265742434,222.78974502148776 16.947435610098182,222.91834988480696 16.954746921372134,223.1184008882883 16.940124298853334,223.2422413718523 16.940124298853334,223.36131831725652 16.85604421941389,224.75686777113515 16.83045463002054,224.85212494643565 16.779275451233843,224.94738184404196 16.23458276267047,225.65227425580088 16.17609227260982,225.7999187133064 16.21630448452197,225.84278310827722 16.932812987608486,226.5238431732032 17.04613831207098,226.600044815008 18.091655821655877,227.4430136220908 18.175735901109874,227.52873804539922 18.7277399009472,228.2240500588705 20.208280430248124,228.92410953791114 21.10391605908808,229.20984379133006 21.326911052397918,229.2527037138898 21.345189330546418,229.2717525503067 21.370778919939767,229.2717525503067 22.405329462650116,230.13370078097796 22.51499913148291,230.24799055215408 23.450846972235013,231.41467576979267 23.54223836294841,231.54324669518974 24.456152269936865,232.7051239737957 25.13975987235608,233.60031272472406 25.18728339552763,233.6764978694082 25.59671682586486,234.21455039856664 25.735631739720702,234.42881663923254 26.7994275274541,235.77151977167523 26.876196295648697,235.881028587708 27.859567659557797,237.11892882375105 27.925369460863294,237.1284509515899 27.950959050256643,237.14749519894758 28.916052136046346,238.38534748333768 29.99447054626944,239.71360607806855 30.023715791321592,239.79929832807102 30.05296103634464,239.85642636997727 31.336096161743626,241.3179181693704 32.71062267787056,242.9459526427454 32.83857062482275,243.08875881757194 33.8584985450434,244.33590624025237 33.9645125582465,244.4406263784549 34.8930490877392,245.5496872613221 34.9442282665259,245.63060439441324 35.56568972329842,246.39216760292402 36.40649051772198,247.9533167462141 36.461325352138374,248.19604970607543 36.75377780238341,249.2907053816998 36.76474476925796,249.2954646742328 37.59092294116272,250.53761634734838 38.79363364276651,251.89869390834428 39.82452852986171,253.1121943322105 40.884668661950855,254.28282267507893 41.01992792019155,254.41606227051307 42.14586985360074,255.6627779079572 42.26650648932264,255.85311199341595 42.324996979368734,255.99586183092833 43.08171769435285,257.24251727700175 43.940796766924905,258.8650015154526 44.010254223874654,259.00298033449144 44.90954550834431,260.51595128957706 44.986314276524354,260.6253772940472 45.85636031597096,261.6244673711335 45.90388383914251,261.7101022443276 46.83607602426491,263.09925888891667 47.92546140142076,264.35515798460256 48.049753692757804,264.4693282402295 49.212252182434895,265.71090405792347 50.18465657946945,266.88108183560325 50.243147069515544,266.9476760608777 50.53194386413088,267.0 51.072980897064554,266.84778467215074 51.211895810920396,266.75740648636565 52.078286194751854,266.2484299386124 52.1221540622937,266.2056184662906 52.261068976149545,266.1057248131765 54.00481671068701,265.0259025338237 54.05599588947371,265.0021175011789 54.26071260466415,264.8784350527894 54.549509399264934,264.7214528106779 55.57674863071588,264.01740198009065 55.85823411405727,263.8556584339567 56.746558431652375,263.2705206940991 57.770142007488175,262.64731371154994 57.92733519949252,262.5569239272045 58.02603790143621,262.48556339481 58.25999986163515,263.5416833863055 58.2892451066582,263.60828440566183 58.30021207353275,263.6510992751173 59.005753609730164,263.48459669041404 59.08983368916961,263.43702436779495 59.795375225367025,263.41799541938235 59.84289874853857,263.48459669041404 59.89773358296952,263.5369261654596 59.809997847885825,263.58925555681344 59.81730915913067,263.60828440566183 59.83193178164947,263.6225560350322 59.88676661608042,263.6368276581925 60.2779217682546,263.94128746970455 60.2962000464031,263.9460446317971 60.833581423707074,263.7652719865182 60.866482324374374,263.74148603783397 60.91400584751682,263.75100041939004 61.76211795321433,263.28954972824795 61.86082065515802,263.2229480603273 62.833225052207126,262.4998355137286 62.93923906541022,262.42847485687525 63.812940760486526,263.52741172167225 63.82390772737563,263.5654694802033 63.81659641611623,263.58449834287603 63.787351171078626,263.60828440566183 63.22072454876616,263.6225560350322 63.231691515640705,263.6177988259369" stroke="#ff7100" stroke-linecap="round" stroke-linejoin="round" stroke-width="0.5"><title>2024-03-16 38.6km</title><desc>10969293139</desc></polyline><polyline fill="none" points="94.53525549528422,256.1005221353553 94.59691692830529,256.16070327241323 95.87639166420558,255.4786488491518 96.01512988860486,255.2579834611679 95.99971453030594,255.1978019305243 95.90722238080343,255.03731772046012 94.82814730226528,253.87380161673354 94.79731658578385,253.8938623223221 94.64316300308565,253.83368019686895 94.65857836138457,253.7734980451205 94.68940907792421,253.79355876526097 94.81273194402456,253.8938623223221 95.01313160144491,253.65313366295595 94.95147016836563,253.47258689290902 94.95147016836563,253.27197909366805 94.9206394518842,253.43246535643993 94.81273194402456,253.51270841778023 94.64316300308565,253.45252612612967 94.53525549528422,253.37228302974836 94.58150157006457,253.17167508471175 94.56608621176565,253.0111885187216 95.35226948326454,253.23185749881668 95.95346845558379,253.11149264429696 95.9688838138245,253.1516142741457 95.86097630596487,253.23185749881668 95.72223808156559,253.19173589230923 94.8435626605642,253.251918297683 94.56608621176565,253.4124045837525 94.58150157006457,253.45252612612967 94.55067085352493,253.47258689290902 94.4427633456653,253.5528299309808 94.27319440478459,253.43246535643993 94.38110191258602,253.05131017770327 94.5198401369853,253.21179669701087 96.50842135312269,254.9971966387384 96.49300599482376,255.03731772046012 98.37367970304331,253.9139230249566 98.78989437624114,253.61301217890286 99.25235512416111,253.4926476568362 99.36026263202075,253.5528299309808 99.49900085642003,253.71331586719316 99.83813873818144,254.23489387102018 102.30459606047953,256.5217895437672 104.98686839849688,255.98015978255717 107.31458749639569,253.43246535643993 108.02369397657458,252.7303365792468 108.74821581499418,251.90783832594752 108.90236939763417,251.84765533452446 109.22609192127129,251.86771633461467 109.33399942901451,251.82759433155297 112.01627176703187,248.67798069612763 112.40165572363185,248.27675086779345 113.98943762487033,246.37089325369743 114.86811304592993,245.46810940821888 116.53297173848841,244.26438842773496 116.87210962036625,244.0637672435405 121.35797887516674,243.5220885895542 121.89751641446492,243.56221300720063 126.55295461026253,243.14090604006196 127.0,243.18103056855034 125.68969454750186,243.1007814998593 125.44304881530115,243.12084377140854 124.78018840990262,243.32146632632066 124.64145018550334,243.26127959047153 124.62603482726263,243.08071922544332 123.43905224092305,241.57604032978998 118.62946046242723,238.5265074497147 114.83728232939029,236.17912374003208 111.73879531823331,234.21290836375556 111.7233799599926,230.98263656646304 112.2012560662115,223.23770176942344 112.23208678275114,222.61568037477264 112.21667142445222,222.59561512181244 112.24750214105006,222.5554846071609 109.21067656291416,222.39496243168833 105.8809591777972,222.39496243168833 102.62831858400023,222.49528881326842 98.92863260064041,222.3748971466557 93.74907222384354,222.39496243168833 93.08621181844501,222.3748971466557 91.32886097632581,222.47522354277316 89.84898658283055,222.43509299310972 88.21495860686991,222.45515826941119 86.98172994574998,222.41502771391242 86.81216100486927,222.49528881326842 81.63260062801419,222.53541934548412 81.61718526977347,222.65581087199098 81.69426206103526,223.3179623902979 81.67884670273634,223.4182881006709 81.67884670273634,223.5386788568867 81.75592349417275,224.12056603102246 81.8021695688949,224.18076111585833 81.60176991147455,224.14063106222602 81.6480159862549,224.28108619897102 81.72509277763311,225.0034246435389 81.75592349417275,225.0435544463253 81.78675421065418,225.74582410450967 81.8792463602731,226.38789609269588 81.94090779329417,226.2875725414924 81.35512417927384,226.2875725414924 81.49386240367312,226.3076372575306 81.66343134455383,226.40796079421125 81.91007707675453,226.40796079421125 81.98715386801632,226.5082842578704 81.8792463602731,226.42802549275802 81.58635455323383,227.7522891474946 81.50927776185563,231.96577077067923 81.01598629745422,232.90877046671812 80.33771053381497,233.65112739612232 80.04481872683391,234.15271765521902 78.39537539245794,236.3195666235115 77.79417642019689,235.8380475709564 77.57836140453583,235.51703393578646 76.42220953461947,233.99220897069608 75.42021124751773,232.48743097342958 74.40279760200065,231.10302072293416 73.43163003138034,231.223404774355 73.0,231.18327676887566 73.01541535818251,231.44410859585332 73.43163003138034,234.01227256646962 73.35455324006034,234.29316260099586 73.78618327144068,236.74089441625983 73.89409077930031,237.04184205198544 74.17156722804066,239.6299646274856 74.46445903502172,239.60990184848197 75.54353411355987,239.36914827270084 75.66685697966022,239.3089598131337 75.79017984576058,239.32902263589494 75.83642592054093,239.44939951132983 76.09848701109877,240.95410159426683 76.11390236933948,240.89391382598842 75.86725663713878,239.32902263589494 76.25264059373876,238.66694794422074 76.51470168423839,238.5265074497147 75.74393377109664,239.24877132727124 75.74393377109664,239.3089598131337 76.32971738505876,241.89703987081884 77.13131601479836,244.82612619179417 77.22380816441728,245.08693223362206 79.78275763627607,243.36159080227662 80.02940336853499,243.12084377140854 82.26463031681487,242.15785144815163 84.34570368251298,245.2474280143797 86.05680844991002,247.57459586148616 86.2109620324918,247.89558145042975 88.06080502422992,250.4835004890192 89.8027405081084,252.83064090894186 89.89523265772732,253.05131017770327 91.8067370824865,255.7996160564071 93.44076505844714,257.62510285335884 93.70282614894677,257.4646214655513 94.53525549528422,256.020280578392 94.45817870390601,255.87985774155823 94.35027119610459,255.87985774155823" stroke="#4dd2ff" stroke-linecap="round" stroke-linejoin="round" stroke-width="0.5"><title>2024-03-09 10.2km</title><desc>10921031918</desc></polyline></svg>