<?xml version="1.0" encoding="utf-8" ?>
<svg baseProfile="full" height="300mm" version="1.1" viewBox="0,0,200,300" width="200mm" xmlns="http://www.w3.org/2000/svg" xmlns:ev="http://www.w3.org/2001/xml-events" xmlns:xlink="http://www.w3.org/1999/xlink"><defs /><rect fill="#222222" height="300" width="200" x="0" y="0" /><text fill="#FFFFFF" style="font-size:12px; font-family:Arial; font-weight:bold;" x="10" y="20">Over 10km Runs</text><text fill="#FFFFFF" style="font-size:4px; font-family:Arial" x="10" y="280">ATHLETE</text><text fill="#FFFFFF" style="font-size:9px; font-family:Arial" x="10" y="290">OrdinarySk</text><text fill="#FFFFFF" style="font-size:4px; font-family:Arial" x="120" y="280">STATISTICS</text><text fill="#FFFFFF" style="font-size:3px; font-family:Arial" x="120" y="285">Number: 1</text><text fill="#FFFFFF" style="font-size:3px; font-family:Arial" x="120" y="290">Weekly: 1.0</text><text fill="#FFFFFF" style="font-size:3px; font-family:Arial" x="141" y="285">Total: 10.2 km</text><text fill="#FFFFFF" style="font-size:3px; font-family:Arial" x="141" y="290">Avg: 10.2 km</text><text fill="#FFFFFF" style="font-size:3px; font-family:Arial" x="167" y="285">Min: 10.2 km</text><text fill="#FFFFFF" style="font-size:3px; font-family:Arial" x="167" y="290">Max: 10.2 km</text><polyline fill="none" points="83.60576648591086,198.30156640606583 83.79075078526512,198.4821098172397 87.62917499290779,196.43594654742628 88.0453896659892,195.7739503835037 87.99914359115064,195.59340579152922 87.72166714258492,195.11195316136582 84.48444190691225,191.62140485018608 84.39194975746796,191.68158696696628 83.92948900931515,191.50104059060686 83.97573508438654,191.32049413534696 84.06822723406367,191.3806762957538 84.43819583230652,191.68158696696628 85.03939480450936,190.9594009888533 84.8544105051551,190.4177606787125 84.8544105051551,189.81593728097505 84.7619183557108,190.29739606930525 84.43819583230652,190.5381252533407 83.92948900931515,190.35757837840356 83.60576648591086,190.11684908921598 83.74450471042655,189.51502525413525 83.69825863558799,189.03356555613573 86.0568084497936,189.69557249645004 87.86040536686778,189.33447793289088 87.90665144170634,189.4548428223934 87.58292891806923,189.69557249645004 87.16671424498782,189.57520767688402 84.53068798198365,189.75575489300536 83.69825863558799,190.23721375124296 83.74450471042655,190.35757837840356 83.65201256074943,190.4177606787125 83.32829003711231,190.65848979292787 82.8195832145866,190.29739606930525 83.14330573799089,189.15393053309526 83.5595204110723,189.63539009101805 89.52526405942626,194.9915899162006 89.4790179845877,195.11195316136582 95.12103910930455,191.7417690748698 96.36968312878162,190.83903653669404 97.75706537254155,190.47794297049404 98.08078789617866,190.65848979292787 98.49700256926008,191.13994760156493 99.51441621477716,192.70468161304598 106.91378818172961,199.56536863130168 114.96060519572347,197.94047934765695 121.94376248936169,190.29739606930525 124.07108192984015,188.19100973769673 126.24464744515717,185.72351497781347 126.70710819307715,185.54296600352973 127.6782757639885,185.6031490038149 128.00199828715995,185.48278299465892 136.04881530138664,176.03394208833924 137.20496717095375,174.8302526033658 141.9683128746692,169.11267976110685 144.6043391379062,166.40432822465664 149.59891521558166,162.79316528316122 150.61632886133157,162.19130173060694 164.07393662561662,160.56626576866256 165.69254924356937,160.68663902161643 179.65886383107863,159.4227181201859 181.0,159.54309170562192 177.0690836426802,159.30234449956333 176.32914644596167,159.36253131422563 174.3405652299989,159.96439897897653 173.92435055668466,159.78383877140004 173.87810448207892,159.2421576762863 170.31715672300197,154.72812098936993 155.88838138757274,145.5795223491441 144.51184698822908,138.53737122006714 135.21638595499098,132.63872509126668 135.17013988015242,122.94790969937458 136.6037681987509,99.71310530824121 136.69626034842804,97.84704112433246 136.65001427358948,97.78684536542278 136.7425064232666,97.66645382146817 127.6320296889171,97.18488729503588 117.6428775335662,97.18488729503588 107.8849557521753,97.4858664397907 96.78589780209586,97.12469143993803 81.24721667170525,97.18488729503588 79.25863545550965,97.12469143993803 73.98658292903565,97.4256706283195 69.54695974872448,97.30527897932916 64.64487582072616,97.36547480823356 60.94518983736634,97.24508314172272 60.43648301484063,97.4858664397907 44.89780188421719,97.60625803642324 44.851555809378624,97.96743261595839 45.08278618333861,99.95388717087917 45.03654010850005,100.25486430199817 45.03654010850005,100.61603657063097 45.26777048269287,102.36169809306739 45.40650870697573,102.54228334754589 44.80530973454006,102.4218931866344 44.94404795882292,102.84325859686942 45.17527833301574,105.01027393061668 45.26777048269287,105.13066333896131 45.360262632137164,107.23747231348534 45.63773908093572,109.16368827808765 45.82272338005714,108.86271762446268 44.06537253805436,108.86271762446268 44.481587211135775,108.92291177259176 44.990294033894315,109.2238823826192 45.730231230380014,109.2238823826192 45.96146160434,109.5248527736112 45.63773908093572,109.28407647824497 44.759063659701496,113.25686744245468 44.52783328574151,125.89731231200858 43.04795889253728,128.72631140012527 41.01313160150312,130.95338218833786 40.13445618073456,132.4581529656134 35.186126177664846,138.95869987053447 33.3825292608235,137.5141427128401 32.7350842137821,136.55110180733027 29.266628604149446,131.9766269120737 26.260633742669597,127.4622929202742 23.208392806351185,123.30906216878793 20.294890094315633,123.6702143230359 19.0,123.54983030658332 19.046246074605733,124.33232578751631 20.294890094315633,132.03681769937975 20.063659720355645,132.87948780297302 21.358549814438447,140.2226832487504 21.682272338075563,141.12552615595632 22.51470168423839,148.88989388244227 23.39337710523978,148.8297055454168 26.630602340912446,148.10744481810252 27.000570939155295,147.92687943938654 27.370539537398145,147.98706790764118 27.509277761913836,148.34819853396039 28.29546103347093,152.86230478278594 28.341707108309492,152.6817414779507 27.601769911590964,147.98706790764118 28.757921781390905,146.00084383267676 29.544105052947998,145.5795223491441 27.231801313348114,147.74631398182828 27.231801313348114,147.92687943938654 28.989152155350894,155.69111961242743 31.393948044627905,164.47837857538252 31.671424493426457,165.2607967008662 39.34827290894464,160.08477240681532 40.088210105663165,159.36253131422563 46.79389095073566,156.47355434441124 53.037111047655344,165.74228404313908 58.17042534984648,172.72378758445848 58.63288609753363,173.68674435126013 64.18241507280618,181.45050146704307 69.40822152444161,188.49192272682558 69.68569797324017,189.15393053309526 75.42021124763414,197.3988481692213 80.32229517563246,202.87530856006197 81.10847844695672,202.3938643966394 83.60576648591086,198.06084173516138 83.37453611195087,197.63957322464557 83.05081358831376,197.63957322464557" stroke="#4DD2FF" stroke-linecap="round" stroke-linejoin="round" stroke-width="0.5"><title>2024-03-09 10.2km</title><desc>10921031918</desc></polyline></svg>