<?xml version="1.0" encoding="utf-8" ?>
<svg baseProfile="full" height="300mm" version="1.1" viewBox="0,0,200,300" width="200mm" xmlns="http://www.w3.org/2000/svg" xmlns:ev="http://www.w3.org/2001/xml-events" xmlns:xlink="http://www.w3.org/1999/xlink"><defs /><rect fill="#222222" height="300" width="200" x="0" y="0" /><text fill="#FFFFFF" style="font-size:12px; font-family:Arial; font-weight:bold;" x="10" y="20">Over 10km Runs</text><text fill="#FFFFFF" style="font-size:4px; font-family:Arial" x="10" y="280">ATHLETE</text><text fill="#FFFFFF" style="font-size:9px; font-family:Arial" x="10" y="290">OrdinarySk</text><text fill="#FFFFFF" style="font-size:4px; font-family:Arial" x="120" y="280">STATISTICS</text><text fill="#FFFFFF" style="font-size:3px; font-family:Arial" x="120" y="285">Number: 4</text><text fill="#FFFFFF" style="font-size:3px; font-family:Arial" x="120" y="290">Weekly: 1.0</text><text fill="#FFFFFF" style="font-size:3px; font-family:Arial" x="141" y="285">Total: 94.4 km</text><text fill="#FFFFFF" style="font-size:3px; font-family:Arial" x="141" y="290">Avg: 23.6 km</text><text fill="#FFFFFF" style="font-size:3px; font-family:Arial" x="167" y="285">Min: 10.2 km</text><text fill="#FFFFFF" style="font-size:3px; font-family:Arial" x="167" y="290">Max: 38.6 km</text><polyline fill="none" points="79.38919199688826,115.11248456628527 79.43590340123046,115.18086985154514 79.92053422139725,115.43161513218729 79.9322120724537,115.5 78.79362159140874,115.21886163804447 78.46080283541232,114.72496626016436 78.36738002669881,114.61098974110064 78.22140688810032,114.32984659833892 78.13382300492958,114.20827071695749 77.92946061090333,113.88913268321267 77.49154119513696,113.29644259453926 77.31053450328181,113.08368041084032 77.22295062011108,112.93170689231556 76.66241376788821,112.1034434510293 75.90335344715277,111.04719855618168 75.63476287215599,110.6444520765981 75.52966221238603,110.46967433696773 75.41872262701509,110.32529228517524 75.30194411618868,110.15811256913366 75.01583676453447,109.77055753452441 74.840668998193,109.51218591511497 74.68301800850895,109.30700754284771 74.54288379545324,109.17022151391575 74.36187710359809,108.88144983291932 73.68456174051971,107.91633290213576 72.9897296007839,106.95879770662577 72.3416088653903,106.02404404753179 71.51832036371343,104.86127835969819 71.44241433162824,104.76248008272887 70.67751508537913,103.9036871925091 70.4906694679812,103.77448704091876 69.52724675321952,102.7712749953862 69.48053534887731,102.66487258829511 68.96670990102575,101.92004967282628 68.89080386896967,101.76804369194724 68.77402535805595,101.63883826056917 68.68644147491432,101.49443181219613 68.44704552763142,101.16761574506381 67.95073685637908,100.44557300216184 66.99315306718927,99.70071845547864 66.14650886331219,99.08506535686683 66.00637465025648,98.96345401035433 65.25315325509291,98.41619944880222 64.16127417836105,97.58010502405523 63.040200473944424,96.79720447996078 62.85919378208928,96.63758254110144 62.065099908126285,96.0522979267298 62.012549578241305,95.9762864568911 61.89577106735669,95.87747138075065 60.05650952103315,94.56245296118504 59.05221432747203,93.83271747868639 58.01872450619703,92.75329838986727 57.633355420286534,92.17557196918278 57.56328831377323,92.01593591068377 56.81590584415244,90.67801453139691 56.4422146093566,90.04705108273629 55.875838831590954,88.94474725462715 55.38536908588139,88.08569435237223 55.30946305382531,87.91844347191363 54.451140998862684,86.36754616725011 54.31100678583607,86.06344325720784 54.24093967929366,85.9646094302916 52.921342506364454,84.61893025763857 52.55932912265416,84.39084560612173 52.44838953734143,84.30721431767233 51.01785277907038,83.41767323623935 50.18872535182163,82.99950766433903 50.054430064279586,82.90066804001253 49.073490572947776,82.27721379130526 48.898322806635406,82.14796014988679 48.6589268592943,82.02630937166396 48.296913475584006,81.79061018259017 48.121745709271636,81.6765618060308 48.069195379386656,81.6157359033823 48.069195379386656,81.54730667823242 48.14510141144274,81.28879546302414 48.20932959244237,80.98466298350104 48.44872553975438,79.63125197430782 48.58885975278099,78.75683857222248 48.600537603895646,78.49831354501657 49.03845701966202,76.94713650695485 49.27201404143125,76.65058270957525 49.26617511588847,76.58214697870062 48.93335635989206,75.81413984878236 49.23114156263182,74.61268029755229 49.41798718002974,72.86367078288094 49.44718180774362,72.25530591555071 49.476376435457496,71.86746961311655 49.476376435457496,71.79142294151097 49.78583948928281,69.8598003489642 50.048591138765914,68.42244425502577 50.066107915423345,68.12584204085579 50.15953072410775,67.76079084882076 48.84577247672132,66.92420557353398 48.20932959244237,66.15605637958652 47.6020813358773,65.69972477454212 47.42691356953583,65.60085240105764 46.28832308849087,64.855500790105 45.739464087353554,64.49042673087024 45.71610838518245,64.4523980362028 43.50899452960584,63.060528750818776 43.00684693281073,62.710654132213676 41.885773228365,61.98047346181556 41.634699429996544,61.80553282627807 38.7152366580267,59.972423953931866 38.32402864660253,59.66056085054879 36.95188114378834,58.724960360956175 36.870136186189484,57.88062357236777 36.84678048398928,56.9754185117381 36.84678048398928,56.290799216116284 36.85845833507483,54.69331927024541 36.85261940956116,54.55639014263943 36.946042218245566,53.29358236577173 36.946042218245566,53.11861261315062 36.986914697044995,52.39590524571395 37.594162953610066,51.58950415921936 37.60584080469562,51.467782158157206 37.56496832589619,51.39931340777184 35.55637793880305,50.448349253641936 34.42946530881454,49.72560490682372 33.57114325388102,49.19305003563204 32.95805607177317,48.78221827869129 30.686714035167824,47.23776625798928 30.102821480773855,46.80409417039118 30.0677879275172,46.7660525872634 30.167049661744386,46.24868430322749 30.645841556368396,44.74220037896521 30.657519407453947,44.59002786700512 30.71006973736803,44.17155117079892 30.70423081179615,43.15958456122462 30.739264365081908,42.178034286629554 30.71006973736803,41.23451119004676 30.71006973736803,38.913676130778185 30.727586513996357,37.77985359523154 30.715908662881702,37.026494794510654 30.71006973736803,34.57610102814215 31.895371622755192,34.50761010779752 33.29671375328326,34.50761010779752 33.582821104937466,34.5 33.60617680710857,34.51522021449637 34.34188142567291,35.58823414528524 34.522888117528055,35.58062419511407 34.563760596327484,35.61106398912307 34.56959952187026,35.64911370666596 34.55792167078471,36.5470789840474 34.55792167078471,37.33088349855825 34.54624381969916,37.460248159986804 34.97248538437998,37.749415066708025 35.521344385517295,37.75702470048782 35.5447000877175,37.77224396477686 35.573894715402275,37.741805431807734 35.562216864316724,37.71136688108527" stroke="#4dd2ff" stroke-linecap="round" stroke-linejoin="round" stroke-width="0.5"><title>2024-04-05 16.7km</title><desc>11109163802</desc></polyline><polyline fill="none" points="184.97093023255002,75.62762125012159 185.02906976742088,75.67301690444947 185.08139534882503,75.70328065200374 185.15697674418334,75.7259784511225 185.31395348836668,75.74867624032777 185.3895348836959,75.77137401965956 185.43604651163332,75.80920362988036 185.5,75.92269229556769 184.90697674415424,76.4750002699111 183.4302325581375,74.3338284597121 183.31395348833757,74.18250556501516 182.76744186045835,73.44858328501869 181.45348837209167,73.79663019239524 181.0697674418625,74.03874840758726 180.81395348836668,74.22790247962621 180.72674418604583,74.25060092207423 180.6395348836959,74.23546862820876 180.59302325581666,74.20520402726106 180.5348837208876,74.13710861082654 180.26744186045835,73.75123290168995 179.84302325581666,73.24429379898356 179.80813953487086,73.15349821449126 179.77906976742088,73.0627024716232 179.76162790696253,73.02487086534165 179.5348837209167,72.86597781874298 179.34883720928337,72.59358861037981 179.25,72.54062387656086 179.2151162790542,72.47252628245042 179.18604651163332,72.37416293366914 179.16279069765005,72.35146367294146 179.139534883725,72.35146367294146 179.110465116275,72.35903009428148 177.19767441859585,73.98578514425026 176.09883720928337,74.727265927173 175.65697674418334,74.98451189422485 175.44767441856675,75.12826643975495 175.0058139534667,75.38551042515246 174.69186046510004,75.58222555620887 174.26744186045835,75.83190138281498 174.08139534879592,75.92269229556769 173.87209302323754,76.04374659961468 173.77906976742088,76.08914189103598 173.66860465117497,76.11940539667194 173.47093023255002,76.27828851257436 172.9999999999709,76.60361909400308 172.63372093022917,76.84572425366787 172.3953488371917,76.96677641125643 171.97093023255002,77.26183986612159 171.62790697673336,77.41315380962624 171.62790697673336,77.38289105608419 170.6453488371917,78.10162669936835 168.63372093022917,79.39532585191773 168.24418604650418,79.6525487525505 167.66279069765005,79.99298887273835 167.59302325578756,80.00811949308627 167.55813953487086,80.04594602467841 165.66860465114587,81.2412502675943 161.77325581395417,83.64690599277674 161.74418604647508,83.65447077256249 161.1802325581084,84.16130851528942 158.9302325581375,85.56076024633512 156.9302325581375,86.83158112415549 155.76162790696253,87.4896726038387 154.0,88.6923700258667 153.8255813953292,88.78313851532948 152.0755813953292,89.887475797972 151.80232558137504,90.04631690530368 151.62790697673336,90.16733837615902 151.26162790696253,90.32617862984262 150.98255813951255,90.53796488114676 150.80813953487086,90.60603885044475 149.13372093022917,91.83135508150372 148.97674418604583,91.95237240425558 148.87209302323754,92.00531739451253 148.8255813953583,92.05069877192 148.02325581392506,93.88861132475358 147.98837209300837,93.87348473719612 147.88372093022917,93.7902884269788 147.27325581395417,93.41968506699413 147.09883720928337,93.29110777485403 145.5348837209167,92.26247801017598 143.59302325578756,91.31702832260271 143.45348837209167,91.22626424958798 142.4244186046417,90.8253877017014 142.2558139534667,90.78756900015287 142.11627906974172,90.7421865220349 139.87790697673336,89.97067834317932 139.33720930229174,89.8042731198475 137.15697674418334,88.9268549667031 136.97093023255002,88.82095867254247 135.8953488371917,88.38980725170404 135.860465116275,88.4049354321869 135.76744186045835,88.37467906684833 135.70930232555838,88.39737134250026 135.6802325581375,88.42006360823507 135.66860465117497,88.45031994718738 135.6453488371917,88.56378106166085 134.9244186046417,90.764877766047 134.33139534879592,92.73141468738686 134.2558139534667,92.87512024323587 132.5,93.026388820992 132.27906976742088,92.98857171773125 130.8546511627792,92.88268368254285 127.89534883722081,92.73141468738686 126.8197674418625,92.6557800250448 124.69767441859585,92.13389786106563 124.55813953487086,92.08851655617764 124.47093023252091,92.05069877192 123.72674418604583,90.65898520947303 123.77325581395417,90.05388075547671 122.33139534882503,89.81183700518523 121.02325581395417,89.8042731198475 119.8197674418625,89.83452865454092 117.9302325581375,89.85722029403769 115.97093023255002,89.85722029403769 115.95348837206257,89.84209253546942 115.90697674418334,89.87234804821492 115.83720930232084,89.887475797972 113.51744186042924,89.84209253546942 113.36627906977083,89.81940088939518 113.27325581395417,89.78914534589421 111.1104651162459,88.72262620659967 110.99418604653329,88.63942166729612 110.91860465114587,88.56378106166085 109.29651162790833,86.24912540515288 107.94767441859585,85.16740464114264 107.76744186042924,85.09175899178445 105.62209302323754,84.69083521537323 104.5,83.41239727391076 104.55232558137504,83.14762809604872 104.83139534882503,82.19444790720445 105.38953488372499,80.39394882596389 105.45348837209167,80.16699074115604 105.90697674418334,78.63878054293673 106.44186046512914,76.92138188514218 107.39534883722081,75.49143404963252 107.66279069765005,75.52169790276093 110.00581395346671,75.57465960338595 112.54651162790833,75.29471857547833 112.70348837209167,75.25688859135334 114.80813953487086,75.13583245747941 115.04069767438341,75.18879455068964 116.7499999999709,76.36151280833292 119.34302325581666,78.57069092585516 119.41279069765005,78.5782564432593 119.44767441859585,78.6085185018892 119.50581395346671,78.66904256639464 119.86627906974172,78.97922729249694 120.34302325581666,79.44071822083424 122.13372093022917,80.9235138429649 123.0697674418625,82.2322728503641 123.07558139535831,82.29279270228653 123.05813953487086,82.45922193229853 123.08720930232084,82.48191678608782 124.18604651163332,81.92967253561073 125.26162790699163,81.28664102711991 126.59883720928337,80.37881831775667 128.40697674418334,79.25914850767367 128.48255813951255,79.22132140438771 128.5406976744125,79.17592884416081 128.63372093020007,79.138101680408 129.29651162787923,78.67660806950153 130.1395348836959,78.13188903505215 130.30232558137504,78.04866756955744 131.48255813954165,77.35262828499253 133.0,76.3842103204588 133.0755813953292,76.3236835994685 133.7848837209167,75.90756048778348 135.59302325578756,74.71969985005853 137.08720930232084,73.81932882290494 137.15116279068752,73.79663019239524 138.34883720928337,73.00217188837996 138.4651162790542,72.94920757032014 140.26744186045835,71.8369444411801 140.4302325581375,71.72344686710494 140.50581395349582,71.64021515550121 141.02325581392506,71.29215382852999 144.389534883725,69.21130386492587 144.4302325581375,69.18103634251747 144.5348837209458,69.1583356891606 144.55813953487086,69.10536745946956 144.62209302323754,69.02213156109428 144.76744186045835,68.90862784873389 144.94186046510004,68.82539163570254 145.3953488372208,68.55298128043796 147.1744186046417,67.42548992432785 148.8255813953583,66.43418539886989 148.90116279068752,66.36607981463385 148.9593023255875,66.34337793339728 149.6453488371917,65.82123193191364 151.77325581395417,64.49692510128807 151.94767441856675,64.41368183189479 153.73255813951255,63.33907494487357 154.20348837209167,62.99852587830537 155.45348837209167,62.20390272244185 155.72093023255002,62.05254455505201 157.37209302323754,61.22763480456342 159.1802325581375,60.34216666659995 161.47093023255002,59.23720238610622 163.11627906977083,57.9505705724805 164.74418604647508,56.36115793317731 166.1453488372208,56.11138867524278 166.4302325581084,56.346020436532854 169.889534883725,58.87392133274625 170.3604651162459,59.25233904160632 170.6104651162459,59.41884196164392 172.12209302323754,60.56921121536652 172.22674418604583,60.62975626107436 172.72674418601673,61.01572927127927 172.9999999999709,61.19736263836967 173.5406976744125,61.659011259424005 173.58720930229174,61.68928315705489 174.84883720931248,63.40718449074848 174.97674418604583,63.59637720599858 176.55813953484176,63.861245851770946 176.77906976742088,63.823407556345046 178.48837209300837,63.89908411969736 180.1802325581375,63.823407556345046 181.34302325578756,63.83854287781651 182.95348837209167,63.823407556345046 183.68604651160422,63.59637720599858 184.2848837209167,63.55853871798172" stroke="#ff5700" stroke-linecap="round" stroke-linejoin="round" stroke-width="0.5"><title>2024-03-24 28.9km</title><desc>11025858700</desc></polyline><polyline fill="none" points="89.90237210789928,260.54087113287096 89.90237210789928,260.51946373546525 90.28621594884316,260.64077219725004 90.34105078325956,260.69072265322757 90.35201775014866,260.747808826407 90.29169943230227,260.826302206151 90.19299673032947,260.89765971521047 90.03945919394027,260.9904243219171 89.87495469069108,261.0760530340922 89.78721895563649,261.09746018881197 89.75431805496919,261.090324471621 89.721417154331,261.06891731378346 89.6720658033446,261.0189672425731 89.5185282669845,260.78348765093324 89.3814411808853,260.54087113287096 89.22790364452521,260.29825341585456 89.04694869095692,260.06277036753454 88.85502677049953,259.7630630361091 88.78922496916493,259.64175240565237 88.66858833347214,259.48476173303425 88.58085259841755,259.33490653179615 88.44924899577745,259.15650688631285 88.35602977726376,259.06373881446416 88.25732707532006,258.9138823281137 87.88993368472438,258.4286296145692 87.68156131391879,258.1146400088037 87.6047925457242,258.0218699682555 87.5280237775296,257.89341885345493 87.22094870480942,257.46524604347724 87.11127903597662,257.3367934722846 86.96322498301743,257.1084325158081 86.78227002944914,256.85152517008464 86.67260036061634,256.66598013978364 86.44229405606166,256.3876612794447 86.27778955278336,256.1450230368573 86.12425201642327,255.88811064930633 85.95426402971498,255.65260644624504 85.80620997675578,255.48132995255946 85.6307385066466,255.21727752066 85.4991349040356,255.03172631341295 85.4443000696192,254.93895044677265 85.29076253323001,254.7462615481054 85.06593971213442,254.41797501576366 84.95078655984253,254.2895144706781 84.84660037446884,254.0968230227627 84.73693070560694,253.92554110068522 84.64371148709324,253.81135282063406 84.61629406985594,253.74712179635026 84.58339316924685,253.6971642749486 84.56145923546865,253.69002748201456 84.55049226860865,253.7043010668276 84.51759136791225,253.64720670266252 84.38050428187125,253.45451273335857 84.17213191109477,253.11194380909365 84.02956134159467,252.91211083253438 83.79377155358088,252.6337706880331 83.70055233506719,252.49816850739808 83.3989607457479,252.0984967432414 82.13775955414167,250.29279624405535 82.03905685216887,250.17859951268474 80.79430611085263,249.1365420649272 80.72850430954713,249.0508925236354 80.60786767382524,248.8296305168078 79.84017999196658,247.63765351252732 79.2698977139953,246.8168141926435 79.2589307471062,246.83822756669906 77.91547730384627,245.71758177475203 76.53363947648904,244.6968439116099 74.95439624518622,243.49762824929712 74.12639024545206,242.8123489986574 74.08252237792476,242.80521062275875 72.65681668304023,241.73444247915904 72.25652239174815,241.4489003613562 72.07556743820896,241.29185148830948 71.88912900118157,241.17049519669308 70.60051039230893,240.22818907224428 70.49632420690614,240.14252398177632 69.52574763770099,239.08597556883979 68.90611400874332,237.90090095453343 68.47840230027214,237.20840434577985 68.34131521423114,237.17270837941396 66.66336928098463,237.8152318007451 66.60305096313823,237.7010060296925 65.85729721502867,236.51589796285407 65.84084676473867,236.40166916675662 65.2705644867383,235.4735503393822 64.33288881817134,234.045640934939 63.03878672589781,233.78861282840808 62.95653447424411,233.78861282840808 61.91467262027436,233.86714933718758 61.805002951441566,233.89570803645256 60.209309269848745,234.51685563285355 60.05577173345955,234.53827437523432 59.979002965264954,234.53827437523432 59.95706903151586,234.56683268382403 59.84739936268306,234.61680968389555 57.74174172099447,234.59539097580273 57.566270250827074,234.58111183189976 57.39079878068878,234.58825140438785 57.144042025815,234.55969310824003 56.79309908550931,234.54541395393608 54.989033033140004,235.01662385161762 54.81904504643171,235.02376336070665 53.67848049051827,234.98806580482415 52.23084086185554,235.08801889585084 52.104720742674544,235.13085587251408 51.622174199757865,235.25222710329763 50.11421625324874,235.59492072236753 49.97164568377775,235.63775725645246 48.8694655119034,234.90239156474127 48.77076280998881,234.83099625037357 48.73786190932151,234.8167171750465 48.75979584309971,234.8238567132248 48.77076280998881,234.7881590118741 48.74882887621061,234.80243809554668 48.72141145900241,234.7810194684971 47.800186240754556,233.78147313956651 46.917345406604,232.6890885042667 45.88096703606425,231.43959913057915 45.65066073150956,231.18255736966967 43.85756164600025,229.04763069357796 43.52306915601366,228.6406274373694 42.72248057354591,227.69808061475487 42.66216225567041,227.6052530540219 41.65868478579796,226.37705648070187 40.8964805873693,225.4558888674983 40.748426534439204,225.29164786331967 40.57295506427181,225.070278683168 40.46876887889812,224.96316420504445 40.42490101134172,224.85604949295885 40.41941752791172,224.67038343789318 40.39200011070352,224.5989732295493 39.487225342774764,223.74918376977803 38.8730751973053,223.006498571056 38.686636760277906,222.79226036597902 38.53309922388871,222.58516254477217 38.32472685308312,222.3423570889936 38.242474601458525,222.22809528208018 37.71606019104365,221.59965058538364 37.42543556864257,221.21401007981694 36.7619340721576,220.39987016468513 36.010696840588935,219.25719485441005 34.50822237750981,217.35029613783627 33.65828244399745,216.2575454728285 33.636348510248354,216.3003988988712 33.64183199367835,216.3003988988712 32.7206067754596,215.22190962103195 31.974853027320933,214.2648197991948 31.90905122604454,214.14339662067505 31.437471650046064,213.4934203756493 31.388120299059665,213.4005659229806 30.46689508081181,212.2720131331953 29.69920739895315,211.2791509076851 29.68824043206405,211.30057980112178 29.693723915494047,211.2791509076851 29.337297491758363,210.85057107226748 28.344786988775013,209.59338194063457 27.873207412776537,209.05049484883784 27.61000020755455,208.89334220023738 26.052690910059027,208.47188488268148 24.462480711896205,207.850407312053 24.287009241757914,207.7646856495012 23.475453692342853,207.52895030460422 22.307471719221212,206.2359574942093 22.203285533818416,206.10737070933465 21.051754011015873,205.07866428690977 19.807003269699635,204.07851234477494 19.680883150547743,203.94991990018752 20.66791017007199,202.30676452228363 20.71177803762839,202.0995801509016 20.810480739572085,200.5921088735995 20.815964223002084,200.47065182341976 20.794030289252987,199.92766368329467 20.77757983893389,199.8062049865075 20.848865123669384,198.02001291830675 20.837898156780284,197.85567997783073 20.848865123669384,197.78423070139252 20.870799057447584,195.56210620548882 20.88724950773758,195.5192346457079 20.89273299119668,195.47636304839034 20.89273299119668,193.3898999816156 20.942084342153976,191.26761866672314 20.958534792502178,191.09611717250664 20.766612872015685,190.93176101060453 20.832414673321182,190.8817394605794 20.974985242821276,190.89603133721903 20.936600858723978,190.5030032105351 20.985952209681273,188.87368935123231 20.980468726280378,188.70217947726996 21.03530356066767,187.4444220558289 21.04627052755677,187.38725049671848 21.04627052755677,187.1585635931624 21.024336593807675,186.90843607009083 21.002402660029475,186.75835894328702 21.002402660029475,186.4224703745058 21.024336593807675,186.16519246643657 21.057237494474975,184.5 20.64597623629379,184.8859294731992 20.635009269433795,184.97169116546138 20.574690951558296,187.165710075049 20.585657918447396,187.2514677764848 20.580174435017398,187.37295759653716 20.558240501239197,187.53017926936445 20.574690951558296,187.95181671933096 20.530823084001895,189.19526874666553 20.552757017780095,189.20241493147478 20.28954981258721,189.1095144475803 20.30600026290631,189.08807584937313 20.33890116357361,189.11666064492238 20.32245071325451,189.13809923062217 20.388252514530905,189.1452454237624 20.459537799295504,189.1738301859732 20.530823084001895,189.16668399697664 20.541790050890995,189.18097637390383 20.5034056668228,190.2243086284907 20.530823084001895,192.06795103609693 20.4869552164746,193.47564678962954 20.525339600601,194.38312464415503 20.5143726337119,194.44743346074392 20.4705047661555,195.36918389102357 20.4814717330446,195.48350831722564 20.497922183392802,197.01257187819647 20.5088891502528,197.23406778371645 20.415669931768207,198.80594544868654 20.426636898628203,199.18461753223164 20.4211534151691,199.37752482721044 20.4321203820582,199.67760133243428 20.410186448309105,199.8633620577748 20.410186448309105,200.04197747588478 20.28406632912811,202.13530165670454 20.24568194503081,202.2781874196553 20.168913176865317,202.42107276606475 19.351874144020258,203.47841138370495 19.264138408907456,203.69987806996141 19.32445672681206,203.76417466241764 20.399219481420005,204.785764759803 20.569207468128297,204.900067222512 22.13748373251292,206.1645204331362 22.26360385166481,206.29310706809702 23.091609851428075,207.33607508830755 25.31242064537946,208.38616430686307 26.655874088639393,208.81476568699145 26.99036657862598,208.87905557083286 27.01778399583418,208.90762882546187 27.056168379931478,208.90762882546187 28.607994193997,210.20055117146694 28.772498697246192,210.37198582823112 30.176270458381623,212.12201365469082 30.313357544422615,212.3148700427846 31.68422840491985,214.05768596069538 32.7096398085414,215.4004690870861 32.780925093305996,215.51474680411047 33.395075238804566,216.32182559784997 33.60344760958105,216.643224958847 35.19914129120298,218.65727965751285 35.31429444349487,218.82154288156016 36.789351489336696,220.67839323562293 36.88805419130949,220.69267642738487 36.92643857540679,220.7212427984232 38.37407820406952,222.57802122500652 39.99170581944054,224.5704091170992 40.03557368699694,224.6989474921029 40.07944155452424,224.78463955496773 42.00414424261544,226.97687725405558 44.06593401680584,229.4189289641181 44.257855937234126,229.6331382263561 45.78774781757966,231.5038593603822 45.94676883739885,231.66093956768236 47.33957363161608,233.32453089198316 47.416342399810674,233.44590659161986 48.34853458494763,234.58825140438785 49.609735776582966,236.92997511932117 49.691988028236665,237.29407455911132 50.130666703596944,238.93605807255153 50.14711715388694,238.94319701134737 51.38638441177318,240.80642452101893 53.19045046417159,242.84804086251825 54.736792794807116,244.66829149831392 56.327002992940834,246.4242340126184 56.52989188028732,246.62409340577142 58.21880478042294,248.4941668619358 58.39975973399123,248.7796679901221 58.48749546907493,248.99379274639432 59.62257654152927,250.86377591550263 60.91119515040191,253.2975022731771 61.015381335804705,253.50447050173534 62.36431826252374,255.7739269343656 62.47947141478653,255.93806594107082 63.78454047397827,257.43670105670026 63.85582575871376,257.5651533664932 65.2541140364192,259.6488883333768 66.88819210213842,261.53273697690383 67.07463053916581,261.7039923603443 68.81837827365962,263.56635608688157 70.27698486921145,265.3216227534067 70.36472060429514,265.42151409131475 70.79791579622542,265.5 71.60947134561138,265.2716770082261 71.81784371641697,265.1361097295485 73.11742929214961,264.37264490791495 73.1832310934551,264.30842769943774 73.3916034642607,264.15858721976474 76.00722506604507,262.5388538007355 76.08399383421056,262.5031762517683 76.39106890698895,262.3176525791823 76.82426409889013,262.0821792160168 78.36512294609565,261.026102970136 78.78735117110773,260.78348765093324 80.11983764750767,259.90578104114684 81.65521301125409,258.9709705673231 81.89100279923878,258.83538589080854 82.03905685216887,258.728345092215 82.38999979247455,260.3125250794583 82.43386766000185,260.41242660849457 82.45031811032095,260.47664891267414 83.5086304146098,260.2268950356229 83.63475053376169,260.15553655169424 84.69306283807964,260.12699312907716 84.76434812281514,260.2268950356229 84.84660037446884,260.30538924818757 84.71499677182874,260.38388333522016 84.72596373871784,260.41242660849457 84.74789767249604,260.43383405254644 84.83014992412063,260.45524148728873 85.416882652411,260.911931204555 85.4443000696192,260.9190669476957 86.25037213557516,260.6479079797791 86.29972348656156,260.61222905675095 86.37100877129706,260.62650062908506 87.6431769298506,259.9343245923701 87.79123098275159,259.8344220904946 89.24983757830341,258.7497532705929 89.40885859815171,258.64271228530924 90.71941114074434,260.2911175825102 90.73586159109254,260.34820422030316 90.72489462420344,260.37674751431405 90.68102675664704,260.41242660849457 89.83108682316379,260.43383405254644 89.84753727348289,260.4266982389054" stroke="#ff0000" stroke-linecap="round" stroke-linejoin="round" stroke-width="0.5"><title>2024-03-16 38.6km</title><desc>10969293139</desc></polyline><polyline fill="none" points="136.80288324295543,249.15078320303292 136.89537539263256,249.24105490861984 138.8145874964539,248.21797327371314 139.0226948329946,247.88697519175184 138.99957179557532,247.7967028957646 138.86083357129246,247.5559765806829 137.24222095345613,245.81070242509304 137.19597487873398,245.84079348348314 136.96474450465757,245.75052029530343 136.98786754219327,245.66024706767348 137.03411361703184,245.6903381478769 137.21909791615326,245.84079348348314 137.51969740225468,245.47970049442665 137.42720525257755,245.20888033935626 137.42720525257755,244.90796864048752 137.3809591778554,245.14869803465263 137.21909791615326,245.26906262667035 136.96474450465757,245.17878918920178 136.80288324295543,245.058424544608 136.87225235521328,244.75751262706763 136.849129317794,244.51678277806786 138.0284042248968,244.84778624822502 138.9302026834339,244.66723896644544 138.95332572085317,244.7274214111967 138.79146445903461,244.84778624822502 138.5833571224939,244.787603838442 137.26534399099182,244.87787744650268 136.849129317794,245.11860687562148 136.87225235521328,245.17878918920178 136.8260062803747,245.20888033935626 136.66414501855616,245.32924489646393 136.4097916072933,245.14869803465263 136.57165286899544,244.57696526654763 136.77976020553615,244.81769504550903 139.76263202971313,247.4957949581003 139.73950899229385,247.5559765806829 142.56051955465227,245.8708845374349 143.1848415643908,245.41951826834702 143.87853268627077,245.23897148524702 144.04039394808933,245.32924489646393 144.24850128463004,245.56997380078246 144.75720810738858,246.352340806523 148.4568940908648,249.78268431565084 152.48030259786174,248.97023967382847 155.97188124468084,245.14869803465263 157.03554096492007,244.09550486884837 158.12232372257859,242.86175748890673 158.35355409653857,242.77148300176486 158.83913788199425,242.80157450190745 159.00099914357997,242.74139149732946 163.02440765069332,238.01697104416962 163.60248358547688,237.4151263016829 165.9841564373346,234.55633988055342 167.3021695689531,233.20216411232832 169.79945760779083,231.3965826415806 170.30816443066578,231.09565086530347 177.0369683128083,230.28313288433128 177.8462746217847,230.34331951080821 184.82943191553932,229.71135906009295 185.5,229.77154585281096 183.5345418213401,229.65117224978167 183.16457322298083,229.68126565711282 182.17028261499945,229.98219948948827 181.96217527834233,229.89191938570002 181.93905224103946,229.62107883814315 180.158578361501,227.36406049468496 172.94419069378637,222.78976117457205 167.25592349411454,219.26868561003357 162.6081929774955,216.31936254563334 162.5850699400762,211.4739548496873 163.30188409937546,199.8565526541206 163.34813017421402,198.92352056216623 163.32500713679474,198.8934226827114 163.3712532116333,198.83322691073408 158.81601484445855,198.59244364751794 153.8214387667831,198.59244364751794 148.94247787608765,198.74293321989535 143.39294890104793,198.56234571996902 135.62360833585262,198.59244364751794 134.62931772775482,198.56234571996902 131.99329146451782,198.71283531415975 129.77347987436224,198.65263948966458 127.32243791036308,198.68273740411678 125.47259491868317,198.62254157086136 125.21824150742032,198.74293321989535 117.4489009421086,198.80312901821162 117.42577790468931,198.9837163079792 117.5413930916693,199.97694358543959 117.51827005425002,200.12743215099908 117.51827005425002,200.30801828531548 117.63388524134643,201.1808490465337 117.70325435348786,201.27114167377295 117.40265486727003,201.2109465933172 117.47202397941146,201.4216292984347 117.58763916650787,202.50513696530834 117.63388524134643,202.56533166948066 117.68013131606858,203.61873615674267 117.81886954046786,204.58184413904382 117.91136169002857,204.43135881223134 117.03268626902718,204.43135881223134 117.24079360556789,204.46145588629588 117.49514701694716,204.6119411913096 117.86511561519,204.6119411913096 117.98073080217,204.7624263868056 117.81886954046786,204.64203823912248 117.37953182985075,206.62843372122734 117.26391664287075,212.9486561560043 116.52397944626864,214.36315570006263 115.50656580075156,215.47669109416893 115.06722809036728,216.2290764828067 112.59306308883242,219.47934993526724 111.69126463041175,218.75707135642006 111.36754210689105,218.27555090366513 109.63331430207472,215.98831345603685 108.1303168713348,213.7311464601371 106.60419640317559,211.65453108439397 105.14744504715782,211.83510716151795 104.5,211.77491515329166 104.52312303730287,212.16616289375816 105.14744504715782,216.01840884968988 105.03182986017782,216.4397439014865 105.67927490721922,220.1113416243752 105.84113616903778,220.56276307797816 106.2573508421192,224.44494694122113 106.69668855261989,224.4148527727084 108.31530117045622,224.05372240905126 108.50028546957765,223.96343971969327 108.68526976869907,223.9935339538206 108.75463888095692,224.1740992669802 109.14773051673546,226.43115239139297 109.17085355415475,226.34087073897535 108.80088495579548,223.9935339538206 109.37896089069545,223.00042191633838 109.772052526474,222.78976117457205 108.61590065667406,223.87315699091414 108.61590065667406,223.96343971969327 109.49457607767545,227.8455598062137 110.69697402231395,232.23918928769126 110.83571224671323,232.6303983504331 114.67413645447232,230.04238620340766 115.04410505283158,229.68126565711282 118.39694547536783,228.23677717220562 121.51855552382767,232.87114202156954 124.08521267492324,236.36189379222924 124.31644304876681,236.84337217563007 127.09120753640309,240.72525073352153 129.7041107622208,244.2459613634128 129.84284898662008,244.57696526654763 132.71010562381707,248.69942408461065 135.16114758781623,251.43765428003098 135.55423922347836,251.1969321983197 136.80288324295543,249.0304208675807 136.68726805597544,248.8197866123228 136.52540679415688,248.8197866123228" stroke="#4dd2ff" stroke-linecap="round" stroke-linejoin="round" stroke-width="0.5"><title>2024-03-09 10.2km</title><desc>10921031918</desc></polyline></svg>