<?xml version="1.0" encoding="utf-8" ?>
<svg baseProfile="full" height="200mm" version="1.1" viewBox="0,0,200,200" width="200mm" xmlns="http://www.w3.org/2000/svg" xmlns:ev="http://www.w3.org/2001/xml-events" xmlns:xlink="http://www.w3.org/1999/xlink"><defs /><rect fill="#1a1a1a" height="200" width="200" x="0" y="0" /><text alignment-baseline="middle" fill="#e1ed5e" style="dominant-baseline: central; font-size:9.0px; font-family:Arial;" text-anchor="middle" x="100.0" y="100.0">2024</text><line stroke="#e1ed5e" stroke-width="0.3" x1="100.0" x2="100.0" y1="15.0" y2="10.0" /><path d="M 100.0 14.0 a86.0,86.0 0 0,1 42.35913384403234,11.155469271406648" fill="none" id="id61" stroke="none" /><text fill="#e1ed5e" style="font-size:6.75px; font-family:Arial;" text-anchor="middle"><textPath startOffset="22.145653131862478" xlink:href="#id61">January</textPath></text><path d="M 100.0 79.0 l 0.0 -25.853662842012362 a46.85366284201236,46.85366284201236 0 0,0 0.8043054265618639,0.006903994747665959 l -0.4438125017130091 25.84985324545913" fill="#f5ff19" stroke="none" /><path d="M 101.08105385017728 79.02784411241856 l 1.7398319731170226 -33.752275478622174 a54.79708737864078,54.79708737864078 0 0,0 0.9390019704711833,0.05648802679595809 l -2.3189782957206684 33.717435474001526" fill="#8eff24" stroke="none" /><path d="M 101.44090949804482 79.04949213459386 l 1.369945023207303 -19.918699975830084 a40.9657546337158,40.9657546337158 0 0,0 0.7011601127517907,0.054274227173461975 l -1.7116741307343273 19.892247981661566" fill="#ffb510" stroke="none" /><path d="M 101.80034050326958 79.07731436759882 l 3.38664229004277 -39.35791693586641 a60.50335392762577,60.50335392762577 0 0,0 1.034032387680761,0.09792394219278804 l -4.061774241108544 39.29398123816844" fill="#4bff2c" stroke="none" /><path d="M 102.15924093988457 79.11130261209362 l 3.8202492616015973 -36.957446155237584 a58.154368932038835,58.154368932038835 0 0,0 0.9921248834957874,0.11116966257017812 l -4.454110046698181 36.88642073216043" fill="#66ff29" stroke="none" /><path d="M 102.51750503828377 79.15144685158666 l 2.009041605279414 -16.637746518114497 a37.7586054721977,37.7586054721977 0 0,0 0.6428351843231616,0.08322788461938027 l -2.2943546114933677 16.600807037294718" fill="#ff860c" stroke="none" /><path d="M 103.58742460773223 79.30868818359171 l 2.937698632880813 -16.943865051424194 a38.19664607237423,38.19664607237423 0 0,0 0.6450963646054622,0.11755804692166023 l -3.2281297310373285 16.890938830571166" fill="#ff8c0c" stroke="none" /><path d="M 104.29559338865022 79.4440306129975 l 3.634256518900096 -17.39123305860639 a38.76690203000882,38.76690203000882 0 0,0 0.65024570886729,0.14171802578651216 l -3.93226464438652 17.32628357468616" fill="#ff950d" stroke="none" /><path d="M 104.9986988182912 79.60360301121754 l 7.527902180367456 -30.716409798817196 a52.62541924095322,52.62541924095322 0 0,0 0.875573472599216,0.22256735283129067 l -8.054080946192066 30.58265721415064" fill="#a9ff21" stroke="none" /><path d="M 106.04205211174951 79.88797359093562 l 4.662459100884902 -15.519809964205644 a37.20503089143866,37.20503089143866 0 0,0 0.6100905186555842,0.1890076022027521 l -4.928190252412116 15.437485774196245" fill="#ff7d0b" stroke="none" /><path d="M 106.38641147887787 79.99465700312896 l 5.13806438074123 -16.094913491981032 a37.89514563106796,37.89514563106796 0 0,0 0.6180107491508701,0.2031524084991352 l -5.413597867539842 16.004340162079874" fill="#ff880c" stroke="none" /><path d="M 106.72888874123014 80.10723608172694 l 7.891349308705961 -23.32937203030893 a45.6278905560459,45.6278905560459 0 0,0 0.7398111127664404,0.257344708383185 l -8.290666193517419 23.190468889357156" fill="#fff817" stroke="none" /><path d="M 108.4095320186766 80.7573450057729 l 8.390728710838426 -19.199629346108207 a41.95304501323919,41.95304501323919 0 0,0 0.6574373725357809,0.29406337446947245 l -8.719079486229838 19.05276222072888" fill="#ffc412" stroke="none" /><path d="M 108.73861861582097 80.90454125486305 l 7.121755642155235 -15.56232135036889 a38.1144748455428,38.1144748455428 0 0,0 0.5926098191395405,0.27737131798123604 l -7.3878541751662805 15.43777380081712" fill="#ff8b0c" stroke="none" /><path d="M 109.06512990194946 81.05736502329252 l 15.288572275058922 -31.947235952920174 a56.41703442188879,56.41703442188879 0 0,0 0.8700037316456118,0.42556242159082824 l -15.8347362559666 31.680079781232124" fill="#7aff26" stroke="none" /><line stroke="#e1ed5e" stroke-width="0.3" x1="143.13028292997686" x2="145.6673583964461" y1="26.7553504044142" y2="22.446841604673864" /><path d="M 143.63769802327073 25.89364864446614 a86.0,86.0 0 0,1 29.32050498858742,28.57503671076993" fill="none" id="id62" stroke="none" /><text fill="#e1ed5e" style="font-size:6.75px; font-family:Arial;" text-anchor="middle"><textPath startOffset="20.669276256404974" xlink:href="#id62">February</textPath></text><path d="M 113.86319453409587 84.22622945171908 l 5.50571529908091 -6.264493340136632 a29.340070609002648,29.340070609002648 0 0,0 0.37546205181479014,0.33574048194668543 l -5.612442377719075 6.169057328306559" fill="#ff0000" stroke="none" /><path d="M 114.65682725009322 84.96080404539774 l 12.070429784778147 -12.385324306008428 a38.29426301853486,38.29426301853486 0 0,0 0.4668400354958712,0.4628499736983593 l -12.281261740403982 12.176294322081409" fill="#ff8e0d" stroke="none" /><path d="M 115.6541949942343 86.00192230759917 l 13.178722852604135 -11.784495238836413 a38.67917034421889,38.67917034421889 0 0,0 0.43834355224690974,0.4987544968409444 l -13.379077468809635 11.556528464184172" fill="#ff940d" stroke="none" /><path d="M 116.1254893667686 86.54754324733833 l 11.573916992988723 -9.65537319617341 a36.07255075022065,36.07255075022065 0 0,0 0.3925950577209029,0.4789021353560358 l -11.737958869948253 9.45526877911888" fill="#ff6c09" stroke="none" /><path d="M 116.35404254752997 86.82634096563983 l 14.304374372994 -11.522591441351217 a39.36804942630185,39.36804942630185 0 0,0 0.4194263912774298,0.5299315437998441 l -14.500067194912988 11.275339953636696" fill="#ff9e0e" stroke="none" /><path d="M 116.7966241395341 87.39550010848427 l 32.94589383297261 -24.723212938139273 a62.190644307149164,62.190644307149164 0 0,0 0.6334501532418977,0.8593967904970592 l -33.36544600579833 24.15400983837334" fill="#38ff2e" stroke="none" /><line stroke="#e1ed5e" stroke-width="0.3" x1="172.87174338648825" x2="177.1583165268699" y1="56.24261187166439" y2="53.66864786411523" /><path d="M 173.72905801456457 55.72781907015455 a86.0,86.0 0 0,1 12.242430191666344,42.057860355516425" fill="none" id="id63" stroke="none" /><text fill="#e1ed5e" style="font-size:6.75px; font-family:Arial;" text-anchor="middle"><textPath startOffset="22.145653131862474" xlink:href="#id63">March</textPath></text><path d="M 118.00360718960297 89.18935116829356 l 15.202692955457039 -9.128780310904338 a38.73292144748456,38.73292144748456 0 0,0 0.337393791248738,0.5729684188685013 l -15.357160456835546 8.86646072374228" fill="#ff940d" stroke="none" /><path d="M 118.53625476483649 90.13048839642627 l 15.553766465075068 -8.28150457327232 a38.62109443954104,38.62109443954104 0 0,0 0.30656308621086314,0.5878751396673937 l -15.693637620260876 8.013283190500427" fill="#ff930d" stroke="none" /><path d="M 118.70294669586156 90.45014215332178 l 16.871169421647863 -8.614539318534892 a39.9432480141218,39.9432480141218 0 0,0 0.30657410388196504,0.6133535736145151 l -17.016563438741567 8.323653888756626" fill="#ffa60f" stroke="none" /><path d="M 119.16976305983485 91.42560881287824 l 21.23450276451433 -9.4979229945961 a44.26187113857017,44.26187113857017 0 0,0 0.30428164337811797,0.6962559476077781 l -21.394418289909417 9.132004977212473" fill="#ffe515" stroke="none" /><path d="M 119.31412917781788 91.75594674310238 l 57.94238753345363 -24.732159770692828 a84.0,84.0 0 0,0 0.5546966218540672,1.3310699622348887 l -58.358409999844184 23.733857299016663" fill="#4dd2ff" stroke="none" /><path d="M 120.05942366710727 93.78553927170692 l 15.84216442835621 -4.9079430359017175 a37.58499558693734,37.58499558693734 0 0,0 0.18564066928212225,0.61793741168467 l -15.92408141764196 4.635268020626324" fill="#ff830c" stroke="none" /><line stroke="#e1ed5e" stroke-width="0.3" x1="184.99686870605535" x2="189.99668451229388" y1="99.2704041080226" y2="99.22748670261217" /><path d="M 185.99683186730306 99.26182062694052 a86.0,86.0 0 0,1 -10.086455211305974,41.156179273409016" fill="none" id="id64" stroke="none" /><text fill="#e1ed5e" style="font-size:6.75px; font-family:Arial;" text-anchor="middle"><textPath startOffset="21.40746469413373" xlink:href="#id64">April</textPath></text><line stroke="#e1ed5e" stroke-width="0.3" x1="174.33088141563837" x2="178.70328620479359" y1="141.23008692659167" y2="143.65538615756765" /><path d="M 175.20536237346943 141.71514677278685 a86.0,86.0 0 0,1 -30.301960400862466,31.631185727798858" fill="none" id="id65" stroke="none" /><text fill="#e1ed5e" style="font-size:6.75px; font-family:Arial;" text-anchor="middle"><textPath startOffset="22.145653131862474" xlink:href="#id65">May</textPath></text><line stroke="#e1ed5e" stroke-width="0.3" x1="143.1302829299769" x2="145.66735839644613" y1="173.24464959558577" y2="177.55315839532614" /><path d="M 143.63769802327073 174.10635135553383 a86.0,86.0 0 0,1 -40.68552437913181,11.842963189579606" fill="none" id="id66" stroke="none" /><text fill="#e1ed5e" style="font-size:6.75px; font-family:Arial;" text-anchor="middle"><textPath startOffset="21.407464694133747" xlink:href="#id66">June</textPath></text><line stroke="#e1ed5e" stroke-width="0.3" x1="101.45913802915013" x2="101.54496967792366" y1="184.9874750549273" y2="189.98673829345242" /><path d="M 101.47630435890484 185.9873277026323 a86.0,86.0 0 0,1 -42.54439059252881,-10.42667462771756" fill="none" id="id67" stroke="none" /><text fill="#e1ed5e" style="font-size:6.75px; font-family:Arial;" text-anchor="middle"><textPath startOffset="22.145653131862474" xlink:href="#id67">July</textPath></text><line stroke="#e1ed5e" stroke-width="0.3" x1="58.13341422392154" x2="55.67067388415222" y1="173.97424548756322" y2="178.32567169271397" /><path d="M 57.64086615596768 174.84453072859336 a86.0,86.0 0 0,1 -31.369924170532247,-30.572349798747897" fill="none" id="id68" stroke="none" /><text fill="#e1ed5e" style="font-size:6.75px; font-family:Arial;" text-anchor="middle"><textPath startOffset="22.145653131862474" xlink:href="#id68">August</textPath></text><line stroke="#e1ed5e" stroke-width="0.3" x1="26.387840678322732" x2="22.057713659400548" y1="142.50000000000003" y2="145.00000000000006" /><path d="M 25.521815274538298 143.00000000000003 a86.0,86.0 0 0,1 -11.493303480769221,-40.785679425670985" fill="none" id="id69" stroke="none" /><text fill="#e1ed5e" style="font-size:6.75px; font-family:Arial;" text-anchor="middle"><textPath startOffset="21.40746469413373" xlink:href="#id69">September</textPath></text><line stroke="#e1ed5e" stroke-width="0.3" x1="15.003131293944662" x2="10.003315487706104" y1="100.72959589197737" y2="100.7725132973878" /><path d="M 14.003168132696942 100.73817937305945 a86.0,86.0 0 0,1 10.791469493833604,-42.45332614584628" fill="none" id="id70" stroke="none" /><text fill="#e1ed5e" style="font-size:6.75px; font-family:Arial;" text-anchor="middle"><textPath startOffset="22.145653131862435" xlink:href="#id70">October</textPath></text><line stroke="#e1ed5e" stroke-width="0.3" x1="26.387840678322718" x2="22.05771365940052" y1="57.49999999999999" y2="54.99999999999999" /><path d="M 25.521815274538284 56.99999999999999 a86.0,86.0 0 0,1 29.574782752854787,-30.34633250058573" fill="none" id="id71" stroke="none" /><text fill="#e1ed5e" style="font-size:6.75px; font-family:Arial;" text-anchor="middle"><textPath startOffset="21.40746469413373" xlink:href="#id71">November</textPath></text><line stroke="#e1ed5e" stroke-width="0.3" x1="56.869717070023135" x2="54.33264160355391" y1="26.7553504044142" y2="22.446841604673864" /><path d="M 56.362301976729285 25.89364864446614 a86.0,86.0 0 0,1 42.16139366436587,-11.88097634709845" fill="none" id="id72" stroke="none" /><text fill="#e1ed5e" style="font-size:6.75px; font-family:Arial;" text-anchor="middle"><textPath startOffset="22.145653131862474" xlink:href="#id72">December</textPath></text></svg>