<?xml version="1.0" encoding="utf-8" ?>
<svg baseProfile="full" height="200mm" version="1.1" viewBox="0,0,200,200" width="200mm" xmlns="http://www.w3.org/2000/svg" xmlns:ev="http://www.w3.org/2001/xml-events" xmlns:xlink="http://www.w3.org/1999/xlink"><defs /><rect fill="#1a1a1a" height="200" width="200" x="0" y="0" /><text alignment-baseline="middle" fill="#e1ed5e" style="dominant-baseline: central; font-size:9.0px; font-family:Arial;" text-anchor="middle" x="100.0" y="100.0">2019</text><line stroke="#e1ed5e" stroke-width="0.3" x1="100.0" x2="100.0" y1="15.0" y2="10.0" /><path d="M 100.0 14.0 a86.0,86.0 0 0,1 42.46469731375804,11.215312516191453" fill="none" id="id1" stroke="none" /><text fill="#e1ed5e" style="font-size:6.75px; font-family:Arial;" text-anchor="middle"><textPath startOffset="22.20632615414155" xlink:href="#id1">January</textPath></text><line stroke="#e1ed5e" stroke-width="0.3" x1="143.23703022742887" x2="145.7803849466894" y1="26.81831364943548" y2="22.513508569990506" /><path d="M 143.74570117128098 25.957352633546492 a86.0,86.0 0 0,1 28.547481713284135,27.462654790039103" fill="none" id="id2" stroke="none" /><text fill="#e1ed5e" style="font-size:6.75px; font-family:Arial;" text-anchor="middle"><textPath startOffset="19.985693538727396" xlink:href="#id2">February</textPath></text><line stroke="#e1ed5e" stroke-width="0.3" x1="172.23445277983987" x2="176.4835382374775" y1="55.19839476539836" y2="52.563006222186495" /><path d="M 173.08426987136738 54.67131705675599 a86.0,86.0 0 0,1 12.851231095245387,41.99856678651699" fill="none" id="id3" stroke="none" /><text fill="#e1ed5e" style="font-size:6.75px; font-family:Arial;" text-anchor="middle"><textPath startOffset="22.20632615414155" xlink:href="#id3">March</textPath></text><line stroke="#e1ed5e" stroke-width="0.3" x1="184.98032266829074" x2="189.97916517819016" y1="98.17113171792111" y2="98.06355123074" /><path d="M 185.9800911702706 98.14961562048488 a86.0,86.0 0 0,1 -9.607161424134198,41.387399972396054" fill="none" id="id4" stroke="none" /><text fill="#e1ed5e" style="font-size:6.75px; font-family:Arial;" text-anchor="middle"><textPath startOffset="21.466115282336823" xlink:href="#id4">April</textPath></text><line stroke="#e1ed5e" stroke-width="0.3" x1="174.80103733775053" x2="179.2010983576182" y1="140.37084112569926" y2="142.7455964860345" /><path d="M 175.68104954172406 140.8457921977663 a86.0,86.0 0 0,1 -30.038265399797805,32.042727171017184" fill="none" id="id5" stroke="none" /><text fill="#e1ed5e" style="font-size:6.75px; font-family:Arial;" text-anchor="middle"><textPath startOffset="22.206326154141568" xlink:href="#id5">May</textPath></text><line stroke="#e1ed5e" stroke-width="0.3" x1="143.8653032363475" x2="146.44561519142675" y1="172.8068346515853" y2="177.08958963109032" /><path d="M 144.38136562736335 173.6633856474863 a86.0,86.0 0 0,1 -40.68145358897372,12.25698825130547" fill="none" id="id6" stroke="none" /><text fill="#e1ed5e" style="font-size:6.75px; font-family:Arial;" text-anchor="middle"><textPath startOffset="21.466115282336833" xlink:href="#id6">June</textPath></text><line stroke="#e1ed5e" stroke-width="0.3" x1="102.19456741930631" x2="102.32365962044197" y1="184.97166512339345" y2="189.96999836594603" /><path d="M 102.22038585953345 185.97133177190398 a86.0,86.0 0 0,1 -42.740103519485714,-10.115201625700543" fill="none" id="id7" stroke="none" /><text fill="#e1ed5e" style="font-size:6.75px; font-family:Arial;" text-anchor="middle"><textPath startOffset="22.20632615414155" xlink:href="#id7">July</textPath></text><path d="M 100.54218724476979 120.99299961872073 l 1.256301331262933 48.64285101247439 a69.65907158646488,69.65907158646488 0 0,0 -1.1989331636190814,0.020640721698067688 l -0.4188084777511838 -48.65726921145161" fill="#35ff68" stroke="none" /><path d="M 99.81925306533755 120.99922214144158 l -0.2586270115940319 30.047348124507884 a51.048461146063595,51.048461146063595 0 0,0 -0.8786176965302532,-0.015126200445015048 l 0.775804398016953 -30.03844444678371" fill="#fff517" stroke="none" /><path d="M 98.37488393609728 120.93702456842531 l -4.775986636752896 61.53095878704711 a82.71603468797824,82.71603468797824 0 0,0 -1.4186023765125289,-0.12240298221299704 l 5.8344333310069665 -61.439631552555454" fill="#4be2ff" stroke="none" /><path d="M 96.93821686468263 120.77559828337769 l -6.783864827132589 46.03162413154824 a67.52882162897467,67.52882162897467 0 0,0 -1.1485177742212964,-0.17937485587236102 l 7.575218464962403 -45.908030968328774" fill="#32ff47" stroke="none" /><path d="M 96.22490169976321 120.6578951692458 l -9.072450633653828 49.64578911929858 a71.46794762795443,71.46794762795443 0 0,0 -1.2082588537151349,-0.23156568499480815 l 9.925677101940659 -49.4822662359553" fill="#38ff84" stroke="none" /><path d="M 95.86986931433489 120.58985236759428 l -7.961489802308638 39.69024520812328 a61.48087060023805,61.48087060023805 0 0,0 -1.035831284624724,-0.2170685168920513 l 8.643512548362748 -39.547320710504685" fill="#6cff28" stroke="none" /><path d="M 94.81253420990036 120.34920634021253 l -9.371007564610975 36.76025525062758 a58.93589525590886,58.93589525590886 0 0,0 -0.9808885073048169,-0.25906156993611384 l 10.00238651472728 -36.59350233138788" fill="#90ff24" stroke="none" /><path d="M 93.08242187328487 119.8279376855182 l -12.284679090285005 35.211723962765774 a58.293147423907506,58.293147423907506 0 0,0 -0.9445722770325412,-0.3386900122719621 l 12.888970927947272 -34.995046409453856" fill="#99ff23" stroke="none" /><path d="M 92.7421414339146 119.70592522655815 l -12.31298958523585 33.43119046378947 a56.62659411664683,56.62659411664683 0 0,0 -0.9117684651313739,-0.3447528165864155 l 12.886628271127508 -33.21428939709642" fill="#b2ff20" stroke="none" /><path d="M 92.06813273071674 119.44442032107085 l -12.442012507930293 30.500727335806594 a53.94082639006972,53.94082639006972 0 0,0 -0.8567050047324154,-0.358102761458984 l 12.96518897216017 -30.282039531327637" fill="#dbff1b" stroke="none" /><path d="M 90.7491055286396 118.85261126421891 l -15.29373954701206 31.167464654218442 a55.71756503995919,55.71756503995919 0 0,0 -0.8573768293378309,-0.4299065410809988 l 15.82797028403265 -30.899590272228142" fill="#c0ff1e" stroke="none" /><path d="M 90.10565033884886 118.52300852407294 l -15.240620068580526 28.531651408166454 a53.34704982145893,53.34704982145893 0 0,0 -0.8062446032113417,-0.4396288415543325 l 15.729487483660508 -28.265081914852356" fill="#e4ff1a" stroke="none" /><line stroke="#e1ed5e" stroke-width="0.3" x1="58.666819895761336" x2="56.23545636021788" y1="174.27360380694188" y2="178.64263932499728" /><path d="M 58.180547188652646 175.14741091055294 a86.0,86.0 0 0,1 -31.652253787137756,-30.449443065178592" fill="none" id="id8" stroke="none" /><text fill="#e1ed5e" style="font-size:6.75px; font-family:Arial;" text-anchor="middle"><textPath startOffset="22.20632615414155" xlink:href="#id8">August</textPath></text><path d="M 86.24171649860922 115.8653595955263 l -21.847086075883965 25.1929593305209 a54.346369665022955,54.346369665022955 0 0,0 -0.7014761471176152,-0.6189711405981895 l 22.277504575908168 -24.813165048150424" fill="#d5ff1c" stroke="none" /><path d="M 85.44109423537348 115.13401014063109 l -11.318367140940735 11.765464098446754 a37.325794932834555,37.325794932834555 0 0,0 -0.45919623326234027,-0.44942016224288034 l 11.51921332657887 -11.568893833281304" fill="#ff0000" stroke="none" /><path d="M 84.9287848128048 114.62390073753433 l -45.21364556158558 43.871702212602976 a84.0,84.0 0 0,0 -0.99797379448417,-1.0463715336699995 l 45.9621259074487 -43.08692356235048" fill="#4dd2ff" stroke="none" /><line stroke="#e1ed5e" stroke-width="0.3" x1="26.63291911575756" x2="22.317208475507996" y1="142.92168965132927" y2="145.44649492493687" /><path d="M 25.769776987707644 143.4266507060508 a86.0,86.0 0 0,1 -11.730757126820373,-40.83630448921669" fill="none" id="id9" stroke="none" /><text fill="#e1ed5e" style="font-size:6.75px; font-family:Arial;" text-anchor="middle"><textPath startOffset="21.46611528233685" xlink:href="#id9">September</textPath></text><path d="M 81.35079622478065 109.6543875284942 l -48.97845275500743 25.355343270537254 a76.15235504165959,76.15235504165959 0 0,0 -0.5926151980865004,-1.1692860072430922 l 49.4076466228802 -24.50850305159148" fill="#40ffc7" stroke="none" /><path d="M 81.02952815118164 109.00673069616217 l -26.94399613769306 12.792371166337162 a50.826560108825035,50.826560108825035 0 0,0 -0.36843298034664146,-0.7935718623300096 l 27.160203734879527 -12.326679236728324" fill="#fff116" stroke="none" /><path d="M 80.87730276802145 108.67885076344099 l -52.58962383514025 23.867840997211573 a78.75242305730319,78.75242305730319 0 0,0 -0.5496128427648428,-1.239231866881753 l 52.992677762636376 -22.95906079383712" fill="#44ffea" stroke="none" /><path d="M 80.58989483394504 108.01547362559985 l -52.53699269397428 21.695342488062977 a77.84033327665362,77.84033327665362 0 0,0 -0.5007631205242652,-1.2428529978566034 l 52.90265842875593 -20.787790122363567" fill="#43ffde" stroke="none" /><path d="M 80.45479744820244 107.68017299344265 l -20.949122292018263 8.231835041724285 a43.508416935895255,43.508416935895255 0 0,0 -0.26789939026866216,-0.6994007715216832 l 21.087715961880434 -7.870010703369443" fill="#ff740a" stroke="none" /><path d="M 80.20201598880116 107.00284435728193 l -22.1838221504744 7.846751148072502 a44.5306920591736,44.5306920591736 0 0,0 -0.24939131860011346,-0.7248479093404869 l 22.31560430001774 -7.463730535642718" fill="#ff860c" stroke="none" /><path d="M 79.76711848015287 105.62410040840567 l -41.26245701651238 11.469656515842743 a63.82690018704302,63.82690018704302 0 0,0 -0.28512972798514447,-1.0610737886950767 l 41.4537748208393 -10.757691793972128" fill="#4cff2c" stroke="none" /><path d="M 79.67330655649465 105.27499134158121 l -44.06676244935316 11.435789643697582 a66.52644108144874,66.52644108144874 0 0,0 -0.2781080393889338,-1.1109033729158924 l 44.25708180303716 -10.675558431384298" fill="#30ff37" stroke="none" /><path d="M 79.58551787078972 104.9243191809786 l -47.06582732201708 11.353075467871355 a69.41574562149293,69.41574562149293 0 0,0 -0.2701906553623512,-1.1639742717545778 l 47.25427854330999 -10.541232538768202" fill="#35ff65" stroke="none" /><path d="M 79.23777060512086 103.15116336523772 l -48.595327595262845 7.375499669495364 a70.15184492433261,70.15184492433261 0 0,0 -0.17092312945189808,-1.195435969290532 l 48.71508477573134 -6.537918228224431" fill="#36ff70" stroke="none" /><path d="M 79.07016306316243 101.71520430193888 l -18.022223133505435 1.4769247721507381 a39.082639006971604,39.082639006971604 0 0,0 -0.0491760866211273,-0.6709686313625157 l 18.0449757787909 -1.1664830042914618" fill="#ff2203" stroke="none" /><line stroke="#e1ed5e" stroke-width="0.3" x1="15.007084014347285" x2="10.007500721073583" y1="101.09737516637583" y2="101.16192664675087" /><path d="M 14.007167355692545 101.11028546245083 a86.0,86.0 0 0,1 10.666146001902534,-42.60595125391555" fill="none" id="id10" stroke="none" /><text fill="#e1ed5e" style="font-size:6.75px; font-family:Arial;" text-anchor="middle"><textPath startOffset="22.20632615414155" xlink:href="#id10">October</textPath></text><path d="M 80.95270993114464 91.15688171328213 l -49.04814841060118 -22.77166865057906 a75.07651759904778,75.07651759904778 0 0,0 0.5542856613632331,-1.1674669632983863 l 48.64890455539619 23.612578029517977" fill="#3effb8" stroke="none" /><path d="M 81.26839172434947 90.50648371742162 l -35.02843053621601 -17.753039181425205 a60.27036218330216,60.27036218330216 0 0,0 0.47696979308991494,-0.9213538238137674 l 34.71765130996598 18.353365727499305" fill="#7dff26" stroke="none" /><path d="M 81.6062741919709 89.86733742301443 l -16.23921987253912 -8.945796909187955 a39.540214249277334,39.540214249277334 0 0,0 0.3335355626628395,-0.5933225490789947 l 16.082826668583852 9.224002968201734" fill="#ff2a04" stroke="none" /><line stroke="#e1ed5e" stroke-width="0.3" x1="26.266209847984243" x2="21.928928074336255" y1="57.711370442889674" y2="55.22380399835377" /><path d="M 25.398753493254645 57.213857153982495 a86.0,86.0 0 0,1 29.58750427330803,-30.492523968695096" fill="none" id="id11" stroke="none" /><text fill="#e1ed5e" style="font-size:6.75px; font-family:Arial;" text-anchor="middle"><textPath startOffset="21.46611528233685" xlink:href="#id11">November</textPath></text><path d="M 82.54541684631803 88.32363383020206 l -32.789193616412206 -21.93456169687259 a60.44941336507397,60.44941336507397 0 0,0 0.5860010298002915,-0.8598842025027926 l 32.40676812094318 22.495723922645794" fill="#7aff26" stroke="none" /><path d="M 82.7489923806493 88.02491185347247 l -26.96583040554857 -18.718802007167053 a53.826049991498046,53.826049991498046 0 0,0 0.5348960647157719,-0.7565725499669862 l 26.63962172102892 19.180201057465823" fill="#ddff1b" stroke="none" /><path d="M 83.39014120810768 87.1503855733568 l -24.505059239817825 -18.95744970977179 a51.981975854446524,51.981975854446524 0 0,0 0.553597942024271,-0.7030131676196112 l 24.175107217199585 19.376455271344447" fill="#faff18" stroke="none" /><path d="M 84.07557802195018 86.31012108654704 l -14.56163774240793 -12.518322972721437 a40.20285665703112,40.20285665703112 0 0,0 0.4556479519898602,-0.520884375837196 l 14.343997926840226 12.767122904761576" fill="#ff3705" stroke="none" /><path d="M 84.31358615837235 86.03803664274999 l -19.650408380808376 -17.490185107814114 a47.30675055262711,47.30675055262711 0 0,0 0.5466325649231141,-0.6036053311386107 l 19.346432175269218 17.82584322622228" fill="#ffb610" stroke="none" /><path d="M 84.80347519578584 85.50635884689758 l -23.182941451994502 -22.11066270792474 a53.036388369324946,53.036388369324946 0 0,0 0.6357692512704468,-0.6552160991291373 l 22.798907937020935 22.506443002604" fill="#e9ff1a" stroke="none" /><path d="M 86.93701828274178 83.55741782278169 l -20.015710660509985 -25.1940923209021 a53.17718075157286,53.17718075157286 0 0,0 0.7216078725048138,-0.5632263904444154 l 19.579070232845748 25.534897100569736" fill="#e7ff1a" stroke="none" /><path d="M 88.39885842347998 82.49532879139004 l -14.977469150263227 -22.599127101688296 a48.11171569460976,48.11171569460976 0 0,0 0.6942588715027802,-0.4515652820922937 l 14.586243252976159 22.853591307940125" fill="#ffc412" stroke="none" /><line stroke="#e1ed5e" stroke-width="0.3" x1="56.762969772571076" x2="54.21961505331055" y1="26.818313649435495" y2="22.513508569990535" /><path d="M 56.25429882871897 25.957352633546506 a86.0,86.0 0 0,1 42.265352541879196,-11.944610805530505" fill="none" id="id12" stroke="none" /><text fill="#e1ed5e" style="font-size:6.75px; font-family:Arial;" text-anchor="middle"><textPath startOffset="22.20632615414155" xlink:href="#id12">December</textPath></text><path d="M 89.3179101791058 81.91981866633112 l -9.999912005189127 -16.925547847473243 a40.65890154735589,40.65890154735589 0 0,0 0.6056303456373225,-0.3508201869270602 l 9.707084927086484 17.09517219179035" fill="#ff3f05" stroke="none" /><path d="M 94.28887869178378 79.79150937346287 l -7.103976214682354 -25.13703159115521 a47.12157796293148,47.12157796293148 0 0,0 0.7824473189896729,-0.21387240939858962 l 6.670231006468958 25.255590541380098" fill="#ffb310" stroke="none" /><path d="M 96.75951476605007 79.25152402106235 l -7.292213473731887 -46.69125305921694 a68.25726917190954,68.25726917190954 0 0,0 1.1624246079574365,-0.17131117054614686 l 6.487419885345801 46.80985871392405" fill="#33ff53" stroke="none" /></svg>