<?xml version="1.0" encoding="utf-8" ?>
<svg baseProfile="full" height="200mm" version="1.1" viewBox="0,0,200,200" width="200mm" xmlns="http://www.w3.org/2000/svg" xmlns:ev="http://www.w3.org/2001/xml-events" xmlns:xlink="http://www.w3.org/1999/xlink"><defs /><rect fill="#1a1a1a" height="200" width="200" x="0" y="0" /><text alignment-baseline="middle" fill="#e1ed5e" style="dominant-baseline: central; font-size:9.0px; font-family:Arial;" text-anchor="middle" x="100.0" y="100.0">2024</text><line stroke="#e1ed5e" stroke-width="0.3" x1="100.0" x2="100.0" y1="15.0" y2="10.0" /><path d="M 100.0 14.0 a86.0,86.0 0 0,1 42.35913384403234,11.155469271406648" fill="none" id="id61" stroke="none" /><text fill="#e1ed5e" style="font-size:6.75px; font-family:Arial;" text-anchor="middle"><textPath startOffset="22.145653131862478" xlink:href="#id61">January</textPath></text><path d="M 100.0 79.0 l 0.0 -4.314324195615139 a25.31432419561514,25.31432419561514 0 0,0 0.4345540366594969,0.0037301237659167364 l -0.07406111181064211 4.313688470043657" fill="#ff2a04" stroke="none" /><path d="M 101.08105385017728 79.02784411241856 l 0.2903340707965752 -5.632403410083027 a26.639881385860896,26.639881385860896 0 0,0 0.45650056072492046,0.02746194014231897 l -0.386978983653958 5.6265894921160164" fill="#ff3d05" stroke="none" /><path d="M 101.44090949804482 79.04949213459386 l 0.22860926888399713 -3.323928596735481 a24.331780832230052,24.331780832230052 0 0,0 0.41645697349700733,0.032236403606647236 l -0.28563523715623795 3.31951442613378" fill="#ff1c02" stroke="none" /><path d="M 101.80034050326958 79.07731436759882 l 0.5651451735528129 -6.56784357261319 a27.592113338035567,27.592113338035567 0 0,0 0.47156292972148445,0.044657499726754035 l -0.6778076666593104 6.557174317381252" fill="#ff4b06" stroke="none" /><path d="M 102.15924093988457 79.11130261209362 l 0.637503239804985 -6.167265548794261 a27.200126993062838,27.200126993062838 0 0,0 0.4640394749292139,0.051996591059539105 l -0.7432786163349956 6.155413197227752" fill="#ff4506" stroke="none" /><path d="M 102.51750503828377 79.15144685158666 l 0.33525836786149543 -2.776420223403275 a23.796588534293853,23.796588534293853 0 0,0 0.4051337221118739,0.05245267138706648 l -0.382869911864161 2.770255955815811" fill="#ff1502" stroke="none" /><path d="M 103.58742460773223 79.30868818359171 l 0.49022780132599153 -2.8275036850796647 a23.869686461328484,23.869686461328484 0 0,0 0.40313089089808923,0.07346387731816245 l -0.5386934257751345 2.8186716338301365" fill="#ff1602" stroke="none" /><path d="M 104.29559338865022 79.4440306129975 l 0.6064657425285086 -2.9021581210690557 a23.964847796523074,23.964847796523074 0 0,0 0.4019676225684551,0.0876069724469733 l -0.6561957817160977 2.8913196904883636" fill="#ff1702" stroke="none" /><path d="M 104.9986988182912 79.60360301121754 l 1.2562169901205114 -5.125794004790698 a26.27748475183166,26.27748475183166 0 0,0 0.4372006704590663,0.11113470077077228 l -1.3440229538049722 5.103474072184658" fill="#ff3805" stroke="none" /><path d="M 106.04205211174951 79.88797359093562 l 0.7780468180828193 -2.589864811384288 a23.704210900128793,23.704210900128793 0 0,0 0.3887031935164646,0.12042124296079136 l -0.822390644470914 2.5761269806168503" fill="#ff1302" stroke="none" /><path d="M 106.38641147887787 79.99465700312896 l 0.8574133426246373 -2.6858350837602796 a23.819373642720727,23.819373642720727 0 0,0 0.3884568512430722,0.12769348273707012 l -0.9033929315154519 2.670720679621188" fill="#ff1502" stroke="none" /><path d="M 106.72888874123014 80.10723608172694 l 1.3168671482508947 -3.893083731845969 a25.109773719963933,25.109773719963933 0 0,0 0.407130143662067,0.1416209979638354 l -1.3835030639579802 3.869904301313543" fill="#ff2803" stroke="none" /><path d="M 108.4095320186766 80.7573450057729 l 1.4002009741222088 -3.2039338464703855 a24.496534693162832,24.496534693162832 0 0,0 0.3838800592381867,0.1717046677400111 l -1.454994436216027 3.179425427820522" fill="#ff1f03" stroke="none" /><path d="M 108.73861861582097 80.90454125486305 l 1.1884413775319969 -2.596958889427854 a23.85597415625711,23.85597415625711 0 0,0 0.3709164192194117,0.17360761286262724 l -1.2328465106229136 2.576175044994693" fill="#ff1502" stroke="none" /><path d="M 109.06512990194946 81.05736502329252 l 2.5512770738045027 -5.331187843555134 a26.910209685839455,26.910209685839455 0 0,0 0.4149807427127503,0.2029878762110126 l -2.64241806577932 5.2866062172469" fill="#ff4106" stroke="none" /><line stroke="#e1ed5e" stroke-width="0.3" x1="143.13028292997686" x2="145.6673583964461" y1="26.7553504044142" y2="22.446841604673864" /><path d="M 143.63769802327073 25.89364864446614 a86.0,86.0 0 0,1 29.32050498858742,28.57503671076993" fill="none" id="id62" stroke="none" /><text fill="#e1ed5e" style="font-size:6.75px; font-family:Arial;" text-anchor="middle"><textPath startOffset="20.669276256404974" xlink:href="#id62">February</textPath></text><path d="M 113.86319453409587 84.22622945171908 l 0.9187650072698303 -1.0453859229069182 a22.391747414725632,22.391747414725632 0 0,0 0.28654503051781155,0.25623033321336586 l -0.9365750646110174 1.0294600598101655" fill="#ff0000" stroke="none" /><path d="M 114.65682725009322 84.96080404539774 l 2.0142502665935043 -2.0667982192883456 a23.885976267353126,23.885976267353126 0 0,0 0.2911906152393504,0.2887018215170502 l -2.0494328019628174 2.031916387542636" fill="#ff1602" stroke="none" /><path d="M 115.6541949942343 86.00192230759917 l 2.1991964240325275 -1.9665350032879902 a23.950207591108523,23.950207591108523 0 0,0 0.27142306774184827,0.30882962664489716 l -2.2326305557329658 1.9284930988317952" fill="#ff1702" stroke="none" /><path d="M 116.1254893667686 86.54754324733833 l 1.9313948056810732 -1.6112382393357776 a23.515228530235312,23.515228530235312 0 0,0 0.25592763223408826,0.3121900980746692 l -1.9587692571537891 1.5778458595626133" fill="#ff1001" stroke="none" /><path d="M 116.35404254752997 86.82634096563983 l 2.3870392693549003 -1.9228298657483396 a24.065164133624194,24.065164133624194 0 0,0 0.2563897651815461,0.3239400927140648 l -2.419695465178006 1.8815698291195966" fill="#ff1802" stroke="none" /><path d="M 116.7966241395341 87.39550010848427 l 5.49783865359241 -4.125680621123827 a27.873679542170372,27.873679542170372 0 0,0 0.28391065527799403,0.38517933050471787 l -5.56785132845423 4.030694981350234" fill="#ff4f07" stroke="none" /><line stroke="#e1ed5e" stroke-width="0.3" x1="172.87174338648825" x2="177.1583165268699" y1="56.24261187166439" y2="53.66864786411523" /><path d="M 173.72905801456457 55.72781907015455 a86.0,86.0 0 0,1 12.242430191666344,42.057860355516425" fill="none" id="id63" stroke="none" /><text fill="#e1ed5e" style="font-size:6.75px; font-family:Arial;" text-anchor="middle"><textPath startOffset="22.145653131862474" xlink:href="#id63">March</textPath></text><path d="M 118.00360718960297 89.18935116829356 l 2.536945981582658 -1.5233631695617844 a23.95917729442589,23.95917729442589 0 0,0 0.20870301956249704,0.35442335405528336 l -2.5627227112749225 1.4795886472129445" fill="#ff1702" stroke="none" /><path d="M 118.53625476483649 90.13048839642627 l 2.595531294860718 -1.381974220631756 a23.940516187524242,23.940516187524242 0 0,0 0.19003289871595302,0.3644131400647476 l -2.618872262551615 1.3372148374625101" fill="#ff1702" stroke="none" /><path d="M 118.70294669586156 90.45014215332178 l 2.8153726181443517 -1.4375493191486277 a24.16115026912383,24.16115026912383 0 0,0 0.18544268082293539,0.371009584773003 l -2.839635212179024 1.3890078782118742" fill="#ff1a02" stroke="none" /><path d="M 119.16976305983485 91.42560881287824 l 3.5435028923611465 -1.5849637722159535 a24.881819535657066,24.881819535657066 0 0,0 0.17105198546272002,0.3914004174104663 l -3.570188759840837 1.5239012850296378" fill="#ff2403" stroke="none" /><path d="M 119.31412917781788 91.75594674310238 l 9.669122940717916 -4.127173621802137 a31.513110888182283,31.513110888182283 0 0,0 0.20809781135461114,0.4993589919028173 l -9.73854659660901 3.9605821204580414" fill="#ff810b" stroke="none" /><path d="M 120.05942366710727 93.78553927170692 l 2.6436576403829473 -0.8190118947510593 a23.767617423579143,23.767617423579143 0 0,0 0.11739355923426353,0.3907649785049433 l -2.657327519620838 0.7735093126553926" fill="#ff1402" stroke="none" /><path d="M 120.16314734710363 94.1308016681162 l 38.17913630959932 -11.113390151029817 a60.76372580626685,60.76372580626685 0 0,0 0.2829318445954003,1.004025303281171 l -38.364286646269306 10.456356923845632" fill="#30ff35" stroke="none" /><path d="M 120.43855184770803 95.1765574152323 l 3.1694527613383325 -0.747982221703406 a24.25651780439468,24.25651780439468 0 0,0 0.0921622217725608,0.4060837542010421 l -3.18182584466856 0.6934641335633377" fill="#ff1b02" stroke="none" /><path d="M 120.77682067341334 96.94652285012252 l 29.504447454113723 -4.336137734306028 a50.82137672917584,50.82137672917584 0 0,0 0.11944350560943547,0.8642337058741325 l -29.57453547627837 3.8290157202318102" fill="#91ff24" stroke="none" /><line stroke="#e1ed5e" stroke-width="0.3" x1="184.99686870605535" x2="189.99668451229388" y1="99.2704041080226" y2="99.22748670261217" /><path d="M 185.99683186730306 99.26182062694052 a86.0,86.0 0 0,1 -10.086455211305974,41.156179273409016" fill="none" id="id64" stroke="none" /><text fill="#e1ed5e" style="font-size:6.75px; font-family:Arial;" text-anchor="middle"><textPath startOffset="21.40746469413373" xlink:href="#id64">April</textPath></text><path d="M 120.99922638620191 99.81974689727618 l 2.753081994398898 -0.023631897785986122 a23.75318341824085,23.75318341824085 0 0,0 0.0,0.4077700010196256 l -2.753081994398898 -0.023631897785985786" fill="#ff1402" stroke="none" /><path d="M 120.99303781780057 100.54070618675476 l 4.276408543570477 0.11014511461694218 a25.27782678211689,25.27782678211689 0 0,0 -0.014896238974676694,0.43368774452525044 l -4.273887617598954 -0.18353912370630335" fill="#ff2a04" stroke="none" /><path d="M 120.96210409425399 101.26102812881392 l 17.164921012818102 1.032599023872129 a38.195952259772824,38.195952259772824 0 0,0 -0.04499126468738202,0.654163114329241 l -17.144665786965653 -1.3271055623557133" fill="#ffd814" stroke="none" /><path d="M 120.93736805541906 101.62068470465957 l 35.88426070205461 2.7776687262649533 a56.99160471118079,56.99160471118079 0 0,0 -0.08387638277452222,0.9747707089782128 l -35.83129069658235 -3.3932604826188237" fill="#50ff2b" stroke="none" /><path d="M 120.51834098615036 104.47187691870673 l 18.163082027574397 3.9585591908483972 a39.58945237514668,39.58945237514668 0 0,0 -0.15041944268651633,0.6627758187265719 l -18.092451723330218 -4.269769343513986" fill="#ffea15" stroke="none" /><path d="M 120.05942366710727 106.21446072829308 l 7.999713534805052 2.478331702079739 a29.37481609735262,29.37481609735262 0 0,0 -0.15335791961067258,0.48039149892627203 l -7.955990899417124 -2.615292234697395" fill="#ff6409" stroke="none" /><path d="M 119.83427380445688 106.89939002012753 l 20.551292197733545 7.148806237509244 a42.75915994743535,42.75915994743535 0 0,0 -0.247106875251647,0.6912019093652999 l -20.425545152437955 -7.500543103255465" fill="#eeff19" stroke="none" /><line stroke="#e1ed5e" stroke-width="0.3" x1="174.33088141563837" x2="178.70328620479359" y1="141.23008692659167" y2="143.65538615756765" /><path d="M 175.20536237346943 141.71514677278685 a86.0,86.0 0 0,1 -30.301960400862466,31.631185727798858" fill="none" id="id65" stroke="none" /><text fill="#e1ed5e" style="font-size:6.75px; font-family:Arial;" text-anchor="middle"><textPath startOffset="22.145653131862474" xlink:href="#id65">May</textPath></text><path d="M 118.36410011445183 110.18625677009912 l 25.987075316651996 14.41459261436964 a50.717142590625755,50.717142590625755 0 0,0 -0.4288415402642072,0.7577219108441081 l -25.735800411366412 -14.85857129531287" fill="#92ff23" stroke="none" /><path d="M 117.62189284568427 111.42229804090321 l 52.865678537052815 34.26689412270965 a84.0,84.0 0 0,0 -0.7947022443170932,1.2032804866437559 l -52.269651853815 -35.169354487692466" fill="#4dd2ff" stroke="none" /><path d="M 114.39649973595853 115.28858382429668 l 11.700081892319195 12.425081515826387 a38.066767911995115,38.066767911995115 0 0,0 -0.4795873091340324,0.44389885351166547 l -11.485064811871196 -12.624098115470431" fill="#ffd614" stroke="none" /><line stroke="#e1ed5e" stroke-width="0.3" x1="143.1302829299769" x2="145.66735839644613" y1="173.24464959558577" y2="177.55315839532614" /><path d="M 143.63769802327073 174.10635135553383 a86.0,86.0 0 0,1 -40.68552437913181,11.842963189579606" fill="none" id="id66" stroke="none" /><text fill="#e1ed5e" style="font-size:6.75px; font-family:Arial;" text-anchor="middle"><textPath startOffset="21.407464694133747" xlink:href="#id66">June</textPath></text><path d="M 109.71004243097381 118.62028667847754 l 1.4475512353995765 2.775870360663427 a24.130632657837157,24.130632657837157 0 0,0 -0.3689375842505114,0.188382159302675 l -1.399686429435483 -2.800310471638938" fill="#ff1902" stroke="none" /><line stroke="#e1ed5e" stroke-width="0.3" x1="101.45913802915013" x2="101.54496967792366" y1="184.9874750549273" y2="189.98673829345242" /><path d="M 101.47630435890484 185.9873277026323 a86.0,86.0 0 0,1 -42.54439059252881,-10.42667462771756" fill="none" id="id67" stroke="none" /><text fill="#e1ed5e" style="font-size:6.75px; font-family:Arial;" text-anchor="middle"><textPath startOffset="22.145653131862474" xlink:href="#id67">July</textPath></text><line stroke="#e1ed5e" stroke-width="0.3" x1="58.13341422392154" x2="55.67067388415222" y1="173.97424548756322" y2="178.32567169271397" /><path d="M 57.64086615596768 174.84453072859336 a86.0,86.0 0 0,1 -31.369924170532247,-30.572349798747897" fill="none" id="id68" stroke="none" /><text fill="#e1ed5e" style="font-size:6.75px; font-family:Arial;" text-anchor="middle"><textPath startOffset="22.145653131862474" xlink:href="#id68">August</textPath></text><line stroke="#e1ed5e" stroke-width="0.3" x1="26.387840678322732" x2="22.057713659400548" y1="142.50000000000003" y2="145.00000000000006" /><path d="M 25.521815274538298 143.00000000000003 a86.0,86.0 0 0,1 -11.493303480769221,-40.785679425670985" fill="none" id="id69" stroke="none" /><text fill="#e1ed5e" style="font-size:6.75px; font-family:Arial;" text-anchor="middle"><textPath startOffset="21.40746469413373" xlink:href="#id69">September</textPath></text><line stroke="#e1ed5e" stroke-width="0.3" x1="15.003131293944662" x2="10.003315487706104" y1="100.72959589197737" y2="100.7725132973878" /><path d="M 14.003168132696942 100.73817937305945 a86.0,86.0 0 0,1 10.791469493833604,-42.45332614584628" fill="none" id="id70" stroke="none" /><text fill="#e1ed5e" style="font-size:6.75px; font-family:Arial;" text-anchor="middle"><textPath startOffset="22.145653131862435" xlink:href="#id70">October</textPath></text><line stroke="#e1ed5e" stroke-width="0.3" x1="26.387840678322718" x2="22.05771365940052" y1="57.49999999999999" y2="54.99999999999999" /><path d="M 25.521815274538284 56.99999999999999 a86.0,86.0 0 0,1 29.574782752854787,-30.34633250058573" fill="none" id="id71" stroke="none" /><text fill="#e1ed5e" style="font-size:6.75px; font-family:Arial;" text-anchor="middle"><textPath startOffset="21.40746469413373" xlink:href="#id71">November</textPath></text><line stroke="#e1ed5e" stroke-width="0.3" x1="56.869717070023135" x2="54.33264160355391" y1="26.7553504044142" y2="22.446841604673864" /><path d="M 56.362301976729285 25.89364864446614 a86.0,86.0 0 0,1 42.16139366436587,-11.88097634709845" fill="none" id="id72" stroke="none" /><text fill="#e1ed5e" style="font-size:6.75px; font-family:Arial;" text-anchor="middle"><textPath startOffset="22.145653131862474" xlink:href="#id72">December</textPath></text></svg>