<?xml version="1.0" encoding="utf-8" ?>
<svg baseProfile="full" height="200mm" version="1.1" viewBox="0,0,200,200" width="200mm" xmlns="http://www.w3.org/2000/svg" xmlns:ev="http://www.w3.org/2001/xml-events" xmlns:xlink="http://www.w3.org/1999/xlink"><defs /><rect fill="#1a1a1a" height="200" width="200" x="0" y="0" /><text alignment-baseline="middle" fill="#e1ed5e" style="dominant-baseline: central; font-size:9.0px; font-family:Arial;" text-anchor="middle" x="100.0" y="100.0">2023</text><line stroke="#e1ed5e" stroke-width="0.3" x1="100.0" x2="100.0" y1="15.0" y2="10.0" /><path d="M 100.0 14.0 a86.0,86.0 0 0,1 42.46469731375804,11.215312516191453" fill="none" id="id49" stroke="none" /><text fill="#e1ed5e" style="font-size:6.75px; font-family:Arial;" text-anchor="middle"><textPath startOffset="22.20632615414155" xlink:href="#id49">January</textPath></text><line stroke="#e1ed5e" stroke-width="0.3" x1="143.23703022742887" x2="145.7803849466894" y1="26.81831364943548" y2="22.513508569990506" /><path d="M 143.74570117128098 25.957352633546492 a86.0,86.0 0 0,1 28.547481713284135,27.462654790039103" fill="none" id="id50" stroke="none" /><text fill="#e1ed5e" style="font-size:6.75px; font-family:Arial;" text-anchor="middle"><textPath startOffset="19.985693538727396" xlink:href="#id50">February</textPath></text><path d="M 113.6212207817346 84.01681056812373 l 16.86807888346181 -19.793064400492657 a47.005720208845204,47.005720208845204 0 0,0 0.611312080386226,0.530123812141664 l -17.2062847624948 19.49977559493132" fill="#f6ff19" stroke="none" /><line stroke="#e1ed5e" stroke-width="0.3" x1="172.23445277983987" x2="176.4835382374775" y1="55.19839476539836" y2="52.563006222186495" /><path d="M 173.08426987136738 54.67131705675599 a86.0,86.0 0 0,1 12.851231095245387,41.99856678651699" fill="none" id="id51" stroke="none" /><text fill="#e1ed5e" style="font-size:6.75px; font-family:Arial;" text-anchor="middle"><textPath startOffset="22.20632615414155" xlink:href="#id51">March</textPath></text><line stroke="#e1ed5e" stroke-width="0.3" x1="184.98032266829074" x2="189.97916517819016" y1="98.17113171792111" y2="98.06355123074" /><path d="M 185.9800911702706 98.14961562048488 a86.0,86.0 0 0,1 -9.607161424134198,41.387399972396054" fill="none" id="id52" stroke="none" /><text fill="#e1ed5e" style="font-size:6.75px; font-family:Arial;" text-anchor="middle"><textPath startOffset="21.466115282336823" xlink:href="#id52">April</textPath></text><line stroke="#e1ed5e" stroke-width="0.3" x1="174.80103733775053" x2="179.2010983576182" y1="140.37084112569926" y2="142.7455964860345" /><path d="M 175.68104954172406 140.8457921977663 a86.0,86.0 0 0,1 -30.038265399797805,32.042727171017184" fill="none" id="id53" stroke="none" /><text fill="#e1ed5e" style="font-size:6.75px; font-family:Arial;" text-anchor="middle"><textPath startOffset="22.206326154141568" xlink:href="#id53">May</textPath></text><path d="M 114.81725581225074 114.88116024355365 l 7.414316348927984 7.4462930979145545 a31.50806203931204,31.50806203931204 0 0,0 -0.3876242537334617,0.37937191636901263 l -7.285042142818728 -7.572815117206139" fill="#ff1f03" stroke="none" /><path d="M 114.55890576462653 115.13401014063108 l 5.966535589580322 6.202225055713942 a29.606226965601966,29.606226965601966 0 0,0 -0.37030928108362915,0.35015053880449654 l -5.858890474105885 -6.30401023126436" fill="#ff0000" stroke="none" /><path d="M 114.0293411484842 115.62618273729858 l 17.21890496456695 19.178787703909528 a46.77433968058968,46.77433968058968 0 0,0 -0.6037401170556508,0.5327304576418668 l -16.88622249460471 -19.47234130332368" fill="#f9ff18" stroke="none" /><path d="M 112.34349029814194 116.9893568818739 l 9.623922929398212 13.24619352403167 a37.37319563882064,37.37319563882064 0 0,0 -0.5237100070220078,0.37365318464709485 l -9.39448559452732 -13.409890970522984" fill="#ff7c0b" stroke="none" /><path d="M 112.04921762599082 117.19931262002967 l 14.72846626272834 21.02372979966772 a46.66953316953317,46.66953316953317 0 0,0 -0.6619142453528306,0.45527065361000574 l -14.364395132752625 -21.27414124264282" fill="#faff18" stroke="none" /><line stroke="#e1ed5e" stroke-width="0.3" x1="143.8653032363475" x2="146.44561519142675" y1="172.8068346515853" y2="177.08958963109032" /><path d="M 144.38136562736335 173.6633856474863 a86.0,86.0 0 0,1 -40.68145358897372,12.25698825130547" fill="none" id="id54" stroke="none" /><text fill="#e1ed5e" style="font-size:6.75px; font-family:Arial;" text-anchor="middle"><textPath startOffset="21.466115282336833" xlink:href="#id54">June</textPath></text><line stroke="#e1ed5e" stroke-width="0.3" x1="102.19456741930631" x2="102.32365962044197" y1="184.97166512339345" y2="189.96999836594603" /><path d="M 102.22038585953345 185.97133177190398 a86.0,86.0 0 0,1 -42.740103519485714,-10.115201625700543" fill="none" id="id55" stroke="none" /><text fill="#e1ed5e" style="font-size:6.75px; font-family:Arial;" text-anchor="middle"><textPath startOffset="22.20632615414155" xlink:href="#id55">July</textPath></text><line stroke="#e1ed5e" stroke-width="0.3" x1="58.666819895761336" x2="56.23545636021788" y1="174.27360380694188" y2="178.64263932499728" /><path d="M 58.180547188652646 175.14741091055294 a86.0,86.0 0 0,1 -31.652253787137756,-30.449443065178592" fill="none" id="id56" stroke="none" /><text fill="#e1ed5e" style="font-size:6.75px; font-family:Arial;" text-anchor="middle"><textPath startOffset="22.20632615414155" xlink:href="#id56">August</textPath></text><line stroke="#e1ed5e" stroke-width="0.3" x1="26.63291911575756" x2="22.317208475507996" y1="142.92168965132927" y2="145.44649492493687" /><path d="M 25.769776987707644 143.4266507060508 a86.0,86.0 0 0,1 -11.730757126820373,-40.83630448921669" fill="none" id="id57" stroke="none" /><text fill="#e1ed5e" style="font-size:6.75px; font-family:Arial;" text-anchor="middle"><textPath startOffset="21.46611528233685" xlink:href="#id57">September</textPath></text><path d="M 79.4281124754447 104.21870165774334 l -19.699983200725864 4.0398991919053255 a41.109950859950864,41.109950859950864 0 0,0 -0.13619152555684955,-0.6944376546894521 l 19.76660465925838 -3.7001978101479183" fill="#ffb510" stroke="none" /><path d="M 79.35854240842038 103.8639653848113 l -22.534594960524785 4.218350109331956 a43.926021191646186,43.926021191646186 0 0,0 -0.13272677707114952,-0.7444022522382083 l 22.603868179935123 -3.829829106360534" fill="#ffdd14" stroke="none" /><path d="M 79.1416061653843 102.43462659150553 l -18.311952941108412 2.1374017542440313 a39.436271498771504,39.436271498771504 0 0,0 -0.0728964427124749,-0.6749305251337532 l 18.34603168532194 -1.821874907225496" fill="#ff9c0e" stroke="none" /><line stroke="#e1ed5e" stroke-width="0.3" x1="15.007084014347285" x2="10.007500721073583" y1="101.09737516637583" y2="101.16192664675087" /><path d="M 14.007167355692545 101.11028546245083 a86.0,86.0 0 0,1 10.666146001902534,-42.60595125391555" fill="none" id="id58" stroke="none" /><text fill="#e1ed5e" style="font-size:6.75px; font-family:Arial;" text-anchor="middle"><textPath startOffset="22.20632615414155" xlink:href="#id58">October</textPath></text><path d="M 79.54389044137918 95.25157060432595 l -35.794265109504714 -8.308839965656766 a57.745968980343974,57.745968980343974 0 0,0 0.23309352793760058,-0.9663231577062493 l 35.6459387813063 8.923748355022411" fill="#6cff28" stroke="none" /><path d="M 79.81627453868168 94.20196356495316 l -36.07004070271682 -10.361586150623106 a58.528792997543,58.528792997543 0 0,0 0.28649594139604956,-0.9659218896258732 l 35.88633886420906 10.980937426995519" fill="#63ff29" stroke="none" /><path d="M 80.14247586403 93.16781622104843 l -59.572572407909995 -20.496551336854708 a84.0,84.0 0 0,0 0.4821876767607618,-1.3632094942935558 l 59.210931650339425 21.518958457574875" fill="#4dd2ff" stroke="none" /><path d="M 80.52162464483688 92.15188598940014 l -21.82792447086961 -8.794780711356331 a44.53309275184275,44.53309275184275 0 0,0 0.2926000483637937,-0.7085542259405709 l 21.673302735619618 9.169209507750214" fill="#ffe615" stroke="none" /><path d="M 80.95270993114464 91.15688171328213 l -21.697296948828168 -10.073441561866272 a44.92168304668304,44.92168304668304 0 0,0 0.3316542321536242,-0.698548395289832 l 21.52068452283279 10.445432372796636" fill="#ffeb16" stroke="none" /><line stroke="#e1ed5e" stroke-width="0.3" x1="26.266209847984243" x2="21.928928074336255" y1="57.711370442889674" y2="55.22380399835377" /><path d="M 25.398753493254645 57.213857153982495 a86.0,86.0 0 0,1 29.58750427330803,-30.492523968695096" fill="none" id="id59" stroke="none" /><text fill="#e1ed5e" style="font-size:6.75px; font-family:Arial;" text-anchor="middle"><textPath startOffset="21.46611528233685" xlink:href="#id59">November</textPath></text><line stroke="#e1ed5e" stroke-width="0.3" x1="56.762969772571076" x2="54.21961505331055" y1="26.818313649435495" y2="22.513508569990535" /><path d="M 56.25429882871897 25.957352633546506 a86.0,86.0 0 0,1 42.265352541879196,-11.944610805530505" fill="none" id="id60" stroke="none" /><text fill="#e1ed5e" style="font-size:6.75px; font-family:Arial;" text-anchor="middle"><textPath startOffset="22.20632615414155" xlink:href="#id60">December</textPath></text><path d="M 89.63071344664047 81.73862282372117 l -24.1624917816824 -42.55262632327228 a69.93416001228502,69.93416001228502 0 0,0 1.0519293570886596,-0.5853975483200933 l 23.426438335521695 42.962239269152555" fill="#39ff8b" stroke="none" /><path d="M 90.58718382345135 81.22770947309562 l -9.86018512720002 -19.664493217026763 a42.998080466830466,42.998080466830466 0 0,0 0.6644815511849639,-0.3260582113547679 l 9.520232309004632 19.831306588516362" fill="#ffd013" stroke="none" /><path d="M 90.91171255644093 81.06846463323043 l -13.28457249744746 -27.672689231025455 a51.696214680589684,51.696214680589684 0 0,0 0.8055298969915237,-0.3782070876142043 l 12.806264389156329 27.897261301279666" fill="#b7ff1f" stroke="none" /><path d="M 91.23893434514133 80.91482961587045 l -10.100047625527916 -22.002018637324415 a45.20949785012285,45.20949785012285 0 0,0 0.7100428955289732,-0.3185755499702322 l 9.719822611532168 22.172614517811176" fill="#ffef16" stroke="none" /><path d="M 94.98787191387505 79.60689891045804 l -3.3686780713985525 -13.706312222612526 a35.114212223587224,35.114212223587224 0 0,0 0.5882070529156492,-0.1392096052174587 l 3.132247331520369 13.762267739970856" fill="#ff5908" stroke="none" /><path d="M 97.47563105711357 79.15227682838746 l -2.809290806065408 -23.200775464477292 a44.370239557739566,44.370239557739566 0 0,0 0.759012734399538,-0.0852839244775853 l 2.4095113681561524 23.245695342425478" fill="#ffe415" stroke="none" /><path d="M 97.83486435360386 79.11191278185805 l -2.6731711604768122 -25.789346012570828 a46.92751842751843,46.92751842751843 0 0,0 0.8041921300035136,-0.076367732834013 l 2.228853903383062 25.83153928992002" fill="#f7ff19" stroke="none" /><path d="M 98.19473922651362 79.07773832637324 l -1.1852568238699357 -13.736659979359834 a34.787699631449634,34.787699631449634 0 0,0 0.5970394398424171,-0.04634175125030162 l 0.9486271946651844 13.755026992798598" fill="#ff5407" stroke="none" /></svg>