<?xml version="1.0" encoding="utf-8" ?>
<svg baseProfile="full" height="200mm" version="1.1" viewBox="0,0,200,200" width="200mm" xmlns="http://www.w3.org/2000/svg" xmlns:ev="http://www.w3.org/2001/xml-events" xmlns:xlink="http://www.w3.org/1999/xlink"><defs /><rect fill="#1a1a1a" height="200" width="200" x="0" y="0" /><text alignment-baseline="middle" fill="#e1ed5e" style="dominant-baseline: central; font-size:9.0px; font-family:Arial;" text-anchor="middle" x="100.0" y="100.0">2020</text><line stroke="#e1ed5e" stroke-width="0.3" x1="100.0" x2="100.0" y1="15.0" y2="10.0" /><path d="M 100.0 14.0 a86.0,86.0 0 0,1 42.35913384403234,11.155469271406648" fill="none" id="id13" stroke="none" /><text fill="#e1ed5e" style="font-size:6.75px; font-family:Arial;" text-anchor="middle"><textPath startOffset="22.145653131862478" xlink:href="#id13">January</textPath></text><path d="M 105.3480935250658 79.69241777938227 l 4.292976864028139 -16.30113239958503 a37.85694420302451,37.85694420302451 0 0,0 0.6270166332185471,0.1708961716028338 l -4.572174898181379 16.225035733838055" fill="#ff4306" stroke="none" /><path d="M 106.38641147887787 79.99465700312896 l 5.117565951264907 -16.030702453602547 a37.827742047627325,37.827742047627325 0 0,0 0.6169115017827995,0.20279106405542335 l -5.392000190695448 15.940490468145104" fill="#ff4206" stroke="none" /><path d="M 107.74402155503746 80.48000691201159 l 5.8357230630289845 -14.70983429528809 a36.825134712324,36.825134712324 0 0,0 0.5855994977734134,0.2381582177198956 l -6.087377021992838 14.6074888209889" fill="#ff3104" stroke="none" /><line stroke="#e1ed5e" stroke-width="0.3" x1="143.13028292997686" x2="145.6673583964461" y1="26.7553504044142" y2="22.446841604673864" /><path d="M 143.63769802327073 25.89364864446614 a86.0,86.0 0 0,1 29.32050498858742,28.57503671076993" fill="none" id="id14" stroke="none" /><text fill="#e1ed5e" style="font-size:6.75px; font-family:Arial;" text-anchor="middle"><textPath startOffset="20.669276256404974" xlink:href="#id14">February</textPath></text><line stroke="#e1ed5e" stroke-width="0.3" x1="172.87174338648825" x2="177.1583165268699" y1="56.24261187166439" y2="53.66864786411523" /><path d="M 173.72905801456457 55.72781907015455 a86.0,86.0 0 0,1 12.242430191666344,42.057860355516425" fill="none" id="id15" stroke="none" /><text fill="#e1ed5e" style="font-size:6.75px; font-family:Arial;" text-anchor="middle"><textPath startOffset="22.145653131862474" xlink:href="#id15">March</textPath></text><line stroke="#e1ed5e" stroke-width="0.3" x1="184.99686870605535" x2="189.99668451229388" y1="99.2704041080226" y2="99.22748670261217" /><path d="M 185.99683186730306 99.26182062694052 a86.0,86.0 0 0,1 -10.086455211305974,41.156179273409016" fill="none" id="id16" stroke="none" /><text fill="#e1ed5e" style="font-size:6.75px; font-family:Arial;" text-anchor="middle"><textPath startOffset="21.40746469413373" xlink:href="#id16">April</textPath></text><path d="M 120.592083275326 104.11899336999214 l 28.549010290978654 5.7106016198604665 a50.11454893099253,50.11454893099253 0 0,0 -0.17597912186551368,0.8421238032856977 l -28.446773458288778 -6.1998418744315735" fill="#f5ff19" stroke="none" /><path d="M 120.51834098615036 104.47187691870673 l 20.318614392160374 4.4283474371410065 a41.79558491221971,41.79558491221971 0 0,0 -0.15880160527807166,0.699709173717757 l -20.23960192532464 -4.77649094479778" fill="#ff860c" stroke="none" /><path d="M 120.43855184770803 104.8234425847677 l 29.58906405161556 6.982938549336924 a51.40187728141839,51.40187728141839 0 0,0 -0.21004391577258713,0.8570508540141858 l -29.464832609326674 -7.48984522795921" fill="#e2ff1b" stroke="none" /><path d="M 120.35273937422433 105.17358676015961 l 18.693529437406806 4.751822082510581 a40.288023639840084,40.288023639840084 0 0,0 -0.17613639846309612,0.6688185943398871 l -18.60920355813898 -5.072021181223271" fill="#ff6d0a" stroke="none" /><path d="M 120.26092885502905 105.52220625578681 l 12.631531055108214 3.4427799589933383 a34.09229966973753,34.09229966973753 0 0,0 -0.15874268906439254,0.563321801967762 l -12.57056987396924 -3.659109684864109" fill="#ff0000" stroke="none" /><path d="M 119.58574465831526 107.57618678355244 l 58.75723397494581 22.728560350657347 a84.0,84.0 0 0,0 -0.5317653001355023,1.3403959311457434 l -58.358409999844184 -23.733857299016655" fill="#4dd2ff" stroke="none" /><path d="M 118.5362547648365 109.86951160357373 l 33.46277824369955 17.81704461628984 a58.91048148791934,58.91048148791934 0 0,0 -0.48293873069260956,0.8885528699515386 l -33.151994163391606 -18.388852319715983" fill="#79ff26" stroke="none" /><line stroke="#e1ed5e" stroke-width="0.3" x1="174.33088141563837" x2="178.70328620479359" y1="141.23008692659167" y2="143.65538615756765" /><path d="M 175.20536237346943 141.71514677278685 a86.0,86.0 0 0,1 -30.301960400862466,31.631185727798858" fill="none" id="id17" stroke="none" /><text fill="#e1ed5e" style="font-size:6.75px; font-family:Arial;" text-anchor="middle"><textPath startOffset="22.145653131862474" xlink:href="#id17">May</textPath></text><path d="M 117.01052211995028 112.31430620078461 l 19.87271322235109 14.386311833038995 a45.53346080305927,45.53346080305927 0 0,0 -0.463786443196824,0.629215382961937 l -19.622824759570438 -14.725333525269809" fill="#ffc312" stroke="none" /><path d="M 116.1254893667686 113.45245675266167 l 15.597596586640888 13.012069820321807 a41.312532591691294,41.312532591691294 0 0,0 -0.4589732594729093,0.5406693455872416 l -15.371928763660865 -13.277905948358606" fill="#ff7e0b" stroke="none" /><line stroke="#e1ed5e" stroke-width="0.3" x1="143.1302829299769" x2="145.66735839644613" y1="173.24464959558577" y2="177.55315839532614" /><path d="M 143.63769802327073 174.10635135553383 a86.0,86.0 0 0,1 -40.68552437913181,11.842963189579606" fill="none" id="id18" stroke="none" /><text fill="#e1ed5e" style="font-size:6.75px; font-family:Arial;" text-anchor="middle"><textPath startOffset="21.407464694133747" xlink:href="#id18">June</textPath></text><path d="M 109.71004243097381 118.62028667847754 l 20.808600113100255 39.90323443363871 a66.00295498001043,66.00295498001043 0 0,0 -1.0091310538354903,0.5152695064318326 l -20.120541837551183 -40.25456189174337" fill="#31ff42" stroke="none" /><line stroke="#e1ed5e" stroke-width="0.3" x1="101.45913802915013" x2="101.54496967792366" y1="184.9874750549273" y2="189.98673829345242" /><path d="M 101.47630435890484 185.9873277026323 a86.0,86.0 0 0,1 -42.54439059252881,-10.42667462771756" fill="none" id="id19" stroke="none" /><text fill="#e1ed5e" style="font-size:6.75px; font-family:Arial;" text-anchor="middle"><textPath startOffset="22.145653131862474" xlink:href="#id19">July</textPath></text><path d="M 93.95794788825049 120.11202640906438 l -17.78307672058287 59.19407877056861 a82.80757865461499,82.80757865461499 0 0,0 -1.3578840656636015,-0.42067595458779156 l 18.796601419118105 -58.88008622817417" fill="#4be0ff" stroke="none" /><line stroke="#e1ed5e" stroke-width="0.3" x1="58.13341422392154" x2="55.67067388415222" y1="173.97424548756322" y2="178.32567169271397" /><path d="M 57.64086615596768 174.84453072859336 a86.0,86.0 0 0,1 -31.369924170532247,-30.572349798747897" fill="none" id="id20" stroke="none" /><text fill="#e1ed5e" style="font-size:6.75px; font-family:Arial;" text-anchor="middle"><textPath startOffset="22.145653131862474" xlink:href="#id20">August</textPath></text><path d="M 89.34428304082925 118.09573695890944 l -17.96265306275646 30.504511911611974 a56.4003128802364,56.4003128802364 0 0,0 -0.8300709157711093,-0.49843373504597943 l 18.483656735084995 -30.191664176030077" fill="#9bff22" stroke="none" /><path d="M 86.96720088162412 116.46651593811092 l -12.689969823530136 16.033362323422793 a41.447592560403265,41.447592560403265 0 0,0 -0.554113318188676,-0.44635446550908287 l 12.963333912074074 -15.813159564120298" fill="#ff800b" stroke="none" /><path d="M 86.68645165197938 116.24036423190432 l -13.204781309543828 16.10768613023572 a41.82843733704154,41.82843733704154 0 0,0 -0.5513897627044797,-0.45998895090455055 l 13.4793454064102 -15.878634995419299" fill="#ff860c" stroke="none" /><line stroke="#e1ed5e" stroke-width="0.3" x1="26.387840678322732" x2="22.057713659400548" y1="142.50000000000003" y2="145.00000000000006" /><path d="M 25.521815274538298 143.00000000000003 a86.0,86.0 0 0,1 -11.493303480769221,-40.785679425670985" fill="none" id="id21" stroke="none" /><text fill="#e1ed5e" style="font-size:6.75px; font-family:Arial;" text-anchor="middle"><textPath startOffset="21.40746469413373" xlink:href="#id21">September</textPath></text><path d="M 80.05021161711548 106.5578916946017 l -23.45449655699112 7.709958883780224 a45.68920563184425,45.68920563184425 0 0,0 -0.23853090692184253,-0.7471946685722372 l 23.583392179690218 -7.306195181516596" fill="#ffc512" stroke="none" /><line stroke="#e1ed5e" stroke-width="0.3" x1="15.003131293944662" x2="10.003315487706104" y1="100.72959589197737" y2="100.7725132973878" /><path d="M 14.003168132696942 100.73817937305945 a86.0,86.0 0 0,1 10.791469493833604,-42.45332614584628" fill="none" id="id22" stroke="none" /><text fill="#e1ed5e" style="font-size:6.75px; font-family:Arial;" text-anchor="middle"><textPath startOffset="22.145653131862435" xlink:href="#id22">October</textPath></text><path d="M 79.73907114497095 94.47779374421319 l -23.910690012123055 -6.516964888919741 a45.78289588041022,45.78289588041022 0 0,0 0.21317717125613891,-0.7564905757750348 l 23.795294348792336 6.926463388597789" fill="#ffc712" stroke="none" /><path d="M 80.41425534168474 92.42381321644754 l -23.153598022110575 -8.956309110888276 a45.82548235703111,45.82548235703111 0 0,0 0.2901000164218992,-0.7312415487399064 l 22.996439330722545 9.352451676841765" fill="#ffc712" stroke="none" /><path d="M 81.46374523516351 90.13048839642627 l -21.55850523753189 -11.478689751349176 a45.42395272031983,45.42395272031983 0 0,0 0.3723783190312145,-0.6851341651732719 l 21.358281568885324 11.847078749997067" fill="#ffc111" stroke="none" /><line stroke="#e1ed5e" stroke-width="0.3" x1="26.387840678322718" x2="22.05771365940052" y1="57.49999999999999" y2="54.99999999999999" /><path d="M 25.521815274538284 56.99999999999999 a86.0,86.0 0 0,1 29.574782752854787,-30.34633250058573" fill="none" id="id23" stroke="none" /><text fill="#e1ed5e" style="font-size:6.75px; font-family:Arial;" text-anchor="middle"><textPath startOffset="21.40746469413373" xlink:href="#id23">November</textPath></text><path d="M 82.18462484594161 88.88188828441811 l -21.57065267943438 -13.461682630541436 a46.42656005562315,46.42656005562315 0 0,0 0.4277484766395818,-0.6724916524109503 l 21.336386511168907 13.829987957631058" fill="#ffd113" stroke="none" /><path d="M 82.37810715431573 88.57770195909679 l -20.407252581649665 -13.227734569994354 a45.31931166347992,45.31931166347992 0 0,0 0.4287542701175344,-0.6491886118189543 l 20.1771738726114 13.576103060152368" fill="#ffbf11" stroke="none" /><path d="M 82.78059297857968 87.97951657250589 l -20.174612050532485 -14.08344605060308 a45.604032678602465,45.604032678602465 0 0,0 0.45361875584313327,-0.6380715883265066 l 19.92987819615938 14.427694865639106" fill="#ffc412" stroke="none" /><path d="M 83.8745106332314 86.54754324733833 l -19.15643481585588 -15.98097924560069 a45.94715800451938,45.94715800451938 0 0,0 0.5104629406596177,-0.6013240605562223 l 18.87927731168915 16.30747008860647" fill="#ffc912" stroke="none" /><path d="M 88.12776184653039 82.6780497279521 l -8.689385964113107 -12.678073807086692 a36.37006779071789,36.37006779071789 0 0,0 0.5180201084937072,-0.3485470474974761 l 8.47046956752241 12.825370528641278" fill="#ff2904" stroke="none" /><path d="M 88.4268655584334 82.4767994020092 l -10.273595966118648 -15.555533713530153 a39.64192595167738,39.64192595167738 0 0,0 0.571059626923118,-0.37015395082488733 l 10.005050706938505 15.729601506058946" fill="#ff6209" stroke="none" /><path d="M 88.72937992617638 82.28071324371311 l -21.909761521342855 -34.44578422621134 a61.823396488788454,61.823396488788454 0 0,0 0.9003720155394527,-0.5618987289229709 l 21.315225377013704 34.816818751975845" fill="#54ff2b" stroke="none" /><line stroke="#e1ed5e" stroke-width="0.3" x1="56.869717070023135" x2="54.33264160355391" y1="26.7553504044142" y2="22.446841604673864" /><path d="M 56.362301976729285 25.89364864446614 a86.0,86.0 0 0,1 42.16139366436587,-11.88097634709845" fill="none" id="id24" stroke="none" /><text fill="#e1ed5e" style="font-size:6.75px; font-family:Arial;" text-anchor="middle"><textPath startOffset="22.145653131862474" xlink:href="#id24">December</textPath></text><path d="M 89.65649057296885 81.72400993836675 l -8.66124330722836 -15.303587019567988 a38.58456457500435,38.58456457500435 0 0,0 0.579238487130299,-0.32129382459583444 l 8.39726063194196 15.450013759596969" fill="#ff5007" stroke="none" /><path d="M 90.61103034731259 81.2157712731953 l -6.383346074780345 -12.770968183575317 a35.27742047627325,35.27742047627325 0 0,0 0.544011002557813,-0.2661030420900093 l 6.163174822960479 12.87866497576254" fill="#ff1502" stroke="none" /><path d="M 91.5904679813234 80.7573450057729 l -7.639182049296694 -17.479943507705684 a40.07630801321049,40.07630801321049 0 0,0 0.6327570501831802,-0.2700863586632026 l 7.337989923943082 17.60850451602829" fill="#ff6909" stroke="none" /><path d="M 91.92203290615298 80.6158196554323 l -12.987277995252759 -31.16473933606029 a54.76255866504433,54.76255866504433 0 0,0 0.87084343618992,-0.35416444423986543 l 12.450380097872397 31.383091036879446" fill="#b2ff20" stroke="none" /><path d="M 92.25597844496254 80.48000691201159 l -7.120335943964866 -17.947897926489837 a40.308708499913095,40.308708499913095 0 0,0 0.6453764695587438,-0.24964548269094342 l 6.811187211912593 18.06748329731882" fill="#ff6d0a" stroke="none" /><path d="M 92.592206182469 80.34994680014964 l -6.510308628791365 -17.269367109063694 a39.455762211020335,39.455762211020335 0 0,0 0.6358218077125919,-0.23348257484177387 l 6.212897669424645 17.37858053291419" fill="#ff5f08" stroke="none" /><path d="M 93.95794788825049 79.88797359093562 l -5.38319921909567 -17.918919409709897 a39.71006431427082,39.71006431427082 0 0,0 0.6545352938126955,-0.19052568472929704 l 5.07480391290135 18.00868878874171" fill="#ff6309" stroke="none" /><path d="M 94.30408787586887 79.78721728523814 l -4.595276691372725 -16.30701584798333 a37.9421171562663,37.9421171562663 0 0,0 0.6284273349935656,-0.171280664644724 l 4.314667955444483 16.383497006772192" fill="#ff4406" stroke="none" /><path d="M 96.41257539226777 79.30868818359171 l -2.4142729485375636 -13.9248847990951 a35.132626455762214,35.132626455762214 0 0,0 0.5951174098641622,-0.0979263433244146 l 2.1748780356203286 13.964277140915183" fill="#ff1302" stroke="none" /><path d="M 96.76829788921471 79.25015418208739 l -2.9407197201392385 -18.881530133282215 a40.10916043803233,40.10916043803233 0 0,0 0.6812347887333146,-0.10011805433545184 l 2.6161598257982392 18.92922926091655" fill="#ff6a09" stroke="none" /></svg>