<?xml version="1.0" encoding="utf-8" ?>
<svg baseProfile="full" height="200mm" version="1.1" viewBox="0,0,200,200" width="200mm" xmlns="http://www.w3.org/2000/svg" xmlns:ev="http://www.w3.org/2001/xml-events" xmlns:xlink="http://www.w3.org/1999/xlink"><defs /><rect fill="#1a1a1a" height="200" width="200" x="0" y="0" /><text alignment-baseline="middle" fill="#e1ed5e" style="dominant-baseline: central; font-size:9.0px; font-family:Arial;" text-anchor="middle" x="100.0" y="100.0">2024</text><line stroke="#e1ed5e" stroke-width="0.3" x1="100.0" x2="100.0" y1="15.0" y2="10.0" /><path d="M 100.0 14.0 a86.0,86.0 0 0,1 42.35913384403234,11.155469271406648" fill="none" id="id61" stroke="none" /><text fill="#e1ed5e" style="font-size:6.75px; font-family:Arial;" text-anchor="middle"><textPath startOffset="22.145653131862478" xlink:href="#id61">January</textPath></text><path d="M 100.0 79.0 l 0.0 -39.54249287535624 a60.54249287535624,60.54249287535624 0 0,0 1.0392923968703869,0.008921075268575752 l -0.678799472021532 39.5366661982821" fill="#62ff29" stroke="none" /><path d="M 101.08105385017728 79.02784411241856 l 2.6610269431339852 -51.62321179773666 a72.69175041247938,72.69175041247938 0 0,0 1.2456446161575292,0.074934886899587 l -3.546815911423977 51.56992493301238" fill="#3cffa1" stroke="none" /><path d="M 101.44090949804482 79.04949213459386 l 2.0952946455144548 -30.465124291816313 a51.53709314534273,51.53709314534273 0 0,0 0.8820966283615695,0.06827985780415947 l -2.6179602686512577 30.4246666670171" fill="#ddff1b" stroke="none" /><path d="M 101.80034050326958 79.07731436759882 l 5.179779725748631 -60.19689200465424 a81.41933403329833,81.41933403329833 0 0,0 1.391496882545345,0.13177620151089817 l -6.212376171678989 60.09910404763815" fill="#49efff" stroke="none" /><path d="M 102.15924093988457 79.11130261209362 l 5.8429701095772435 -56.52543549496889 a77.82662366881655,77.82662366881655 0 0,0 1.3277373885791743,0.1487757437854677 l -6.812443399757214 56.41680399067645" fill="#44ffe3" stroke="none" /><path d="M 102.51750503828377 79.15144685158666 l 3.072775948557701 -25.446992837140176 a46.63184340782961,46.63184340782961 0 0,0 0.7939008678292746,0.10278636178959384 l -3.509154638277767 25.390494879150186" fill="#ffd814" stroke="none" /><path d="M 103.58742460773223 79.30868818359171 l 4.493132287308482 -25.915193029754388 a47.30181490925454,47.30181490925454 0 0,0 0.7988719423004526,0.1455810797116981 l -4.937338963159988 25.834243776111325" fill="#ffe215" stroke="none" /><path d="M 104.29559338865022 79.4440306129975 l 5.558499133526966 -26.59943055326374 a48.17400629968501,48.17400629968501 0 0,0 0.808033121941698,0.17610705807066024 l -6.0142946720877974 26.50009203705936" fill="#ffef16" stroke="none" /><path d="M 104.9986988182912 79.60360301121754 l 11.51372709362636 -46.979935611000286 a69.3702414879256,69.3702414879256 0 0,0 1.1541711992170163,0.29338580548960036 l -12.31850358606877 46.77536457367542" fill="#37ff74" stroke="none" /><path d="M 106.04205211174951 79.88797359093562 l 7.131107762370383 -23.73713847382705 a45.785165741712916,45.785165741712916 0 0,0 0.7507881285087514,0.23259608138876942 l -7.537536523750765 23.611225804631633" fill="#ffcb12" stroke="none" /><path d="M 106.38641147887787 79.99465700312896 l 7.858533446890403 -24.616744094454862 a46.840677966101694,46.840677966101694 0 0,0 0.7638984360263915,0.25110858887277904 l -8.279954620564537 24.478214584180062" fill="#ffdb14" stroke="none" /><path d="M 106.72888874123014 80.10723608172694 l 12.069609854638468 -35.681656906113716 a58.667706614669264,58.667706614669264 0 0,0 0.9512388318881516,0.33089024424035723 l -12.680354458571639 35.46920822930477" fill="#7aff26" stroke="none" /><path d="M 108.4095320186766 80.7573450057729 l 12.833397429791424 -29.3653248000998 a53.04712764361782,53.04712764361782 0 0,0 0.8312904154533879,0.3718256292450863 l -13.335601248100442 29.140695419944862" fill="#c7ff1e" stroke="none" /><path d="M 108.73861861582097 80.90454125486305 l 10.89253671562276 -23.802158513531065 a47.17613619319034,47.17613619319034 0 0,0 0.7335019477624579,0.34331594823738526 l -11.299527377256723 23.611666333723146" fill="#ffe015" stroke="none" /><path d="M 109.06512990194946 81.05736502329252 l 23.383466549988867 -48.86245162920758 a75.16941652917353,75.16941652917353 0 0,0 1.1591831005677815,0.5670145418936351 l -24.218809899818716 48.453843337216725" fill="#3fffc2" stroke="none" /><line stroke="#e1ed5e" stroke-width="0.3" x1="143.13028292997686" x2="145.6673583964461" y1="26.7553504044142" y2="22.446841604673864" /><path d="M 143.63769802327073 25.89364864446614 a86.0,86.0 0 0,1 29.32050498858742,28.57503671076993" fill="none" id="id62" stroke="none" /><text fill="#e1ed5e" style="font-size:6.75px; font-family:Arial;" text-anchor="middle"><textPath startOffset="20.669276256404974" xlink:href="#id62">February</textPath></text><path d="M 113.86319453409587 84.22622945171908 l 8.420845793419533 -9.581376719570006 a33.75591720413979,33.75591720413979 0 0,0 0.43197121449556486,0.3862713236686226 l -8.584082034738474 9.435409866017995" fill="#ff0000" stroke="none" /><path d="M 114.65682725009322 84.96080404539774 l 18.461402807167055 -18.943025640973136 a47.45111744412779,47.45111744412779 0 0,0 0.5784699745027998,0.5735258163955808 l -18.783864701799818 18.623319814348896" fill="#ffe415" stroke="none" /><path d="M 115.6541949942343 86.00192230759917 l 20.15650771381496 -18.024073488887787 a48.03982300884955,48.03982300884955 0 0,0 0.544426017404464,0.6194568689007036 l -20.462944795178014 17.675404342175785" fill="#ffed16" stroke="none" /><path d="M 116.1254893667686 86.54754324733833 l 17.70199963664407 -14.767637690322525 a44.053067346632666,44.053067346632666 0 0,0 0.4794508887794214,0.5848521266868435 l -17.95289734466212 14.461583281937186" fill="#ffaf10" stroke="none" /><path d="M 116.35404254752997 86.82634096563983 l 21.878161914117268 -17.623498564190548 a49.09344532773361,49.09344532773361 0 0,0 0.5230405597751097,0.6608446608888293 l -22.177468904533935 17.24533395938704" fill="#fffd18" stroke="none" /><path d="M 116.7966241395341 87.39550010848427 l 50.389872418602316 -37.813499674547195 a84.0,84.0 0 0,0 0.855591921664697,1.1607747629245 l -51.03156635985084 36.94291860235382" fill="#4dd2ff" stroke="none" /><line stroke="#e1ed5e" stroke-width="0.3" x1="172.87174338648825" x2="177.1583165268699" y1="56.24261187166439" y2="53.66864786411523" /><path d="M 173.72905801456457 55.72781907015455 a86.0,86.0 0 0,1 12.242430191666344,42.057860355516425" fill="none" id="id63" stroke="none" /><text fill="#e1ed5e" style="font-size:6.75px; font-family:Arial;" text-anchor="middle"><textPath startOffset="22.145653131862474" xlink:href="#id63">March</textPath></text><path d="M 118.00360718960297 89.18935116829356 l 23.252116404199093 -13.962227813153067 a48.12203389830508,48.12203389830508 0 0,0 0.41918024390602376,0.7118596957069688 l -23.488370358234885 13.561016949152542" fill="#ffef16" stroke="none" /><path d="M 118.53625476483649 90.13048839642627 l 23.78907404295342 -12.666342002948529 a47.95099745012749,47.95099745012749 0 0,0 0.38062115997805995,0.7298912610390418 l -24.003003271906426 12.256104498804987" fill="#ffec16" stroke="none" /><line stroke="#e1ed5e" stroke-width="0.3" x1="184.99686870605535" x2="189.99668451229388" y1="99.2704041080226" y2="99.22748670261217" /><path d="M 185.99683186730306 99.26182062694052 a86.0,86.0 0 0,1 -10.086455211305974,41.156179273409016" fill="none" id="id64" stroke="none" /><text fill="#e1ed5e" style="font-size:6.75px; font-family:Arial;" text-anchor="middle"><textPath startOffset="21.40746469413373" xlink:href="#id64">April</textPath></text><line stroke="#e1ed5e" stroke-width="0.3" x1="174.33088141563837" x2="178.70328620479359" y1="141.23008692659167" y2="143.65538615756765" /><path d="M 175.20536237346943 141.71514677278685 a86.0,86.0 0 0,1 -30.301960400862466,31.631185727798858" fill="none" id="id65" stroke="none" /><text fill="#e1ed5e" style="font-size:6.75px; font-family:Arial;" text-anchor="middle"><textPath startOffset="22.145653131862474" xlink:href="#id65">May</textPath></text><line stroke="#e1ed5e" stroke-width="0.3" x1="143.1302829299769" x2="145.66735839644613" y1="173.24464959558577" y2="177.55315839532614" /><path d="M 143.63769802327073 174.10635135553383 a86.0,86.0 0 0,1 -40.68552437913181,11.842963189579606" fill="none" id="id66" stroke="none" /><text fill="#e1ed5e" style="font-size:6.75px; font-family:Arial;" text-anchor="middle"><textPath startOffset="21.407464694133747" xlink:href="#id66">June</textPath></text><line stroke="#e1ed5e" stroke-width="0.3" x1="101.45913802915013" x2="101.54496967792366" y1="184.9874750549273" y2="189.98673829345242" /><path d="M 101.47630435890484 185.9873277026323 a86.0,86.0 0 0,1 -42.54439059252881,-10.42667462771756" fill="none" id="id67" stroke="none" /><text fill="#e1ed5e" style="font-size:6.75px; font-family:Arial;" text-anchor="middle"><textPath startOffset="22.145653131862474" xlink:href="#id67">July</textPath></text><line stroke="#e1ed5e" stroke-width="0.3" x1="58.13341422392154" x2="55.67067388415222" y1="173.97424548756322" y2="178.32567169271397" /><path d="M 57.64086615596768 174.84453072859336 a86.0,86.0 0 0,1 -31.369924170532247,-30.572349798747897" fill="none" id="id68" stroke="none" /><text fill="#e1ed5e" style="font-size:6.75px; font-family:Arial;" text-anchor="middle"><textPath startOffset="22.145653131862474" xlink:href="#id68">August</textPath></text><line stroke="#e1ed5e" stroke-width="0.3" x1="26.387840678322732" x2="22.057713659400548" y1="142.50000000000003" y2="145.00000000000006" /><path d="M 25.521815274538298 143.00000000000003 a86.0,86.0 0 0,1 -11.493303480769221,-40.785679425670985" fill="none" id="id69" stroke="none" /><text fill="#e1ed5e" style="font-size:6.75px; font-family:Arial;" text-anchor="middle"><textPath startOffset="21.40746469413373" xlink:href="#id69">September</textPath></text><line stroke="#e1ed5e" stroke-width="0.3" x1="15.003131293944662" x2="10.003315487706104" y1="100.72959589197737" y2="100.7725132973878" /><path d="M 14.003168132696942 100.73817937305945 a86.0,86.0 0 0,1 10.791469493833604,-42.45332614584628" fill="none" id="id70" stroke="none" /><text fill="#e1ed5e" style="font-size:6.75px; font-family:Arial;" text-anchor="middle"><textPath startOffset="22.145653131862435" xlink:href="#id70">October</textPath></text><line stroke="#e1ed5e" stroke-width="0.3" x1="26.387840678322718" x2="22.05771365940052" y1="57.49999999999999" y2="54.99999999999999" /><path d="M 25.521815274538284 56.99999999999999 a86.0,86.0 0 0,1 29.574782752854787,-30.34633250058573" fill="none" id="id71" stroke="none" /><text fill="#e1ed5e" style="font-size:6.75px; font-family:Arial;" text-anchor="middle"><textPath startOffset="21.40746469413373" xlink:href="#id71">November</textPath></text><line stroke="#e1ed5e" stroke-width="0.3" x1="56.869717070023135" x2="54.33264160355391" y1="26.7553504044142" y2="22.446841604673864" /><path d="M 56.362301976729285 25.89364864446614 a86.0,86.0 0 0,1 42.16139366436587,-11.88097634709845" fill="none" id="id72" stroke="none" /><text fill="#e1ed5e" style="font-size:6.75px; font-family:Arial;" text-anchor="middle"><textPath startOffset="22.145653131862474" xlink:href="#id72">December</textPath></text></svg>