<?xml version="1.0" encoding="utf-8" ?>
<svg baseProfile="full" height="200mm" version="1.1" viewBox="0,0,200,200" width="200mm" xmlns="http://www.w3.org/2000/svg" xmlns:ev="http://www.w3.org/2001/xml-events" xmlns:xlink="http://www.w3.org/1999/xlink"><defs /><rect fill="#1a1a1a" height="200" width="200" x="0" y="0" /><text alignment-baseline="middle" fill="#e1ed5e" style="dominant-baseline: central; font-size:9.0px; font-family:Arial;" text-anchor="middle" x="100.0" y="100.0">2024</text><line stroke="#e1ed5e" stroke-width="0.3" x1="100.0" x2="100.0" y1="15.0" y2="10.0" /><path d="M 100.0 14.0 a86.0,86.0 0 0,1 42.35913384403234,11.155469271406648" fill="none" id="id61" stroke="none" /><text fill="#e1ed5e" style="font-size:6.75px; font-family:Arial;" text-anchor="middle"><textPath startOffset="22.145653131862478" xlink:href="#id61">January</textPath></text><path d="M 100.0 79.0 l 0.0 -6.835436539523599 a27.8354365395236,27.8354365395236 0 0,0 0.4778322825036927,0.0041016154556766365 l -0.11733935765483794 6.834429322262357" fill="#ff4406" stroke="none" /><path d="M 101.08105385017728 79.02784411241856 l 0.45999327500899134 -8.923746646983135 a29.935594442038887,29.935594442038887 0 0,0 0.5129758443923697,0.03085935296725202 l -0.6131134715338233 8.914535316191191" fill="#ff6109" stroke="none" /><path d="M 101.44090949804482 79.04949213459386 l 0.3621990557389363 -5.266294778678217 a26.278735535325826,26.278735535325826 0 0,0 0.4497805871189502,0.034815862054247554 l -0.45254863763312 5.259301149628916" fill="#ff2d04" stroke="none" /><path d="M 101.80034050326958 79.07731436759882 l 0.8953926024762984 -10.405819290943287 a31.44427130193087,31.44427130193087 0 0,0 0.537398223776338,0.05089217052244581 l -1.0738903896376493 10.388915364915658" fill="#ff760a" stroke="none" /><path d="M 102.15924093988457 79.11130261209362 l 1.0100337252950362 -9.771160063496973 a30.823224374547877,30.823224374547877 0 0,0 0.5258502233477973,0.05892261434472492 l -1.1776198502436301 9.752381688645277" fill="#ff6e0a" stroke="none" /><path d="M 102.51750503828377 79.15144685158666 l 0.5311694703403639 -4.39884519188691 a25.430799028212434,25.430799028212434 0 0,0 0.43295593617257366,0.05605481401735467 l -0.6066032284037293 4.389078781669158" fill="#ff2103" stroke="none" /><path d="M 103.58742460773223 79.30868818359171 l 0.7766966212876869 -4.4797797124922525 a25.546612355807,25.546612355807 0 0,0 0.4314521941923921,0.07862496221063502 l -0.8534835490311327 4.465786576350252" fill="#ff2303" stroke="none" /><path d="M 104.29559338865022 79.4440306129975 l 0.9608592003034705 -4.5980591083981155 a25.69738203333843,25.69738203333843 0 0,0 0.4310277974589529,0.09394050230857927 l -1.0396494143815576 4.580887147955817" fill="#ff2503" stroke="none" /><path d="M 104.9986988182912 79.60360301121754 l 1.9902981617763635 -8.12109569096064 a29.361428226954402,29.361428226954402 0 0,0 0.4885108383733505,0.12417754480773252 l -2.1294142933751083 8.085732914317639" fill="#ff5908" stroke="none" /><path d="M 106.04205211174951 79.88797359093562 l 1.232705148859377 -4.103274524931353 a25.284439731280514,25.284439731280514 0 0,0 0.4146158887647223,0.12844906218715232 l -1.3029616704957294 4.081508874937555" fill="#ff1f03" stroke="none" /><path d="M 106.38641147887787 79.99465700312896 l 1.3584501826747573 -4.255325849023689 a25.46689881015658,25.46689881015658 0 0,0 0.4153254183383044,0.1365257144188277 l -1.431298338660804 4.231379213202839" fill="#ff2103" stroke="none" /><path d="M 106.72888874123014 80.10723608172694 l 2.0863897599538133 -6.168040598138361 a27.511355239174343,27.511355239174343 0 0,0 0.4460694124837099,0.1551660969852443 l -2.1919649444825415 6.131316068584526" fill="#ff3f05" stroke="none" /><path d="M 108.4095320186766 80.7573450057729 l 2.218420421654668 -5.076180067005255 a26.539764727845032,26.539764727845032 0 0,0 0.4158990887285074,0.18602637236541833 l -2.305232913238807 5.037349943729983" fill="#ff3104" stroke="none" /><path d="M 108.73861861582097 80.90454125486305 l 1.8829172887193544 -4.114514088319403 a25.524887147668668,25.524887147668668 0 0,0 0.3968649395652375,0.18575283060207526 l -1.953270942156097 4.0815850261467945" fill="#ff2203" stroke="none" /><path d="M 109.06512990194946 81.05736502329252 l 4.042137711963405 -8.446513180891126 a30.363891402480288,30.363891402480288 0 0,0 0.4682397630101372,0.22903953188200624 l -4.18653772423561 8.375879898911897" fill="#ff6709" stroke="none" /><line stroke="#e1ed5e" stroke-width="0.3" x1="143.13028292997686" x2="145.6673583964461" y1="26.7553504044142" y2="22.446841604673864" /><path d="M 143.63769802327073 25.89364864446614 a86.0,86.0 0 0,1 29.32050498858742,28.57503671076993" fill="none" id="id62" stroke="none" /><text fill="#e1ed5e" style="font-size:6.75px; font-family:Arial;" text-anchor="middle"><textPath startOffset="20.669276256404974" xlink:href="#id62">February</textPath></text><path d="M 113.86319453409587 84.22622945171908 l 1.4556532187151578 -1.6562661523220819 a23.205026952325888,23.205026952325888 0 0,0 0.29695249026648307,0.26553674789620935 l -1.4838707358050163 1.6310338745424855" fill="#ff0000" stroke="none" /><path d="M 114.65682725009322 84.96080404539774 l 3.1912946843474996 -3.274549483857591 a25.572421249685622,25.572421249685622 0 0,0 0.31174983151236957,0.30908531904874365 l -3.2470364359898314 3.219284154580188" fill="#ff2303" stroke="none" /><path d="M 115.6541949942343 86.00192230759917 l 3.4843157150081114 -3.1156965977171516 a25.674186698333596,25.674186698333596 0 0,0 0.29096058933642516,0.3310597397661538 l -3.5372873683031267 3.0554245801397" fill="#ff2403" stroke="none" /><path d="M 116.1254893667686 86.54754324733833 l 3.0600219242717697 -2.5527791226785945 a24.9850238928026,24.9850238928026 0 0,0 0.27192412771899627,0.3317032215724736 l -3.1033928712293934 2.4998736194076256" fill="#ff1a02" stroke="none" /><path d="M 116.35404254752997 86.82634096563983 l 3.781926137959085 -3.046451988235312 a25.85631908235044,25.85631908235044 0 0,0 0.275472693274525,0.34805074896946653 l -3.8336652618751694 2.9810812953511676" fill="#ff2703" stroke="none" /><path d="M 116.7966241395341 87.39550010848427 l 8.71054782099252 -6.536557474446658 a31.890373132199926,31.890373132199926 0 0,0 0.32482316227122804,0.44068500371551445 l -8.821473002847574 6.386066161462269" fill="#ff7c0b" stroke="none" /><line stroke="#e1ed5e" stroke-width="0.3" x1="172.87174338648825" x2="177.1583165268699" y1="56.24261187166439" y2="53.66864786411523" /><path d="M 173.72905801456457 55.72781907015455 a86.0,86.0 0 0,1 12.242430191666344,42.057860355516425" fill="none" id="id63" stroke="none" /><text fill="#e1ed5e" style="font-size:6.75px; font-family:Arial;" text-anchor="middle"><textPath startOffset="22.145653131862474" xlink:href="#id63">March</textPath></text><path d="M 118.00360718960297 89.18935116829356 l 4.019432123096427 -2.4135535022542327 a25.688397924709797,25.688397924709797 0 0,0 0.22376587262273037,0.38000337160577746 l -4.060271705848926 2.344198962354899" fill="#ff2503" stroke="none" /><path d="M 118.53625476483649 90.13048839642627 l 4.112252266623724 -2.18954270844708 a25.658832039950113,25.658832039950113 0 0,0 0.2036723933612784,0.3905686694819393 l -4.149232728959947 2.1186277958606423" fill="#ff2403" stroke="none" /><path d="M 118.70294669586156 90.45014215332178 l 4.460559752555693 -2.2775935924014994 a26.008395539318762,26.008395539318762 0 0,0 0.19962073572623193,0.399375192082053 l -4.499000401493662 2.2006865441556958" fill="#ff2904" stroke="none" /><path d="M 119.16976305983485 91.42560881287824 l 5.614179197050218 -2.5111509453640806 a27.150194072303275,27.150194072303275 0 0,0 0.18664610098591847,0.4270828054775556 l -5.6564591800531066 2.4144060701106755" fill="#ff3a05" stroke="none" /><path d="M 119.31412917781788 91.75594674310238 l 15.319357854771864 -6.538922922875505 a37.656537397486524,37.656537397486524 0 0,0 0.24866612006079908,0.5967081644234412 l -15.429349819369145 6.274982249010786" fill="#ffc912" stroke="none" /><path d="M 120.05942366710727 93.78553927170692 l 4.188501654889619 -1.2976085194004845 a25.3848984004916,25.3848984004916 0 0,0 0.12538167040157253,0.41735480258855906 l -4.2101596452948185 1.225516113221202" fill="#ff2003" stroke="none" /><path d="M 120.16314734710363 94.1308016681162 l 60.48944204131091 -17.607594995651397 a84.0,84.0 0 0,0 0.3911260317016718,1.3879683043879474 l -60.782786565087164 16.56661876736044" fill="#4dd2ff" stroke="none" /><path d="M 120.43855184770803 95.1765574152323 l 5.0215496640620545 -1.1850720477477972 a26.159491911709416,26.159491911709416 0 0,0 0.09939253912973756,0.43794186655984646 l -5.041153064749459 1.0986958472489243" fill="#ff2b04" stroke="none" /><path d="M 120.77682067341334 96.94652285012252 l 46.74562435787184 -6.869997006624228 a68.24775397284284,68.24775397284284 0 0,0 0.16040004244526537,1.1605748039422017 l -46.856668916872316 6.066533894481941" fill="#39ff8a" stroke="none" /><line stroke="#e1ed5e" stroke-width="0.3" x1="184.99686870605535" x2="189.99668451229388" y1="99.2704041080226" y2="99.22748670261217" /><path d="M 185.99683186730306 99.26182062694052 a86.0,86.0 0 0,1 -10.086455211305974,41.156179273409016" fill="none" id="id64" stroke="none" /><text fill="#e1ed5e" style="font-size:6.75px; font-family:Arial;" text-anchor="middle"><textPath startOffset="21.40746469413373" xlink:href="#id64">April</textPath></text><path d="M 120.99922638620191 99.81974689727618 l 4.3618690686121635 -0.03744139992743051 a25.362029760345987,25.362029760345987 0 0,0 0.0,0.43538900530251423 l -4.3618690686121635 -0.03744139992742997" fill="#ff2003" stroke="none" /><path d="M 120.99303781780057 100.54070618675476 l 6.7753645510371125 0.1745093569620615 a27.77761154944112,27.77761154944112 0 0,0 -0.01636936368592214,0.47657616317310675 l -6.771370500354345 -0.2907917846992789" fill="#ff4306" stroke="none" /><line stroke="#e1ed5e" stroke-width="0.3" x1="174.33088141563837" x2="178.70328620479359" y1="141.23008692659167" y2="143.65538615756765" /><path d="M 175.20536237346943 141.71514677278685 a86.0,86.0 0 0,1 -30.301960400862466,31.631185727798858" fill="none" id="id65" stroke="none" /><text fill="#e1ed5e" style="font-size:6.75px; font-family:Arial;" text-anchor="middle"><textPath startOffset="22.145653131862474" xlink:href="#id65">May</textPath></text><line stroke="#e1ed5e" stroke-width="0.3" x1="143.1302829299769" x2="145.66735839644613" y1="173.24464959558577" y2="177.55315839532614" /><path d="M 143.63769802327073 174.10635135553383 a86.0,86.0 0 0,1 -40.68552437913181,11.842963189579606" fill="none" id="id66" stroke="none" /><text fill="#e1ed5e" style="font-size:6.75px; font-family:Arial;" text-anchor="middle"><textPath startOffset="21.407464694133747" xlink:href="#id66">June</textPath></text><line stroke="#e1ed5e" stroke-width="0.3" x1="101.45913802915013" x2="101.54496967792366" y1="184.9874750549273" y2="189.98673829345242" /><path d="M 101.47630435890484 185.9873277026323 a86.0,86.0 0 0,1 -42.54439059252881,-10.42667462771756" fill="none" id="id67" stroke="none" /><text fill="#e1ed5e" style="font-size:6.75px; font-family:Arial;" text-anchor="middle"><textPath startOffset="22.145653131862474" xlink:href="#id67">July</textPath></text><line stroke="#e1ed5e" stroke-width="0.3" x1="58.13341422392154" x2="55.67067388415222" y1="173.97424548756322" y2="178.32567169271397" /><path d="M 57.64086615596768 174.84453072859336 a86.0,86.0 0 0,1 -31.369924170532247,-30.572349798747897" fill="none" id="id68" stroke="none" /><text fill="#e1ed5e" style="font-size:6.75px; font-family:Arial;" text-anchor="middle"><textPath startOffset="22.145653131862474" xlink:href="#id68">August</textPath></text><line stroke="#e1ed5e" stroke-width="0.3" x1="26.387840678322732" x2="22.057713659400548" y1="142.50000000000003" y2="145.00000000000006" /><path d="M 25.521815274538298 143.00000000000003 a86.0,86.0 0 0,1 -11.493303480769221,-40.785679425670985" fill="none" id="id69" stroke="none" /><text fill="#e1ed5e" style="font-size:6.75px; font-family:Arial;" text-anchor="middle"><textPath startOffset="21.40746469413373" xlink:href="#id69">September</textPath></text><line stroke="#e1ed5e" stroke-width="0.3" x1="15.003131293944662" x2="10.003315487706104" y1="100.72959589197737" y2="100.7725132973878" /><path d="M 14.003168132696942 100.73817937305945 a86.0,86.0 0 0,1 10.791469493833604,-42.45332614584628" fill="none" id="id70" stroke="none" /><text fill="#e1ed5e" style="font-size:6.75px; font-family:Arial;" text-anchor="middle"><textPath startOffset="22.145653131862435" xlink:href="#id70">October</textPath></text><line stroke="#e1ed5e" stroke-width="0.3" x1="26.387840678322718" x2="22.05771365940052" y1="57.49999999999999" y2="54.99999999999999" /><path d="M 25.521815274538284 56.99999999999999 a86.0,86.0 0 0,1 29.574782752854787,-30.34633250058573" fill="none" id="id71" stroke="none" /><text fill="#e1ed5e" style="font-size:6.75px; font-family:Arial;" text-anchor="middle"><textPath startOffset="21.40746469413373" xlink:href="#id71">November</textPath></text><line stroke="#e1ed5e" stroke-width="0.3" x1="56.869717070023135" x2="54.33264160355391" y1="26.7553504044142" y2="22.446841604673864" /><path d="M 56.362301976729285 25.89364864446614 a86.0,86.0 0 0,1 42.16139366436587,-11.88097634709845" fill="none" id="id72" stroke="none" /><text fill="#e1ed5e" style="font-size:6.75px; font-family:Arial;" text-anchor="middle"><textPath startOffset="22.145653131862474" xlink:href="#id72">December</textPath></text></svg>